  0
SECTION
  2
HEADER
  9
$ACADVER
  1
AC1009
  9
$FILLMODE
 70
 0
  9
$SPLFRAME
 70
 1
  9
$EXTMIN
 10
0
 20
0
 30
0.0
  9
$EXTMAX
 10
1058.33
 20
1058.33
 30
0.0
  0
ENDSEC
  0
SECTION
  2
TABLES
  0
TABLE
  2
LAYER
 70
1
  0
LAYER
  2
0
 70
     0
 62
     7
  6
CONTINUOUS
  0
ENDTAB
  0
ENDSEC
  0
SECTION
  2
ENTITIES
  0
LINE
  8
0
 62
     0
 10
0.0950846
 20
81.3964
 30
0.0
 11
271.558
 21
81.3964
 31
0.0
  0
LINE
  8
0
 62
     0
 10
271.558
 20
81.3964
 30
0.0
 11
271.558
 21
0.434082
 31
0.0
  0
LINE
  8
0
 62
     0
 10
271.558
 20
0.434082
 30
0.0
 11
0.0950846
 21
0.434082
 31
0.0
  0
LINE
  8
0
 62
     0
 10
0.0950846
 20
0.434082
 30
0.0
 11
0.0950846
 21
81.3964
 31
0.0
  0
LINE
  8
0
 62
     0
 10
216.932
 20
16.9595
 30
0.0
 11
230.932
 21
16.9595
 31
0.0
  0
LINE
  8
0
 62
     0
 10
230.932
 20
16.9595
 30
0.0
 11
230.932
 21
2.96003
 31
0.0
  0
LINE
  8
0
 62
     0
 10
230.932
 20
2.96003
 30
0.0
 11
216.932
 21
2.96003
 31
0.0
  0
LINE
  8
0
 62
     0
 10
216.932
 20
2.96003
 30
0.0
 11
216.932
 21
16.9595
 31
0.0
  0
LINE
  8
0
 62
     0
 10
235.982
 20
16.9595
 30
0.0
 11
249.982
 21
16.9595
 31
0.0
  0
LINE
  8
0
 62
     0
 10
249.982
 20
16.9595
 30
0.0
 11
249.982
 21
2.96003
 31
0.0
  0
LINE
  8
0
 62
     0
 10
249.982
 20
2.96003
 30
0.0
 11
235.982
 21
2.96003
 31
0.0
  0
LINE
  8
0
 62
     0
 10
235.982
 20
2.96003
 30
0.0
 11
235.982
 21
16.9595
 31
0.0
  0
LINE
  8
0
 62
     0
 10
255.032
 20
16.9595
 30
0.0
 11
269.032
 21
16.9595
 31
0.0
  0
LINE
  8
0
 62
     0
 10
269.032
 20
16.9595
 30
0.0
 11
269.032
 21
2.96003
 31
0.0
  0
LINE
  8
0
 62
     0
 10
269.032
 20
2.96003
 30
0.0
 11
255.032
 21
2.96003
 31
0.0
  0
LINE
  8
0
 62
     0
 10
255.032
 20
2.96003
 30
0.0
 11
255.032
 21
16.9595
 31
0.0
  0
LINE
  8
0
 62
     0
 10
116.918
 20
21.722
 30
0.0
 11
116.918
 21
17.0215
 31
0.0
  0
LINE
  8
0
 62
     0
 10
116.918
 20
17.0215
 30
0.0
 11
70.1435
 21
17.0215
 31
0.0
  0
LINE
  8
0
 62
     0
 10
70.1435
 20
17.0215
 30
0.0
 11
70.1435
 21
20.2517
 31
0.0
  0
LINE
  8
0
 62
     0
 10
70.1435
 20
20.2517
 30
0.0
 11
63.3938
 21
20.2517
 31
0.0
  0
LINE
  8
0
 62
     0
 10
63.3938
 20
20.2517
 30
0.0
 11
63.3938
 21
17.0215
 31
0.0
  0
LINE
  8
0
 62
     0
 10
63.3938
 20
17.0215
 30
0.0
 11
62.5697
 21
17.0215
 31
0.0
  0
LINE
  8
0
 62
     0
 10
62.5697
 20
17.0215
 30
0.0
 11
62.5697
 21
14.2227
 31
0.0
  0
LINE
  8
0
 62
     0
 10
62.5697
 20
14.2227
 30
0.0
 11
63.3938
 21
14.2227
 31
0.0
  0
LINE
  8
0
 62
     0
 10
63.3938
 20
14.2227
 30
0.0
 11
63.3938
 21
7.95267
 31
0.0
  0
LINE
  8
0
 62
     0
 10
63.3938
 20
7.95267
 30
0.0
 11
65.1178
 21
7.95267
 31
0.0
  0
LINE
  8
0
 62
     0
 10
65.1178
 20
7.95267
 30
0.0
 11
65.1178
 21
6.75238
 31
0.0
  0
LINE
  8
0
 62
     0
 10
65.1178
 20
6.75238
 30
0.0
 11
68.4181
 21
6.75238
 31
0.0
  0
LINE
  8
0
 62
     0
 10
68.4181
 20
6.75238
 30
0.0
 11
68.4181
 21
7.95267
 31
0.0
  0
LINE
  8
0
 62
     0
 10
68.4181
 20
7.95267
 30
0.0
 11
70.1435
 21
7.95267
 31
0.0
  0
LINE
  8
0
 62
     0
 10
70.1435
 20
7.95267
 30
0.0
 11
70.1435
 21
12.4216
 31
0.0
  0
LINE
  8
0
 62
     0
 10
70.1435
 20
12.4216
 30
0.0
 11
116.918
 21
12.4216
 31
0.0
  0
LINE
  8
0
 62
     0
 10
116.918
 20
12.4216
 30
0.0
 11
116.918
 21
7.72252
 31
0.0
  0
LINE
  8
0
 62
     0
 10
116.918
 20
7.72252
 30
0.0
 11
130.919
 21
7.72252
 31
0.0
  0
LINE
  8
0
 62
     0
 10
130.919
 20
7.72252
 30
0.0
 11
130.919
 21
12.4216
 31
0.0
  0
LINE
  8
0
 62
     0
 10
130.919
 20
12.4216
 30
0.0
 11
177.694
 21
12.4216
 31
0.0
  0
LINE
  8
0
 62
     0
 10
177.694
 20
12.4216
 30
0.0
 11
177.694
 21
7.95267
 31
0.0
  0
LINE
  8
0
 62
     0
 10
177.694
 20
7.95267
 30
0.0
 11
179.419
 21
7.95267
 31
0.0
  0
LINE
  8
0
 62
     0
 10
179.419
 20
7.95267
 30
0.0
 11
179.419
 21
6.75238
 31
0.0
  0
LINE
  8
0
 62
     0
 10
179.419
 20
6.75238
 30
0.0
 11
182.719
 21
6.75238
 31
0.0
  0
LINE
  8
0
 62
     0
 10
182.719
 20
6.75238
 30
0.0
 11
182.719
 21
7.95267
 31
0.0
  0
LINE
  8
0
 62
     0
 10
182.719
 20
7.95267
 30
0.0
 11
184.445
 21
7.95267
 31
0.0
  0
LINE
  8
0
 62
     0
 10
184.445
 20
7.95267
 30
0.0
 11
184.445
 21
14.2227
 31
0.0
  0
LINE
  8
0
 62
     0
 10
184.445
 20
14.2227
 30
0.0
 11
185.269
 21
14.2227
 31
0.0
  0
LINE
  8
0
 62
     0
 10
185.269
 20
14.2227
 30
0.0
 11
185.269
 21
17.0215
 31
0.0
  0
LINE
  8
0
 62
     0
 10
185.269
 20
17.0215
 30
0.0
 11
184.445
 21
17.0215
 31
0.0
  0
LINE
  8
0
 62
     0
 10
184.445
 20
17.0215
 30
0.0
 11
184.445
 21
20.2517
 31
0.0
  0
LINE
  8
0
 62
     0
 10
184.445
 20
20.2517
 30
0.0
 11
177.694
 21
20.2517
 31
0.0
  0
LINE
  8
0
 62
     0
 10
177.694
 20
20.2517
 30
0.0
 11
177.694
 21
17.0215
 31
0.0
  0
LINE
  8
0
 62
     0
 10
177.694
 20
17.0215
 30
0.0
 11
130.919
 21
17.0215
 31
0.0
  0
LINE
  8
0
 62
     0
 10
130.919
 20
17.0215
 30
0.0
 11
130.919
 21
21.722
 31
0.0
  0
LINE
  8
0
 62
     0
 10
130.919
 20
21.722
 30
0.0
 11
116.918
 21
21.722
 31
0.0
  0
LINE
  8
0
 62
     0
 10
16.9072
 20
21.722
 30
0.0
 11
30.9066
 21
21.722
 31
0.0
  0
LINE
  8
0
 62
     0
 10
30.9066
 20
21.722
 30
0.0
 11
30.9066
 21
7.72252
 31
0.0
  0
LINE
  8
0
 62
     0
 10
30.9066
 20
7.72252
 30
0.0
 11
16.9072
 21
7.72252
 31
0.0
  0
LINE
  8
0
 62
     0
 10
16.9072
 20
7.72252
 30
0.0
 11
16.9072
 21
21.722
 31
0.0
  0
LINE
  8
0
 62
     0
 10
38.3371
 20
21.722
 30
0.0
 11
52.3378
 21
21.722
 31
0.0
  0
LINE
  8
0
 62
     0
 10
52.3378
 20
21.722
 30
0.0
 11
52.3378
 21
7.72252
 31
0.0
  0
LINE
  8
0
 62
     0
 10
52.3378
 20
7.72252
 30
0.0
 11
38.3371
 21
7.72252
 31
0.0
  0
LINE
  8
0
 62
     0
 10
38.3371
 20
7.72252
 30
0.0
 11
38.3371
 21
21.722
 31
0.0
  0
LINE
  8
0
 62
     0
 10
193.118
 20
21.722
 30
0.0
 11
207.119
 21
21.722
 31
0.0
  0
LINE
  8
0
 62
     0
 10
207.119
 20
21.722
 30
0.0
 11
207.119
 21
7.72252
 31
0.0
  0
LINE
  8
0
 62
     0
 10
207.119
 20
7.72252
 30
0.0
 11
193.118
 21
7.72252
 31
0.0
  0
LINE
  8
0
 62
     0
 10
193.118
 20
7.72252
 30
0.0
 11
193.118
 21
21.722
 31
0.0
  0
LINE
  8
0
 62
     0
 10
235.982
 20
36.0094
 30
0.0
 11
249.982
 21
36.0094
 31
0.0
  0
LINE
  8
0
 62
     0
 10
249.982
 20
36.0094
 30
0.0
 11
249.982
 21
22.01
 31
0.0
  0
LINE
  8
0
 62
     0
 10
249.982
 20
22.01
 30
0.0
 11
235.982
 21
22.01
 31
0.0
  0
LINE
  8
0
 62
     0
 10
235.982
 20
22.01
 30
0.0
 11
235.982
 21
36.0094
 31
0.0
  0
LINE
  8
0
 62
     0
 10
5.00091
 20
40.7719
 30
0.0
 11
19.0004
 21
40.7719
 31
0.0
  0
LINE
  8
0
 62
     0
 10
19.0004
 20
40.7719
 30
0.0
 11
19.0004
 21
26.7725
 31
0.0
  0
LINE
  8
0
 62
     0
 10
19.0004
 20
26.7725
 30
0.0
 11
5.00091
 21
26.7725
 31
0.0
  0
LINE
  8
0
 62
     0
 10
5.00091
 20
26.7725
 30
0.0
 11
5.00091
 21
40.7719
 31
0.0
  0
LINE
  8
0
 62
     0
 10
26.4322
 20
40.7719
 30
0.0
 11
40.4315
 21
40.7719
 31
0.0
  0
LINE
  8
0
 62
     0
 10
40.4315
 20
40.7719
 30
0.0
 11
40.4315
 21
26.7725
 31
0.0
  0
LINE
  8
0
 62
     0
 10
40.4315
 20
26.7725
 30
0.0
 11
26.4322
 21
26.7725
 31
0.0
  0
LINE
  8
0
 62
     0
 10
26.4322
 20
26.7725
 30
0.0
 11
26.4322
 21
40.7719
 31
0.0
  0
LINE
  8
0
 62
     0
 10
45.4822
 20
40.7719
 30
0.0
 11
59.4815
 21
40.7719
 31
0.0
  0
LINE
  8
0
 62
     0
 10
59.4815
 20
40.7719
 30
0.0
 11
59.4815
 21
26.7725
 31
0.0
  0
LINE
  8
0
 62
     0
 10
59.4815
 20
26.7725
 30
0.0
 11
45.4822
 21
26.7725
 31
0.0
  0
LINE
  8
0
 62
     0
 10
45.4822
 20
26.7725
 30
0.0
 11
45.4822
 21
40.7719
 31
0.0
  0
LINE
  8
0
 62
     0
 10
64.5322
 20
40.7719
 30
0.0
 11
78.5315
 21
40.7719
 31
0.0
  0
LINE
  8
0
 62
     0
 10
78.5315
 20
40.7719
 30
0.0
 11
78.5315
 21
26.7725
 31
0.0
  0
LINE
  8
0
 62
     0
 10
78.5315
 20
26.7725
 30
0.0
 11
64.5322
 21
26.7725
 31
0.0
  0
LINE
  8
0
 62
     0
 10
64.5322
 20
26.7725
 30
0.0
 11
64.5322
 21
40.7719
 31
0.0
  0
LINE
  8
0
 62
     0
 10
83.5822
 20
40.7719
 30
0.0
 11
97.5815
 21
40.7719
 31
0.0
  0
LINE
  8
0
 62
     0
 10
97.5815
 20
40.7719
 30
0.0
 11
97.5815
 21
26.7725
 31
0.0
  0
LINE
  8
0
 62
     0
 10
97.5815
 20
26.7725
 30
0.0
 11
83.5822
 21
26.7725
 31
0.0
  0
LINE
  8
0
 62
     0
 10
83.5822
 20
26.7725
 30
0.0
 11
83.5822
 21
40.7719
 31
0.0
  0
LINE
  8
0
 62
     0
 10
102.632
 20
40.7719
 30
0.0
 11
116.632
 21
40.7719
 31
0.0
  0
LINE
  8
0
 62
     0
 10
116.632
 20
40.7719
 30
0.0
 11
116.632
 21
26.7725
 31
0.0
  0
LINE
  8
0
 62
     0
 10
116.632
 20
26.7725
 30
0.0
 11
102.632
 21
26.7725
 31
0.0
  0
LINE
  8
0
 62
     0
 10
102.632
 20
26.7725
 30
0.0
 11
102.632
 21
40.7719
 31
0.0
  0
LINE
  8
0
 62
     0
 10
121.682
 20
40.7719
 30
0.0
 11
135.682
 21
40.7719
 31
0.0
  0
LINE
  8
0
 62
     0
 10
135.682
 20
40.7719
 30
0.0
 11
135.682
 21
26.7725
 31
0.0
  0
LINE
  8
0
 62
     0
 10
135.682
 20
26.7725
 30
0.0
 11
121.682
 21
26.7725
 31
0.0
  0
LINE
  8
0
 62
     0
 10
121.682
 20
26.7725
 30
0.0
 11
121.682
 21
40.7719
 31
0.0
  0
LINE
  8
0
 62
     0
 10
140.732
 20
40.7719
 30
0.0
 11
154.732
 21
40.7719
 31
0.0
  0
LINE
  8
0
 62
     0
 10
154.732
 20
40.7719
 30
0.0
 11
154.732
 21
26.7725
 31
0.0
  0
LINE
  8
0
 62
     0
 10
154.732
 20
26.7725
 30
0.0
 11
140.732
 21
26.7725
 31
0.0
  0
LINE
  8
0
 62
     0
 10
140.732
 20
26.7725
 30
0.0
 11
140.732
 21
40.7719
 31
0.0
  0
LINE
  8
0
 62
     0
 10
159.782
 20
40.7719
 30
0.0
 11
173.782
 21
40.7719
 31
0.0
  0
LINE
  8
0
 62
     0
 10
173.782
 20
40.7719
 30
0.0
 11
173.782
 21
26.7725
 31
0.0
  0
LINE
  8
0
 62
     0
 10
173.782
 20
26.7725
 30
0.0
 11
159.782
 21
26.7725
 31
0.0
  0
LINE
  8
0
 62
     0
 10
159.782
 20
26.7725
 30
0.0
 11
159.782
 21
40.7719
 31
0.0
  0
LINE
  8
0
 62
     0
 10
178.832
 20
40.7719
 30
0.0
 11
192.832
 21
40.7719
 31
0.0
  0
LINE
  8
0
 62
     0
 10
192.832
 20
40.7719
 30
0.0
 11
192.832
 21
26.7725
 31
0.0
  0
LINE
  8
0
 62
     0
 10
192.832
 20
26.7725
 30
0.0
 11
178.832
 21
26.7725
 31
0.0
  0
LINE
  8
0
 62
     0
 10
178.832
 20
26.7725
 30
0.0
 11
178.832
 21
40.7719
 31
0.0
  0
LINE
  8
0
 62
     0
 10
205.026
 20
40.7719
 30
0.0
 11
219.025
 21
40.7719
 31
0.0
  0
LINE
  8
0
 62
     0
 10
219.025
 20
40.7719
 30
0.0
 11
219.025
 21
26.7725
 31
0.0
  0
LINE
  8
0
 62
     0
 10
219.025
 20
26.7725
 30
0.0
 11
205.026
 21
26.7725
 31
0.0
  0
LINE
  8
0
 62
     0
 10
205.026
 20
26.7725
 30
0.0
 11
205.026
 21
40.7719
 31
0.0
  0
LINE
  8
0
 62
     0
 10
219.312
 20
59.8219
 30
0.0
 11
219.312
 21
55.1215
 31
0.0
  0
LINE
  8
0
 62
     0
 10
219.312
 20
55.1215
 30
0.0
 11
217.788
 21
55.1215
 31
0.0
  0
LINE
  8
0
 62
     0
 10
217.788
 20
55.1215
 30
0.0
 11
217.788
 21
58.3516
 31
0.0
  0
LINE
  8
0
 62
     0
 10
217.788
 20
58.3516
 30
0.0
 11
211.037
 21
58.3516
 31
0.0
  0
LINE
  8
0
 62
     0
 10
211.037
 20
58.3516
 30
0.0
 11
211.037
 21
55.1215
 31
0.0
  0
LINE
  8
0
 62
     0
 10
211.037
 20
55.1215
 30
0.0
 11
210.213
 21
55.1215
 31
0.0
  0
LINE
  8
0
 62
     0
 10
210.213
 20
55.1215
 30
0.0
 11
210.213
 21
52.3226
 31
0.0
  0
LINE
  8
0
 62
     0
 10
210.213
 20
52.3226
 30
0.0
 11
211.037
 21
52.3226
 31
0.0
  0
LINE
  8
0
 62
     0
 10
211.037
 20
52.3226
 30
0.0
 11
211.037
 21
46.0527
 31
0.0
  0
LINE
  8
0
 62
     0
 10
211.037
 20
46.0527
 30
0.0
 11
212.762
 21
46.0527
 31
0.0
  0
LINE
  8
0
 62
     0
 10
212.762
 20
46.0527
 30
0.0
 11
212.762
 21
44.8525
 31
0.0
  0
LINE
  8
0
 62
     0
 10
212.762
 20
44.8525
 30
0.0
 11
216.063
 21
44.8525
 31
0.0
  0
LINE
  8
0
 62
     0
 10
216.063
 20
44.8525
 30
0.0
 11
216.063
 21
46.0527
 31
0.0
  0
LINE
  8
0
 62
     0
 10
216.063
 20
46.0527
 30
0.0
 11
217.788
 21
46.0527
 31
0.0
  0
LINE
  8
0
 62
     0
 10
217.788
 20
46.0527
 30
0.0
 11
217.788
 21
50.5217
 31
0.0
  0
LINE
  8
0
 62
     0
 10
217.788
 20
50.5217
 30
0.0
 11
219.312
 21
50.5217
 31
0.0
  0
LINE
  8
0
 62
     0
 10
219.312
 20
50.5217
 30
0.0
 11
219.312
 21
45.8227
 31
0.0
  0
LINE
  8
0
 62
     0
 10
219.312
 20
45.8227
 30
0.0
 11
233.313
 21
45.8227
 31
0.0
  0
LINE
  8
0
 62
     0
 10
233.313
 20
45.8227
 30
0.0
 11
233.313
 21
50.5217
 31
0.0
  0
LINE
  8
0
 62
     0
 10
233.313
 20
50.5217
 30
0.0
 11
234.837
 21
50.5217
 31
0.0
  0
LINE
  8
0
 62
     0
 10
234.837
 20
50.5217
 30
0.0
 11
234.837
 21
46.0527
 31
0.0
  0
LINE
  8
0
 62
     0
 10
234.837
 20
46.0527
 30
0.0
 11
236.562
 21
46.0527
 31
0.0
  0
LINE
  8
0
 62
     0
 10
236.562
 20
46.0527
 30
0.0
 11
236.562
 21
44.8525
 31
0.0
  0
LINE
  8
0
 62
     0
 10
236.562
 20
44.8525
 30
0.0
 11
239.863
 21
44.8525
 31
0.0
  0
LINE
  8
0
 62
     0
 10
239.863
 20
44.8525
 30
0.0
 11
239.863
 21
46.0527
 31
0.0
  0
LINE
  8
0
 62
     0
 10
239.863
 20
46.0527
 30
0.0
 11
241.588
 21
46.0527
 31
0.0
  0
LINE
  8
0
 62
     0
 10
241.588
 20
46.0527
 30
0.0
 11
241.588
 21
52.3226
 31
0.0
  0
LINE
  8
0
 62
     0
 10
241.588
 20
52.3226
 30
0.0
 11
242.412
 21
52.3226
 31
0.0
  0
LINE
  8
0
 62
     0
 10
242.412
 20
52.3226
 30
0.0
 11
242.412
 21
55.1215
 31
0.0
  0
LINE
  8
0
 62
     0
 10
242.412
 20
55.1215
 30
0.0
 11
241.588
 21
55.1215
 31
0.0
  0
LINE
  8
0
 62
     0
 10
241.588
 20
55.1215
 30
0.0
 11
241.588
 21
58.3516
 31
0.0
  0
LINE
  8
0
 62
     0
 10
241.588
 20
58.3516
 30
0.0
 11
234.837
 21
58.3516
 31
0.0
  0
LINE
  8
0
 62
     0
 10
234.837
 20
58.3516
 30
0.0
 11
234.837
 21
55.1215
 31
0.0
  0
LINE
  8
0
 62
     0
 10
234.837
 20
55.1215
 30
0.0
 11
233.313
 21
55.1215
 31
0.0
  0
LINE
  8
0
 62
     0
 10
233.313
 20
55.1215
 30
0.0
 11
233.313
 21
59.8219
 31
0.0
  0
LINE
  8
0
 62
     0
 10
233.313
 20
59.8219
 30
0.0
 11
219.312
 21
59.8219
 31
0.0
  0
LINE
  8
0
 62
     0
 10
9.76203
 20
59.8219
 30
0.0
 11
23.7629
 21
59.8219
 31
0.0
  0
LINE
  8
0
 62
     0
 10
23.7629
 20
59.8219
 30
0.0
 11
23.7629
 21
45.8227
 31
0.0
  0
LINE
  8
0
 62
     0
 10
23.7629
 20
45.8227
 30
0.0
 11
9.76203
 21
45.8227
 31
0.0
  0
LINE
  8
0
 62
     0
 10
9.76203
 20
45.8227
 30
0.0
 11
9.76203
 21
59.8219
 31
0.0
  0
LINE
  8
0
 62
     0
 10
35.9572
 20
59.8219
 30
0.0
 11
49.9565
 21
59.8219
 31
0.0
  0
LINE
  8
0
 62
     0
 10
49.9565
 20
59.8219
 30
0.0
 11
49.9565
 21
45.8227
 31
0.0
  0
LINE
  8
0
 62
     0
 10
49.9565
 20
45.8227
 30
0.0
 11
35.9572
 21
45.8227
 31
0.0
  0
LINE
  8
0
 62
     0
 10
35.9572
 20
45.8227
 30
0.0
 11
35.9572
 21
59.8219
 31
0.0
  0
LINE
  8
0
 62
     0
 10
55.0072
 20
59.8219
 30
0.0
 11
69.0065
 21
59.8219
 31
0.0
  0
LINE
  8
0
 62
     0
 10
69.0065
 20
59.8219
 30
0.0
 11
69.0065
 21
45.8227
 31
0.0
  0
LINE
  8
0
 62
     0
 10
69.0065
 20
45.8227
 30
0.0
 11
55.0072
 21
45.8227
 31
0.0
  0
LINE
  8
0
 62
     0
 10
55.0072
 20
45.8227
 30
0.0
 11
55.0072
 21
59.8219
 31
0.0
  0
LINE
  8
0
 62
     0
 10
74.0572
 20
59.8219
 30
0.0
 11
88.0565
 21
59.8219
 31
0.0
  0
LINE
  8
0
 62
     0
 10
88.0565
 20
59.8219
 30
0.0
 11
88.0565
 21
45.8227
 31
0.0
  0
LINE
  8
0
 62
     0
 10
88.0565
 20
45.8227
 30
0.0
 11
74.0572
 21
45.8227
 31
0.0
  0
LINE
  8
0
 62
     0
 10
74.0572
 20
45.8227
 30
0.0
 11
74.0572
 21
59.8219
 31
0.0
  0
LINE
  8
0
 62
     0
 10
93.1072
 20
59.8219
 30
0.0
 11
107.107
 21
59.8219
 31
0.0
  0
LINE
  8
0
 62
     0
 10
107.107
 20
59.8219
 30
0.0
 11
107.107
 21
45.8227
 31
0.0
  0
LINE
  8
0
 62
     0
 10
107.107
 20
45.8227
 30
0.0
 11
93.1072
 21
45.8227
 31
0.0
  0
LINE
  8
0
 62
     0
 10
93.1072
 20
45.8227
 30
0.0
 11
93.1072
 21
59.8219
 31
0.0
  0
LINE
  8
0
 62
     0
 10
112.157
 20
59.8219
 30
0.0
 11
126.157
 21
59.8219
 31
0.0
  0
LINE
  8
0
 62
     0
 10
126.157
 20
59.8219
 30
0.0
 11
126.157
 21
45.8227
 31
0.0
  0
LINE
  8
0
 62
     0
 10
126.157
 20
45.8227
 30
0.0
 11
112.157
 21
45.8227
 31
0.0
  0
LINE
  8
0
 62
     0
 10
112.157
 20
45.8227
 30
0.0
 11
112.157
 21
59.8219
 31
0.0
  0
LINE
  8
0
 62
     0
 10
131.207
 20
59.8219
 30
0.0
 11
145.207
 21
59.8219
 31
0.0
  0
LINE
  8
0
 62
     0
 10
145.207
 20
59.8219
 30
0.0
 11
145.207
 21
45.8227
 31
0.0
  0
LINE
  8
0
 62
     0
 10
145.207
 20
45.8227
 30
0.0
 11
131.207
 21
45.8227
 31
0.0
  0
LINE
  8
0
 62
     0
 10
131.207
 20
45.8227
 30
0.0
 11
131.207
 21
59.8219
 31
0.0
  0
LINE
  8
0
 62
     0
 10
150.257
 20
59.8219
 30
0.0
 11
164.257
 21
59.8219
 31
0.0
  0
LINE
  8
0
 62
     0
 10
164.257
 20
59.8219
 30
0.0
 11
164.257
 21
45.8227
 31
0.0
  0
LINE
  8
0
 62
     0
 10
164.257
 20
45.8227
 30
0.0
 11
150.257
 21
45.8227
 31
0.0
  0
LINE
  8
0
 62
     0
 10
150.257
 20
45.8227
 30
0.0
 11
150.257
 21
59.8219
 31
0.0
  0
LINE
  8
0
 62
     0
 10
169.307
 20
59.8219
 30
0.0
 11
183.307
 21
59.8219
 31
0.0
  0
LINE
  8
0
 62
     0
 10
183.307
 20
59.8219
 30
0.0
 11
183.307
 21
45.8227
 31
0.0
  0
LINE
  8
0
 62
     0
 10
183.307
 20
45.8227
 30
0.0
 11
169.307
 21
45.8227
 31
0.0
  0
LINE
  8
0
 62
     0
 10
169.307
 20
45.8227
 30
0.0
 11
169.307
 21
59.8219
 31
0.0
  0
LINE
  8
0
 62
     0
 10
188.357
 20
59.8219
 30
0.0
 11
202.357
 21
59.8219
 31
0.0
  0
LINE
  8
0
 62
     0
 10
202.357
 20
59.8219
 30
0.0
 11
202.357
 21
45.8227
 31
0.0
  0
LINE
  8
0
 62
     0
 10
202.357
 20
45.8227
 30
0.0
 11
188.357
 21
45.8227
 31
0.0
  0
LINE
  8
0
 62
     0
 10
188.357
 20
45.8227
 30
0.0
 11
188.357
 21
59.8219
 31
0.0
  0
LINE
  8
0
 62
     0
 10
7.38216
 20
78.8719
 30
0.0
 11
21.3817
 21
78.8719
 31
0.0
  0
LINE
  8
0
 62
     0
 10
21.3817
 20
78.8719
 30
0.0
 11
21.3817
 21
64.8727
 31
0.0
  0
LINE
  8
0
 62
     0
 10
21.3817
 20
64.8727
 30
0.0
 11
7.38216
 21
64.8727
 31
0.0
  0
LINE
  8
0
 62
     0
 10
7.38216
 20
64.8727
 30
0.0
 11
7.38216
 21
78.8719
 31
0.0
  0
LINE
  8
0
 62
     0
 10
31.1947
 20
78.8719
 30
0.0
 11
45.194
 21
78.8719
 31
0.0
  0
LINE
  8
0
 62
     0
 10
45.194
 20
78.8719
 30
0.0
 11
45.194
 21
64.8727
 31
0.0
  0
LINE
  8
0
 62
     0
 10
45.194
 20
64.8727
 30
0.0
 11
31.1947
 21
64.8727
 31
0.0
  0
LINE
  8
0
 62
     0
 10
31.1947
 20
64.8727
 30
0.0
 11
31.1947
 21
78.8719
 31
0.0
  0
LINE
  8
0
 62
     0
 10
50.2447
 20
78.8719
 30
0.0
 11
64.244
 21
78.8719
 31
0.0
  0
LINE
  8
0
 62
     0
 10
64.244
 20
78.8719
 30
0.0
 11
64.244
 21
64.8727
 31
0.0
  0
LINE
  8
0
 62
     0
 10
64.244
 20
64.8727
 30
0.0
 11
50.2447
 21
64.8727
 31
0.0
  0
LINE
  8
0
 62
     0
 10
50.2447
 20
64.8727
 30
0.0
 11
50.2447
 21
78.8719
 31
0.0
  0
LINE
  8
0
 62
     0
 10
69.2947
 20
78.8719
 30
0.0
 11
83.294
 21
78.8719
 31
0.0
  0
LINE
  8
0
 62
     0
 10
83.294
 20
78.8719
 30
0.0
 11
83.294
 21
64.8727
 31
0.0
  0
LINE
  8
0
 62
     0
 10
83.294
 20
64.8727
 30
0.0
 11
69.2947
 21
64.8727
 31
0.0
  0
LINE
  8
0
 62
     0
 10
69.2947
 20
64.8727
 30
0.0
 11
69.2947
 21
78.8719
 31
0.0
  0
LINE
  8
0
 62
     0
 10
88.3447
 20
78.8719
 30
0.0
 11
102.344
 21
78.8719
 31
0.0
  0
LINE
  8
0
 62
     0
 10
102.344
 20
78.8719
 30
0.0
 11
102.344
 21
64.8727
 31
0.0
  0
LINE
  8
0
 62
     0
 10
102.344
 20
64.8727
 30
0.0
 11
88.3447
 21
64.8727
 31
0.0
  0
LINE
  8
0
 62
     0
 10
88.3447
 20
64.8727
 30
0.0
 11
88.3447
 21
78.8719
 31
0.0
  0
LINE
  8
0
 62
     0
 10
107.395
 20
78.8719
 30
0.0
 11
121.394
 21
78.8719
 31
0.0
  0
LINE
  8
0
 62
     0
 10
121.394
 20
78.8719
 30
0.0
 11
121.394
 21
64.8727
 31
0.0
  0
LINE
  8
0
 62
     0
 10
121.394
 20
64.8727
 30
0.0
 11
107.395
 21
64.8727
 31
0.0
  0
LINE
  8
0
 62
     0
 10
107.395
 20
64.8727
 30
0.0
 11
107.395
 21
78.8719
 31
0.0
  0
LINE
  8
0
 62
     0
 10
126.445
 20
78.8719
 30
0.0
 11
140.444
 21
78.8719
 31
0.0
  0
LINE
  8
0
 62
     0
 10
140.444
 20
78.8719
 30
0.0
 11
140.444
 21
64.8727
 31
0.0
  0
LINE
  8
0
 62
     0
 10
140.444
 20
64.8727
 30
0.0
 11
126.445
 21
64.8727
 31
0.0
  0
LINE
  8
0
 62
     0
 10
126.445
 20
64.8727
 30
0.0
 11
126.445
 21
78.8719
 31
0.0
  0
LINE
  8
0
 62
     0
 10
145.495
 20
78.8719
 30
0.0
 11
159.494
 21
78.8719
 31
0.0
  0
LINE
  8
0
 62
     0
 10
159.494
 20
78.8719
 30
0.0
 11
159.494
 21
64.8727
 31
0.0
  0
LINE
  8
0
 62
     0
 10
159.494
 20
64.8727
 30
0.0
 11
145.495
 21
64.8727
 31
0.0
  0
LINE
  8
0
 62
     0
 10
145.495
 20
64.8727
 30
0.0
 11
145.495
 21
78.8719
 31
0.0
  0
LINE
  8
0
 62
     0
 10
164.545
 20
78.8719
 30
0.0
 11
178.544
 21
78.8719
 31
0.0
  0
LINE
  8
0
 62
     0
 10
178.544
 20
78.8719
 30
0.0
 11
178.544
 21
64.8727
 31
0.0
  0
LINE
  8
0
 62
     0
 10
178.544
 20
64.8727
 30
0.0
 11
164.545
 21
64.8727
 31
0.0
  0
LINE
  8
0
 62
     0
 10
164.545
 20
64.8727
 30
0.0
 11
164.545
 21
78.8719
 31
0.0
  0
LINE
  8
0
 62
     0
 10
183.595
 20
78.8719
 30
0.0
 11
197.594
 21
78.8719
 31
0.0
  0
LINE
  8
0
 62
     0
 10
197.594
 20
78.8719
 30
0.0
 11
197.594
 21
64.8727
 31
0.0
  0
LINE
  8
0
 62
     0
 10
197.594
 20
64.8727
 30
0.0
 11
183.595
 21
64.8727
 31
0.0
  0
LINE
  8
0
 62
     0
 10
183.595
 20
64.8727
 30
0.0
 11
183.595
 21
78.8719
 31
0.0
  0
LINE
  8
0
 62
     0
 10
202.645
 20
78.8719
 30
0.0
 11
216.644
 21
78.8719
 31
0.0
  0
LINE
  8
0
 62
     0
 10
216.644
 20
78.8719
 30
0.0
 11
216.644
 21
64.8727
 31
0.0
  0
LINE
  8
0
 62
     0
 10
216.644
 20
64.8727
 30
0.0
 11
202.645
 21
64.8727
 31
0.0
  0
LINE
  8
0
 62
     0
 10
202.645
 20
64.8727
 30
0.0
 11
202.645
 21
78.8719
 31
0.0
  0
LINE
  8
0
 62
     0
 10
226.457
 20
78.8719
 30
0.0
 11
240.457
 21
78.8719
 31
0.0
  0
LINE
  8
0
 62
     0
 10
240.457
 20
78.8719
 30
0.0
 11
240.457
 21
64.8727
 31
0.0
  0
LINE
  8
0
 62
     0
 10
240.457
 20
64.8727
 30
0.0
 11
226.457
 21
64.8727
 31
0.0
  0
LINE
  8
0
 62
     0
 10
226.457
 20
64.8727
 30
0.0
 11
226.457
 21
78.8719
 31
0.0
  0
ENDSEC
  0
EOF
