%TF.GenerationSoftware,KiCad,Pcbnew,(6.0.10)*%
%TF.CreationDate,2023-02-19T17:52:48+11:00*%
%TF.ProjectId,whykb,7768796b-622e-46b6-9963-61645f706362,REV1*%
%TF.SameCoordinates,Original*%
%TF.FileFunction,Legend,Bot*%
%TF.FilePolarity,Positive*%
%FSLAX46Y46*%
G04 Gerber Fmt 4.6, Leading zero omitted, Abs format (unit mm)*
G04 Created by KiCad (PCBNEW (6.0.10)) date 2023-02-19 17:52:48*
%MOMM*%
%LPD*%
G01*
G04 APERTURE LIST*
%ADD10C,0.200000*%
%ADD11C,0.120000*%
G04 APERTURE END LIST*
%TO.C,G\u002A\u002A\u002A*%
G36*
X287776595Y-143796774D02*
G01*
X287641489Y-143933333D01*
X287506383Y-143796774D01*
X287641489Y-143660215D01*
X287776595Y-143796774D01*
G37*
G36*
X276157447Y-148166667D02*
G01*
X276022340Y-148303226D01*
X275887234Y-148166667D01*
X276022340Y-148030107D01*
X276157447Y-148166667D01*
G37*
G36*
X275346808Y-148712903D02*
G01*
X275211702Y-148849462D01*
X275076595Y-148712903D01*
X275211702Y-148576344D01*
X275346808Y-148712903D01*
G37*
G36*
X214548936Y-149122581D02*
G01*
X214529435Y-149267169D01*
X214368794Y-149304659D01*
X214336455Y-149264629D01*
X214368794Y-148940502D01*
X214450069Y-148897773D01*
X214548936Y-149122581D01*
G37*
G36*
X271686584Y-149143623D02*
G01*
X271698936Y-149395699D01*
X271643716Y-149469508D01*
X271261722Y-149668817D01*
X271170862Y-149647775D01*
X271158510Y-149395699D01*
X271213730Y-149321889D01*
X271595724Y-149122581D01*
X271686584Y-149143623D01*
G37*
G36*
X274806383Y-149805376D02*
G01*
X274671276Y-149941935D01*
X274536170Y-149805376D01*
X274671276Y-149668817D01*
X274806383Y-149805376D01*
G37*
G36*
X303719149Y-150624731D02*
G01*
X303584042Y-150761290D01*
X303448936Y-150624731D01*
X303584042Y-150488172D01*
X303719149Y-150624731D01*
G37*
G36*
X264318750Y-151120956D02*
G01*
X264443822Y-151219264D01*
X264155496Y-151285965D01*
X263881430Y-151266653D01*
X263800842Y-151142518D01*
X263896440Y-151088396D01*
X264318750Y-151120956D01*
G37*
G36*
X268501418Y-151671684D02*
G01*
X268543692Y-151753834D01*
X268321276Y-151853763D01*
X268178227Y-151834053D01*
X268141134Y-151671684D01*
X268180739Y-151638998D01*
X268501418Y-151671684D01*
G37*
G36*
X236976595Y-151990322D02*
G01*
X236841489Y-152126882D01*
X236706383Y-151990322D01*
X236841489Y-151853763D01*
X236976595Y-151990322D01*
G37*
G36*
X238327659Y-152400000D02*
G01*
X238308159Y-152544588D01*
X238147517Y-152582079D01*
X238115178Y-152542049D01*
X238147517Y-152217921D01*
X238228793Y-152175193D01*
X238327659Y-152400000D01*
G37*
G36*
X213987178Y-153060036D02*
G01*
X213968072Y-153337049D01*
X213845257Y-153418503D01*
X213791711Y-153321878D01*
X213823924Y-152895027D01*
X213921186Y-152768609D01*
X213987178Y-153060036D01*
G37*
G36*
X237596164Y-152762890D02*
G01*
X237787234Y-153219355D01*
X237698417Y-153572467D01*
X237246808Y-153765591D01*
X236897452Y-153675819D01*
X236706383Y-153219355D01*
X236795200Y-152866242D01*
X237246808Y-152673118D01*
X237596164Y-152762890D01*
G37*
G36*
X216170212Y-154175269D02*
G01*
X216035106Y-154311828D01*
X215900000Y-154175269D01*
X216035106Y-154038710D01*
X216170212Y-154175269D01*
G37*
G36*
X298165753Y-154207618D02*
G01*
X298373150Y-154302199D01*
X298585106Y-154477608D01*
X298510215Y-154579357D01*
X298200497Y-154541361D01*
X297911487Y-154314956D01*
X297886818Y-154188530D01*
X298165753Y-154207618D01*
G37*
G36*
X217939137Y-154700202D02*
G01*
X218281250Y-155114113D01*
X218296050Y-155278536D01*
X218044814Y-155353091D01*
X217914054Y-155289045D01*
X217571941Y-154875134D01*
X217557141Y-154710711D01*
X217808377Y-154636156D01*
X217939137Y-154700202D01*
G37*
G36*
X216830301Y-155043129D02*
G01*
X217104630Y-155460560D01*
X217049461Y-156155376D01*
X216972777Y-156305854D01*
X216545495Y-156478248D01*
X215900000Y-156227248D01*
X215645380Y-155935641D01*
X215793856Y-155480355D01*
X215878835Y-155355288D01*
X216372896Y-154981799D01*
X216830301Y-155043129D01*
G37*
G36*
X220515117Y-157353712D02*
G01*
X220940504Y-157693408D01*
X220931361Y-158285122D01*
X220882786Y-158382047D01*
X220465170Y-158650979D01*
X219939629Y-158603593D01*
X219575905Y-158247396D01*
X219504932Y-157981252D01*
X219647542Y-157491685D01*
X220223404Y-157316129D01*
X220515117Y-157353712D01*
G37*
G36*
X217004690Y-157769046D02*
G01*
X217495091Y-158169994D01*
X217822150Y-158560035D01*
X217890563Y-158890221D01*
X217612357Y-159277128D01*
X217290196Y-159604993D01*
X216931704Y-159744309D01*
X216486341Y-159535537D01*
X216280688Y-159212157D01*
X216219412Y-158604698D01*
X216338371Y-158001556D01*
X216619046Y-157663929D01*
X217004690Y-157769046D01*
G37*
G36*
X278859574Y-161822581D02*
G01*
X278724468Y-161959140D01*
X278589361Y-161822581D01*
X278724468Y-161686021D01*
X278859574Y-161822581D01*
G37*
G36*
X276878014Y-162323297D02*
G01*
X276920288Y-162405447D01*
X276697872Y-162505376D01*
X276554822Y-162485666D01*
X276517730Y-162323297D01*
X276557335Y-162290610D01*
X276878014Y-162323297D01*
G37*
G36*
X277778723Y-162762376D02*
G01*
X277768339Y-162841652D01*
X277508510Y-163051613D01*
X277447359Y-163048481D01*
X277238298Y-162931172D01*
X277250732Y-162887361D01*
X277508510Y-162641935D01*
X277613181Y-162599260D01*
X277778723Y-162762376D01*
G37*
G36*
X301827659Y-162674683D02*
G01*
X301445218Y-162945210D01*
X300553027Y-163602651D01*
X299665957Y-164282245D01*
X299167226Y-164659367D01*
X298371774Y-165210532D01*
X297774468Y-165564879D01*
X297114258Y-165925455D01*
X296356775Y-166401928D01*
X295710118Y-166803528D01*
X294791824Y-167318575D01*
X293733692Y-167878801D01*
X292658275Y-168422297D01*
X291688122Y-168887157D01*
X290945786Y-169211471D01*
X290553818Y-169333333D01*
X290165560Y-169432848D01*
X289574711Y-169740488D01*
X289395852Y-169847314D01*
X288640193Y-170203757D01*
X287760282Y-170530750D01*
X286978867Y-170792781D01*
X285857509Y-171189016D01*
X284728984Y-171604239D01*
X284629417Y-171641720D01*
X283733178Y-171974643D01*
X283067005Y-172214383D01*
X282768726Y-172311232D01*
X282662799Y-172326709D01*
X281903537Y-172475676D01*
X280842141Y-172718311D01*
X279658458Y-173010534D01*
X278532335Y-173308263D01*
X277643617Y-173567417D01*
X276922905Y-173749647D01*
X275820473Y-173953952D01*
X274671276Y-174108532D01*
X273658318Y-174250018D01*
X272716379Y-174447407D01*
X272104255Y-174651345D01*
X271813351Y-174752450D01*
X270961130Y-174923994D01*
X269727674Y-175095354D01*
X268211666Y-175257548D01*
X266511787Y-175401596D01*
X264726719Y-175518517D01*
X262955144Y-175599328D01*
X261295744Y-175635049D01*
X260437731Y-175651221D01*
X259293799Y-175707516D01*
X258406651Y-175792795D01*
X257918085Y-175896098D01*
X257679690Y-175953827D01*
X256892475Y-176013797D01*
X255692493Y-176029771D01*
X254158617Y-176006544D01*
X252369715Y-175948912D01*
X250404660Y-175861670D01*
X248342320Y-175749614D01*
X246261568Y-175617539D01*
X244241273Y-175470242D01*
X242360305Y-175312518D01*
X240697536Y-175149162D01*
X239331836Y-174984971D01*
X238342076Y-174824740D01*
X237807125Y-174673264D01*
X237465298Y-174534392D01*
X236604440Y-174301095D01*
X235625532Y-174130864D01*
X235084172Y-174050631D01*
X234027425Y-173832354D01*
X233193617Y-173586583D01*
X233026559Y-173524257D01*
X232208172Y-173235953D01*
X231120129Y-172868279D01*
X229951064Y-172485304D01*
X228625999Y-172018407D01*
X225902510Y-170849303D01*
X223039173Y-169367982D01*
X223003425Y-169347882D01*
X221275667Y-168207699D01*
X219467699Y-166725411D01*
X217671621Y-165002259D01*
X215979531Y-163139483D01*
X214483528Y-161238322D01*
X213275712Y-159400016D01*
X212448180Y-157725806D01*
X212281496Y-157248157D01*
X211919947Y-155912028D01*
X211584812Y-154310829D01*
X211313639Y-152635931D01*
X211243851Y-151995382D01*
X213224807Y-151995382D01*
X213347674Y-152914263D01*
X213608922Y-154311828D01*
X213924110Y-155711420D01*
X214259411Y-156770004D01*
X214590007Y-157332646D01*
X214926959Y-157425483D01*
X214978497Y-157414704D01*
X215170909Y-157670977D01*
X215236750Y-158430721D01*
X215250373Y-158852935D01*
X215384256Y-159430608D01*
X215748045Y-159950209D01*
X216446566Y-160599666D01*
X216993186Y-161016743D01*
X217875744Y-161602569D01*
X218914889Y-162236954D01*
X219988741Y-162850551D01*
X220975423Y-163374012D01*
X221753055Y-163737992D01*
X222199761Y-163873143D01*
X222415997Y-163928819D01*
X223018124Y-164157332D01*
X223821038Y-164502629D01*
X224574344Y-164790672D01*
X225816416Y-165183153D01*
X227355602Y-165616762D01*
X229067939Y-166059584D01*
X230829468Y-166479709D01*
X232516227Y-166845222D01*
X234004255Y-167124212D01*
X234027728Y-167128091D01*
X234871727Y-167241868D01*
X236131758Y-167380437D01*
X237689402Y-167532233D01*
X239426240Y-167685692D01*
X241223852Y-167829249D01*
X241702327Y-167865094D01*
X243824024Y-168015576D01*
X245568381Y-168117115D01*
X247069523Y-168170822D01*
X248461576Y-168177810D01*
X249878667Y-168139192D01*
X251454923Y-168056078D01*
X253324468Y-167929581D01*
X255780058Y-167746798D01*
X258320105Y-167536338D01*
X260507679Y-167324543D01*
X262445160Y-167099319D01*
X264234929Y-166848576D01*
X265979366Y-166560222D01*
X267780851Y-166222164D01*
X269065315Y-165973263D01*
X270594616Y-165683067D01*
X271989513Y-165423808D01*
X272253489Y-165372912D01*
X274111445Y-164893958D01*
X276011914Y-164224498D01*
X277760997Y-163440371D01*
X279164796Y-162617413D01*
X280203569Y-161889802D01*
X280712633Y-162525229D01*
X280793424Y-162625720D01*
X281134128Y-162973434D01*
X281456240Y-162973669D01*
X281994159Y-162649078D01*
X282094450Y-162580177D01*
X282472438Y-162224710D01*
X282434374Y-162025560D01*
X282315365Y-161968764D01*
X282213330Y-161822581D01*
X282912766Y-161822581D01*
X283047872Y-161959140D01*
X283182978Y-161822581D01*
X283047872Y-161686021D01*
X282912766Y-161822581D01*
X282213330Y-161822581D01*
X282102127Y-161663262D01*
X282110450Y-161621393D01*
X282414017Y-161461226D01*
X283009307Y-161421982D01*
X283697555Y-161500787D01*
X284279995Y-161694766D01*
X284693778Y-161804581D01*
X285310114Y-161692176D01*
X286238973Y-161311839D01*
X286831370Y-161048405D01*
X287822394Y-160644261D01*
X288604934Y-160367111D01*
X288679460Y-160344263D01*
X289585005Y-160028630D01*
X290627332Y-159615808D01*
X291644810Y-159175454D01*
X292475808Y-158777226D01*
X292958696Y-158490782D01*
X293263862Y-158289168D01*
X293948703Y-157900237D01*
X294802127Y-157454522D01*
X295454123Y-157111288D01*
X296396652Y-156566704D01*
X297098936Y-156104720D01*
X297176207Y-156047897D01*
X297849814Y-155602509D01*
X298382447Y-155324487D01*
X298636164Y-155185691D01*
X298855319Y-154866636D01*
X298870269Y-154779491D01*
X299158770Y-154584946D01*
X299256250Y-154567541D01*
X299796898Y-154296795D01*
X300608544Y-153756241D01*
X301593415Y-153020981D01*
X302653737Y-152166116D01*
X303691739Y-151266749D01*
X304609648Y-150397981D01*
X304867876Y-150136896D01*
X306456242Y-148440483D01*
X307828504Y-146817979D01*
X308959384Y-145312387D01*
X309823608Y-143966704D01*
X310395900Y-142823933D01*
X310650984Y-141927073D01*
X310563586Y-141319124D01*
X310108430Y-141043087D01*
X309709349Y-140872243D01*
X309214916Y-140402768D01*
X308872649Y-140041757D01*
X308424069Y-139836559D01*
X308189894Y-139767568D01*
X307848630Y-139370445D01*
X307532946Y-138773205D01*
X306597700Y-137867819D01*
X305230905Y-137210414D01*
X304723964Y-137030701D01*
X303891644Y-136687474D01*
X303342604Y-136398310D01*
X303139518Y-136298677D01*
X302818395Y-136282664D01*
X302338952Y-136407881D01*
X301621548Y-136703271D01*
X300586546Y-137197774D01*
X299154306Y-137920330D01*
X298748376Y-138127082D01*
X297265998Y-138874685D01*
X295822914Y-139592354D01*
X294566436Y-140207210D01*
X293643877Y-140646379D01*
X293474158Y-140726255D01*
X292653595Y-141156061D01*
X292110633Y-141515234D01*
X291955420Y-141732894D01*
X291940216Y-141848416D01*
X291592073Y-141836113D01*
X291174624Y-141856689D01*
X290403377Y-142066377D01*
X289497551Y-142424927D01*
X288839273Y-142724636D01*
X287667001Y-143252860D01*
X286861865Y-143602932D01*
X286338097Y-143809761D01*
X286009927Y-143908259D01*
X285791586Y-143933333D01*
X285646107Y-143956337D01*
X285065415Y-144153513D01*
X284312998Y-144486718D01*
X284039649Y-144614319D01*
X283127342Y-144978671D01*
X282365132Y-145204790D01*
X281750506Y-145389520D01*
X281405025Y-145607319D01*
X281240915Y-145736718D01*
X280735116Y-145845161D01*
X280334174Y-146010678D01*
X280219131Y-146415195D01*
X280498453Y-146812071D01*
X280603533Y-147030984D01*
X280321467Y-147510985D01*
X279810647Y-147958361D01*
X279473307Y-147907343D01*
X279240748Y-147347312D01*
X279063707Y-146896191D01*
X278812072Y-146664516D01*
X278690260Y-146770605D01*
X278719245Y-147194119D01*
X278747083Y-147574297D01*
X278373530Y-148000690D01*
X278362049Y-148006812D01*
X277804170Y-148097595D01*
X277434735Y-147825789D01*
X277423429Y-147314031D01*
X277476171Y-147161061D01*
X277465575Y-146994625D01*
X277233933Y-146990766D01*
X276686822Y-147160730D01*
X275729819Y-147515764D01*
X275638686Y-147550463D01*
X274833004Y-147897172D01*
X274494672Y-148152063D01*
X274571278Y-148353010D01*
X274598050Y-148372051D01*
X274701619Y-148509931D01*
X274321724Y-148435490D01*
X273815670Y-148400721D01*
X272953621Y-148489992D01*
X271993994Y-148676644D01*
X271149185Y-148918262D01*
X270631595Y-149172428D01*
X270301175Y-149315940D01*
X269672340Y-149395699D01*
X269158472Y-149459210D01*
X268702168Y-149666196D01*
X268537834Y-149764775D01*
X267926304Y-149952692D01*
X267094402Y-150097566D01*
X266663530Y-150157098D01*
X265799967Y-150320197D01*
X265213829Y-150489292D01*
X264944178Y-150593774D01*
X264201469Y-150809168D01*
X263139273Y-151035457D01*
X261648770Y-151297307D01*
X261118053Y-151391960D01*
X260400564Y-151546190D01*
X260027494Y-151663612D01*
X259847595Y-151704930D01*
X259196450Y-151788582D01*
X258166886Y-151892730D01*
X256853544Y-152008034D01*
X255351064Y-152125154D01*
X253944192Y-152216832D01*
X251932560Y-152298495D01*
X249881777Y-152314229D01*
X247626022Y-152264421D01*
X244999475Y-152149462D01*
X242964135Y-152038650D01*
X240803128Y-151898382D01*
X238981819Y-151745008D01*
X237388447Y-151565563D01*
X235911254Y-151347085D01*
X234438482Y-151076609D01*
X232858370Y-150741174D01*
X232507197Y-150665479D01*
X231273239Y-150433710D01*
X230150435Y-150269012D01*
X229345604Y-150203066D01*
X229219783Y-150199679D01*
X228137728Y-150064563D01*
X227113829Y-149797500D01*
X226921356Y-149731139D01*
X226035212Y-149496665D01*
X225305840Y-149399811D01*
X224780542Y-149327724D01*
X224411702Y-149122581D01*
X224126634Y-148943304D01*
X223534827Y-148849462D01*
X223503725Y-148849057D01*
X222832730Y-148770438D01*
X221783073Y-148576264D01*
X220486607Y-148296400D01*
X219075185Y-147960711D01*
X217680662Y-147599062D01*
X216434889Y-147241317D01*
X215903619Y-147127679D01*
X215305246Y-147212339D01*
X215089361Y-147609748D01*
X215019782Y-147862175D01*
X214668431Y-148316321D01*
X214253030Y-148837700D01*
X213854686Y-149642556D01*
X213594196Y-150475034D01*
X213563916Y-151102190D01*
X213590234Y-151350571D01*
X213442885Y-151428344D01*
X213383025Y-151399345D01*
X213237523Y-151506604D01*
X213224807Y-151995382D01*
X211243851Y-151995382D01*
X211143978Y-151078707D01*
X211120046Y-150729065D01*
X211093225Y-149687469D01*
X211178774Y-149026195D01*
X211389120Y-148620643D01*
X211670207Y-148202064D01*
X211981316Y-147483871D01*
X212022036Y-147362227D01*
X212369314Y-146645854D01*
X212858826Y-145885402D01*
X213537905Y-144969729D01*
X215326931Y-145161392D01*
X216209481Y-145284772D01*
X217333239Y-145510495D01*
X218196808Y-145759015D01*
X218624546Y-145911997D01*
X219101673Y-146060120D01*
X219701092Y-146219371D01*
X220504323Y-146408975D01*
X221592891Y-146648159D01*
X223048318Y-146956148D01*
X224952127Y-147352168D01*
X225074390Y-147377511D01*
X226294349Y-147631862D01*
X227458426Y-147876790D01*
X228329787Y-148062489D01*
X228800117Y-148154412D01*
X229843325Y-148332961D01*
X231127793Y-148533640D01*
X232475984Y-148727956D01*
X233442317Y-148871330D01*
X234572940Y-149067870D01*
X235435493Y-149251396D01*
X235895743Y-149395698D01*
X235932303Y-149412649D01*
X236489612Y-149540089D01*
X237558006Y-149682233D01*
X239112066Y-149836776D01*
X241126371Y-150001411D01*
X243575503Y-150173832D01*
X246434042Y-150351733D01*
X247494882Y-150404822D01*
X249997155Y-150463071D01*
X252504317Y-150436968D01*
X254925803Y-150332865D01*
X257171053Y-150157118D01*
X259149503Y-149916079D01*
X260770591Y-149616103D01*
X261943755Y-149263545D01*
X262317162Y-149135903D01*
X263251122Y-148906740D01*
X264268085Y-148736516D01*
X264441209Y-148712864D01*
X265500328Y-148515987D01*
X266783515Y-148218504D01*
X268051064Y-147875005D01*
X268292859Y-147803707D01*
X269587717Y-147424191D01*
X270848917Y-147057706D01*
X271834042Y-146774757D01*
X272407146Y-146605076D01*
X273447006Y-146269657D01*
X274265957Y-145973159D01*
X274959298Y-145733281D01*
X275995547Y-145427955D01*
X277103191Y-145140839D01*
X277135804Y-145132994D01*
X278131228Y-144859966D01*
X278943659Y-144578140D01*
X279400000Y-144347319D01*
X279892878Y-144065452D01*
X280615957Y-143818962D01*
X281246835Y-143634344D01*
X282294806Y-143273021D01*
X283583300Y-142796444D01*
X284977992Y-142256692D01*
X286344557Y-141705846D01*
X287548670Y-141195988D01*
X288456006Y-140779198D01*
X289018607Y-140514999D01*
X289733481Y-140223148D01*
X290153117Y-140109677D01*
X290527863Y-139991726D01*
X291298661Y-139664728D01*
X292380684Y-139170212D01*
X293689353Y-138549709D01*
X295140088Y-137844748D01*
X296648310Y-137096857D01*
X298129439Y-136347565D01*
X299498897Y-135638404D01*
X300672103Y-135010901D01*
X301564479Y-134506586D01*
X301869088Y-134322611D01*
X302893359Y-133656931D01*
X303769467Y-133021497D01*
X304334511Y-132532408D01*
X305295094Y-131461643D01*
X306320156Y-130226540D01*
X307268814Y-128999761D01*
X308041792Y-127909891D01*
X308539815Y-127085516D01*
X308720690Y-126743868D01*
X309112570Y-126103170D01*
X309395802Y-125769602D01*
X309598700Y-125557245D01*
X309997785Y-124919976D01*
X310443976Y-124047797D01*
X310859265Y-123108676D01*
X311165645Y-122270585D01*
X311285106Y-121701490D01*
X311372728Y-121077398D01*
X311785684Y-120525433D01*
X312585533Y-120258649D01*
X313825136Y-120246771D01*
X315630359Y-120518120D01*
X317162542Y-121100622D01*
X318602829Y-122068883D01*
X319375037Y-122799145D01*
X319971233Y-123698403D01*
X320356223Y-124834166D01*
X320601099Y-126359062D01*
X320658285Y-126971080D01*
X320635009Y-128008125D01*
X320341257Y-128756663D01*
X319695024Y-129366448D01*
X318614302Y-129987233D01*
X317973236Y-130372886D01*
X316781558Y-131296145D01*
X315510289Y-132476126D01*
X314285363Y-133783936D01*
X313232714Y-135090679D01*
X312478278Y-136267463D01*
X312245740Y-136700243D01*
X311811236Y-137469619D01*
X311496714Y-137977023D01*
X311407051Y-138120002D01*
X311356347Y-138528059D01*
X311701785Y-139029684D01*
X311725184Y-139056163D01*
X311921015Y-139332702D01*
X312059002Y-139699553D01*
X312149062Y-140247888D01*
X312201112Y-141068880D01*
X312218465Y-141927073D01*
X312225069Y-142253700D01*
X312230851Y-143893520D01*
X312229951Y-144804959D01*
X312217723Y-146197550D01*
X312179785Y-147212754D01*
X312101980Y-147961594D01*
X311970147Y-148555097D01*
X311770129Y-149104285D01*
X311487766Y-149720184D01*
X311145746Y-150473682D01*
X310852668Y-151210389D01*
X310737042Y-151632012D01*
X310719902Y-151726784D01*
X310481915Y-152254072D01*
X309955245Y-153163442D01*
X309128628Y-154473646D01*
X307990800Y-156203432D01*
X307908508Y-156322566D01*
X307301048Y-157095282D01*
X306437965Y-158089881D01*
X305420384Y-159200178D01*
X304349436Y-160319990D01*
X303326247Y-161343134D01*
X302815232Y-161822581D01*
X302451945Y-162163426D01*
X301827659Y-162674683D01*
G37*
G36*
X260433581Y-182062041D02*
G01*
X260458752Y-183016497D01*
X260415875Y-183542442D01*
X260279727Y-183749334D01*
X260025088Y-183746630D01*
X259769246Y-183633870D01*
X259606915Y-183314425D01*
X259615143Y-183214349D01*
X259422242Y-183006748D01*
X259017346Y-183073642D01*
X258593617Y-183398925D01*
X258399808Y-183572414D01*
X257904563Y-183777265D01*
X257444974Y-183778426D01*
X257242553Y-183550971D01*
X257368567Y-183297637D01*
X257788877Y-182906565D01*
X258001120Y-182747106D01*
X258173750Y-182472905D01*
X257923983Y-182174840D01*
X257566099Y-181617087D01*
X257590956Y-181398704D01*
X258495099Y-181398704D01*
X258505890Y-181717065D01*
X258898084Y-181909187D01*
X259352293Y-181782307D01*
X259558662Y-181350538D01*
X259499536Y-181032606D01*
X259244332Y-180804301D01*
X259180541Y-180809409D01*
X258778215Y-181024175D01*
X258495099Y-181398704D01*
X257590956Y-181398704D01*
X257635188Y-181010098D01*
X258052659Y-180470248D01*
X258732687Y-180107892D01*
X259589449Y-180033381D01*
X259779897Y-180058065D01*
X260106070Y-180163769D01*
X260286963Y-180436355D01*
X260376951Y-181002175D01*
X260395849Y-181350538D01*
X260430407Y-181987582D01*
X260433581Y-182062041D01*
G37*
G36*
X241574350Y-181145699D02*
G01*
X241596829Y-181806059D01*
X241755493Y-182497054D01*
X242149351Y-182885708D01*
X242874520Y-183117811D01*
X243773508Y-183315001D01*
X243700366Y-181719033D01*
X243685279Y-181319888D01*
X243702123Y-180564840D01*
X243825704Y-180178372D01*
X244084888Y-180033980D01*
X244116118Y-180028510D01*
X244338630Y-180068743D01*
X244467897Y-180343858D01*
X244527883Y-180957499D01*
X244542553Y-182013307D01*
X244542553Y-184081720D01*
X243342543Y-184081720D01*
X243012101Y-184070678D01*
X242320529Y-183965394D01*
X241960980Y-183784805D01*
X241811840Y-183635594D01*
X241485672Y-183784805D01*
X241068818Y-183992742D01*
X240394418Y-184090136D01*
X239674642Y-184063629D01*
X239101771Y-183921503D01*
X238868085Y-183672043D01*
X238869794Y-183634731D01*
X239114341Y-183351204D01*
X239813829Y-183262365D01*
X239899964Y-183261625D01*
X240554490Y-183155692D01*
X240759574Y-182852688D01*
X240757865Y-182815376D01*
X240513318Y-182531849D01*
X239813829Y-182443011D01*
X239727695Y-182442270D01*
X239073169Y-182336338D01*
X238868085Y-182033333D01*
X238869794Y-181996022D01*
X239114341Y-181712494D01*
X239813829Y-181623656D01*
X239969025Y-181620032D01*
X240613382Y-181476067D01*
X240790386Y-181206251D01*
X240506244Y-180926444D01*
X239767164Y-180752508D01*
X239150209Y-180661868D01*
X238678247Y-180462234D01*
X238689264Y-180239972D01*
X239158582Y-180059427D01*
X240061525Y-179984946D01*
X241570212Y-179984946D01*
X241574350Y-181145699D01*
G37*
G36*
X247935242Y-182875718D02*
G01*
X248149733Y-183549543D01*
X248117449Y-183927883D01*
X248055950Y-183983361D01*
X247651205Y-184029197D01*
X247244681Y-183535484D01*
X246969548Y-183209063D01*
X246442744Y-182989247D01*
X246112699Y-183091603D01*
X245758510Y-183535484D01*
X245585164Y-183854258D01*
X245199876Y-184081720D01*
X245176045Y-184081723D01*
X244930840Y-184057121D01*
X244839039Y-183895354D01*
X244888576Y-183464399D01*
X245067383Y-182632232D01*
X245111410Y-182433536D01*
X245259608Y-181754725D01*
X246221561Y-181754725D01*
X246253900Y-182078853D01*
X246335176Y-182121581D01*
X246434042Y-181896774D01*
X246414542Y-181752186D01*
X246253900Y-181714695D01*
X246221561Y-181754725D01*
X245259608Y-181754725D01*
X245315489Y-181498768D01*
X245477850Y-180736021D01*
X245676942Y-180220015D01*
X245968286Y-179984946D01*
X246154169Y-180059398D01*
X246583441Y-180498246D01*
X247074865Y-181208377D01*
X247465368Y-181896774D01*
X247551209Y-182048099D01*
X247935242Y-182875718D01*
G37*
G36*
X253996896Y-180175470D02*
G01*
X254421001Y-180653603D01*
X254509160Y-180801450D01*
X254668414Y-181480966D01*
X254333800Y-181967862D01*
X253528192Y-182221959D01*
X253040008Y-182356782D01*
X252722453Y-182624673D01*
X252777506Y-182873129D01*
X253154278Y-183105943D01*
X253665080Y-183175666D01*
X254081243Y-183016378D01*
X254462047Y-182770095D01*
X254891161Y-182763156D01*
X255080851Y-183071183D01*
X255044788Y-183269873D01*
X254756595Y-183753978D01*
X254517981Y-183915743D01*
X253778932Y-184068146D01*
X252911923Y-183974562D01*
X252152092Y-183644845D01*
X251819595Y-183427975D01*
X251452965Y-183361317D01*
X251057393Y-183644845D01*
X250814904Y-183819258D01*
X250112168Y-184022631D01*
X249388886Y-183947652D01*
X248823824Y-183632710D01*
X248595744Y-183116197D01*
X248647502Y-182870478D01*
X249011870Y-182738685D01*
X249728724Y-183017445D01*
X250089947Y-183150703D01*
X250484361Y-183042072D01*
X250613055Y-182621159D01*
X250458439Y-181999010D01*
X250002918Y-181286675D01*
X249678173Y-181026279D01*
X248963139Y-180974886D01*
X248800226Y-181011698D01*
X248418578Y-180966969D01*
X248325532Y-180544304D01*
X248383508Y-180180042D01*
X248670619Y-180021920D01*
X249338332Y-180036739D01*
X249890573Y-180125818D01*
X250464594Y-180446267D01*
X250994677Y-181129762D01*
X251075680Y-181255619D01*
X251470155Y-181792082D01*
X251747324Y-181931059D01*
X252027773Y-181744278D01*
X252408017Y-181503170D01*
X253089503Y-181350538D01*
X253506861Y-181282773D01*
X253584819Y-181061292D01*
X253284690Y-180890501D01*
X252690681Y-180856453D01*
X252172508Y-180832258D01*
X251973404Y-180531183D01*
X252218825Y-180203469D01*
X252970421Y-180037720D01*
X253436837Y-180021050D01*
X253996896Y-180175470D01*
G37*
G36*
X264413131Y-183017291D02*
G01*
X263937748Y-183656556D01*
X263151967Y-184018533D01*
X262254901Y-183998458D01*
X261489119Y-183552959D01*
X260955599Y-182745976D01*
X260831454Y-182061326D01*
X261618641Y-182061326D01*
X261991442Y-182738652D01*
X262293768Y-183029218D01*
X262859837Y-183240525D01*
X263403404Y-182934624D01*
X263634759Y-182597354D01*
X263664497Y-181912231D01*
X263207339Y-181232369D01*
X263106776Y-181146662D01*
X262475618Y-180873509D01*
X261954617Y-181012444D01*
X261637662Y-181447153D01*
X261618641Y-182061326D01*
X260831454Y-182061326D01*
X260755319Y-181641447D01*
X260763030Y-181354369D01*
X260958151Y-180537375D01*
X261479395Y-180109003D01*
X262411026Y-179984946D01*
X262590193Y-179988461D01*
X263380544Y-180167982D01*
X263978260Y-180704574D01*
X264283793Y-181203999D01*
X264469186Y-181912231D01*
X264529275Y-182141782D01*
X264413131Y-183017291D01*
G37*
G36*
X266227127Y-180038953D02*
G01*
X267645744Y-180121505D01*
X267727895Y-181729633D01*
X267748443Y-182439765D01*
X267728434Y-183256802D01*
X267660200Y-183732453D01*
X267530904Y-183954435D01*
X267222141Y-184023863D01*
X266925604Y-183695903D01*
X266751657Y-183053084D01*
X266708210Y-182742910D01*
X266476387Y-182287516D01*
X265941019Y-182118204D01*
X265497242Y-181997713D01*
X265227695Y-181679392D01*
X265406988Y-181315826D01*
X266024468Y-181044136D01*
X266214122Y-181002803D01*
X266572087Y-180908398D01*
X266451619Y-180863553D01*
X265821808Y-180836615D01*
X265619939Y-180826539D01*
X264998621Y-180690290D01*
X264808510Y-180380350D01*
X264809418Y-180348142D01*
X264940576Y-180115140D01*
X265374616Y-180021349D01*
X266227127Y-180038953D01*
G37*
G36*
X273529995Y-183472311D02*
G01*
X273570350Y-183841433D01*
X273429212Y-184004325D01*
X273043929Y-184014362D01*
X272644681Y-183535484D01*
X272369548Y-183209063D01*
X271842744Y-182989247D01*
X271512699Y-183091603D01*
X271158510Y-183535484D01*
X271070331Y-183728033D01*
X270728922Y-184031267D01*
X270375760Y-184050074D01*
X270214273Y-183740322D01*
X270215530Y-183703207D01*
X270294532Y-183176528D01*
X270458261Y-182443011D01*
X270459897Y-182436560D01*
X270627422Y-181754725D01*
X271621561Y-181754725D01*
X271653900Y-182078853D01*
X271735176Y-182121581D01*
X271834042Y-181896774D01*
X271814542Y-181752186D01*
X271653900Y-181714695D01*
X271621561Y-181754725D01*
X270627422Y-181754725D01*
X270679324Y-181543480D01*
X270867221Y-180736021D01*
X270896285Y-180618284D01*
X271191460Y-180084308D01*
X271604224Y-180072242D01*
X272077296Y-180589044D01*
X272184357Y-180764136D01*
X272783970Y-181818146D01*
X272822917Y-181896774D01*
X273250192Y-182759377D01*
X273529995Y-183472311D01*
G37*
G36*
X281208235Y-182766897D02*
G01*
X281454812Y-183415322D01*
X281473578Y-183494731D01*
X281479559Y-183956155D01*
X281160379Y-184081720D01*
X280867318Y-183979817D01*
X280559145Y-183535484D01*
X280373925Y-183201631D01*
X279792013Y-182989247D01*
X279391151Y-183075485D01*
X278994681Y-183535484D01*
X278876555Y-183808840D01*
X278548350Y-184076841D01*
X278222110Y-183870860D01*
X278199643Y-183807610D01*
X278214684Y-183317041D01*
X278354296Y-182551066D01*
X278518150Y-181896774D01*
X279400000Y-181896774D01*
X279410996Y-181971633D01*
X279686160Y-182169892D01*
X279783895Y-182148448D01*
X279805319Y-181896774D01*
X279749858Y-181815040D01*
X279519159Y-181623656D01*
X279492192Y-181630757D01*
X279400000Y-181896774D01*
X278518150Y-181896774D01*
X278574370Y-181672277D01*
X278830798Y-180843266D01*
X279079473Y-180226625D01*
X279276285Y-179984946D01*
X279405310Y-180043406D01*
X279795894Y-180456157D01*
X280287456Y-181143519D01*
X280748903Y-181896774D01*
X280788676Y-181961698D01*
X281208235Y-182766897D01*
G37*
G36*
X289248961Y-183127798D02*
G01*
X289387353Y-183603763D01*
X289365128Y-183800128D01*
X289114945Y-184060140D01*
X288744483Y-183967098D01*
X288452127Y-183535484D01*
X288390097Y-183383120D01*
X287978917Y-183032995D01*
X287431837Y-183100975D01*
X286912634Y-183582102D01*
X286763339Y-183790164D01*
X286401724Y-184079617D01*
X286191081Y-183907096D01*
X286157759Y-183326296D01*
X286328104Y-182390909D01*
X286405326Y-182069963D01*
X287283967Y-182069963D01*
X287506383Y-182169892D01*
X287649432Y-182150182D01*
X287686525Y-181987814D01*
X287646920Y-181955127D01*
X287326241Y-181987814D01*
X287283967Y-182069963D01*
X286405326Y-182069963D01*
X286461178Y-181837834D01*
X286629811Y-180997232D01*
X286695744Y-180451636D01*
X286717761Y-180228685D01*
X286938862Y-179995008D01*
X287348528Y-180176117D01*
X287885899Y-180732261D01*
X288490119Y-181623689D01*
X288690077Y-181987814D01*
X288899475Y-182369131D01*
X289248961Y-183127798D01*
G37*
G36*
X292528397Y-183709741D02*
G01*
X292298008Y-183944004D01*
X291700328Y-184068440D01*
X290957455Y-183971061D01*
X290268634Y-183656556D01*
X290184730Y-183592028D01*
X289780352Y-183053780D01*
X289710500Y-182685078D01*
X290632816Y-182685078D01*
X290653022Y-182860020D01*
X291022188Y-183069186D01*
X291360872Y-183095634D01*
X291559574Y-182827119D01*
X291393850Y-182530562D01*
X290991942Y-182454165D01*
X290632816Y-182685078D01*
X289710500Y-182685078D01*
X289670038Y-182471507D01*
X289902060Y-182055970D01*
X290022354Y-181820459D01*
X290015437Y-181272166D01*
X290006295Y-181213978D01*
X290978617Y-181213978D01*
X290989922Y-181289346D01*
X291269095Y-181571308D01*
X291422468Y-181553893D01*
X291559574Y-181213978D01*
X291515486Y-180988488D01*
X291269095Y-180856649D01*
X291188983Y-180893738D01*
X290978617Y-181213978D01*
X290006295Y-181213978D01*
X290001088Y-181180832D01*
X290136260Y-180508913D01*
X290694407Y-180109739D01*
X291609476Y-180034591D01*
X291724674Y-180045949D01*
X292176569Y-180127251D01*
X292418387Y-180343778D01*
X292529047Y-180832312D01*
X292553897Y-181213978D01*
X292587470Y-181729633D01*
X292608842Y-182440586D01*
X292600713Y-182827119D01*
X292591872Y-183247521D01*
X292528397Y-183709741D01*
G37*
G36*
X277531568Y-180050799D02*
G01*
X277657574Y-180510887D01*
X277745829Y-181275142D01*
X277790561Y-182183138D01*
X277786001Y-183074452D01*
X277726380Y-183788659D01*
X277605927Y-184165335D01*
X277528487Y-184231676D01*
X277234340Y-184209665D01*
X277038945Y-183713391D01*
X276968085Y-182798117D01*
X276968085Y-181546751D01*
X275864269Y-182814236D01*
X275324019Y-183390207D01*
X274761694Y-183889576D01*
X274408780Y-184081720D01*
X274186315Y-183891603D01*
X273972944Y-183304607D01*
X273829749Y-182481830D01*
X273784148Y-181588755D01*
X273863558Y-180790865D01*
X273938153Y-180506246D01*
X274206694Y-180012226D01*
X274491532Y-180001898D01*
X274719765Y-180437746D01*
X274818491Y-181282258D01*
X274830600Y-182579570D01*
X275981516Y-181282258D01*
X276561806Y-180671350D01*
X277118752Y-180175272D01*
X277455577Y-179984946D01*
X277531568Y-180050799D01*
G37*
G36*
X282397948Y-180054462D02*
G01*
X282591914Y-180494979D01*
X282695985Y-181404688D01*
X282777659Y-182824429D01*
X283846482Y-181404688D01*
X284103140Y-181069048D01*
X284752629Y-180312526D01*
X285189077Y-180029037D01*
X285451956Y-180236171D01*
X285580738Y-180951513D01*
X285614893Y-182192652D01*
X285609467Y-182826483D01*
X285561340Y-183732223D01*
X285454261Y-184196426D01*
X285277127Y-184287969D01*
X285175140Y-184201711D01*
X284974466Y-183699184D01*
X284857867Y-182921007D01*
X284776373Y-181666434D01*
X283675049Y-182874077D01*
X283587198Y-182969981D01*
X282824894Y-183734776D01*
X282317115Y-184045815D01*
X282014959Y-183880791D01*
X281869526Y-183217399D01*
X281831915Y-182033333D01*
X281839143Y-181341857D01*
X281893108Y-180525153D01*
X282015095Y-180104282D01*
X282223113Y-179984946D01*
X282397948Y-180054462D01*
G37*
G36*
X173476595Y-143796774D02*
G01*
X173341489Y-143933333D01*
X173206383Y-143796774D01*
X173341489Y-143660215D01*
X173476595Y-143796774D01*
G37*
G36*
X161857447Y-148166667D02*
G01*
X161722340Y-148303226D01*
X161587234Y-148166667D01*
X161722340Y-148030107D01*
X161857447Y-148166667D01*
G37*
G36*
X161046808Y-148712903D02*
G01*
X160911702Y-148849462D01*
X160776595Y-148712903D01*
X160911702Y-148576344D01*
X161046808Y-148712903D01*
G37*
G36*
X100248936Y-149122581D02*
G01*
X100229435Y-149267169D01*
X100068794Y-149304659D01*
X100036455Y-149264629D01*
X100068794Y-148940502D01*
X100150069Y-148897773D01*
X100248936Y-149122581D01*
G37*
G36*
X157386584Y-149143623D02*
G01*
X157398936Y-149395699D01*
X157343716Y-149469508D01*
X156961722Y-149668817D01*
X156870862Y-149647775D01*
X156858510Y-149395699D01*
X156913730Y-149321889D01*
X157295724Y-149122581D01*
X157386584Y-149143623D01*
G37*
G36*
X160506383Y-149805376D02*
G01*
X160371276Y-149941935D01*
X160236170Y-149805376D01*
X160371276Y-149668817D01*
X160506383Y-149805376D01*
G37*
G36*
X189419149Y-150624731D02*
G01*
X189284042Y-150761290D01*
X189148936Y-150624731D01*
X189284042Y-150488172D01*
X189419149Y-150624731D01*
G37*
G36*
X150018750Y-151120956D02*
G01*
X150143822Y-151219264D01*
X149855496Y-151285965D01*
X149581430Y-151266653D01*
X149500842Y-151142518D01*
X149596440Y-151088396D01*
X150018750Y-151120956D01*
G37*
G36*
X154201418Y-151671684D02*
G01*
X154243692Y-151753834D01*
X154021276Y-151853763D01*
X153878227Y-151834053D01*
X153841134Y-151671684D01*
X153880739Y-151638998D01*
X154201418Y-151671684D01*
G37*
G36*
X122676595Y-151990322D02*
G01*
X122541489Y-152126882D01*
X122406383Y-151990322D01*
X122541489Y-151853763D01*
X122676595Y-151990322D01*
G37*
G36*
X124027659Y-152400000D02*
G01*
X124008159Y-152544588D01*
X123847517Y-152582079D01*
X123815178Y-152542049D01*
X123847517Y-152217921D01*
X123928793Y-152175193D01*
X124027659Y-152400000D01*
G37*
G36*
X99687178Y-153060036D02*
G01*
X99668072Y-153337049D01*
X99545257Y-153418503D01*
X99491711Y-153321878D01*
X99523924Y-152895027D01*
X99621186Y-152768609D01*
X99687178Y-153060036D01*
G37*
G36*
X123296164Y-152762890D02*
G01*
X123487234Y-153219355D01*
X123398417Y-153572467D01*
X122946808Y-153765591D01*
X122597452Y-153675819D01*
X122406383Y-153219355D01*
X122495200Y-152866242D01*
X122946808Y-152673118D01*
X123296164Y-152762890D01*
G37*
G36*
X101870212Y-154175269D02*
G01*
X101735106Y-154311828D01*
X101600000Y-154175269D01*
X101735106Y-154038710D01*
X101870212Y-154175269D01*
G37*
G36*
X183865753Y-154207618D02*
G01*
X184073150Y-154302199D01*
X184285106Y-154477608D01*
X184210215Y-154579357D01*
X183900497Y-154541361D01*
X183611487Y-154314956D01*
X183586818Y-154188530D01*
X183865753Y-154207618D01*
G37*
G36*
X103639137Y-154700202D02*
G01*
X103981250Y-155114113D01*
X103996050Y-155278536D01*
X103744814Y-155353091D01*
X103614054Y-155289045D01*
X103271941Y-154875134D01*
X103257141Y-154710711D01*
X103508377Y-154636156D01*
X103639137Y-154700202D01*
G37*
G36*
X102530301Y-155043129D02*
G01*
X102804630Y-155460560D01*
X102749461Y-156155376D01*
X102672777Y-156305854D01*
X102245495Y-156478248D01*
X101600000Y-156227248D01*
X101345380Y-155935641D01*
X101493856Y-155480355D01*
X101578835Y-155355288D01*
X102072896Y-154981799D01*
X102530301Y-155043129D01*
G37*
G36*
X106215117Y-157353712D02*
G01*
X106640504Y-157693408D01*
X106631361Y-158285122D01*
X106582786Y-158382047D01*
X106165170Y-158650979D01*
X105639629Y-158603593D01*
X105275905Y-158247396D01*
X105204932Y-157981252D01*
X105347542Y-157491685D01*
X105923404Y-157316129D01*
X106215117Y-157353712D01*
G37*
G36*
X102704690Y-157769046D02*
G01*
X103195091Y-158169994D01*
X103522150Y-158560035D01*
X103590563Y-158890221D01*
X103312357Y-159277128D01*
X102990196Y-159604993D01*
X102631704Y-159744309D01*
X102186341Y-159535537D01*
X101980688Y-159212157D01*
X101919412Y-158604698D01*
X102038371Y-158001556D01*
X102319046Y-157663929D01*
X102704690Y-157769046D01*
G37*
G36*
X164559574Y-161822581D02*
G01*
X164424468Y-161959140D01*
X164289361Y-161822581D01*
X164424468Y-161686021D01*
X164559574Y-161822581D01*
G37*
G36*
X162578014Y-162323297D02*
G01*
X162620288Y-162405447D01*
X162397872Y-162505376D01*
X162254822Y-162485666D01*
X162217730Y-162323297D01*
X162257335Y-162290610D01*
X162578014Y-162323297D01*
G37*
G36*
X163478723Y-162762376D02*
G01*
X163468339Y-162841652D01*
X163208510Y-163051613D01*
X163147359Y-163048481D01*
X162938298Y-162931172D01*
X162950732Y-162887361D01*
X163208510Y-162641935D01*
X163313181Y-162599260D01*
X163478723Y-162762376D01*
G37*
G36*
X187527659Y-162674683D02*
G01*
X187145218Y-162945210D01*
X186253027Y-163602651D01*
X185365957Y-164282245D01*
X184867226Y-164659367D01*
X184071774Y-165210532D01*
X183474468Y-165564879D01*
X182814258Y-165925455D01*
X182056775Y-166401928D01*
X181410118Y-166803528D01*
X180491824Y-167318575D01*
X179433692Y-167878801D01*
X178358275Y-168422297D01*
X177388122Y-168887157D01*
X176645786Y-169211471D01*
X176253818Y-169333333D01*
X175865560Y-169432848D01*
X175274711Y-169740488D01*
X175095852Y-169847314D01*
X174340193Y-170203757D01*
X173460282Y-170530750D01*
X172678867Y-170792781D01*
X171557509Y-171189016D01*
X170428984Y-171604239D01*
X170329417Y-171641720D01*
X169433178Y-171974643D01*
X168767005Y-172214383D01*
X168468726Y-172311232D01*
X168362799Y-172326709D01*
X167603537Y-172475676D01*
X166542141Y-172718311D01*
X165358458Y-173010534D01*
X164232335Y-173308263D01*
X163343617Y-173567417D01*
X162622905Y-173749647D01*
X161520473Y-173953952D01*
X160371276Y-174108532D01*
X159358318Y-174250018D01*
X158416379Y-174447407D01*
X157804255Y-174651345D01*
X157513351Y-174752450D01*
X156661130Y-174923994D01*
X155427674Y-175095354D01*
X153911666Y-175257548D01*
X152211787Y-175401596D01*
X150426719Y-175518517D01*
X148655144Y-175599328D01*
X146995744Y-175635049D01*
X146137731Y-175651221D01*
X144993799Y-175707516D01*
X144106651Y-175792795D01*
X143618085Y-175896098D01*
X143379690Y-175953827D01*
X142592475Y-176013797D01*
X141392493Y-176029771D01*
X139858617Y-176006544D01*
X138069715Y-175948912D01*
X136104660Y-175861670D01*
X134042320Y-175749614D01*
X131961568Y-175617539D01*
X129941273Y-175470242D01*
X128060305Y-175312518D01*
X126397536Y-175149162D01*
X125031836Y-174984971D01*
X124042076Y-174824740D01*
X123507125Y-174673264D01*
X123165298Y-174534392D01*
X122304440Y-174301095D01*
X121325532Y-174130864D01*
X120784172Y-174050631D01*
X119727425Y-173832354D01*
X118893617Y-173586583D01*
X118726559Y-173524257D01*
X117908172Y-173235953D01*
X116820129Y-172868279D01*
X115651064Y-172485304D01*
X114325999Y-172018407D01*
X111602510Y-170849303D01*
X108739173Y-169367982D01*
X108703425Y-169347882D01*
X106975667Y-168207699D01*
X105167699Y-166725411D01*
X103371621Y-165002259D01*
X101679531Y-163139483D01*
X100183528Y-161238322D01*
X98975712Y-159400016D01*
X98148180Y-157725806D01*
X97981496Y-157248157D01*
X97619947Y-155912028D01*
X97284812Y-154310829D01*
X97013639Y-152635931D01*
X96943851Y-151995382D01*
X98924807Y-151995382D01*
X99047674Y-152914263D01*
X99308922Y-154311828D01*
X99624110Y-155711420D01*
X99959411Y-156770004D01*
X100290007Y-157332646D01*
X100626959Y-157425483D01*
X100678497Y-157414704D01*
X100870909Y-157670977D01*
X100936750Y-158430721D01*
X100950373Y-158852935D01*
X101084256Y-159430608D01*
X101448045Y-159950209D01*
X102146566Y-160599666D01*
X102693186Y-161016743D01*
X103575744Y-161602569D01*
X104614889Y-162236954D01*
X105688741Y-162850551D01*
X106675423Y-163374012D01*
X107453055Y-163737992D01*
X107899761Y-163873143D01*
X108115997Y-163928819D01*
X108718124Y-164157332D01*
X109521038Y-164502629D01*
X110274344Y-164790672D01*
X111516416Y-165183153D01*
X113055602Y-165616762D01*
X114767939Y-166059584D01*
X116529468Y-166479709D01*
X118216227Y-166845222D01*
X119704255Y-167124212D01*
X119727728Y-167128091D01*
X120571727Y-167241868D01*
X121831758Y-167380437D01*
X123389402Y-167532233D01*
X125126240Y-167685692D01*
X126923852Y-167829249D01*
X127402327Y-167865094D01*
X129524024Y-168015576D01*
X131268381Y-168117115D01*
X132769523Y-168170822D01*
X134161576Y-168177810D01*
X135578667Y-168139192D01*
X137154923Y-168056078D01*
X139024468Y-167929581D01*
X141480058Y-167746798D01*
X144020105Y-167536338D01*
X146207679Y-167324543D01*
X148145160Y-167099319D01*
X149934929Y-166848576D01*
X151679366Y-166560222D01*
X153480851Y-166222164D01*
X154765315Y-165973263D01*
X156294616Y-165683067D01*
X157689513Y-165423808D01*
X157953489Y-165372912D01*
X159811445Y-164893958D01*
X161711914Y-164224498D01*
X163460997Y-163440371D01*
X164864796Y-162617413D01*
X165903569Y-161889802D01*
X166412633Y-162525229D01*
X166493424Y-162625720D01*
X166834128Y-162973434D01*
X167156240Y-162973669D01*
X167694159Y-162649078D01*
X167794450Y-162580177D01*
X168172438Y-162224710D01*
X168134374Y-162025560D01*
X168015365Y-161968764D01*
X167913330Y-161822581D01*
X168612766Y-161822581D01*
X168747872Y-161959140D01*
X168882978Y-161822581D01*
X168747872Y-161686021D01*
X168612766Y-161822581D01*
X167913330Y-161822581D01*
X167802127Y-161663262D01*
X167810450Y-161621393D01*
X168114017Y-161461226D01*
X168709307Y-161421982D01*
X169397555Y-161500787D01*
X169979995Y-161694766D01*
X170393778Y-161804581D01*
X171010114Y-161692176D01*
X171938973Y-161311839D01*
X172531370Y-161048405D01*
X173522394Y-160644261D01*
X174304934Y-160367111D01*
X174379460Y-160344263D01*
X175285005Y-160028630D01*
X176327332Y-159615808D01*
X177344810Y-159175454D01*
X178175808Y-158777226D01*
X178658696Y-158490782D01*
X178963862Y-158289168D01*
X179648703Y-157900237D01*
X180502127Y-157454522D01*
X181154123Y-157111288D01*
X182096652Y-156566704D01*
X182798936Y-156104720D01*
X182876207Y-156047897D01*
X183549814Y-155602509D01*
X184082447Y-155324487D01*
X184336164Y-155185691D01*
X184555319Y-154866636D01*
X184570269Y-154779491D01*
X184858770Y-154584946D01*
X184956250Y-154567541D01*
X185496898Y-154296795D01*
X186308544Y-153756241D01*
X187293415Y-153020981D01*
X188353737Y-152166116D01*
X189391739Y-151266749D01*
X190309648Y-150397981D01*
X190567876Y-150136896D01*
X192156242Y-148440483D01*
X193528504Y-146817979D01*
X194659384Y-145312387D01*
X195523608Y-143966704D01*
X196095900Y-142823933D01*
X196350984Y-141927073D01*
X196263586Y-141319124D01*
X195808430Y-141043087D01*
X195409349Y-140872243D01*
X194914916Y-140402768D01*
X194572649Y-140041757D01*
X194124069Y-139836559D01*
X193889894Y-139767568D01*
X193548630Y-139370445D01*
X193232946Y-138773205D01*
X192297700Y-137867819D01*
X190930905Y-137210414D01*
X190423964Y-137030701D01*
X189591644Y-136687474D01*
X189042604Y-136398310D01*
X188839518Y-136298677D01*
X188518395Y-136282664D01*
X188038952Y-136407881D01*
X187321548Y-136703271D01*
X186286546Y-137197774D01*
X184854306Y-137920330D01*
X184448376Y-138127082D01*
X182965998Y-138874685D01*
X181522914Y-139592354D01*
X180266436Y-140207210D01*
X179343877Y-140646379D01*
X179174158Y-140726255D01*
X178353595Y-141156061D01*
X177810633Y-141515234D01*
X177655420Y-141732894D01*
X177640216Y-141848416D01*
X177292073Y-141836113D01*
X176874624Y-141856689D01*
X176103377Y-142066377D01*
X175197551Y-142424927D01*
X174539273Y-142724636D01*
X173367001Y-143252860D01*
X172561865Y-143602932D01*
X172038097Y-143809761D01*
X171709927Y-143908259D01*
X171491586Y-143933333D01*
X171346107Y-143956337D01*
X170765415Y-144153513D01*
X170012998Y-144486718D01*
X169739649Y-144614319D01*
X168827342Y-144978671D01*
X168065132Y-145204790D01*
X167450506Y-145389520D01*
X167105025Y-145607319D01*
X166940915Y-145736718D01*
X166435116Y-145845161D01*
X166034174Y-146010678D01*
X165919131Y-146415195D01*
X166198453Y-146812071D01*
X166303533Y-147030984D01*
X166021467Y-147510985D01*
X165510647Y-147958361D01*
X165173307Y-147907343D01*
X164940748Y-147347312D01*
X164763707Y-146896191D01*
X164512072Y-146664516D01*
X164390260Y-146770605D01*
X164419245Y-147194119D01*
X164447083Y-147574297D01*
X164073530Y-148000690D01*
X164062049Y-148006812D01*
X163504170Y-148097595D01*
X163134735Y-147825789D01*
X163123429Y-147314031D01*
X163176171Y-147161061D01*
X163165575Y-146994625D01*
X162933933Y-146990766D01*
X162386822Y-147160730D01*
X161429819Y-147515764D01*
X161338686Y-147550463D01*
X160533004Y-147897172D01*
X160194672Y-148152063D01*
X160271278Y-148353010D01*
X160298050Y-148372051D01*
X160401619Y-148509931D01*
X160021724Y-148435490D01*
X159515670Y-148400721D01*
X158653621Y-148489992D01*
X157693994Y-148676644D01*
X156849185Y-148918262D01*
X156331595Y-149172428D01*
X156001175Y-149315940D01*
X155372340Y-149395699D01*
X154858472Y-149459210D01*
X154402168Y-149666196D01*
X154237834Y-149764775D01*
X153626304Y-149952692D01*
X152794402Y-150097566D01*
X152363530Y-150157098D01*
X151499967Y-150320197D01*
X150913829Y-150489292D01*
X150644178Y-150593774D01*
X149901469Y-150809168D01*
X148839273Y-151035457D01*
X147348770Y-151297307D01*
X146818053Y-151391960D01*
X146100564Y-151546190D01*
X145727494Y-151663612D01*
X145547595Y-151704930D01*
X144896450Y-151788582D01*
X143866886Y-151892730D01*
X142553544Y-152008034D01*
X141051064Y-152125154D01*
X139644192Y-152216832D01*
X137632560Y-152298495D01*
X135581777Y-152314229D01*
X133326022Y-152264421D01*
X130699475Y-152149462D01*
X128664135Y-152038650D01*
X126503128Y-151898382D01*
X124681819Y-151745008D01*
X123088447Y-151565563D01*
X121611254Y-151347085D01*
X120138482Y-151076609D01*
X118558370Y-150741174D01*
X118207197Y-150665479D01*
X116973239Y-150433710D01*
X115850435Y-150269012D01*
X115045604Y-150203066D01*
X114919783Y-150199679D01*
X113837728Y-150064563D01*
X112813829Y-149797500D01*
X112621356Y-149731139D01*
X111735212Y-149496665D01*
X111005840Y-149399811D01*
X110480542Y-149327724D01*
X110111702Y-149122581D01*
X109826634Y-148943304D01*
X109234827Y-148849462D01*
X109203725Y-148849057D01*
X108532730Y-148770438D01*
X107483073Y-148576264D01*
X106186607Y-148296400D01*
X104775185Y-147960711D01*
X103380662Y-147599062D01*
X102134889Y-147241317D01*
X101603619Y-147127679D01*
X101005246Y-147212339D01*
X100789361Y-147609748D01*
X100719782Y-147862175D01*
X100368431Y-148316321D01*
X99953030Y-148837700D01*
X99554686Y-149642556D01*
X99294196Y-150475034D01*
X99263916Y-151102190D01*
X99290234Y-151350571D01*
X99142885Y-151428344D01*
X99083025Y-151399345D01*
X98937523Y-151506604D01*
X98924807Y-151995382D01*
X96943851Y-151995382D01*
X96843978Y-151078707D01*
X96820046Y-150729065D01*
X96793225Y-149687469D01*
X96878774Y-149026195D01*
X97089120Y-148620643D01*
X97370207Y-148202064D01*
X97681316Y-147483871D01*
X97722036Y-147362227D01*
X98069314Y-146645854D01*
X98558826Y-145885402D01*
X99237905Y-144969729D01*
X101026931Y-145161392D01*
X101909481Y-145284772D01*
X103033239Y-145510495D01*
X103896808Y-145759015D01*
X104324546Y-145911997D01*
X104801673Y-146060120D01*
X105401092Y-146219371D01*
X106204323Y-146408975D01*
X107292891Y-146648159D01*
X108748318Y-146956148D01*
X110652127Y-147352168D01*
X110774390Y-147377511D01*
X111994349Y-147631862D01*
X113158426Y-147876790D01*
X114029787Y-148062489D01*
X114500117Y-148154412D01*
X115543325Y-148332961D01*
X116827793Y-148533640D01*
X118175984Y-148727956D01*
X119142317Y-148871330D01*
X120272940Y-149067870D01*
X121135493Y-149251396D01*
X121595743Y-149395698D01*
X121632303Y-149412649D01*
X122189612Y-149540089D01*
X123258006Y-149682233D01*
X124812066Y-149836776D01*
X126826371Y-150001411D01*
X129275503Y-150173832D01*
X132134042Y-150351733D01*
X133194882Y-150404822D01*
X135697155Y-150463071D01*
X138204317Y-150436968D01*
X140625803Y-150332865D01*
X142871053Y-150157118D01*
X144849503Y-149916079D01*
X146470591Y-149616103D01*
X147643755Y-149263545D01*
X148017162Y-149135903D01*
X148951122Y-148906740D01*
X149968085Y-148736516D01*
X150141209Y-148712864D01*
X151200328Y-148515987D01*
X152483515Y-148218504D01*
X153751064Y-147875005D01*
X153992859Y-147803707D01*
X155287717Y-147424191D01*
X156548917Y-147057706D01*
X157534042Y-146774757D01*
X158107146Y-146605076D01*
X159147006Y-146269657D01*
X159965957Y-145973159D01*
X160659298Y-145733281D01*
X161695547Y-145427955D01*
X162803191Y-145140839D01*
X162835804Y-145132994D01*
X163831228Y-144859966D01*
X164643659Y-144578140D01*
X165100000Y-144347319D01*
X165592878Y-144065452D01*
X166315957Y-143818962D01*
X166946835Y-143634344D01*
X167994806Y-143273021D01*
X169283300Y-142796444D01*
X170677992Y-142256692D01*
X172044557Y-141705846D01*
X173248670Y-141195988D01*
X174156006Y-140779198D01*
X174718607Y-140514999D01*
X175433481Y-140223148D01*
X175853117Y-140109677D01*
X176227863Y-139991726D01*
X176998661Y-139664728D01*
X178080684Y-139170212D01*
X179389353Y-138549709D01*
X180840088Y-137844748D01*
X182348310Y-137096857D01*
X183829439Y-136347565D01*
X185198897Y-135638404D01*
X186372103Y-135010901D01*
X187264479Y-134506586D01*
X187569088Y-134322611D01*
X188593359Y-133656931D01*
X189469467Y-133021497D01*
X190034511Y-132532408D01*
X190995094Y-131461643D01*
X192020156Y-130226540D01*
X192968814Y-128999761D01*
X193741792Y-127909891D01*
X194239815Y-127085516D01*
X194420690Y-126743868D01*
X194812570Y-126103170D01*
X195095802Y-125769602D01*
X195298700Y-125557245D01*
X195697785Y-124919976D01*
X196143976Y-124047797D01*
X196559265Y-123108676D01*
X196865645Y-122270585D01*
X196985106Y-121701490D01*
X197072728Y-121077398D01*
X197485684Y-120525433D01*
X198285533Y-120258649D01*
X199525136Y-120246771D01*
X201330359Y-120518120D01*
X202862542Y-121100622D01*
X204302829Y-122068883D01*
X205075037Y-122799145D01*
X205671233Y-123698403D01*
X206056223Y-124834166D01*
X206301099Y-126359062D01*
X206358285Y-126971080D01*
X206335009Y-128008125D01*
X206041257Y-128756663D01*
X205395024Y-129366448D01*
X204314302Y-129987233D01*
X203673236Y-130372886D01*
X202481558Y-131296145D01*
X201210289Y-132476126D01*
X199985363Y-133783936D01*
X198932714Y-135090679D01*
X198178278Y-136267463D01*
X197945740Y-136700243D01*
X197511236Y-137469619D01*
X197196714Y-137977023D01*
X197107051Y-138120002D01*
X197056347Y-138528059D01*
X197401785Y-139029684D01*
X197425184Y-139056163D01*
X197621015Y-139332702D01*
X197759002Y-139699553D01*
X197849062Y-140247888D01*
X197901112Y-141068880D01*
X197918465Y-141927073D01*
X197925069Y-142253700D01*
X197930851Y-143893520D01*
X197929951Y-144804959D01*
X197917723Y-146197550D01*
X197879785Y-147212754D01*
X197801980Y-147961594D01*
X197670147Y-148555097D01*
X197470129Y-149104285D01*
X197187766Y-149720184D01*
X196845746Y-150473682D01*
X196552668Y-151210389D01*
X196437042Y-151632012D01*
X196419902Y-151726784D01*
X196181915Y-152254072D01*
X195655245Y-153163442D01*
X194828628Y-154473646D01*
X193690800Y-156203432D01*
X193608508Y-156322566D01*
X193001048Y-157095282D01*
X192137965Y-158089881D01*
X191120384Y-159200178D01*
X190049436Y-160319990D01*
X189026247Y-161343134D01*
X188515232Y-161822581D01*
X188151945Y-162163426D01*
X187527659Y-162674683D01*
G37*
G36*
X146133581Y-182062041D02*
G01*
X146158752Y-183016497D01*
X146115875Y-183542442D01*
X145979727Y-183749334D01*
X145725088Y-183746630D01*
X145469246Y-183633870D01*
X145306915Y-183314425D01*
X145315143Y-183214349D01*
X145122242Y-183006748D01*
X144717346Y-183073642D01*
X144293617Y-183398925D01*
X144099808Y-183572414D01*
X143604563Y-183777265D01*
X143144974Y-183778426D01*
X142942553Y-183550971D01*
X143068567Y-183297637D01*
X143488877Y-182906565D01*
X143701120Y-182747106D01*
X143873750Y-182472905D01*
X143623983Y-182174840D01*
X143266099Y-181617087D01*
X143290956Y-181398704D01*
X144195099Y-181398704D01*
X144205890Y-181717065D01*
X144598084Y-181909187D01*
X145052293Y-181782307D01*
X145258662Y-181350538D01*
X145199536Y-181032606D01*
X144944332Y-180804301D01*
X144880541Y-180809409D01*
X144478215Y-181024175D01*
X144195099Y-181398704D01*
X143290956Y-181398704D01*
X143335188Y-181010098D01*
X143752659Y-180470248D01*
X144432687Y-180107892D01*
X145289449Y-180033381D01*
X145479897Y-180058065D01*
X145806070Y-180163769D01*
X145986963Y-180436355D01*
X146076951Y-181002175D01*
X146095849Y-181350538D01*
X146130407Y-181987582D01*
X146133581Y-182062041D01*
G37*
G36*
X127274350Y-181145699D02*
G01*
X127296829Y-181806059D01*
X127455493Y-182497054D01*
X127849351Y-182885708D01*
X128574520Y-183117811D01*
X129473508Y-183315001D01*
X129400366Y-181719033D01*
X129385279Y-181319888D01*
X129402123Y-180564840D01*
X129525704Y-180178372D01*
X129784888Y-180033980D01*
X129816118Y-180028510D01*
X130038630Y-180068743D01*
X130167897Y-180343858D01*
X130227883Y-180957499D01*
X130242553Y-182013307D01*
X130242553Y-184081720D01*
X129042543Y-184081720D01*
X128712101Y-184070678D01*
X128020529Y-183965394D01*
X127660980Y-183784805D01*
X127511840Y-183635594D01*
X127185672Y-183784805D01*
X126768818Y-183992742D01*
X126094418Y-184090136D01*
X125374642Y-184063629D01*
X124801771Y-183921503D01*
X124568085Y-183672043D01*
X124569794Y-183634731D01*
X124814341Y-183351204D01*
X125513829Y-183262365D01*
X125599964Y-183261625D01*
X126254490Y-183155692D01*
X126459574Y-182852688D01*
X126457865Y-182815376D01*
X126213318Y-182531849D01*
X125513829Y-182443011D01*
X125427695Y-182442270D01*
X124773169Y-182336338D01*
X124568085Y-182033333D01*
X124569794Y-181996022D01*
X124814341Y-181712494D01*
X125513829Y-181623656D01*
X125669025Y-181620032D01*
X126313382Y-181476067D01*
X126490386Y-181206251D01*
X126206244Y-180926444D01*
X125467164Y-180752508D01*
X124850209Y-180661868D01*
X124378247Y-180462234D01*
X124389264Y-180239972D01*
X124858582Y-180059427D01*
X125761525Y-179984946D01*
X127270212Y-179984946D01*
X127274350Y-181145699D01*
G37*
G36*
X133635242Y-182875718D02*
G01*
X133849733Y-183549543D01*
X133817449Y-183927883D01*
X133755950Y-183983361D01*
X133351205Y-184029197D01*
X132944681Y-183535484D01*
X132669548Y-183209063D01*
X132142744Y-182989247D01*
X131812699Y-183091603D01*
X131458510Y-183535484D01*
X131285164Y-183854258D01*
X130899876Y-184081720D01*
X130876045Y-184081723D01*
X130630840Y-184057121D01*
X130539039Y-183895354D01*
X130588576Y-183464399D01*
X130767383Y-182632232D01*
X130811410Y-182433536D01*
X130959608Y-181754725D01*
X131921561Y-181754725D01*
X131953900Y-182078853D01*
X132035176Y-182121581D01*
X132134042Y-181896774D01*
X132114542Y-181752186D01*
X131953900Y-181714695D01*
X131921561Y-181754725D01*
X130959608Y-181754725D01*
X131015489Y-181498768D01*
X131177850Y-180736021D01*
X131376942Y-180220015D01*
X131668286Y-179984946D01*
X131854169Y-180059398D01*
X132283441Y-180498246D01*
X132774865Y-181208377D01*
X133165368Y-181896774D01*
X133251209Y-182048099D01*
X133635242Y-182875718D01*
G37*
G36*
X139696896Y-180175470D02*
G01*
X140121001Y-180653603D01*
X140209160Y-180801450D01*
X140368414Y-181480966D01*
X140033800Y-181967862D01*
X139228192Y-182221959D01*
X138740008Y-182356782D01*
X138422453Y-182624673D01*
X138477506Y-182873129D01*
X138854278Y-183105943D01*
X139365080Y-183175666D01*
X139781243Y-183016378D01*
X140162047Y-182770095D01*
X140591161Y-182763156D01*
X140780851Y-183071183D01*
X140744788Y-183269873D01*
X140456595Y-183753978D01*
X140217981Y-183915743D01*
X139478932Y-184068146D01*
X138611923Y-183974562D01*
X137852092Y-183644845D01*
X137519595Y-183427975D01*
X137152965Y-183361317D01*
X136757393Y-183644845D01*
X136514904Y-183819258D01*
X135812168Y-184022631D01*
X135088886Y-183947652D01*
X134523824Y-183632710D01*
X134295744Y-183116197D01*
X134347502Y-182870478D01*
X134711870Y-182738685D01*
X135428724Y-183017445D01*
X135789947Y-183150703D01*
X136184361Y-183042072D01*
X136313055Y-182621159D01*
X136158439Y-181999010D01*
X135702918Y-181286675D01*
X135378173Y-181026279D01*
X134663139Y-180974886D01*
X134500226Y-181011698D01*
X134118578Y-180966969D01*
X134025532Y-180544304D01*
X134083508Y-180180042D01*
X134370619Y-180021920D01*
X135038332Y-180036739D01*
X135590573Y-180125818D01*
X136164594Y-180446267D01*
X136694677Y-181129762D01*
X136775680Y-181255619D01*
X137170155Y-181792082D01*
X137447324Y-181931059D01*
X137727773Y-181744278D01*
X138108017Y-181503170D01*
X138789503Y-181350538D01*
X139206861Y-181282773D01*
X139284819Y-181061292D01*
X138984690Y-180890501D01*
X138390681Y-180856453D01*
X137872508Y-180832258D01*
X137673404Y-180531183D01*
X137918825Y-180203469D01*
X138670421Y-180037720D01*
X139136837Y-180021050D01*
X139696896Y-180175470D01*
G37*
G36*
X150113131Y-183017291D02*
G01*
X149637748Y-183656556D01*
X148851967Y-184018533D01*
X147954901Y-183998458D01*
X147189119Y-183552959D01*
X146655599Y-182745976D01*
X146531454Y-182061326D01*
X147318641Y-182061326D01*
X147691442Y-182738652D01*
X147993768Y-183029218D01*
X148559837Y-183240525D01*
X149103404Y-182934624D01*
X149334759Y-182597354D01*
X149364497Y-181912231D01*
X148907339Y-181232369D01*
X148806776Y-181146662D01*
X148175618Y-180873509D01*
X147654617Y-181012444D01*
X147337662Y-181447153D01*
X147318641Y-182061326D01*
X146531454Y-182061326D01*
X146455319Y-181641447D01*
X146463030Y-181354369D01*
X146658151Y-180537375D01*
X147179395Y-180109003D01*
X148111026Y-179984946D01*
X148290193Y-179988461D01*
X149080544Y-180167982D01*
X149678260Y-180704574D01*
X149983793Y-181203999D01*
X150169186Y-181912231D01*
X150229275Y-182141782D01*
X150113131Y-183017291D01*
G37*
G36*
X151927127Y-180038953D02*
G01*
X153345744Y-180121505D01*
X153427895Y-181729633D01*
X153448443Y-182439765D01*
X153428434Y-183256802D01*
X153360200Y-183732453D01*
X153230904Y-183954435D01*
X152922141Y-184023863D01*
X152625604Y-183695903D01*
X152451657Y-183053084D01*
X152408210Y-182742910D01*
X152176387Y-182287516D01*
X151641019Y-182118204D01*
X151197242Y-181997713D01*
X150927695Y-181679392D01*
X151106988Y-181315826D01*
X151724468Y-181044136D01*
X151914122Y-181002803D01*
X152272087Y-180908398D01*
X152151619Y-180863553D01*
X151521808Y-180836615D01*
X151319939Y-180826539D01*
X150698621Y-180690290D01*
X150508510Y-180380350D01*
X150509418Y-180348142D01*
X150640576Y-180115140D01*
X151074616Y-180021349D01*
X151927127Y-180038953D01*
G37*
G36*
X159229995Y-183472311D02*
G01*
X159270350Y-183841433D01*
X159129212Y-184004325D01*
X158743929Y-184014362D01*
X158344681Y-183535484D01*
X158069548Y-183209063D01*
X157542744Y-182989247D01*
X157212699Y-183091603D01*
X156858510Y-183535484D01*
X156770331Y-183728033D01*
X156428922Y-184031267D01*
X156075760Y-184050074D01*
X155914273Y-183740322D01*
X155915530Y-183703207D01*
X155994532Y-183176528D01*
X156158261Y-182443011D01*
X156159897Y-182436560D01*
X156327422Y-181754725D01*
X157321561Y-181754725D01*
X157353900Y-182078853D01*
X157435176Y-182121581D01*
X157534042Y-181896774D01*
X157514542Y-181752186D01*
X157353900Y-181714695D01*
X157321561Y-181754725D01*
X156327422Y-181754725D01*
X156379324Y-181543480D01*
X156567221Y-180736021D01*
X156596285Y-180618284D01*
X156891460Y-180084308D01*
X157304224Y-180072242D01*
X157777296Y-180589044D01*
X157884357Y-180764136D01*
X158483970Y-181818146D01*
X158522917Y-181896774D01*
X158950192Y-182759377D01*
X159229995Y-183472311D01*
G37*
G36*
X166908235Y-182766897D02*
G01*
X167154812Y-183415322D01*
X167173578Y-183494731D01*
X167179559Y-183956155D01*
X166860379Y-184081720D01*
X166567318Y-183979817D01*
X166259145Y-183535484D01*
X166073925Y-183201631D01*
X165492013Y-182989247D01*
X165091151Y-183075485D01*
X164694681Y-183535484D01*
X164576555Y-183808840D01*
X164248350Y-184076841D01*
X163922110Y-183870860D01*
X163899643Y-183807610D01*
X163914684Y-183317041D01*
X164054296Y-182551066D01*
X164218150Y-181896774D01*
X165100000Y-181896774D01*
X165110996Y-181971633D01*
X165386160Y-182169892D01*
X165483895Y-182148448D01*
X165505319Y-181896774D01*
X165449858Y-181815040D01*
X165219159Y-181623656D01*
X165192192Y-181630757D01*
X165100000Y-181896774D01*
X164218150Y-181896774D01*
X164274370Y-181672277D01*
X164530798Y-180843266D01*
X164779473Y-180226625D01*
X164976285Y-179984946D01*
X165105310Y-180043406D01*
X165495894Y-180456157D01*
X165987456Y-181143519D01*
X166448903Y-181896774D01*
X166488676Y-181961698D01*
X166908235Y-182766897D01*
G37*
G36*
X174948961Y-183127798D02*
G01*
X175087353Y-183603763D01*
X175065128Y-183800128D01*
X174814945Y-184060140D01*
X174444483Y-183967098D01*
X174152127Y-183535484D01*
X174090097Y-183383120D01*
X173678917Y-183032995D01*
X173131837Y-183100975D01*
X172612634Y-183582102D01*
X172463339Y-183790164D01*
X172101724Y-184079617D01*
X171891081Y-183907096D01*
X171857759Y-183326296D01*
X172028104Y-182390909D01*
X172105326Y-182069963D01*
X172983967Y-182069963D01*
X173206383Y-182169892D01*
X173349432Y-182150182D01*
X173386525Y-181987814D01*
X173346920Y-181955127D01*
X173026241Y-181987814D01*
X172983967Y-182069963D01*
X172105326Y-182069963D01*
X172161178Y-181837834D01*
X172329811Y-180997232D01*
X172395744Y-180451636D01*
X172417761Y-180228685D01*
X172638862Y-179995008D01*
X173048528Y-180176117D01*
X173585899Y-180732261D01*
X174190119Y-181623689D01*
X174390077Y-181987814D01*
X174599475Y-182369131D01*
X174948961Y-183127798D01*
G37*
G36*
X178228397Y-183709741D02*
G01*
X177998008Y-183944004D01*
X177400328Y-184068440D01*
X176657455Y-183971061D01*
X175968634Y-183656556D01*
X175884730Y-183592028D01*
X175480352Y-183053780D01*
X175410500Y-182685078D01*
X176332816Y-182685078D01*
X176353022Y-182860020D01*
X176722188Y-183069186D01*
X177060872Y-183095634D01*
X177259574Y-182827119D01*
X177093850Y-182530562D01*
X176691942Y-182454165D01*
X176332816Y-182685078D01*
X175410500Y-182685078D01*
X175370038Y-182471507D01*
X175602060Y-182055970D01*
X175722354Y-181820459D01*
X175715437Y-181272166D01*
X175706295Y-181213978D01*
X176678617Y-181213978D01*
X176689922Y-181289346D01*
X176969095Y-181571308D01*
X177122468Y-181553893D01*
X177259574Y-181213978D01*
X177215486Y-180988488D01*
X176969095Y-180856649D01*
X176888983Y-180893738D01*
X176678617Y-181213978D01*
X175706295Y-181213978D01*
X175701088Y-181180832D01*
X175836260Y-180508913D01*
X176394407Y-180109739D01*
X177309476Y-180034591D01*
X177424674Y-180045949D01*
X177876569Y-180127251D01*
X178118387Y-180343778D01*
X178229047Y-180832312D01*
X178253897Y-181213978D01*
X178287470Y-181729633D01*
X178308842Y-182440586D01*
X178300713Y-182827119D01*
X178291872Y-183247521D01*
X178228397Y-183709741D01*
G37*
G36*
X163231568Y-180050799D02*
G01*
X163357574Y-180510887D01*
X163445829Y-181275142D01*
X163490561Y-182183138D01*
X163486001Y-183074452D01*
X163426380Y-183788659D01*
X163305927Y-184165335D01*
X163228487Y-184231676D01*
X162934340Y-184209665D01*
X162738945Y-183713391D01*
X162668085Y-182798117D01*
X162668085Y-181546751D01*
X161564269Y-182814236D01*
X161024019Y-183390207D01*
X160461694Y-183889576D01*
X160108780Y-184081720D01*
X159886315Y-183891603D01*
X159672944Y-183304607D01*
X159529749Y-182481830D01*
X159484148Y-181588755D01*
X159563558Y-180790865D01*
X159638153Y-180506246D01*
X159906694Y-180012226D01*
X160191532Y-180001898D01*
X160419765Y-180437746D01*
X160518491Y-181282258D01*
X160530600Y-182579570D01*
X161681516Y-181282258D01*
X162261806Y-180671350D01*
X162818752Y-180175272D01*
X163155577Y-179984946D01*
X163231568Y-180050799D01*
G37*
G36*
X168097948Y-180054462D02*
G01*
X168291914Y-180494979D01*
X168395985Y-181404688D01*
X168477659Y-182824429D01*
X169546482Y-181404688D01*
X169803140Y-181069048D01*
X170452629Y-180312526D01*
X170889077Y-180029037D01*
X171151956Y-180236171D01*
X171280738Y-180951513D01*
X171314893Y-182192652D01*
X171309467Y-182826483D01*
X171261340Y-183732223D01*
X171154261Y-184196426D01*
X170977127Y-184287969D01*
X170875140Y-184201711D01*
X170674466Y-183699184D01*
X170557867Y-182921007D01*
X170476373Y-181666434D01*
X169375049Y-182874077D01*
X169287198Y-182969981D01*
X168524894Y-183734776D01*
X168017115Y-184045815D01*
X167714959Y-183880791D01*
X167569526Y-183217399D01*
X167531915Y-182033333D01*
X167539143Y-181341857D01*
X167593108Y-180525153D01*
X167715095Y-180104282D01*
X167923113Y-179984946D01*
X168097948Y-180054462D01*
G37*
D10*
%TO.C,D11*%
X124212500Y-122725000D02*
X126612500Y-122725000D01*
X126612500Y-122325000D02*
X124212500Y-122325000D01*
X126612500Y-122725000D02*
X126612500Y-116725000D01*
X124212500Y-122600000D02*
X126612500Y-122600000D01*
X126612500Y-116725000D02*
X124212500Y-116725000D01*
X124212500Y-116725000D02*
X124212500Y-122725000D01*
X126612500Y-122450000D02*
X124212500Y-122450000D01*
%TO.C,D15*%
X262325000Y-141650000D02*
X264725000Y-141650000D01*
X262325000Y-135775000D02*
X262325000Y-141775000D01*
X264725000Y-135775000D02*
X262325000Y-135775000D01*
X264725000Y-141500000D02*
X262325000Y-141500000D01*
X262325000Y-141775000D02*
X264725000Y-141775000D01*
X264725000Y-141775000D02*
X264725000Y-135775000D01*
X264725000Y-141375000D02*
X262325000Y-141375000D01*
%TO.C,D14*%
X281375000Y-135775000D02*
X281375000Y-141775000D01*
X281375000Y-141775000D02*
X283775000Y-141775000D01*
X283775000Y-135775000D02*
X281375000Y-135775000D01*
X283775000Y-141500000D02*
X281375000Y-141500000D01*
X283775000Y-141775000D02*
X283775000Y-135775000D01*
X283775000Y-141375000D02*
X281375000Y-141375000D01*
X281375000Y-141650000D02*
X283775000Y-141650000D01*
%TO.C,D8*%
X183762500Y-122450000D02*
X181362500Y-122450000D01*
X183762500Y-122725000D02*
X183762500Y-116725000D01*
X181362500Y-116725000D02*
X181362500Y-122725000D01*
X181362500Y-122725000D02*
X183762500Y-122725000D01*
X181362500Y-122600000D02*
X183762500Y-122600000D01*
X183762500Y-122325000D02*
X181362500Y-122325000D01*
X183762500Y-116725000D02*
X181362500Y-116725000D01*
%TO.C,D7*%
X200412500Y-122725000D02*
X202812500Y-122725000D01*
X202812500Y-122325000D02*
X200412500Y-122325000D01*
X200412500Y-116725000D02*
X200412500Y-122725000D01*
X202812500Y-122450000D02*
X200412500Y-122450000D01*
X200412500Y-122600000D02*
X202812500Y-122600000D01*
X202812500Y-116725000D02*
X200412500Y-116725000D01*
X202812500Y-122725000D02*
X202812500Y-116725000D01*
%TO.C,D30*%
X198050000Y-154825000D02*
X195650000Y-154825000D01*
X195650000Y-160825000D02*
X198050000Y-160825000D01*
X198050000Y-160425000D02*
X195650000Y-160425000D01*
X195650000Y-160700000D02*
X198050000Y-160700000D01*
X195650000Y-154825000D02*
X195650000Y-160825000D01*
X198050000Y-160550000D02*
X195650000Y-160550000D01*
X198050000Y-160825000D02*
X198050000Y-154825000D01*
%TO.C,D29*%
X214700000Y-160700000D02*
X217100000Y-160700000D01*
X217100000Y-160825000D02*
X217100000Y-154825000D01*
X214700000Y-154825000D02*
X214700000Y-160825000D01*
X217100000Y-154825000D02*
X214700000Y-154825000D01*
X214700000Y-160825000D02*
X217100000Y-160825000D01*
X217100000Y-160425000D02*
X214700000Y-160425000D01*
X217100000Y-160550000D02*
X214700000Y-160550000D01*
%TO.C,D18*%
X205175000Y-141650000D02*
X207575000Y-141650000D01*
X205175000Y-141775000D02*
X207575000Y-141775000D01*
X205175000Y-135775000D02*
X205175000Y-141775000D01*
X207575000Y-141375000D02*
X205175000Y-141375000D01*
X207575000Y-141775000D02*
X207575000Y-135775000D01*
X207575000Y-135775000D02*
X205175000Y-135775000D01*
X207575000Y-141500000D02*
X205175000Y-141500000D01*
%TO.C,D42*%
X110737500Y-173875000D02*
X108337500Y-173875000D01*
X110737500Y-179600000D02*
X108337500Y-179600000D01*
X108337500Y-179750000D02*
X110737500Y-179750000D01*
X110737500Y-179875000D02*
X110737500Y-173875000D01*
X110737500Y-179475000D02*
X108337500Y-179475000D01*
X108337500Y-179875000D02*
X110737500Y-179875000D01*
X108337500Y-173875000D02*
X108337500Y-179875000D01*
%TO.C,D33*%
X138500000Y-154825000D02*
X138500000Y-160825000D01*
X138500000Y-160825000D02*
X140900000Y-160825000D01*
X140900000Y-160425000D02*
X138500000Y-160425000D01*
X140900000Y-160550000D02*
X138500000Y-160550000D01*
X140900000Y-160825000D02*
X140900000Y-154825000D01*
X138500000Y-160700000D02*
X140900000Y-160700000D01*
X140900000Y-154825000D02*
X138500000Y-154825000D01*
%TO.C,D35*%
X100400000Y-160825000D02*
X102800000Y-160825000D01*
X102800000Y-160825000D02*
X102800000Y-154825000D01*
X100400000Y-154825000D02*
X100400000Y-160825000D01*
X100400000Y-160700000D02*
X102800000Y-160700000D01*
X102800000Y-160425000D02*
X100400000Y-160425000D01*
X102800000Y-154825000D02*
X100400000Y-154825000D01*
X102800000Y-160550000D02*
X100400000Y-160550000D01*
%TO.C,D22*%
X131375000Y-141775000D02*
X131375000Y-135775000D01*
X128975000Y-141775000D02*
X131375000Y-141775000D01*
X131375000Y-141500000D02*
X128975000Y-141500000D01*
X128975000Y-141650000D02*
X131375000Y-141650000D01*
X131375000Y-135775000D02*
X128975000Y-135775000D01*
X131375000Y-141375000D02*
X128975000Y-141375000D01*
X128975000Y-135775000D02*
X128975000Y-141775000D01*
%TO.C,D40*%
X265500000Y-179750000D02*
X267900000Y-179750000D01*
X267900000Y-179875000D02*
X267900000Y-173875000D01*
X265500000Y-173875000D02*
X265500000Y-179875000D01*
X267900000Y-179600000D02*
X265500000Y-179600000D01*
X267900000Y-173875000D02*
X265500000Y-173875000D01*
X265500000Y-179875000D02*
X267900000Y-179875000D01*
X267900000Y-179475000D02*
X265500000Y-179475000D01*
%TO.C,D23*%
X112325000Y-141500000D02*
X109925000Y-141500000D01*
X109925000Y-135775000D02*
X109925000Y-141775000D01*
X112325000Y-141375000D02*
X109925000Y-141375000D01*
X109925000Y-141775000D02*
X112325000Y-141775000D01*
X109925000Y-141650000D02*
X112325000Y-141650000D01*
X112325000Y-141775000D02*
X112325000Y-135775000D01*
X112325000Y-135775000D02*
X109925000Y-135775000D01*
%TO.C,D28*%
X236150000Y-160550000D02*
X233750000Y-160550000D01*
X236150000Y-160425000D02*
X233750000Y-160425000D01*
X236150000Y-160825000D02*
X236150000Y-154825000D01*
X233750000Y-160825000D02*
X236150000Y-160825000D01*
X233750000Y-154825000D02*
X233750000Y-160825000D01*
X236150000Y-154825000D02*
X233750000Y-154825000D01*
X233750000Y-160700000D02*
X236150000Y-160700000D01*
%TO.C,D26*%
X271850000Y-160700000D02*
X274250000Y-160700000D01*
X274250000Y-160550000D02*
X271850000Y-160550000D01*
X274250000Y-160825000D02*
X274250000Y-154825000D01*
X271850000Y-154825000D02*
X271850000Y-160825000D01*
X271850000Y-160825000D02*
X274250000Y-160825000D01*
X274250000Y-154825000D02*
X271850000Y-154825000D01*
X274250000Y-160425000D02*
X271850000Y-160425000D01*
%TO.C,D13*%
X326637500Y-141775000D02*
X326637500Y-135775000D01*
X324237500Y-141775000D02*
X326637500Y-141775000D01*
X326637500Y-135775000D02*
X324237500Y-135775000D01*
X324237500Y-135775000D02*
X324237500Y-141775000D01*
X326637500Y-141375000D02*
X324237500Y-141375000D01*
X324237500Y-141650000D02*
X326637500Y-141650000D01*
X326637500Y-141500000D02*
X324237500Y-141500000D01*
%TO.C,D6*%
X219462500Y-122725000D02*
X221862500Y-122725000D01*
X221862500Y-122325000D02*
X219462500Y-122325000D01*
X221862500Y-122725000D02*
X221862500Y-116725000D01*
X221862500Y-116725000D02*
X219462500Y-116725000D01*
X219462500Y-116725000D02*
X219462500Y-122725000D01*
X221862500Y-122450000D02*
X219462500Y-122450000D01*
X219462500Y-122600000D02*
X221862500Y-122600000D01*
%TO.C,D37*%
X331400000Y-184362500D02*
X329000000Y-184362500D01*
X329000000Y-184512500D02*
X331400000Y-184512500D01*
X331400000Y-184637500D02*
X331400000Y-178637500D01*
X329000000Y-178637500D02*
X329000000Y-184637500D01*
X331400000Y-178637500D02*
X329000000Y-178637500D01*
X331400000Y-184237500D02*
X329000000Y-184237500D01*
X329000000Y-184637500D02*
X331400000Y-184637500D01*
%TO.C,D31*%
X179000000Y-160425000D02*
X176600000Y-160425000D01*
X176600000Y-154825000D02*
X176600000Y-160825000D01*
X179000000Y-160550000D02*
X176600000Y-160550000D01*
X176600000Y-160825000D02*
X179000000Y-160825000D01*
X176600000Y-160700000D02*
X179000000Y-160700000D01*
X179000000Y-160825000D02*
X179000000Y-154825000D01*
X179000000Y-154825000D02*
X176600000Y-154825000D01*
%TO.C,D34*%
X119450000Y-154825000D02*
X119450000Y-160825000D01*
X119450000Y-160825000D02*
X121850000Y-160825000D01*
X121850000Y-154825000D02*
X119450000Y-154825000D01*
X121850000Y-160825000D02*
X121850000Y-154825000D01*
X119450000Y-160700000D02*
X121850000Y-160700000D01*
X121850000Y-160425000D02*
X119450000Y-160425000D01*
X121850000Y-160550000D02*
X119450000Y-160550000D01*
%TO.C,D5*%
X240912500Y-122725000D02*
X240912500Y-116725000D01*
X238512500Y-116725000D02*
X238512500Y-122725000D01*
X240912500Y-116725000D02*
X238512500Y-116725000D01*
X240912500Y-122450000D02*
X238512500Y-122450000D01*
X238512500Y-122600000D02*
X240912500Y-122600000D01*
X238512500Y-122725000D02*
X240912500Y-122725000D01*
X240912500Y-122325000D02*
X238512500Y-122325000D01*
%TO.C,D20*%
X169475000Y-141375000D02*
X167075000Y-141375000D01*
X167075000Y-141775000D02*
X169475000Y-141775000D01*
X169475000Y-141775000D02*
X169475000Y-135775000D01*
X167075000Y-135775000D02*
X167075000Y-141775000D01*
X167075000Y-141650000D02*
X169475000Y-141650000D01*
X169475000Y-135775000D02*
X167075000Y-135775000D01*
X169475000Y-141500000D02*
X167075000Y-141500000D01*
%TO.C,D27*%
X255200000Y-154825000D02*
X252800000Y-154825000D01*
X252800000Y-154825000D02*
X252800000Y-160825000D01*
X252800000Y-160825000D02*
X255200000Y-160825000D01*
X255200000Y-160825000D02*
X255200000Y-154825000D01*
X255200000Y-160550000D02*
X252800000Y-160550000D01*
X255200000Y-160425000D02*
X252800000Y-160425000D01*
X252800000Y-160700000D02*
X255200000Y-160700000D01*
D11*
%TO.C,U1*%
X332105000Y-106825000D02*
X332105000Y-139845000D01*
X332105000Y-139845000D02*
X349885000Y-139845000D01*
X349885000Y-106825000D02*
X349885000Y-139845000D01*
X332105000Y-106825000D02*
X349885000Y-106825000D01*
D10*
%TO.C,D3*%
X276612500Y-122600000D02*
X279012500Y-122600000D01*
X279012500Y-122725000D02*
X279012500Y-116725000D01*
X276612500Y-116725000D02*
X276612500Y-122725000D01*
X276612500Y-122725000D02*
X279012500Y-122725000D01*
X279012500Y-122325000D02*
X276612500Y-122325000D01*
X279012500Y-122450000D02*
X276612500Y-122450000D01*
X279012500Y-116725000D02*
X276612500Y-116725000D01*
%TO.C,D16*%
X245675000Y-141775000D02*
X245675000Y-135775000D01*
X243275000Y-141650000D02*
X245675000Y-141650000D01*
X243275000Y-135775000D02*
X243275000Y-141775000D01*
X245675000Y-141500000D02*
X243275000Y-141500000D01*
X245675000Y-141375000D02*
X243275000Y-141375000D01*
X245675000Y-135775000D02*
X243275000Y-135775000D01*
X243275000Y-141775000D02*
X245675000Y-141775000D01*
%TO.C,D4*%
X259962500Y-116725000D02*
X257562500Y-116725000D01*
X259962500Y-122725000D02*
X259962500Y-116725000D01*
X259962500Y-122450000D02*
X257562500Y-122450000D01*
X257562500Y-122600000D02*
X259962500Y-122600000D01*
X259962500Y-122325000D02*
X257562500Y-122325000D01*
X257562500Y-116725000D02*
X257562500Y-122725000D01*
X257562500Y-122725000D02*
X259962500Y-122725000D01*
%TO.C,D36*%
X348050000Y-184512500D02*
X350450000Y-184512500D01*
X350450000Y-184637500D02*
X350450000Y-178637500D01*
X350450000Y-184362500D02*
X348050000Y-184362500D01*
X348050000Y-178637500D02*
X348050000Y-184637500D01*
X350450000Y-178637500D02*
X348050000Y-178637500D01*
X350450000Y-184237500D02*
X348050000Y-184237500D01*
X348050000Y-184637500D02*
X350450000Y-184637500D01*
%TO.C,D38*%
X312350000Y-184362500D02*
X309950000Y-184362500D01*
X312350000Y-178637500D02*
X309950000Y-178637500D01*
X312350000Y-184637500D02*
X312350000Y-178637500D01*
X309950000Y-184512500D02*
X312350000Y-184512500D01*
X309950000Y-178637500D02*
X309950000Y-184637500D01*
X309950000Y-184637500D02*
X312350000Y-184637500D01*
X312350000Y-184237500D02*
X309950000Y-184237500D01*
%TO.C,D25*%
X307587500Y-154825000D02*
X305187500Y-154825000D01*
X305187500Y-154825000D02*
X305187500Y-160825000D01*
X305187500Y-160700000D02*
X307587500Y-160700000D01*
X307587500Y-160425000D02*
X305187500Y-160425000D01*
X307587500Y-160550000D02*
X305187500Y-160550000D01*
X307587500Y-160825000D02*
X307587500Y-154825000D01*
X305187500Y-160825000D02*
X307587500Y-160825000D01*
%TO.C,D1*%
X326637500Y-122450000D02*
X324237500Y-122450000D01*
X324237500Y-122725000D02*
X326637500Y-122725000D01*
X324237500Y-122600000D02*
X326637500Y-122600000D01*
X326637500Y-122725000D02*
X326637500Y-116725000D01*
X326637500Y-122325000D02*
X324237500Y-122325000D01*
X326637500Y-116725000D02*
X324237500Y-116725000D01*
X324237500Y-116725000D02*
X324237500Y-122725000D01*
%TO.C,D2*%
X295662500Y-122600000D02*
X298062500Y-122600000D01*
X295662500Y-116725000D02*
X295662500Y-122725000D01*
X295662500Y-122725000D02*
X298062500Y-122725000D01*
X298062500Y-122325000D02*
X295662500Y-122325000D01*
X298062500Y-122450000D02*
X295662500Y-122450000D01*
X298062500Y-122725000D02*
X298062500Y-116725000D01*
X298062500Y-116725000D02*
X295662500Y-116725000D01*
%TO.C,D21*%
X150425000Y-141375000D02*
X148025000Y-141375000D01*
X148025000Y-141775000D02*
X150425000Y-141775000D01*
X150425000Y-141500000D02*
X148025000Y-141500000D01*
X150425000Y-141775000D02*
X150425000Y-135775000D01*
X150425000Y-135775000D02*
X148025000Y-135775000D01*
X148025000Y-135775000D02*
X148025000Y-141775000D01*
X148025000Y-141650000D02*
X150425000Y-141650000D01*
%TO.C,D24*%
X331400000Y-165312500D02*
X329000000Y-165312500D01*
X329000000Y-159587500D02*
X329000000Y-165587500D01*
X331400000Y-159587500D02*
X329000000Y-159587500D01*
X331400000Y-165187500D02*
X329000000Y-165187500D01*
X329000000Y-165462500D02*
X331400000Y-165462500D01*
X329000000Y-165587500D02*
X331400000Y-165587500D01*
X331400000Y-165587500D02*
X331400000Y-159587500D01*
%TO.C,D9*%
X164712500Y-122325000D02*
X162312500Y-122325000D01*
X164712500Y-116725000D02*
X162312500Y-116725000D01*
X162312500Y-122725000D02*
X164712500Y-122725000D01*
X162312500Y-122600000D02*
X164712500Y-122600000D01*
X164712500Y-122725000D02*
X164712500Y-116725000D01*
X164712500Y-122450000D02*
X162312500Y-122450000D01*
X162312500Y-116725000D02*
X162312500Y-122725000D01*
%TO.C,D41*%
X134550000Y-179475000D02*
X132150000Y-179475000D01*
X132150000Y-179875000D02*
X134550000Y-179875000D01*
X134550000Y-173875000D02*
X132150000Y-173875000D01*
X132150000Y-179750000D02*
X134550000Y-179750000D01*
X134550000Y-179875000D02*
X134550000Y-173875000D01*
X132150000Y-173875000D02*
X132150000Y-179875000D01*
X134550000Y-179600000D02*
X132150000Y-179600000D01*
%TO.C,D32*%
X157550000Y-160825000D02*
X159950000Y-160825000D01*
X159950000Y-160425000D02*
X157550000Y-160425000D01*
X157550000Y-154825000D02*
X157550000Y-160825000D01*
X159950000Y-160550000D02*
X157550000Y-160550000D01*
X159950000Y-160825000D02*
X159950000Y-154825000D01*
X157550000Y-160700000D02*
X159950000Y-160700000D01*
X159950000Y-154825000D02*
X157550000Y-154825000D01*
%TO.C,D19*%
X186125000Y-135775000D02*
X186125000Y-141775000D01*
X186125000Y-141650000D02*
X188525000Y-141650000D01*
X188525000Y-135775000D02*
X186125000Y-135775000D01*
X188525000Y-141500000D02*
X186125000Y-141500000D01*
X186125000Y-141775000D02*
X188525000Y-141775000D01*
X188525000Y-141375000D02*
X186125000Y-141375000D01*
X188525000Y-141775000D02*
X188525000Y-135775000D01*
%TO.C,D39*%
X286950000Y-179600000D02*
X284550000Y-179600000D01*
X286950000Y-173875000D02*
X284550000Y-173875000D01*
X284550000Y-179750000D02*
X286950000Y-179750000D01*
X286950000Y-179875000D02*
X286950000Y-173875000D01*
X284550000Y-179875000D02*
X286950000Y-179875000D01*
X284550000Y-173875000D02*
X284550000Y-179875000D01*
X286950000Y-179475000D02*
X284550000Y-179475000D01*
%TO.C,D12*%
X107562500Y-122725000D02*
X107562500Y-116725000D01*
X107562500Y-116725000D02*
X105162500Y-116725000D01*
X105162500Y-116725000D02*
X105162500Y-122725000D01*
X105162500Y-122725000D02*
X107562500Y-122725000D01*
X105162500Y-122600000D02*
X107562500Y-122600000D01*
X107562500Y-122325000D02*
X105162500Y-122325000D01*
X107562500Y-122450000D02*
X105162500Y-122450000D01*
%TO.C,D17*%
X226625000Y-141775000D02*
X226625000Y-135775000D01*
X226625000Y-135775000D02*
X224225000Y-135775000D01*
X226625000Y-141375000D02*
X224225000Y-141375000D01*
X226625000Y-141500000D02*
X224225000Y-141500000D01*
X224225000Y-141775000D02*
X226625000Y-141775000D01*
X224225000Y-141650000D02*
X226625000Y-141650000D01*
X224225000Y-135775000D02*
X224225000Y-141775000D01*
%TO.C,D10*%
X143262500Y-122725000D02*
X145662500Y-122725000D01*
X145662500Y-122725000D02*
X145662500Y-116725000D01*
X145662500Y-122450000D02*
X143262500Y-122450000D01*
X143262500Y-116725000D02*
X143262500Y-122725000D01*
X143262500Y-122600000D02*
X145662500Y-122600000D01*
X145662500Y-116725000D02*
X143262500Y-116725000D01*
X145662500Y-122325000D02*
X143262500Y-122325000D01*
%TD*%
M02*
