M48
; DRILL file {KiCad (6.0.10)} date Sun Feb 19 18:35:38 2023
; FORMAT={-:-/ absolute / inch / decimal}
; #@! TF.CreationDate,2023-02-19T18:35:38+11:00
; #@! TF.GenerationSoftware,Kicad,Pcbnew,(6.0.10)
; #@! TF.FileFunction,Plated,1,2,PTH
FMAT,2
INCH
; #@! TA.AperFunction,Plated,PTH,ComponentDrill
T1C0.0300
; #@! TA.AperFunction,Plated,PTH,ComponentDrill
T2C0.0394
; #@! TA.AperFunction,Plated,PTH,ComponentDrill
T3C0.0579
%
G90
G05
T1
X13.125Y-4.2557
X13.125Y-4.3557
X13.125Y-4.4557
X13.125Y-4.5557
X13.125Y-4.6557
X13.125Y-4.7557
X13.125Y-4.8557
X13.125Y-4.9557
X13.125Y-5.0557
X13.125Y-5.1557
X13.125Y-5.2557
X13.125Y-5.3557
X13.125Y-5.4557
X13.225Y-4.5557
X13.225Y-5.4557
X13.325Y-5.4557
X13.425Y-5.4557
X13.525Y-5.4557
X13.625Y-5.4557
X13.725Y-4.2557
X13.725Y-4.3557
X13.725Y-4.4557
X13.725Y-4.5557
X13.725Y-4.6557
X13.725Y-4.7557
X13.725Y-4.8557
X13.725Y-4.9557
X13.725Y-5.0557
X13.725Y-5.1557
X13.725Y-5.2557
X13.725Y-5.3557
X13.725Y-5.4557
T2
X13.2745Y-5.1865
X13.3266Y-4.4104
X13.3266Y-4.9813
X13.3745Y-5.1865
X13.425Y-4.4104
X13.4745Y-5.1865
X13.5234Y-4.4104
X13.5234Y-4.9813
X13.5745Y-5.1865
T3
X3.3813Y-6.1057
X3.475Y-4.6057
X3.5688Y-5.3557
X3.6313Y-6.0057
X3.725Y-4.5057
X3.7875Y-6.8557
X3.8188Y-5.2557
X4.0375Y-6.7557
X4.225Y-6.1057
X4.4125Y-4.6057
X4.475Y-6.0057
X4.6Y-5.3557
X4.6312Y-6.8557
X4.6625Y-4.5057
X4.85Y-5.2557
X4.8812Y-6.7557
X4.975Y-6.1057
X5.1625Y-4.6057
X5.225Y-6.0057
X5.35Y-5.3557
X5.4125Y-4.5057
X5.6Y-5.2557
X5.725Y-6.1057
X5.9125Y-4.6057
X5.975Y-6.0057
X6.1Y-5.3557
X6.1625Y-4.5057
X6.35Y-5.2557
X6.475Y-6.1057
X6.6625Y-4.6057
X6.725Y-6.0057
X6.85Y-5.3557
X6.9125Y-4.5057
X7.1Y-5.2557
X7.225Y-6.1057
X7.4125Y-4.6057
X7.475Y-6.0057
X7.6Y-5.3557
X7.6625Y-4.5057
X7.725Y-6.8557
X7.85Y-5.2557
X7.975Y-6.1057
X7.975Y-6.7557
X8.1625Y-4.6057
X8.225Y-6.0057
X8.35Y-5.3557
X8.4125Y-4.5057
X8.6Y-5.2557
X8.725Y-6.1057
X8.9125Y-4.6057
X8.975Y-6.0057
X9.1Y-5.3557
X9.1625Y-4.5057
X9.35Y-5.2557
X9.475Y-6.1057
X9.6625Y-4.6057
X9.725Y-6.0057
X9.85Y-5.3557
X9.9125Y-4.5057
X10.1Y-5.2557
X10.225Y-6.1057
X10.4125Y-4.6057
X10.475Y-6.0057
X10.6Y-5.3557
X10.6625Y-4.5057
X10.725Y-6.8557
X10.85Y-5.2557
X10.975Y-6.7557
X11.1625Y-4.6057
X11.2562Y-6.1057
X11.4125Y-4.5057
X11.5062Y-6.0057
X11.725Y-7.0432
X11.8187Y-5.3557
X11.975Y-6.9432
X12.0687Y-5.2557
X12.1Y-4.6057
X12.35Y-4.5057
X12.475Y-6.2932
X12.475Y-7.0432
X12.725Y-6.1932
X12.725Y-6.9432
X13.225Y-7.0432
X13.475Y-6.9432
T0
M30
