%TF.GenerationSoftware,KiCad,Pcbnew,(6.0.10)*%
%TF.CreationDate,2023-02-19T18:35:27+11:00*%
%TF.ProjectId,whykb,7768796b-622e-46b6-9963-61645f706362,REV1*%
%TF.SameCoordinates,Original*%
%TF.FileFunction,Copper,L1,Top*%
%TF.FilePolarity,Positive*%
%FSLAX46Y46*%
G04 Gerber Fmt 4.6, Leading zero omitted, Abs format (unit mm)*
G04 Created by KiCad (PCBNEW (6.0.10)) date 2023-02-19 18:35:27*
%MOMM*%
%LPD*%
G01*
G04 APERTURE LIST*
%TA.AperFunction,ComponentPad*%
%ADD10C,2.250000*%
%TD*%
%TA.AperFunction,ComponentPad*%
%ADD11C,2.000000*%
%TD*%
%TA.AperFunction,ComponentPad*%
%ADD12R,2.000000X2.000000*%
%TD*%
%TA.AperFunction,ComponentPad*%
%ADD13O,1.700000X1.700000*%
%TD*%
%TA.AperFunction,ComponentPad*%
%ADD14R,1.700000X1.700000*%
%TD*%
%TA.AperFunction,ComponentPad*%
%ADD15C,1.524000*%
%TD*%
%TA.AperFunction,Conductor*%
%ADD16C,0.254000*%
%TD*%
%TA.AperFunction,Conductor*%
%ADD17C,0.381000*%
%TD*%
G04 APERTURE END LIST*
D10*
%TO.P,K40,2*%
%TO.N,Net-(D40-Pad2)*%
X202565000Y-171595000D03*
%TO.P,K40,1*%
%TO.N,col6*%
X196215000Y-174135000D03*
%TD*%
%TO.P,K30,2*%
%TO.N,Net-(D30-Pad2)*%
X189865000Y-152545000D03*
%TO.P,K30,1*%
%TO.N,col6*%
X183515000Y-155085000D03*
%TD*%
%TO.P,K22,2*%
%TO.N,Net-(D22-Pad2)*%
X123190000Y-133495000D03*
%TO.P,K22,1*%
%TO.N,col9*%
X116840000Y-136035000D03*
%TD*%
%TO.P,K37,2*%
%TO.N,Net-(D37-Pad2)*%
X323215000Y-176357500D03*
%TO.P,K37,1*%
%TO.N,col1*%
X316865000Y-178897500D03*
%TD*%
%TO.P,K17,2*%
%TO.N,Net-(D17-Pad2)*%
X218440000Y-133495000D03*
%TO.P,K17,1*%
%TO.N,col4*%
X212090000Y-136035000D03*
%TD*%
%TO.P,K1,2*%
%TO.N,Net-(D1-Pad2)*%
X313690000Y-114445000D03*
%TO.P,K1,1*%
%TO.N,col0*%
X307340000Y-116985000D03*
%TD*%
%TO.P,K8,2*%
%TO.N,Net-(D8-Pad2)*%
X175577500Y-114445000D03*
%TO.P,K8,1*%
%TO.N,col7*%
X169227500Y-116985000D03*
%TD*%
%TO.P,K41,2*%
%TO.N,Net-(D41-Pad2)*%
X123983750Y-171595000D03*
%TO.P,K41,1*%
%TO.N,col9*%
X117633750Y-174135000D03*
%TD*%
%TO.P,K13,2*%
%TO.N,Net-(D13-Pad2)*%
X306546250Y-133495000D03*
%TO.P,K13,1*%
%TO.N,col0*%
X300196250Y-136035000D03*
%TD*%
%TO.P,K16,2*%
%TO.N,Net-(D16-Pad2)*%
X237490000Y-133495000D03*
%TO.P,K16,1*%
%TO.N,col3*%
X231140000Y-136035000D03*
%TD*%
%TO.P,K19,2*%
%TO.N,Net-(D19-Pad2)*%
X180340000Y-133495000D03*
%TO.P,K19,1*%
%TO.N,col6*%
X173990000Y-136035000D03*
%TD*%
%TO.P,K9,2*%
%TO.N,Net-(D9-Pad2)*%
X156527500Y-114445000D03*
%TO.P,K9,1*%
%TO.N,col8*%
X150177500Y-116985000D03*
%TD*%
%TO.P,K4,2*%
%TO.N,Net-(D4-Pad2)*%
X251777500Y-114445000D03*
%TO.P,K4,1*%
%TO.N,col3*%
X245427500Y-116985000D03*
%TD*%
%TO.P,K5,2*%
%TO.N,Net-(D5-Pad2)*%
X232727500Y-114445000D03*
%TO.P,K5,1*%
%TO.N,col4*%
X226377500Y-116985000D03*
%TD*%
%TO.P,K26,2*%
%TO.N,Net-(D26-Pad2)*%
X266065000Y-152545000D03*
%TO.P,K26,1*%
%TO.N,col2*%
X259715000Y-155085000D03*
%TD*%
%TO.P,K23,2*%
%TO.N,Net-(D23-Pad2)*%
X96996250Y-133495000D03*
%TO.P,K23,1*%
%TO.N,col11*%
X90646250Y-136035000D03*
%TD*%
%TO.P,K36,2*%
%TO.N,Net-(D36-Pad2)*%
X342265000Y-176357500D03*
%TO.P,K36,1*%
%TO.N,col0*%
X335915000Y-178897500D03*
%TD*%
%TO.P,K35,2*%
%TO.N,Net-(D35-Pad2)*%
X92233750Y-152545000D03*
%TO.P,K35,1*%
%TO.N,col11*%
X85883750Y-155085000D03*
%TD*%
%TO.P,K31,2*%
%TO.N,Net-(D31-Pad2)*%
X170815000Y-152545000D03*
%TO.P,K31,1*%
%TO.N,col7*%
X164465000Y-155085000D03*
%TD*%
%TO.P,K25,2*%
%TO.N,Net-(D25-Pad2)*%
X292258750Y-152545000D03*
%TO.P,K25,1*%
%TO.N,col1*%
X285908750Y-155085000D03*
%TD*%
%TO.P,K7,2*%
%TO.N,Net-(D7-Pad2)*%
X194627500Y-114445000D03*
%TO.P,K7,1*%
%TO.N,col6*%
X188277500Y-116985000D03*
%TD*%
%TO.P,K2,2*%
%TO.N,Net-(D2-Pad2)*%
X289877500Y-114445000D03*
%TO.P,K2,1*%
%TO.N,col1*%
X283527500Y-116985000D03*
%TD*%
%TO.P,K38,2*%
%TO.N,Net-(D38-Pad2)*%
X304165000Y-176357500D03*
%TO.P,K38,1*%
%TO.N,col2*%
X297815000Y-178897500D03*
%TD*%
%TO.P,K14,2*%
%TO.N,Net-(D14-Pad2)*%
X275590000Y-133495000D03*
%TO.P,K14,1*%
%TO.N,col1*%
X269240000Y-136035000D03*
%TD*%
%TO.P,K28,2*%
%TO.N,Net-(D28-Pad2)*%
X227965000Y-152545000D03*
%TO.P,K28,1*%
%TO.N,col4*%
X221615000Y-155085000D03*
%TD*%
%TO.P,K3,2*%
%TO.N,Net-(D3-Pad2)*%
X270827500Y-114445000D03*
%TO.P,K3,1*%
%TO.N,col2*%
X264477500Y-116985000D03*
%TD*%
%TO.P,K33,2*%
%TO.N,Net-(D33-Pad2)*%
X132715000Y-152545000D03*
%TO.P,K33,1*%
%TO.N,col9*%
X126365000Y-155085000D03*
%TD*%
%TO.P,K42,2*%
%TO.N,Net-(D42-Pad2)*%
X102552500Y-171595000D03*
%TO.P,K42,1*%
%TO.N,col10*%
X96202500Y-174135000D03*
%TD*%
%TO.P,K32,2*%
%TO.N,Net-(D32-Pad2)*%
X151765000Y-152545000D03*
%TO.P,K32,1*%
%TO.N,col8*%
X145415000Y-155085000D03*
%TD*%
%TO.P,K20,2*%
%TO.N,Net-(D20-Pad2)*%
X161290000Y-133495000D03*
%TO.P,K20,1*%
%TO.N,col7*%
X154940000Y-136035000D03*
%TD*%
%TO.P,K21,2*%
%TO.N,Net-(D21-Pad2)*%
X142240000Y-133495000D03*
%TO.P,K21,1*%
%TO.N,col8*%
X135890000Y-136035000D03*
%TD*%
%TO.P,K24,2*%
%TO.N,Net-(D24-Pad2)*%
X323215000Y-157307500D03*
%TO.P,K24,1*%
%TO.N,col0*%
X316865000Y-159847500D03*
%TD*%
%TO.P,K11,2*%
%TO.N,Net-(D11-Pad2)*%
X118427500Y-114445000D03*
%TO.P,K11,1*%
%TO.N,col10*%
X112077500Y-116985000D03*
%TD*%
%TO.P,K18,2*%
%TO.N,Net-(D18-Pad2)*%
X199390000Y-133495000D03*
%TO.P,K18,1*%
%TO.N,col5*%
X193040000Y-136035000D03*
%TD*%
%TO.P,K34,2*%
%TO.N,Net-(D34-Pad2)*%
X113665000Y-152545000D03*
%TO.P,K34,1*%
%TO.N,col10*%
X107315000Y-155085000D03*
%TD*%
%TO.P,K29,2*%
%TO.N,Net-(D29-Pad2)*%
X208915000Y-152545000D03*
%TO.P,K29,1*%
%TO.N,col5*%
X202565000Y-155085000D03*
%TD*%
%TO.P,K6,2*%
%TO.N,Net-(D6-Pad2)*%
X213677500Y-114445000D03*
%TO.P,K6,1*%
%TO.N,col5*%
X207327500Y-116985000D03*
%TD*%
%TO.P,K10,2*%
%TO.N,Net-(D10-Pad2)*%
X137477500Y-114445000D03*
%TO.P,K10,1*%
%TO.N,col9*%
X131127500Y-116985000D03*
%TD*%
%TO.P,K12,2*%
%TO.N,Net-(D12-Pad2)*%
X94615000Y-114445000D03*
%TO.P,K12,1*%
%TO.N,col11*%
X88265000Y-116985000D03*
%TD*%
D11*
%TO.P,SW2,S2,S2*%
%TO.N,GND*%
X343495000Y-126525000D03*
%TO.P,SW2,S1,S1*%
%TO.N,D22*%
X338495000Y-126525000D03*
%TO.P,SW2,C,C*%
%TO.N,GND*%
X340995000Y-112025000D03*
%TO.P,SW2,B,B*%
%TO.N,outB*%
X338495000Y-112025000D03*
D12*
%TO.P,SW2,A,A*%
%TO.N,outA*%
X343495000Y-112025000D03*
%TD*%
D10*
%TO.P,K15,2*%
%TO.N,Net-(D15-Pad2)*%
X256540000Y-133495000D03*
%TO.P,K15,1*%
%TO.N,col2*%
X250190000Y-136035000D03*
%TD*%
%TO.P,K39,2*%
%TO.N,Net-(D39-Pad2)*%
X278765000Y-171595000D03*
%TO.P,K39,1*%
%TO.N,col3*%
X272415000Y-174135000D03*
%TD*%
D13*
%TO.P,U2,4,Pin_4*%
%TO.N,SDA*%
X344793000Y-131737000D03*
%TO.P,U2,3,Pin_3*%
%TO.N,SCL*%
X342253000Y-131737000D03*
%TO.P,U2,2,Pin_2*%
%TO.N,VCC*%
X339713000Y-131737000D03*
D14*
%TO.P,U2,1,Pin_1*%
%TO.N,GND*%
X337173000Y-131737000D03*
%TD*%
D10*
%TO.P,K27,2*%
%TO.N,Net-(D27-Pad2)*%
X247015000Y-152545000D03*
%TO.P,K27,1*%
%TO.N,col3*%
X240665000Y-155085000D03*
%TD*%
D15*
%TO.P,U1,32,D-*%
%TO.N,unconnected-(U1-Pad32)*%
X333375000Y-108095000D03*
%TO.P,U1,31,RAW*%
%TO.N,unconnected-(U1-Pad31)*%
X333375000Y-110635000D03*
%TO.P,U1,30,GND*%
%TO.N,GND*%
X333375000Y-113175000D03*
%TO.P,U1,29,nRST*%
%TO.N,unconnected-(U1-Pad29)*%
X333375000Y-115715000D03*
%TO.P,U1,28,5V/D25*%
%TO.N,unconnected-(U1-Pad28)*%
X335915000Y-115715000D03*
%TO.P,U1,27,3V3*%
%TO.N,VCC*%
X333375000Y-118255000D03*
%TO.P,U1,26,ADC3/D29*%
%TO.N,col11*%
X333375000Y-120795000D03*
%TO.P,U1,25,ADC2/D28*%
%TO.N,col10*%
X333375000Y-123335000D03*
%TO.P,U1,24,ADC1/D27*%
%TO.N,col9*%
X333375000Y-125875000D03*
%TO.P,U1,23,ADC0/D26*%
%TO.N,col8*%
X333375000Y-128415000D03*
%TO.P,U1,22,SCK/D22*%
%TO.N,D22*%
X333375000Y-130955000D03*
%TO.P,U1,21,MISO/D20*%
%TO.N,col7*%
X333375000Y-133495000D03*
%TO.P,U1,20,MOSI/D23*%
%TO.N,outA*%
X333375000Y-136035000D03*
%TO.P,U1,19,nCS/D21*%
%TO.N,outB*%
X333375000Y-138575000D03*
%TO.P,U1,18,D16*%
%TO.N,col6*%
X335915000Y-138575000D03*
%TO.P,U1,17,D15*%
%TO.N,col5*%
X338455000Y-138575000D03*
%TO.P,U1,16,D14*%
%TO.N,col4*%
X340995000Y-138575000D03*
%TO.P,U1,15,D13*%
%TO.N,col3*%
X343535000Y-138575000D03*
%TO.P,U1,14,D12*%
%TO.N,col2*%
X346075000Y-138575000D03*
%TO.P,U1,13,D9*%
%TO.N,col0*%
X348615000Y-138575000D03*
%TO.P,U1,12,D8*%
%TO.N,col1*%
X348615000Y-136035000D03*
%TO.P,U1,11,D7*%
%TO.N,row1*%
X348615000Y-133495000D03*
%TO.P,U1,10,D6*%
%TO.N,row2*%
X348615000Y-130955000D03*
%TO.P,U1,9,D5*%
%TO.N,row3*%
X348615000Y-128415000D03*
%TO.P,U1,8,D4*%
%TO.N,row0*%
X348615000Y-125875000D03*
%TO.P,U1,7,SCL/D3*%
%TO.N,SDA*%
X348615000Y-123335000D03*
%TO.P,U1,6,SDA/D2*%
%TO.N,SCL*%
X348615000Y-120795000D03*
%TO.P,U1,5,GND*%
%TO.N,GND*%
X348615000Y-118255000D03*
%TO.P,U1,4,GND*%
X348615000Y-115715000D03*
%TO.P,U1,3,RX/D1*%
%TO.N,unconnected-(U1-Pad3)*%
X348615000Y-113175000D03*
%TO.P,U1,2,TX/D0*%
%TO.N,unconnected-(U1-Pad2)*%
X348615000Y-110635000D03*
%TO.P,U1,1,D+*%
%TO.N,unconnected-(U1-Pad1)*%
X348615000Y-108095000D03*
%TD*%
D16*
%TO.N,col0*%
X317500000Y-163830000D02*
X320802000Y-167132000D01*
X317500000Y-160482500D02*
X317500000Y-163830000D01*
X335915000Y-178897500D02*
X337992500Y-178897500D01*
X307340000Y-116985000D02*
X307340000Y-118618000D01*
X339090000Y-173990000D02*
X348615000Y-164465000D01*
X300990000Y-143972500D02*
X316865000Y-159847500D01*
X300990000Y-138430000D02*
X300990000Y-143972500D01*
X300196250Y-137636250D02*
X300990000Y-138430000D01*
X307340000Y-118618000D02*
X308356000Y-119634000D01*
X308356000Y-127875250D02*
X300196250Y-136035000D01*
X316865000Y-159847500D02*
X317500000Y-160482500D01*
X348615000Y-164465000D02*
X348615000Y-138575000D01*
X300196250Y-136035000D02*
X300196250Y-137636250D01*
X339090000Y-177800000D02*
X339090000Y-173990000D01*
X320802000Y-167132000D02*
X324149500Y-167132000D01*
X308356000Y-119634000D02*
X308356000Y-127875250D01*
X324149500Y-167132000D02*
X335915000Y-178897500D01*
X337992500Y-178897500D02*
X339090000Y-177800000D01*
%TO.N,col1*%
X349250000Y-189230000D02*
X351282000Y-187198000D01*
X316865000Y-178897500D02*
X316865000Y-179705000D01*
X269240000Y-137414000D02*
X270256000Y-138430000D01*
X285908750Y-155085000D02*
X296690000Y-155085000D01*
X296690000Y-155085000D02*
X316865000Y-175260000D01*
X316865000Y-175260000D02*
X316865000Y-178897500D01*
X316865000Y-179705000D02*
X317500000Y-180340000D01*
X284480000Y-119380000D02*
X284480000Y-120795000D01*
X283527500Y-116985000D02*
X283527500Y-118427500D01*
X270256000Y-145288000D02*
X280053000Y-155085000D01*
X317500000Y-184150000D02*
X322580000Y-189230000D01*
X322580000Y-189230000D02*
X349250000Y-189230000D01*
X284480000Y-120795000D02*
X269240000Y-136035000D01*
X351282000Y-138702000D02*
X348615000Y-136035000D01*
X280053000Y-155085000D02*
X285908750Y-155085000D01*
X351282000Y-187198000D02*
X351282000Y-138702000D01*
X283527500Y-118427500D02*
X284480000Y-119380000D01*
X270256000Y-138430000D02*
X270256000Y-145288000D01*
X317500000Y-180340000D02*
X317500000Y-184150000D01*
X269240000Y-136035000D02*
X269240000Y-137414000D01*
%TO.N,col2*%
X264477500Y-118681500D02*
X265430000Y-119634000D01*
X251206000Y-138430000D02*
X251206000Y-146576000D01*
X260350000Y-161544000D02*
X262636000Y-163830000D01*
X259715000Y-155085000D02*
X259715000Y-156845000D01*
X316738000Y-112268000D02*
X319532000Y-115062000D01*
X344424000Y-154178000D02*
X346075000Y-152527000D01*
X265430000Y-119634000D02*
X265430000Y-120795000D01*
X259715000Y-156845000D02*
X260350000Y-157480000D01*
X250190000Y-137414000D02*
X251206000Y-138430000D01*
X264477500Y-116985000D02*
X264477500Y-118681500D01*
X262636000Y-163830000D02*
X294640000Y-163830000D01*
X265176000Y-112268000D02*
X316738000Y-112268000D01*
X319532000Y-115062000D02*
X319532000Y-152400000D01*
X321310000Y-154178000D02*
X344424000Y-154178000D01*
X264477500Y-116985000D02*
X264477500Y-112966500D01*
X346075000Y-152527000D02*
X346075000Y-138575000D01*
X294640000Y-163830000D02*
X297815000Y-167005000D01*
X319532000Y-152400000D02*
X321310000Y-154178000D01*
X250190000Y-136035000D02*
X250190000Y-137414000D01*
X264477500Y-112966500D02*
X265176000Y-112268000D01*
X297815000Y-167005000D02*
X297815000Y-178897500D01*
X265430000Y-120795000D02*
X250190000Y-136035000D01*
X251206000Y-146576000D02*
X259715000Y-155085000D01*
X260350000Y-157480000D02*
X260350000Y-161544000D01*
%TO.N,col3*%
X240665000Y-155085000D02*
X241554000Y-155974000D01*
X245427500Y-116985000D02*
X245427500Y-118681500D01*
X317119000Y-111633000D02*
X320294000Y-114808000D01*
X250779500Y-111633000D02*
X317119000Y-111633000D01*
X231140000Y-136035000D02*
X231140000Y-137922000D01*
X265666000Y-167386000D02*
X272415000Y-174135000D01*
X320294000Y-151892000D02*
X321818000Y-153416000D01*
X246380000Y-167386000D02*
X265666000Y-167386000D01*
X241554000Y-155974000D02*
X241554000Y-162560000D01*
X246380000Y-120795000D02*
X231140000Y-136035000D01*
X246380000Y-119634000D02*
X246380000Y-120795000D01*
X320294000Y-114808000D02*
X320294000Y-151892000D01*
X241554000Y-162560000D02*
X246380000Y-167386000D01*
X245427500Y-118681500D02*
X246380000Y-119634000D01*
X231902000Y-138684000D02*
X231902000Y-146322000D01*
X231140000Y-137922000D02*
X231902000Y-138684000D01*
X231902000Y-146322000D02*
X240665000Y-155085000D01*
X321818000Y-153416000D02*
X342646000Y-153416000D01*
X342646000Y-153416000D02*
X343535000Y-152527000D01*
X343535000Y-152527000D02*
X343535000Y-138575000D01*
X245427500Y-116985000D02*
X250779500Y-111633000D01*
%TO.N,col4*%
X317500000Y-110998000D02*
X320929000Y-114427000D01*
X226377500Y-116985000D02*
X226377500Y-118681500D01*
X212090000Y-137668000D02*
X212852000Y-138430000D01*
X227076000Y-119380000D02*
X227076000Y-121049000D01*
X212852000Y-138430000D02*
X212852000Y-146322000D01*
X226377500Y-116985000D02*
X232364500Y-110998000D01*
X338836000Y-152654000D02*
X340995000Y-150495000D01*
X232364500Y-110998000D02*
X317500000Y-110998000D01*
X212852000Y-146322000D02*
X221615000Y-155085000D01*
X226377500Y-118681500D02*
X227076000Y-119380000D01*
X227076000Y-121049000D02*
X212090000Y-136035000D01*
X340995000Y-150495000D02*
X340995000Y-138575000D01*
X322072000Y-152654000D02*
X338836000Y-152654000D01*
X212090000Y-136035000D02*
X212090000Y-137668000D01*
X320929000Y-151511000D02*
X322072000Y-152654000D01*
X320929000Y-114427000D02*
X320929000Y-151511000D01*
%TO.N,col5*%
X193040000Y-137668000D02*
X193802000Y-138430000D01*
X208026000Y-119380000D02*
X208026000Y-121049000D01*
X208026000Y-121049000D02*
X193040000Y-136035000D01*
X193802000Y-138430000D02*
X193802000Y-146322000D01*
X207327500Y-118681500D02*
X208026000Y-119380000D01*
X193802000Y-146322000D02*
X202565000Y-155085000D01*
X207327500Y-116985000D02*
X207327500Y-118681500D01*
X193040000Y-136035000D02*
X193040000Y-137668000D01*
X207327500Y-116985000D02*
X213822500Y-110490000D01*
X213822500Y-110490000D02*
X317754000Y-110490000D01*
X336042000Y-151892000D02*
X338455000Y-149479000D01*
X317754000Y-110490000D02*
X321691000Y-114427000D01*
X321691000Y-114427000D02*
X321691000Y-151257000D01*
X322326000Y-151892000D02*
X336042000Y-151892000D01*
X338455000Y-149479000D02*
X338455000Y-138575000D01*
X321691000Y-151257000D02*
X322326000Y-151892000D01*
%TO.N,col6*%
X174752000Y-146322000D02*
X183515000Y-155085000D01*
X174752000Y-138430000D02*
X174752000Y-146322000D01*
X188976000Y-119380000D02*
X188976000Y-121049000D01*
X335915000Y-148971000D02*
X335915000Y-138575000D01*
X183515000Y-155085000D02*
X183515000Y-156337000D01*
X195280500Y-109982000D02*
X318262000Y-109982000D01*
X184404000Y-162324000D02*
X196215000Y-174135000D01*
X188277500Y-116985000D02*
X195280500Y-109982000D01*
X173990000Y-137668000D02*
X174752000Y-138430000D01*
X188277500Y-118681500D02*
X188976000Y-119380000D01*
X322961000Y-151257000D02*
X333629000Y-151257000D01*
X333629000Y-151257000D02*
X335915000Y-148971000D01*
X173990000Y-136035000D02*
X173990000Y-137668000D01*
X322453000Y-150749000D02*
X322961000Y-151257000D01*
X322453000Y-114173000D02*
X322453000Y-150749000D01*
X183515000Y-156337000D02*
X184404000Y-157226000D01*
X318262000Y-109982000D02*
X322453000Y-114173000D01*
X184404000Y-157226000D02*
X184404000Y-162324000D01*
X188976000Y-121049000D02*
X173990000Y-136035000D01*
X188277500Y-116985000D02*
X188277500Y-118681500D01*
%TO.N,col7*%
X169227500Y-116985000D02*
X176738500Y-109474000D01*
X169227500Y-116985000D02*
X169227500Y-118681500D01*
X324249000Y-133495000D02*
X333375000Y-133495000D01*
X323088000Y-113792000D02*
X323088000Y-132334000D01*
X169926000Y-121049000D02*
X154940000Y-136035000D01*
X176738500Y-109474000D02*
X318770000Y-109474000D01*
X154940000Y-136035000D02*
X154940000Y-137668000D01*
X169227500Y-118681500D02*
X169926000Y-119380000D01*
X169926000Y-119380000D02*
X169926000Y-121049000D01*
X155702000Y-138430000D02*
X155702000Y-146304000D01*
X323088000Y-132334000D02*
X324249000Y-133495000D01*
X318770000Y-109474000D02*
X323088000Y-113792000D01*
X154940000Y-137668000D02*
X155702000Y-138430000D01*
X155693000Y-146313000D02*
X164465000Y-155085000D01*
%TO.N,col8*%
X323850000Y-113538000D02*
X323850000Y-127254000D01*
X136643000Y-146313000D02*
X145415000Y-155085000D01*
X319278000Y-108966000D02*
X323850000Y-113538000D01*
X150177500Y-116985000D02*
X158196500Y-108966000D01*
X323850000Y-127254000D02*
X325011000Y-128415000D01*
X135890000Y-136035000D02*
X135890000Y-137922000D01*
X135890000Y-137922000D02*
X136652000Y-138684000D01*
X150876000Y-119126000D02*
X150876000Y-121049000D01*
X150177500Y-118427500D02*
X150876000Y-119126000D01*
X158196500Y-108966000D02*
X319278000Y-108966000D01*
X136652000Y-138684000D02*
X136652000Y-146304000D01*
X150876000Y-121049000D02*
X135890000Y-136035000D01*
X325011000Y-128415000D02*
X333375000Y-128415000D01*
X150177500Y-116985000D02*
X150177500Y-118427500D01*
%TO.N,col9*%
X131826000Y-119126000D02*
X131826000Y-121049000D01*
X327152000Y-124968000D02*
X328059000Y-125875000D01*
X117633750Y-174135000D02*
X117633750Y-169894250D01*
X117856000Y-146576000D02*
X126365000Y-155085000D01*
X116840000Y-136035000D02*
X116840000Y-137922000D01*
X328059000Y-125875000D02*
X333375000Y-125875000D01*
X322326000Y-108458000D02*
X327152000Y-113284000D01*
X131127500Y-118427500D02*
X131826000Y-119126000D01*
X139654500Y-108458000D02*
X322326000Y-108458000D01*
X131127500Y-116985000D02*
X131127500Y-118427500D01*
X116840000Y-137922000D02*
X117856000Y-138938000D01*
X117633750Y-169894250D02*
X126365000Y-161163000D01*
X131826000Y-121049000D02*
X116840000Y-136035000D01*
X126365000Y-161163000D02*
X126365000Y-155085000D01*
X131127500Y-116985000D02*
X139654500Y-108458000D01*
X117856000Y-138938000D02*
X117856000Y-146576000D01*
X327152000Y-113284000D02*
X327152000Y-124968000D01*
%TO.N,col10*%
X107315000Y-163022500D02*
X96202500Y-174135000D01*
X113030000Y-119380000D02*
X113030000Y-125730000D01*
X113030000Y-125730000D02*
X107315000Y-131445000D01*
X107315000Y-155085000D02*
X107315000Y-163022500D01*
X327660000Y-113030000D02*
X327660000Y-122174000D01*
X112077500Y-116985000D02*
X112077500Y-118427500D01*
X107315000Y-131445000D02*
X107315000Y-155085000D01*
X112077500Y-118427500D02*
X113030000Y-119380000D01*
X328821000Y-123335000D02*
X333375000Y-123335000D01*
X121112500Y-107950000D02*
X322580000Y-107950000D01*
X112077500Y-116985000D02*
X121112500Y-107950000D01*
X322580000Y-107950000D02*
X327660000Y-113030000D01*
X327660000Y-122174000D02*
X328821000Y-123335000D01*
%TO.N,col11*%
X91186000Y-138176000D02*
X91186000Y-149782750D01*
X328168000Y-112776000D02*
X328168000Y-119634000D01*
X97808000Y-107442000D02*
X322834000Y-107442000D01*
X90646250Y-137636250D02*
X91186000Y-138176000D01*
X322834000Y-107442000D02*
X328168000Y-112776000D01*
X329329000Y-120795000D02*
X333375000Y-120795000D01*
X90646250Y-136035000D02*
X90646250Y-137636250D01*
X88265000Y-116985000D02*
X88265000Y-118491000D01*
X89154000Y-134542750D02*
X90646250Y-136035000D01*
X88265000Y-116985000D02*
X97808000Y-107442000D01*
X89154000Y-119380000D02*
X89154000Y-134542750D01*
X91186000Y-149782750D02*
X85883750Y-155085000D01*
X328168000Y-119634000D02*
X329329000Y-120795000D01*
X88265000Y-118491000D02*
X89154000Y-119380000D01*
D17*
%TO.N,GND*%
X348615000Y-115715000D02*
X348615000Y-118255000D01*
X340995000Y-110363000D02*
X340995000Y-112025000D01*
X346601000Y-115715000D02*
X348615000Y-115715000D01*
X343495000Y-126525000D02*
X343495000Y-123375000D01*
X344932000Y-109728000D02*
X345948000Y-110744000D01*
X337173000Y-130695000D02*
X338328000Y-129540000D01*
X345948000Y-115062000D02*
X346601000Y-115715000D01*
X342867000Y-126525000D02*
X343495000Y-126525000D01*
X341630000Y-109728000D02*
X344932000Y-109728000D01*
X333375000Y-113175000D02*
X336822000Y-109728000D01*
X343495000Y-123375000D02*
X348615000Y-118255000D01*
X345948000Y-110744000D02*
X345948000Y-115062000D01*
X339852000Y-129540000D02*
X342867000Y-126525000D01*
X340360000Y-109728000D02*
X340995000Y-110363000D01*
X336822000Y-109728000D02*
X340360000Y-109728000D01*
X338328000Y-129540000D02*
X339852000Y-129540000D01*
X337173000Y-131737000D02*
X337173000Y-130695000D01*
X340995000Y-110363000D02*
X341630000Y-109728000D01*
D16*
%TO.N,outA*%
X335280000Y-130810000D02*
X337312000Y-128778000D01*
X342215600Y-113304400D02*
X342215600Y-123112400D01*
X335280000Y-134130000D02*
X335280000Y-130810000D01*
X339598000Y-128778000D02*
X341122000Y-127254000D01*
X341122000Y-124206000D02*
X342215600Y-123112400D01*
X337312000Y-128778000D02*
X339598000Y-128778000D01*
X341122000Y-127254000D02*
X341122000Y-124206000D01*
X333375000Y-136035000D02*
X335280000Y-134130000D01*
X343495000Y-112025000D02*
X342215600Y-113304400D01*
%TO.N,D22*%
X338495000Y-126525000D02*
X334065000Y-130955000D01*
X334065000Y-130955000D02*
X333375000Y-130955000D01*
%TO.N,SCL*%
X346456000Y-129286000D02*
X345440000Y-130302000D01*
X346456000Y-129286000D02*
X346456000Y-122954000D01*
X345440000Y-130302000D02*
X343688000Y-130302000D01*
X343688000Y-130302000D02*
X342253000Y-131737000D01*
X346456000Y-122954000D02*
X348615000Y-120795000D01*
%TO.N,SDA*%
X344793000Y-131737000D02*
X346964000Y-129566000D01*
X346964000Y-129566000D02*
X346964000Y-124986000D01*
X346964000Y-124986000D02*
X348615000Y-123335000D01*
%TD*%
M02*
