%TF.GenerationSoftware,KiCad,Pcbnew,(6.0.10)*%
%TF.CreationDate,2023-02-19T18:35:27+11:00*%
%TF.ProjectId,whykb,7768796b-622e-46b6-9963-61645f706362,REV1*%
%TF.SameCoordinates,Original*%
%TF.FileFunction,Legend,Bot*%
%TF.FilePolarity,Positive*%
%FSLAX46Y46*%
G04 Gerber Fmt 4.6, Leading zero omitted, Abs format (unit mm)*
G04 Created by KiCad (PCBNEW (6.0.10)) date 2023-02-19 18:35:27*
%MOMM*%
%LPD*%
G01*
G04 APERTURE LIST*
G04 Aperture macros list*
%AMRoundRect*
0 Rectangle with rounded corners*
0 $1 Rounding radius*
0 $2 $3 $4 $5 $6 $7 $8 $9 X,Y pos of 4 corners*
0 Add a 4 corners polygon primitive as box body*
4,1,4,$2,$3,$4,$5,$6,$7,$8,$9,$2,$3,0*
0 Add four circle primitives for the rounded corners*
1,1,$1+$1,$2,$3*
1,1,$1+$1,$4,$5*
1,1,$1+$1,$6,$7*
1,1,$1+$1,$8,$9*
0 Add four rect primitives between the rounded corners*
20,1,$1+$1,$2,$3,$4,$5,0*
20,1,$1+$1,$4,$5,$6,$7,0*
20,1,$1+$1,$6,$7,$8,$9,0*
20,1,$1+$1,$8,$9,$2,$3,0*%
G04 Aperture macros list end*
%ADD10C,0.200000*%
%ADD11C,0.120000*%
%ADD12C,2.351600*%
%ADD13C,1.851600*%
%ADD14C,3.149600*%
%ADD15C,4.089400*%
%ADD16C,2.101600*%
%ADD17RoundRect,0.050800X-1.000000X1.000000X-1.000000X-1.000000X1.000000X-1.000000X1.000000X1.000000X0*%
%ADD18O,1.801600X1.801600*%
%ADD19RoundRect,0.050800X0.850000X-0.850000X0.850000X0.850000X-0.850000X0.850000X-0.850000X-0.850000X0*%
%ADD20RoundRect,0.050800X0.700000X-0.600000X0.700000X0.600000X-0.700000X0.600000X-0.700000X-0.600000X0*%
%ADD21C,1.625600*%
G04 APERTURE END LIST*
D10*
%TO.C,D11*%
X126612500Y-122450000D02*
X124212500Y-122450000D01*
X124212500Y-116725000D02*
X124212500Y-122725000D01*
X126612500Y-116725000D02*
X124212500Y-116725000D01*
X124212500Y-122600000D02*
X126612500Y-122600000D01*
X126612500Y-122725000D02*
X126612500Y-116725000D01*
X126612500Y-122325000D02*
X124212500Y-122325000D01*
X124212500Y-122725000D02*
X126612500Y-122725000D01*
%TO.C,D15*%
X264725000Y-141375000D02*
X262325000Y-141375000D01*
X264725000Y-141775000D02*
X264725000Y-135775000D01*
X262325000Y-141775000D02*
X264725000Y-141775000D01*
X264725000Y-141500000D02*
X262325000Y-141500000D01*
X264725000Y-135775000D02*
X262325000Y-135775000D01*
X262325000Y-135775000D02*
X262325000Y-141775000D01*
X262325000Y-141650000D02*
X264725000Y-141650000D01*
%TO.C,D14*%
X281375000Y-141650000D02*
X283775000Y-141650000D01*
X283775000Y-141375000D02*
X281375000Y-141375000D01*
X283775000Y-141775000D02*
X283775000Y-135775000D01*
X283775000Y-141500000D02*
X281375000Y-141500000D01*
X283775000Y-135775000D02*
X281375000Y-135775000D01*
X281375000Y-141775000D02*
X283775000Y-141775000D01*
X281375000Y-135775000D02*
X281375000Y-141775000D01*
%TO.C,D8*%
X183762500Y-116725000D02*
X181362500Y-116725000D01*
X183762500Y-122325000D02*
X181362500Y-122325000D01*
X181362500Y-122600000D02*
X183762500Y-122600000D01*
X181362500Y-122725000D02*
X183762500Y-122725000D01*
X181362500Y-116725000D02*
X181362500Y-122725000D01*
X183762500Y-122725000D02*
X183762500Y-116725000D01*
X183762500Y-122450000D02*
X181362500Y-122450000D01*
%TO.C,D7*%
X202812500Y-122725000D02*
X202812500Y-116725000D01*
X202812500Y-116725000D02*
X200412500Y-116725000D01*
X200412500Y-122600000D02*
X202812500Y-122600000D01*
X202812500Y-122450000D02*
X200412500Y-122450000D01*
X200412500Y-116725000D02*
X200412500Y-122725000D01*
X202812500Y-122325000D02*
X200412500Y-122325000D01*
X200412500Y-122725000D02*
X202812500Y-122725000D01*
%TO.C,D30*%
X198050000Y-160825000D02*
X198050000Y-154825000D01*
X198050000Y-160550000D02*
X195650000Y-160550000D01*
X195650000Y-154825000D02*
X195650000Y-160825000D01*
X195650000Y-160700000D02*
X198050000Y-160700000D01*
X198050000Y-160425000D02*
X195650000Y-160425000D01*
X195650000Y-160825000D02*
X198050000Y-160825000D01*
X198050000Y-154825000D02*
X195650000Y-154825000D01*
%TO.C,D29*%
X217100000Y-160550000D02*
X214700000Y-160550000D01*
X217100000Y-160425000D02*
X214700000Y-160425000D01*
X214700000Y-160825000D02*
X217100000Y-160825000D01*
X217100000Y-154825000D02*
X214700000Y-154825000D01*
X214700000Y-154825000D02*
X214700000Y-160825000D01*
X217100000Y-160825000D02*
X217100000Y-154825000D01*
X214700000Y-160700000D02*
X217100000Y-160700000D01*
%TO.C,D18*%
X207575000Y-141500000D02*
X205175000Y-141500000D01*
X207575000Y-135775000D02*
X205175000Y-135775000D01*
X207575000Y-141775000D02*
X207575000Y-135775000D01*
X207575000Y-141375000D02*
X205175000Y-141375000D01*
X205175000Y-135775000D02*
X205175000Y-141775000D01*
X205175000Y-141775000D02*
X207575000Y-141775000D01*
X205175000Y-141650000D02*
X207575000Y-141650000D01*
%TO.C,D42*%
X108337500Y-173875000D02*
X108337500Y-179875000D01*
X108337500Y-179875000D02*
X110737500Y-179875000D01*
X110737500Y-179475000D02*
X108337500Y-179475000D01*
X110737500Y-179875000D02*
X110737500Y-173875000D01*
X108337500Y-179750000D02*
X110737500Y-179750000D01*
X110737500Y-179600000D02*
X108337500Y-179600000D01*
X110737500Y-173875000D02*
X108337500Y-173875000D01*
%TO.C,D33*%
X140900000Y-154825000D02*
X138500000Y-154825000D01*
X138500000Y-160700000D02*
X140900000Y-160700000D01*
X140900000Y-160825000D02*
X140900000Y-154825000D01*
X140900000Y-160550000D02*
X138500000Y-160550000D01*
X140900000Y-160425000D02*
X138500000Y-160425000D01*
X138500000Y-160825000D02*
X140900000Y-160825000D01*
X138500000Y-154825000D02*
X138500000Y-160825000D01*
%TO.C,D35*%
X102800000Y-160550000D02*
X100400000Y-160550000D01*
X102800000Y-154825000D02*
X100400000Y-154825000D01*
X102800000Y-160425000D02*
X100400000Y-160425000D01*
X100400000Y-160700000D02*
X102800000Y-160700000D01*
X100400000Y-154825000D02*
X100400000Y-160825000D01*
X102800000Y-160825000D02*
X102800000Y-154825000D01*
X100400000Y-160825000D02*
X102800000Y-160825000D01*
%TO.C,D22*%
X128975000Y-135775000D02*
X128975000Y-141775000D01*
X131375000Y-141375000D02*
X128975000Y-141375000D01*
X131375000Y-135775000D02*
X128975000Y-135775000D01*
X128975000Y-141650000D02*
X131375000Y-141650000D01*
X131375000Y-141500000D02*
X128975000Y-141500000D01*
X128975000Y-141775000D02*
X131375000Y-141775000D01*
X131375000Y-141775000D02*
X131375000Y-135775000D01*
%TO.C,G\u002A\u002A\u002A*%
G36*
X216830301Y-155043129D02*
G01*
X217104630Y-155460560D01*
X217049461Y-156155376D01*
X216972777Y-156305854D01*
X216545495Y-156478248D01*
X215900000Y-156227248D01*
X215645380Y-155935641D01*
X215793856Y-155480355D01*
X215878835Y-155355288D01*
X216372896Y-154981799D01*
X216830301Y-155043129D01*
G37*
G36*
X220515117Y-157353712D02*
G01*
X220940504Y-157693408D01*
X220931361Y-158285122D01*
X220882786Y-158382047D01*
X220465170Y-158650979D01*
X219939629Y-158603593D01*
X219575905Y-158247396D01*
X219504932Y-157981252D01*
X219647542Y-157491685D01*
X220223404Y-157316129D01*
X220515117Y-157353712D01*
G37*
G36*
X301827659Y-162674683D02*
G01*
X301445218Y-162945210D01*
X300553027Y-163602651D01*
X299665957Y-164282245D01*
X299167226Y-164659367D01*
X298371774Y-165210532D01*
X297774468Y-165564879D01*
X297114258Y-165925455D01*
X296356775Y-166401928D01*
X295710118Y-166803528D01*
X294791824Y-167318575D01*
X293733692Y-167878801D01*
X292658275Y-168422297D01*
X291688122Y-168887157D01*
X290945786Y-169211471D01*
X290553818Y-169333333D01*
X290165560Y-169432848D01*
X289574711Y-169740488D01*
X289395852Y-169847314D01*
X288640193Y-170203757D01*
X287760282Y-170530750D01*
X286978867Y-170792781D01*
X285857509Y-171189016D01*
X284728984Y-171604239D01*
X284629417Y-171641720D01*
X283733178Y-171974643D01*
X283067005Y-172214383D01*
X282768726Y-172311232D01*
X282662799Y-172326709D01*
X281903537Y-172475676D01*
X280842141Y-172718311D01*
X279658458Y-173010534D01*
X278532335Y-173308263D01*
X277643617Y-173567417D01*
X276922905Y-173749647D01*
X275820473Y-173953952D01*
X274671276Y-174108532D01*
X273658318Y-174250018D01*
X272716379Y-174447407D01*
X272104255Y-174651345D01*
X271813351Y-174752450D01*
X270961130Y-174923994D01*
X269727674Y-175095354D01*
X268211666Y-175257548D01*
X266511787Y-175401596D01*
X264726719Y-175518517D01*
X262955144Y-175599328D01*
X261295744Y-175635049D01*
X260437731Y-175651221D01*
X259293799Y-175707516D01*
X258406651Y-175792795D01*
X257918085Y-175896098D01*
X257679690Y-175953827D01*
X256892475Y-176013797D01*
X255692493Y-176029771D01*
X254158617Y-176006544D01*
X252369715Y-175948912D01*
X250404660Y-175861670D01*
X248342320Y-175749614D01*
X246261568Y-175617539D01*
X244241273Y-175470242D01*
X242360305Y-175312518D01*
X240697536Y-175149162D01*
X239331836Y-174984971D01*
X238342076Y-174824740D01*
X237807125Y-174673264D01*
X237465298Y-174534392D01*
X236604440Y-174301095D01*
X235625532Y-174130864D01*
X235084172Y-174050631D01*
X234027425Y-173832354D01*
X233193617Y-173586583D01*
X233026559Y-173524257D01*
X232208172Y-173235953D01*
X231120129Y-172868279D01*
X229951064Y-172485304D01*
X228625999Y-172018407D01*
X225902510Y-170849303D01*
X223039173Y-169367982D01*
X223003425Y-169347882D01*
X221275667Y-168207699D01*
X219467699Y-166725411D01*
X217671621Y-165002259D01*
X215979531Y-163139483D01*
X214483528Y-161238322D01*
X213275712Y-159400016D01*
X212448180Y-157725806D01*
X212281496Y-157248157D01*
X211919947Y-155912028D01*
X211584812Y-154310829D01*
X211313639Y-152635931D01*
X211243851Y-151995382D01*
X213224807Y-151995382D01*
X213347674Y-152914263D01*
X213608922Y-154311828D01*
X213924110Y-155711420D01*
X214259411Y-156770004D01*
X214590007Y-157332646D01*
X214926959Y-157425483D01*
X214978497Y-157414704D01*
X215170909Y-157670977D01*
X215236750Y-158430721D01*
X215250373Y-158852935D01*
X215384256Y-159430608D01*
X215748045Y-159950209D01*
X216446566Y-160599666D01*
X216993186Y-161016743D01*
X217875744Y-161602569D01*
X218914889Y-162236954D01*
X219988741Y-162850551D01*
X220975423Y-163374012D01*
X221753055Y-163737992D01*
X222199761Y-163873143D01*
X222415997Y-163928819D01*
X223018124Y-164157332D01*
X223821038Y-164502629D01*
X224574344Y-164790672D01*
X225816416Y-165183153D01*
X227355602Y-165616762D01*
X229067939Y-166059584D01*
X230829468Y-166479709D01*
X232516227Y-166845222D01*
X234004255Y-167124212D01*
X234027728Y-167128091D01*
X234871727Y-167241868D01*
X236131758Y-167380437D01*
X237689402Y-167532233D01*
X239426240Y-167685692D01*
X241223852Y-167829249D01*
X241702327Y-167865094D01*
X243824024Y-168015576D01*
X245568381Y-168117115D01*
X247069523Y-168170822D01*
X248461576Y-168177810D01*
X249878667Y-168139192D01*
X251454923Y-168056078D01*
X253324468Y-167929581D01*
X255780058Y-167746798D01*
X258320105Y-167536338D01*
X260507679Y-167324543D01*
X262445160Y-167099319D01*
X264234929Y-166848576D01*
X265979366Y-166560222D01*
X267780851Y-166222164D01*
X269065315Y-165973263D01*
X270594616Y-165683067D01*
X271989513Y-165423808D01*
X272253489Y-165372912D01*
X274111445Y-164893958D01*
X276011914Y-164224498D01*
X277760997Y-163440371D01*
X279164796Y-162617413D01*
X280203569Y-161889802D01*
X280712633Y-162525229D01*
X280793424Y-162625720D01*
X281134128Y-162973434D01*
X281456240Y-162973669D01*
X281994159Y-162649078D01*
X282094450Y-162580177D01*
X282472438Y-162224710D01*
X282434374Y-162025560D01*
X282315365Y-161968764D01*
X282213330Y-161822581D01*
X282912766Y-161822581D01*
X283047872Y-161959140D01*
X283182978Y-161822581D01*
X283047872Y-161686021D01*
X282912766Y-161822581D01*
X282213330Y-161822581D01*
X282102127Y-161663262D01*
X282110450Y-161621393D01*
X282414017Y-161461226D01*
X283009307Y-161421982D01*
X283697555Y-161500787D01*
X284279995Y-161694766D01*
X284693778Y-161804581D01*
X285310114Y-161692176D01*
X286238973Y-161311839D01*
X286831370Y-161048405D01*
X287822394Y-160644261D01*
X288604934Y-160367111D01*
X288679460Y-160344263D01*
X289585005Y-160028630D01*
X290627332Y-159615808D01*
X291644810Y-159175454D01*
X292475808Y-158777226D01*
X292958696Y-158490782D01*
X293263862Y-158289168D01*
X293948703Y-157900237D01*
X294802127Y-157454522D01*
X295454123Y-157111288D01*
X296396652Y-156566704D01*
X297098936Y-156104720D01*
X297176207Y-156047897D01*
X297849814Y-155602509D01*
X298382447Y-155324487D01*
X298636164Y-155185691D01*
X298855319Y-154866636D01*
X298870269Y-154779491D01*
X299158770Y-154584946D01*
X299256250Y-154567541D01*
X299796898Y-154296795D01*
X300608544Y-153756241D01*
X301593415Y-153020981D01*
X302653737Y-152166116D01*
X303691739Y-151266749D01*
X304609648Y-150397981D01*
X304867876Y-150136896D01*
X306456242Y-148440483D01*
X307828504Y-146817979D01*
X308959384Y-145312387D01*
X309823608Y-143966704D01*
X310395900Y-142823933D01*
X310650984Y-141927073D01*
X310563586Y-141319124D01*
X310108430Y-141043087D01*
X309709349Y-140872243D01*
X309214916Y-140402768D01*
X308872649Y-140041757D01*
X308424069Y-139836559D01*
X308189894Y-139767568D01*
X307848630Y-139370445D01*
X307532946Y-138773205D01*
X306597700Y-137867819D01*
X305230905Y-137210414D01*
X304723964Y-137030701D01*
X303891644Y-136687474D01*
X303342604Y-136398310D01*
X303139518Y-136298677D01*
X302818395Y-136282664D01*
X302338952Y-136407881D01*
X301621548Y-136703271D01*
X300586546Y-137197774D01*
X299154306Y-137920330D01*
X298748376Y-138127082D01*
X297265998Y-138874685D01*
X295822914Y-139592354D01*
X294566436Y-140207210D01*
X293643877Y-140646379D01*
X293474158Y-140726255D01*
X292653595Y-141156061D01*
X292110633Y-141515234D01*
X291955420Y-141732894D01*
X291940216Y-141848416D01*
X291592073Y-141836113D01*
X291174624Y-141856689D01*
X290403377Y-142066377D01*
X289497551Y-142424927D01*
X288839273Y-142724636D01*
X287667001Y-143252860D01*
X286861865Y-143602932D01*
X286338097Y-143809761D01*
X286009927Y-143908259D01*
X285791586Y-143933333D01*
X285646107Y-143956337D01*
X285065415Y-144153513D01*
X284312998Y-144486718D01*
X284039649Y-144614319D01*
X283127342Y-144978671D01*
X282365132Y-145204790D01*
X281750506Y-145389520D01*
X281405025Y-145607319D01*
X281240915Y-145736718D01*
X280735116Y-145845161D01*
X280334174Y-146010678D01*
X280219131Y-146415195D01*
X280498453Y-146812071D01*
X280603533Y-147030984D01*
X280321467Y-147510985D01*
X279810647Y-147958361D01*
X279473307Y-147907343D01*
X279240748Y-147347312D01*
X279063707Y-146896191D01*
X278812072Y-146664516D01*
X278690260Y-146770605D01*
X278719245Y-147194119D01*
X278747083Y-147574297D01*
X278373530Y-148000690D01*
X278362049Y-148006812D01*
X277804170Y-148097595D01*
X277434735Y-147825789D01*
X277423429Y-147314031D01*
X277476171Y-147161061D01*
X277465575Y-146994625D01*
X277233933Y-146990766D01*
X276686822Y-147160730D01*
X275729819Y-147515764D01*
X275638686Y-147550463D01*
X274833004Y-147897172D01*
X274494672Y-148152063D01*
X274571278Y-148353010D01*
X274598050Y-148372051D01*
X274701619Y-148509931D01*
X274321724Y-148435490D01*
X273815670Y-148400721D01*
X272953621Y-148489992D01*
X271993994Y-148676644D01*
X271149185Y-148918262D01*
X270631595Y-149172428D01*
X270301175Y-149315940D01*
X269672340Y-149395699D01*
X269158472Y-149459210D01*
X268702168Y-149666196D01*
X268537834Y-149764775D01*
X267926304Y-149952692D01*
X267094402Y-150097566D01*
X266663530Y-150157098D01*
X265799967Y-150320197D01*
X265213829Y-150489292D01*
X264944178Y-150593774D01*
X264201469Y-150809168D01*
X263139273Y-151035457D01*
X261648770Y-151297307D01*
X261118053Y-151391960D01*
X260400564Y-151546190D01*
X260027494Y-151663612D01*
X259847595Y-151704930D01*
X259196450Y-151788582D01*
X258166886Y-151892730D01*
X256853544Y-152008034D01*
X255351064Y-152125154D01*
X253944192Y-152216832D01*
X251932560Y-152298495D01*
X249881777Y-152314229D01*
X247626022Y-152264421D01*
X244999475Y-152149462D01*
X242964135Y-152038650D01*
X240803128Y-151898382D01*
X238981819Y-151745008D01*
X237388447Y-151565563D01*
X235911254Y-151347085D01*
X234438482Y-151076609D01*
X232858370Y-150741174D01*
X232507197Y-150665479D01*
X231273239Y-150433710D01*
X230150435Y-150269012D01*
X229345604Y-150203066D01*
X229219783Y-150199679D01*
X228137728Y-150064563D01*
X227113829Y-149797500D01*
X226921356Y-149731139D01*
X226035212Y-149496665D01*
X225305840Y-149399811D01*
X224780542Y-149327724D01*
X224411702Y-149122581D01*
X224126634Y-148943304D01*
X223534827Y-148849462D01*
X223503725Y-148849057D01*
X222832730Y-148770438D01*
X221783073Y-148576264D01*
X220486607Y-148296400D01*
X219075185Y-147960711D01*
X217680662Y-147599062D01*
X216434889Y-147241317D01*
X215903619Y-147127679D01*
X215305246Y-147212339D01*
X215089361Y-147609748D01*
X215019782Y-147862175D01*
X214668431Y-148316321D01*
X214253030Y-148837700D01*
X213854686Y-149642556D01*
X213594196Y-150475034D01*
X213563916Y-151102190D01*
X213590234Y-151350571D01*
X213442885Y-151428344D01*
X213383025Y-151399345D01*
X213237523Y-151506604D01*
X213224807Y-151995382D01*
X211243851Y-151995382D01*
X211143978Y-151078707D01*
X211120046Y-150729065D01*
X211093225Y-149687469D01*
X211178774Y-149026195D01*
X211389120Y-148620643D01*
X211670207Y-148202064D01*
X211981316Y-147483871D01*
X212022036Y-147362227D01*
X212369314Y-146645854D01*
X212858826Y-145885402D01*
X213537905Y-144969729D01*
X215326931Y-145161392D01*
X216209481Y-145284772D01*
X217333239Y-145510495D01*
X218196808Y-145759015D01*
X218624546Y-145911997D01*
X219101673Y-146060120D01*
X219701092Y-146219371D01*
X220504323Y-146408975D01*
X221592891Y-146648159D01*
X223048318Y-146956148D01*
X224952127Y-147352168D01*
X225074390Y-147377511D01*
X226294349Y-147631862D01*
X227458426Y-147876790D01*
X228329787Y-148062489D01*
X228800117Y-148154412D01*
X229843325Y-148332961D01*
X231127793Y-148533640D01*
X232475984Y-148727956D01*
X233442317Y-148871330D01*
X234572940Y-149067870D01*
X235435493Y-149251396D01*
X235895743Y-149395698D01*
X235932303Y-149412649D01*
X236489612Y-149540089D01*
X237558006Y-149682233D01*
X239112066Y-149836776D01*
X241126371Y-150001411D01*
X243575503Y-150173832D01*
X246434042Y-150351733D01*
X247494882Y-150404822D01*
X249997155Y-150463071D01*
X252504317Y-150436968D01*
X254925803Y-150332865D01*
X257171053Y-150157118D01*
X259149503Y-149916079D01*
X260770591Y-149616103D01*
X261943755Y-149263545D01*
X262317162Y-149135903D01*
X263251122Y-148906740D01*
X264268085Y-148736516D01*
X264441209Y-148712864D01*
X265500328Y-148515987D01*
X266783515Y-148218504D01*
X268051064Y-147875005D01*
X268292859Y-147803707D01*
X269587717Y-147424191D01*
X270848917Y-147057706D01*
X271834042Y-146774757D01*
X272407146Y-146605076D01*
X273447006Y-146269657D01*
X274265957Y-145973159D01*
X274959298Y-145733281D01*
X275995547Y-145427955D01*
X277103191Y-145140839D01*
X277135804Y-145132994D01*
X278131228Y-144859966D01*
X278943659Y-144578140D01*
X279400000Y-144347319D01*
X279892878Y-144065452D01*
X280615957Y-143818962D01*
X281246835Y-143634344D01*
X282294806Y-143273021D01*
X283583300Y-142796444D01*
X284977992Y-142256692D01*
X286344557Y-141705846D01*
X287548670Y-141195988D01*
X288456006Y-140779198D01*
X289018607Y-140514999D01*
X289733481Y-140223148D01*
X290153117Y-140109677D01*
X290527863Y-139991726D01*
X291298661Y-139664728D01*
X292380684Y-139170212D01*
X293689353Y-138549709D01*
X295140088Y-137844748D01*
X296648310Y-137096857D01*
X298129439Y-136347565D01*
X299498897Y-135638404D01*
X300672103Y-135010901D01*
X301564479Y-134506586D01*
X301869088Y-134322611D01*
X302893359Y-133656931D01*
X303769467Y-133021497D01*
X304334511Y-132532408D01*
X305295094Y-131461643D01*
X306320156Y-130226540D01*
X307268814Y-128999761D01*
X308041792Y-127909891D01*
X308539815Y-127085516D01*
X308720690Y-126743868D01*
X309112570Y-126103170D01*
X309395802Y-125769602D01*
X309598700Y-125557245D01*
X309997785Y-124919976D01*
X310443976Y-124047797D01*
X310859265Y-123108676D01*
X311165645Y-122270585D01*
X311285106Y-121701490D01*
X311372728Y-121077398D01*
X311785684Y-120525433D01*
X312585533Y-120258649D01*
X313825136Y-120246771D01*
X315630359Y-120518120D01*
X317162542Y-121100622D01*
X318602829Y-122068883D01*
X319375037Y-122799145D01*
X319971233Y-123698403D01*
X320356223Y-124834166D01*
X320601099Y-126359062D01*
X320658285Y-126971080D01*
X320635009Y-128008125D01*
X320341257Y-128756663D01*
X319695024Y-129366448D01*
X318614302Y-129987233D01*
X317973236Y-130372886D01*
X316781558Y-131296145D01*
X315510289Y-132476126D01*
X314285363Y-133783936D01*
X313232714Y-135090679D01*
X312478278Y-136267463D01*
X312245740Y-136700243D01*
X311811236Y-137469619D01*
X311496714Y-137977023D01*
X311407051Y-138120002D01*
X311356347Y-138528059D01*
X311701785Y-139029684D01*
X311725184Y-139056163D01*
X311921015Y-139332702D01*
X312059002Y-139699553D01*
X312149062Y-140247888D01*
X312201112Y-141068880D01*
X312218465Y-141927073D01*
X312225069Y-142253700D01*
X312230851Y-143893520D01*
X312229951Y-144804959D01*
X312217723Y-146197550D01*
X312179785Y-147212754D01*
X312101980Y-147961594D01*
X311970147Y-148555097D01*
X311770129Y-149104285D01*
X311487766Y-149720184D01*
X311145746Y-150473682D01*
X310852668Y-151210389D01*
X310737042Y-151632012D01*
X310719902Y-151726784D01*
X310481915Y-152254072D01*
X309955245Y-153163442D01*
X309128628Y-154473646D01*
X307990800Y-156203432D01*
X307908508Y-156322566D01*
X307301048Y-157095282D01*
X306437965Y-158089881D01*
X305420384Y-159200178D01*
X304349436Y-160319990D01*
X303326247Y-161343134D01*
X302815232Y-161822581D01*
X302451945Y-162163426D01*
X301827659Y-162674683D01*
G37*
G36*
X260433581Y-182062041D02*
G01*
X260458752Y-183016497D01*
X260415875Y-183542442D01*
X260279727Y-183749334D01*
X260025088Y-183746630D01*
X259769246Y-183633870D01*
X259606915Y-183314425D01*
X259615143Y-183214349D01*
X259422242Y-183006748D01*
X259017346Y-183073642D01*
X258593617Y-183398925D01*
X258399808Y-183572414D01*
X257904563Y-183777265D01*
X257444974Y-183778426D01*
X257242553Y-183550971D01*
X257368567Y-183297637D01*
X257788877Y-182906565D01*
X258001120Y-182747106D01*
X258173750Y-182472905D01*
X257923983Y-182174840D01*
X257566099Y-181617087D01*
X257590956Y-181398704D01*
X258495099Y-181398704D01*
X258505890Y-181717065D01*
X258898084Y-181909187D01*
X259352293Y-181782307D01*
X259558662Y-181350538D01*
X259499536Y-181032606D01*
X259244332Y-180804301D01*
X259180541Y-180809409D01*
X258778215Y-181024175D01*
X258495099Y-181398704D01*
X257590956Y-181398704D01*
X257635188Y-181010098D01*
X258052659Y-180470248D01*
X258732687Y-180107892D01*
X259589449Y-180033381D01*
X259779897Y-180058065D01*
X260106070Y-180163769D01*
X260286963Y-180436355D01*
X260376951Y-181002175D01*
X260395849Y-181350538D01*
X260430407Y-181987582D01*
X260433581Y-182062041D01*
G37*
G36*
X276157447Y-148166667D02*
G01*
X276022340Y-148303226D01*
X275887234Y-148166667D01*
X276022340Y-148030107D01*
X276157447Y-148166667D01*
G37*
G36*
X237596164Y-152762890D02*
G01*
X237787234Y-153219355D01*
X237698417Y-153572467D01*
X237246808Y-153765591D01*
X236897452Y-153675819D01*
X236706383Y-153219355D01*
X236795200Y-152866242D01*
X237246808Y-152673118D01*
X237596164Y-152762890D01*
G37*
G36*
X266227127Y-180038953D02*
G01*
X267645744Y-180121505D01*
X267727895Y-181729633D01*
X267748443Y-182439765D01*
X267728434Y-183256802D01*
X267660200Y-183732453D01*
X267530904Y-183954435D01*
X267222141Y-184023863D01*
X266925604Y-183695903D01*
X266751657Y-183053084D01*
X266708210Y-182742910D01*
X266476387Y-182287516D01*
X265941019Y-182118204D01*
X265497242Y-181997713D01*
X265227695Y-181679392D01*
X265406988Y-181315826D01*
X266024468Y-181044136D01*
X266214122Y-181002803D01*
X266572087Y-180908398D01*
X266451619Y-180863553D01*
X265821808Y-180836615D01*
X265619939Y-180826539D01*
X264998621Y-180690290D01*
X264808510Y-180380350D01*
X264809418Y-180348142D01*
X264940576Y-180115140D01*
X265374616Y-180021349D01*
X266227127Y-180038953D01*
G37*
G36*
X278859574Y-161822581D02*
G01*
X278724468Y-161959140D01*
X278589361Y-161822581D01*
X278724468Y-161686021D01*
X278859574Y-161822581D01*
G37*
G36*
X292528397Y-183709741D02*
G01*
X292298008Y-183944004D01*
X291700328Y-184068440D01*
X290957455Y-183971061D01*
X290268634Y-183656556D01*
X290184730Y-183592028D01*
X289780352Y-183053780D01*
X289710500Y-182685078D01*
X290632816Y-182685078D01*
X290653022Y-182860020D01*
X291022188Y-183069186D01*
X291360872Y-183095634D01*
X291559574Y-182827119D01*
X291393850Y-182530562D01*
X290991942Y-182454165D01*
X290632816Y-182685078D01*
X289710500Y-182685078D01*
X289670038Y-182471507D01*
X289902060Y-182055970D01*
X290022354Y-181820459D01*
X290015437Y-181272166D01*
X290006295Y-181213978D01*
X290978617Y-181213978D01*
X290989922Y-181289346D01*
X291269095Y-181571308D01*
X291422468Y-181553893D01*
X291559574Y-181213978D01*
X291515486Y-180988488D01*
X291269095Y-180856649D01*
X291188983Y-180893738D01*
X290978617Y-181213978D01*
X290006295Y-181213978D01*
X290001088Y-181180832D01*
X290136260Y-180508913D01*
X290694407Y-180109739D01*
X291609476Y-180034591D01*
X291724674Y-180045949D01*
X292176569Y-180127251D01*
X292418387Y-180343778D01*
X292529047Y-180832312D01*
X292553897Y-181213978D01*
X292587470Y-181729633D01*
X292608842Y-182440586D01*
X292600713Y-182827119D01*
X292591872Y-183247521D01*
X292528397Y-183709741D01*
G37*
G36*
X217939137Y-154700202D02*
G01*
X218281250Y-155114113D01*
X218296050Y-155278536D01*
X218044814Y-155353091D01*
X217914054Y-155289045D01*
X217571941Y-154875134D01*
X217557141Y-154710711D01*
X217808377Y-154636156D01*
X217939137Y-154700202D01*
G37*
G36*
X268501418Y-151671684D02*
G01*
X268543692Y-151753834D01*
X268321276Y-151853763D01*
X268178227Y-151834053D01*
X268141134Y-151671684D01*
X268180739Y-151638998D01*
X268501418Y-151671684D01*
G37*
G36*
X298165753Y-154207618D02*
G01*
X298373150Y-154302199D01*
X298585106Y-154477608D01*
X298510215Y-154579357D01*
X298200497Y-154541361D01*
X297911487Y-154314956D01*
X297886818Y-154188530D01*
X298165753Y-154207618D01*
G37*
G36*
X275346808Y-148712903D02*
G01*
X275211702Y-148849462D01*
X275076595Y-148712903D01*
X275211702Y-148576344D01*
X275346808Y-148712903D01*
G37*
G36*
X276878014Y-162323297D02*
G01*
X276920288Y-162405447D01*
X276697872Y-162505376D01*
X276554822Y-162485666D01*
X276517730Y-162323297D01*
X276557335Y-162290610D01*
X276878014Y-162323297D01*
G37*
G36*
X289248961Y-183127798D02*
G01*
X289387353Y-183603763D01*
X289365128Y-183800128D01*
X289114945Y-184060140D01*
X288744483Y-183967098D01*
X288452127Y-183535484D01*
X288390097Y-183383120D01*
X287978917Y-183032995D01*
X287431837Y-183100975D01*
X286912634Y-183582102D01*
X286763339Y-183790164D01*
X286401724Y-184079617D01*
X286191081Y-183907096D01*
X286157759Y-183326296D01*
X286328104Y-182390909D01*
X286405326Y-182069963D01*
X287283967Y-182069963D01*
X287506383Y-182169892D01*
X287649432Y-182150182D01*
X287686525Y-181987814D01*
X287646920Y-181955127D01*
X287326241Y-181987814D01*
X287283967Y-182069963D01*
X286405326Y-182069963D01*
X286461178Y-181837834D01*
X286629811Y-180997232D01*
X286695744Y-180451636D01*
X286717761Y-180228685D01*
X286938862Y-179995008D01*
X287348528Y-180176117D01*
X287885899Y-180732261D01*
X288490119Y-181623689D01*
X288690077Y-181987814D01*
X288899475Y-182369131D01*
X289248961Y-183127798D01*
G37*
G36*
X238327659Y-152400000D02*
G01*
X238308159Y-152544588D01*
X238147517Y-152582079D01*
X238115178Y-152542049D01*
X238147517Y-152217921D01*
X238228793Y-152175193D01*
X238327659Y-152400000D01*
G37*
G36*
X213987178Y-153060036D02*
G01*
X213968072Y-153337049D01*
X213845257Y-153418503D01*
X213791711Y-153321878D01*
X213823924Y-152895027D01*
X213921186Y-152768609D01*
X213987178Y-153060036D01*
G37*
G36*
X271686584Y-149143623D02*
G01*
X271698936Y-149395699D01*
X271643716Y-149469508D01*
X271261722Y-149668817D01*
X271170862Y-149647775D01*
X271158510Y-149395699D01*
X271213730Y-149321889D01*
X271595724Y-149122581D01*
X271686584Y-149143623D01*
G37*
G36*
X303719149Y-150624731D02*
G01*
X303584042Y-150761290D01*
X303448936Y-150624731D01*
X303584042Y-150488172D01*
X303719149Y-150624731D01*
G37*
G36*
X247935242Y-182875718D02*
G01*
X248149733Y-183549543D01*
X248117449Y-183927883D01*
X248055950Y-183983361D01*
X247651205Y-184029197D01*
X247244681Y-183535484D01*
X246969548Y-183209063D01*
X246442744Y-182989247D01*
X246112699Y-183091603D01*
X245758510Y-183535484D01*
X245585164Y-183854258D01*
X245199876Y-184081720D01*
X245176045Y-184081723D01*
X244930840Y-184057121D01*
X244839039Y-183895354D01*
X244888576Y-183464399D01*
X245067383Y-182632232D01*
X245111410Y-182433536D01*
X245259608Y-181754725D01*
X246221561Y-181754725D01*
X246253900Y-182078853D01*
X246335176Y-182121581D01*
X246434042Y-181896774D01*
X246414542Y-181752186D01*
X246253900Y-181714695D01*
X246221561Y-181754725D01*
X245259608Y-181754725D01*
X245315489Y-181498768D01*
X245477850Y-180736021D01*
X245676942Y-180220015D01*
X245968286Y-179984946D01*
X246154169Y-180059398D01*
X246583441Y-180498246D01*
X247074865Y-181208377D01*
X247465368Y-181896774D01*
X247551209Y-182048099D01*
X247935242Y-182875718D01*
G37*
G36*
X236976595Y-151990322D02*
G01*
X236841489Y-152126882D01*
X236706383Y-151990322D01*
X236841489Y-151853763D01*
X236976595Y-151990322D01*
G37*
G36*
X277531568Y-180050799D02*
G01*
X277657574Y-180510887D01*
X277745829Y-181275142D01*
X277790561Y-182183138D01*
X277786001Y-183074452D01*
X277726380Y-183788659D01*
X277605927Y-184165335D01*
X277528487Y-184231676D01*
X277234340Y-184209665D01*
X277038945Y-183713391D01*
X276968085Y-182798117D01*
X276968085Y-181546751D01*
X275864269Y-182814236D01*
X275324019Y-183390207D01*
X274761694Y-183889576D01*
X274408780Y-184081720D01*
X274186315Y-183891603D01*
X273972944Y-183304607D01*
X273829749Y-182481830D01*
X273784148Y-181588755D01*
X273863558Y-180790865D01*
X273938153Y-180506246D01*
X274206694Y-180012226D01*
X274491532Y-180001898D01*
X274719765Y-180437746D01*
X274818491Y-181282258D01*
X274830600Y-182579570D01*
X275981516Y-181282258D01*
X276561806Y-180671350D01*
X277118752Y-180175272D01*
X277455577Y-179984946D01*
X277531568Y-180050799D01*
G37*
G36*
X216170212Y-154175269D02*
G01*
X216035106Y-154311828D01*
X215900000Y-154175269D01*
X216035106Y-154038710D01*
X216170212Y-154175269D01*
G37*
G36*
X281208235Y-182766897D02*
G01*
X281454812Y-183415322D01*
X281473578Y-183494731D01*
X281479559Y-183956155D01*
X281160379Y-184081720D01*
X280867318Y-183979817D01*
X280559145Y-183535484D01*
X280373925Y-183201631D01*
X279792013Y-182989247D01*
X279391151Y-183075485D01*
X278994681Y-183535484D01*
X278876555Y-183808840D01*
X278548350Y-184076841D01*
X278222110Y-183870860D01*
X278199643Y-183807610D01*
X278214684Y-183317041D01*
X278354296Y-182551066D01*
X278518150Y-181896774D01*
X279400000Y-181896774D01*
X279410996Y-181971633D01*
X279686160Y-182169892D01*
X279783895Y-182148448D01*
X279805319Y-181896774D01*
X279749858Y-181815040D01*
X279519159Y-181623656D01*
X279492192Y-181630757D01*
X279400000Y-181896774D01*
X278518150Y-181896774D01*
X278574370Y-181672277D01*
X278830798Y-180843266D01*
X279079473Y-180226625D01*
X279276285Y-179984946D01*
X279405310Y-180043406D01*
X279795894Y-180456157D01*
X280287456Y-181143519D01*
X280748903Y-181896774D01*
X280788676Y-181961698D01*
X281208235Y-182766897D01*
G37*
G36*
X214548936Y-149122581D02*
G01*
X214529435Y-149267169D01*
X214368794Y-149304659D01*
X214336455Y-149264629D01*
X214368794Y-148940502D01*
X214450069Y-148897773D01*
X214548936Y-149122581D01*
G37*
G36*
X241574350Y-181145699D02*
G01*
X241596829Y-181806059D01*
X241755493Y-182497054D01*
X242149351Y-182885708D01*
X242874520Y-183117811D01*
X243773508Y-183315001D01*
X243700366Y-181719033D01*
X243685279Y-181319888D01*
X243702123Y-180564840D01*
X243825704Y-180178372D01*
X244084888Y-180033980D01*
X244116118Y-180028510D01*
X244338630Y-180068743D01*
X244467897Y-180343858D01*
X244527883Y-180957499D01*
X244542553Y-182013307D01*
X244542553Y-184081720D01*
X243342543Y-184081720D01*
X243012101Y-184070678D01*
X242320529Y-183965394D01*
X241960980Y-183784805D01*
X241811840Y-183635594D01*
X241485672Y-183784805D01*
X241068818Y-183992742D01*
X240394418Y-184090136D01*
X239674642Y-184063629D01*
X239101771Y-183921503D01*
X238868085Y-183672043D01*
X238869794Y-183634731D01*
X239114341Y-183351204D01*
X239813829Y-183262365D01*
X239899964Y-183261625D01*
X240554490Y-183155692D01*
X240759574Y-182852688D01*
X240757865Y-182815376D01*
X240513318Y-182531849D01*
X239813829Y-182443011D01*
X239727695Y-182442270D01*
X239073169Y-182336338D01*
X238868085Y-182033333D01*
X238869794Y-181996022D01*
X239114341Y-181712494D01*
X239813829Y-181623656D01*
X239969025Y-181620032D01*
X240613382Y-181476067D01*
X240790386Y-181206251D01*
X240506244Y-180926444D01*
X239767164Y-180752508D01*
X239150209Y-180661868D01*
X238678247Y-180462234D01*
X238689264Y-180239972D01*
X239158582Y-180059427D01*
X240061525Y-179984946D01*
X241570212Y-179984946D01*
X241574350Y-181145699D01*
G37*
G36*
X287776595Y-143796774D02*
G01*
X287641489Y-143933333D01*
X287506383Y-143796774D01*
X287641489Y-143660215D01*
X287776595Y-143796774D01*
G37*
G36*
X274806383Y-149805376D02*
G01*
X274671276Y-149941935D01*
X274536170Y-149805376D01*
X274671276Y-149668817D01*
X274806383Y-149805376D01*
G37*
G36*
X282397948Y-180054462D02*
G01*
X282591914Y-180494979D01*
X282695985Y-181404688D01*
X282777659Y-182824429D01*
X283846482Y-181404688D01*
X284103140Y-181069048D01*
X284752629Y-180312526D01*
X285189077Y-180029037D01*
X285451956Y-180236171D01*
X285580738Y-180951513D01*
X285614893Y-182192652D01*
X285609467Y-182826483D01*
X285561340Y-183732223D01*
X285454261Y-184196426D01*
X285277127Y-184287969D01*
X285175140Y-184201711D01*
X284974466Y-183699184D01*
X284857867Y-182921007D01*
X284776373Y-181666434D01*
X283675049Y-182874077D01*
X283587198Y-182969981D01*
X282824894Y-183734776D01*
X282317115Y-184045815D01*
X282014959Y-183880791D01*
X281869526Y-183217399D01*
X281831915Y-182033333D01*
X281839143Y-181341857D01*
X281893108Y-180525153D01*
X282015095Y-180104282D01*
X282223113Y-179984946D01*
X282397948Y-180054462D01*
G37*
G36*
X253996896Y-180175470D02*
G01*
X254421001Y-180653603D01*
X254509160Y-180801450D01*
X254668414Y-181480966D01*
X254333800Y-181967862D01*
X253528192Y-182221959D01*
X253040008Y-182356782D01*
X252722453Y-182624673D01*
X252777506Y-182873129D01*
X253154278Y-183105943D01*
X253665080Y-183175666D01*
X254081243Y-183016378D01*
X254462047Y-182770095D01*
X254891161Y-182763156D01*
X255080851Y-183071183D01*
X255044788Y-183269873D01*
X254756595Y-183753978D01*
X254517981Y-183915743D01*
X253778932Y-184068146D01*
X252911923Y-183974562D01*
X252152092Y-183644845D01*
X251819595Y-183427975D01*
X251452965Y-183361317D01*
X251057393Y-183644845D01*
X250814904Y-183819258D01*
X250112168Y-184022631D01*
X249388886Y-183947652D01*
X248823824Y-183632710D01*
X248595744Y-183116197D01*
X248647502Y-182870478D01*
X249011870Y-182738685D01*
X249728724Y-183017445D01*
X250089947Y-183150703D01*
X250484361Y-183042072D01*
X250613055Y-182621159D01*
X250458439Y-181999010D01*
X250002918Y-181286675D01*
X249678173Y-181026279D01*
X248963139Y-180974886D01*
X248800226Y-181011698D01*
X248418578Y-180966969D01*
X248325532Y-180544304D01*
X248383508Y-180180042D01*
X248670619Y-180021920D01*
X249338332Y-180036739D01*
X249890573Y-180125818D01*
X250464594Y-180446267D01*
X250994677Y-181129762D01*
X251075680Y-181255619D01*
X251470155Y-181792082D01*
X251747324Y-181931059D01*
X252027773Y-181744278D01*
X252408017Y-181503170D01*
X253089503Y-181350538D01*
X253506861Y-181282773D01*
X253584819Y-181061292D01*
X253284690Y-180890501D01*
X252690681Y-180856453D01*
X252172508Y-180832258D01*
X251973404Y-180531183D01*
X252218825Y-180203469D01*
X252970421Y-180037720D01*
X253436837Y-180021050D01*
X253996896Y-180175470D01*
G37*
G36*
X264413131Y-183017291D02*
G01*
X263937748Y-183656556D01*
X263151967Y-184018533D01*
X262254901Y-183998458D01*
X261489119Y-183552959D01*
X260955599Y-182745976D01*
X260831454Y-182061326D01*
X261618641Y-182061326D01*
X261991442Y-182738652D01*
X262293768Y-183029218D01*
X262859837Y-183240525D01*
X263403404Y-182934624D01*
X263634759Y-182597354D01*
X263664497Y-181912231D01*
X263207339Y-181232369D01*
X263106776Y-181146662D01*
X262475618Y-180873509D01*
X261954617Y-181012444D01*
X261637662Y-181447153D01*
X261618641Y-182061326D01*
X260831454Y-182061326D01*
X260755319Y-181641447D01*
X260763030Y-181354369D01*
X260958151Y-180537375D01*
X261479395Y-180109003D01*
X262411026Y-179984946D01*
X262590193Y-179988461D01*
X263380544Y-180167982D01*
X263978260Y-180704574D01*
X264283793Y-181203999D01*
X264469186Y-181912231D01*
X264529275Y-182141782D01*
X264413131Y-183017291D01*
G37*
G36*
X277778723Y-162762376D02*
G01*
X277768339Y-162841652D01*
X277508510Y-163051613D01*
X277447359Y-163048481D01*
X277238298Y-162931172D01*
X277250732Y-162887361D01*
X277508510Y-162641935D01*
X277613181Y-162599260D01*
X277778723Y-162762376D01*
G37*
G36*
X217004690Y-157769046D02*
G01*
X217495091Y-158169994D01*
X217822150Y-158560035D01*
X217890563Y-158890221D01*
X217612357Y-159277128D01*
X217290196Y-159604993D01*
X216931704Y-159744309D01*
X216486341Y-159535537D01*
X216280688Y-159212157D01*
X216219412Y-158604698D01*
X216338371Y-158001556D01*
X216619046Y-157663929D01*
X217004690Y-157769046D01*
G37*
G36*
X273529995Y-183472311D02*
G01*
X273570350Y-183841433D01*
X273429212Y-184004325D01*
X273043929Y-184014362D01*
X272644681Y-183535484D01*
X272369548Y-183209063D01*
X271842744Y-182989247D01*
X271512699Y-183091603D01*
X271158510Y-183535484D01*
X271070331Y-183728033D01*
X270728922Y-184031267D01*
X270375760Y-184050074D01*
X270214273Y-183740322D01*
X270215530Y-183703207D01*
X270294532Y-183176528D01*
X270458261Y-182443011D01*
X270459897Y-182436560D01*
X270627422Y-181754725D01*
X271621561Y-181754725D01*
X271653900Y-182078853D01*
X271735176Y-182121581D01*
X271834042Y-181896774D01*
X271814542Y-181752186D01*
X271653900Y-181714695D01*
X271621561Y-181754725D01*
X270627422Y-181754725D01*
X270679324Y-181543480D01*
X270867221Y-180736021D01*
X270896285Y-180618284D01*
X271191460Y-180084308D01*
X271604224Y-180072242D01*
X272077296Y-180589044D01*
X272184357Y-180764136D01*
X272783970Y-181818146D01*
X272822917Y-181896774D01*
X273250192Y-182759377D01*
X273529995Y-183472311D01*
G37*
G36*
X264318750Y-151120956D02*
G01*
X264443822Y-151219264D01*
X264155496Y-151285965D01*
X263881430Y-151266653D01*
X263800842Y-151142518D01*
X263896440Y-151088396D01*
X264318750Y-151120956D01*
G37*
%TO.C,D40*%
X267900000Y-179475000D02*
X265500000Y-179475000D01*
X265500000Y-179875000D02*
X267900000Y-179875000D01*
X267900000Y-173875000D02*
X265500000Y-173875000D01*
X267900000Y-179600000D02*
X265500000Y-179600000D01*
X265500000Y-173875000D02*
X265500000Y-179875000D01*
X267900000Y-179875000D02*
X267900000Y-173875000D01*
X265500000Y-179750000D02*
X267900000Y-179750000D01*
%TO.C,D23*%
X112325000Y-135775000D02*
X109925000Y-135775000D01*
X112325000Y-141775000D02*
X112325000Y-135775000D01*
X109925000Y-141650000D02*
X112325000Y-141650000D01*
X109925000Y-141775000D02*
X112325000Y-141775000D01*
X112325000Y-141375000D02*
X109925000Y-141375000D01*
X109925000Y-135775000D02*
X109925000Y-141775000D01*
X112325000Y-141500000D02*
X109925000Y-141500000D01*
%TO.C,D28*%
X233750000Y-160700000D02*
X236150000Y-160700000D01*
X236150000Y-154825000D02*
X233750000Y-154825000D01*
X233750000Y-154825000D02*
X233750000Y-160825000D01*
X233750000Y-160825000D02*
X236150000Y-160825000D01*
X236150000Y-160825000D02*
X236150000Y-154825000D01*
X236150000Y-160425000D02*
X233750000Y-160425000D01*
X236150000Y-160550000D02*
X233750000Y-160550000D01*
%TO.C,D26*%
X274250000Y-160425000D02*
X271850000Y-160425000D01*
X274250000Y-154825000D02*
X271850000Y-154825000D01*
X271850000Y-160825000D02*
X274250000Y-160825000D01*
X271850000Y-154825000D02*
X271850000Y-160825000D01*
X274250000Y-160825000D02*
X274250000Y-154825000D01*
X274250000Y-160550000D02*
X271850000Y-160550000D01*
X271850000Y-160700000D02*
X274250000Y-160700000D01*
%TO.C,D13*%
X326637500Y-141500000D02*
X324237500Y-141500000D01*
X324237500Y-141650000D02*
X326637500Y-141650000D01*
X326637500Y-141375000D02*
X324237500Y-141375000D01*
X324237500Y-135775000D02*
X324237500Y-141775000D01*
X326637500Y-135775000D02*
X324237500Y-135775000D01*
X324237500Y-141775000D02*
X326637500Y-141775000D01*
X326637500Y-141775000D02*
X326637500Y-135775000D01*
%TO.C,D6*%
X219462500Y-122600000D02*
X221862500Y-122600000D01*
X221862500Y-122450000D02*
X219462500Y-122450000D01*
X219462500Y-116725000D02*
X219462500Y-122725000D01*
X221862500Y-116725000D02*
X219462500Y-116725000D01*
X221862500Y-122725000D02*
X221862500Y-116725000D01*
X221862500Y-122325000D02*
X219462500Y-122325000D01*
X219462500Y-122725000D02*
X221862500Y-122725000D01*
%TO.C,D37*%
X329000000Y-184637500D02*
X331400000Y-184637500D01*
X331400000Y-184237500D02*
X329000000Y-184237500D01*
X331400000Y-178637500D02*
X329000000Y-178637500D01*
X329000000Y-178637500D02*
X329000000Y-184637500D01*
X331400000Y-184637500D02*
X331400000Y-178637500D01*
X329000000Y-184512500D02*
X331400000Y-184512500D01*
X331400000Y-184362500D02*
X329000000Y-184362500D01*
%TO.C,D31*%
X179000000Y-154825000D02*
X176600000Y-154825000D01*
X179000000Y-160825000D02*
X179000000Y-154825000D01*
X176600000Y-160700000D02*
X179000000Y-160700000D01*
X176600000Y-160825000D02*
X179000000Y-160825000D01*
X179000000Y-160550000D02*
X176600000Y-160550000D01*
X176600000Y-154825000D02*
X176600000Y-160825000D01*
X179000000Y-160425000D02*
X176600000Y-160425000D01*
%TO.C,D34*%
X121850000Y-160550000D02*
X119450000Y-160550000D01*
X121850000Y-160425000D02*
X119450000Y-160425000D01*
X119450000Y-160700000D02*
X121850000Y-160700000D01*
X121850000Y-160825000D02*
X121850000Y-154825000D01*
X121850000Y-154825000D02*
X119450000Y-154825000D01*
X119450000Y-160825000D02*
X121850000Y-160825000D01*
X119450000Y-154825000D02*
X119450000Y-160825000D01*
%TO.C,D5*%
X240912500Y-122325000D02*
X238512500Y-122325000D01*
X238512500Y-122725000D02*
X240912500Y-122725000D01*
X238512500Y-122600000D02*
X240912500Y-122600000D01*
X240912500Y-122450000D02*
X238512500Y-122450000D01*
X240912500Y-116725000D02*
X238512500Y-116725000D01*
X238512500Y-116725000D02*
X238512500Y-122725000D01*
X240912500Y-122725000D02*
X240912500Y-116725000D01*
%TO.C,D20*%
X169475000Y-141500000D02*
X167075000Y-141500000D01*
X169475000Y-135775000D02*
X167075000Y-135775000D01*
X167075000Y-141650000D02*
X169475000Y-141650000D01*
X167075000Y-135775000D02*
X167075000Y-141775000D01*
X169475000Y-141775000D02*
X169475000Y-135775000D01*
X167075000Y-141775000D02*
X169475000Y-141775000D01*
X169475000Y-141375000D02*
X167075000Y-141375000D01*
%TO.C,D27*%
X252800000Y-160700000D02*
X255200000Y-160700000D01*
X255200000Y-160425000D02*
X252800000Y-160425000D01*
X255200000Y-160550000D02*
X252800000Y-160550000D01*
X255200000Y-160825000D02*
X255200000Y-154825000D01*
X252800000Y-160825000D02*
X255200000Y-160825000D01*
X252800000Y-154825000D02*
X252800000Y-160825000D01*
X255200000Y-154825000D02*
X252800000Y-154825000D01*
D11*
%TO.C,U1*%
X332105000Y-106825000D02*
X349885000Y-106825000D01*
X349885000Y-106825000D02*
X349885000Y-139845000D01*
X332105000Y-139845000D02*
X349885000Y-139845000D01*
X332105000Y-106825000D02*
X332105000Y-139845000D01*
D10*
%TO.C,D3*%
X279012500Y-116725000D02*
X276612500Y-116725000D01*
X279012500Y-122450000D02*
X276612500Y-122450000D01*
X279012500Y-122325000D02*
X276612500Y-122325000D01*
X276612500Y-122725000D02*
X279012500Y-122725000D01*
X276612500Y-116725000D02*
X276612500Y-122725000D01*
X279012500Y-122725000D02*
X279012500Y-116725000D01*
X276612500Y-122600000D02*
X279012500Y-122600000D01*
%TO.C,D16*%
X243275000Y-141775000D02*
X245675000Y-141775000D01*
X245675000Y-135775000D02*
X243275000Y-135775000D01*
X245675000Y-141375000D02*
X243275000Y-141375000D01*
X245675000Y-141500000D02*
X243275000Y-141500000D01*
X243275000Y-135775000D02*
X243275000Y-141775000D01*
X243275000Y-141650000D02*
X245675000Y-141650000D01*
X245675000Y-141775000D02*
X245675000Y-135775000D01*
%TO.C,D4*%
X257562500Y-122725000D02*
X259962500Y-122725000D01*
X257562500Y-116725000D02*
X257562500Y-122725000D01*
X259962500Y-122325000D02*
X257562500Y-122325000D01*
X257562500Y-122600000D02*
X259962500Y-122600000D01*
X259962500Y-122450000D02*
X257562500Y-122450000D01*
X259962500Y-122725000D02*
X259962500Y-116725000D01*
X259962500Y-116725000D02*
X257562500Y-116725000D01*
%TO.C,D36*%
X348050000Y-184637500D02*
X350450000Y-184637500D01*
X350450000Y-184237500D02*
X348050000Y-184237500D01*
X350450000Y-178637500D02*
X348050000Y-178637500D01*
X348050000Y-178637500D02*
X348050000Y-184637500D01*
X350450000Y-184362500D02*
X348050000Y-184362500D01*
X350450000Y-184637500D02*
X350450000Y-178637500D01*
X348050000Y-184512500D02*
X350450000Y-184512500D01*
%TO.C,D38*%
X312350000Y-184237500D02*
X309950000Y-184237500D01*
X309950000Y-184637500D02*
X312350000Y-184637500D01*
X309950000Y-178637500D02*
X309950000Y-184637500D01*
X309950000Y-184512500D02*
X312350000Y-184512500D01*
X312350000Y-184637500D02*
X312350000Y-178637500D01*
X312350000Y-178637500D02*
X309950000Y-178637500D01*
X312350000Y-184362500D02*
X309950000Y-184362500D01*
%TO.C,D25*%
X305187500Y-160825000D02*
X307587500Y-160825000D01*
X307587500Y-160825000D02*
X307587500Y-154825000D01*
X307587500Y-160550000D02*
X305187500Y-160550000D01*
X307587500Y-160425000D02*
X305187500Y-160425000D01*
X305187500Y-160700000D02*
X307587500Y-160700000D01*
X305187500Y-154825000D02*
X305187500Y-160825000D01*
X307587500Y-154825000D02*
X305187500Y-154825000D01*
%TO.C,D1*%
X324237500Y-116725000D02*
X324237500Y-122725000D01*
X326637500Y-116725000D02*
X324237500Y-116725000D01*
X326637500Y-122325000D02*
X324237500Y-122325000D01*
X326637500Y-122725000D02*
X326637500Y-116725000D01*
X324237500Y-122600000D02*
X326637500Y-122600000D01*
X324237500Y-122725000D02*
X326637500Y-122725000D01*
X326637500Y-122450000D02*
X324237500Y-122450000D01*
%TO.C,D2*%
X298062500Y-116725000D02*
X295662500Y-116725000D01*
X298062500Y-122725000D02*
X298062500Y-116725000D01*
X298062500Y-122450000D02*
X295662500Y-122450000D01*
X298062500Y-122325000D02*
X295662500Y-122325000D01*
X295662500Y-122725000D02*
X298062500Y-122725000D01*
X295662500Y-116725000D02*
X295662500Y-122725000D01*
X295662500Y-122600000D02*
X298062500Y-122600000D01*
%TO.C,D21*%
X148025000Y-141650000D02*
X150425000Y-141650000D01*
X148025000Y-135775000D02*
X148025000Y-141775000D01*
X150425000Y-135775000D02*
X148025000Y-135775000D01*
X150425000Y-141775000D02*
X150425000Y-135775000D01*
X150425000Y-141500000D02*
X148025000Y-141500000D01*
X148025000Y-141775000D02*
X150425000Y-141775000D01*
X150425000Y-141375000D02*
X148025000Y-141375000D01*
%TO.C,D24*%
X331400000Y-165587500D02*
X331400000Y-159587500D01*
X329000000Y-165587500D02*
X331400000Y-165587500D01*
X329000000Y-165462500D02*
X331400000Y-165462500D01*
X331400000Y-165187500D02*
X329000000Y-165187500D01*
X331400000Y-159587500D02*
X329000000Y-159587500D01*
X329000000Y-159587500D02*
X329000000Y-165587500D01*
X331400000Y-165312500D02*
X329000000Y-165312500D01*
%TO.C,D9*%
X162312500Y-116725000D02*
X162312500Y-122725000D01*
X164712500Y-122450000D02*
X162312500Y-122450000D01*
X164712500Y-122725000D02*
X164712500Y-116725000D01*
X162312500Y-122600000D02*
X164712500Y-122600000D01*
X162312500Y-122725000D02*
X164712500Y-122725000D01*
X164712500Y-116725000D02*
X162312500Y-116725000D01*
X164712500Y-122325000D02*
X162312500Y-122325000D01*
%TO.C,D41*%
X134550000Y-179600000D02*
X132150000Y-179600000D01*
X132150000Y-173875000D02*
X132150000Y-179875000D01*
X134550000Y-179875000D02*
X134550000Y-173875000D01*
X132150000Y-179750000D02*
X134550000Y-179750000D01*
X134550000Y-173875000D02*
X132150000Y-173875000D01*
X132150000Y-179875000D02*
X134550000Y-179875000D01*
X134550000Y-179475000D02*
X132150000Y-179475000D01*
%TO.C,D32*%
X159950000Y-154825000D02*
X157550000Y-154825000D01*
X157550000Y-160700000D02*
X159950000Y-160700000D01*
X159950000Y-160825000D02*
X159950000Y-154825000D01*
X159950000Y-160550000D02*
X157550000Y-160550000D01*
X157550000Y-154825000D02*
X157550000Y-160825000D01*
X159950000Y-160425000D02*
X157550000Y-160425000D01*
X157550000Y-160825000D02*
X159950000Y-160825000D01*
%TO.C,D19*%
X188525000Y-141775000D02*
X188525000Y-135775000D01*
X188525000Y-141375000D02*
X186125000Y-141375000D01*
X186125000Y-141775000D02*
X188525000Y-141775000D01*
X188525000Y-141500000D02*
X186125000Y-141500000D01*
X188525000Y-135775000D02*
X186125000Y-135775000D01*
X186125000Y-141650000D02*
X188525000Y-141650000D01*
X186125000Y-135775000D02*
X186125000Y-141775000D01*
%TO.C,D39*%
X286950000Y-179475000D02*
X284550000Y-179475000D01*
X284550000Y-173875000D02*
X284550000Y-179875000D01*
X284550000Y-179875000D02*
X286950000Y-179875000D01*
X286950000Y-179875000D02*
X286950000Y-173875000D01*
X284550000Y-179750000D02*
X286950000Y-179750000D01*
X286950000Y-173875000D02*
X284550000Y-173875000D01*
X286950000Y-179600000D02*
X284550000Y-179600000D01*
%TO.C,D12*%
X107562500Y-122450000D02*
X105162500Y-122450000D01*
X107562500Y-122325000D02*
X105162500Y-122325000D01*
X105162500Y-122600000D02*
X107562500Y-122600000D01*
X105162500Y-122725000D02*
X107562500Y-122725000D01*
X105162500Y-116725000D02*
X105162500Y-122725000D01*
X107562500Y-116725000D02*
X105162500Y-116725000D01*
X107562500Y-122725000D02*
X107562500Y-116725000D01*
%TO.C,D17*%
X224225000Y-135775000D02*
X224225000Y-141775000D01*
X224225000Y-141650000D02*
X226625000Y-141650000D01*
X224225000Y-141775000D02*
X226625000Y-141775000D01*
X226625000Y-141500000D02*
X224225000Y-141500000D01*
X226625000Y-141375000D02*
X224225000Y-141375000D01*
X226625000Y-135775000D02*
X224225000Y-135775000D01*
X226625000Y-141775000D02*
X226625000Y-135775000D01*
%TO.C,G\u002A\u002A\u002A*%
G36*
X155218570Y-153533347D02*
G01*
X155299158Y-153657482D01*
X155203560Y-153711604D01*
X154781250Y-153679044D01*
X154656178Y-153580736D01*
X154944504Y-153514035D01*
X155218570Y-153533347D01*
G37*
G36*
X202613659Y-145264463D02*
G01*
X202819312Y-145587843D01*
X202880588Y-146195302D01*
X202761629Y-146798444D01*
X202480954Y-147136071D01*
X202095310Y-147030954D01*
X201604909Y-146630006D01*
X201277850Y-146239965D01*
X201209437Y-145909779D01*
X201487643Y-145522872D01*
X201809804Y-145195007D01*
X202168296Y-145055691D01*
X202613659Y-145264463D01*
G37*
G36*
X141865660Y-120590335D02*
G01*
X142061055Y-121086609D01*
X142131915Y-122001883D01*
X142131915Y-123253249D01*
X143235731Y-121985764D01*
X143775981Y-121409793D01*
X144338306Y-120910424D01*
X144691220Y-120718280D01*
X144913685Y-120908397D01*
X145127056Y-121495393D01*
X145270251Y-122318170D01*
X145315852Y-123211245D01*
X145236442Y-124009135D01*
X145161847Y-124293754D01*
X144893306Y-124787774D01*
X144608468Y-124798102D01*
X144380235Y-124362254D01*
X144281509Y-123517742D01*
X144269400Y-122220430D01*
X143118484Y-123517742D01*
X142538194Y-124128650D01*
X141981248Y-124624728D01*
X141644423Y-124815054D01*
X141568432Y-124749201D01*
X141442426Y-124289113D01*
X141354171Y-123524858D01*
X141309439Y-122616862D01*
X141313999Y-121725548D01*
X141373620Y-121011341D01*
X141494073Y-120634665D01*
X141571513Y-120568324D01*
X141865660Y-120590335D01*
G37*
G36*
X205308289Y-151478122D02*
G01*
X205276076Y-151904973D01*
X205178814Y-152031391D01*
X205112822Y-151739964D01*
X205131928Y-151462951D01*
X205254743Y-151381497D01*
X205308289Y-151478122D01*
G37*
G36*
X140510639Y-142977419D02*
G01*
X140375532Y-143113979D01*
X140240426Y-142977419D01*
X140375532Y-142840860D01*
X140510639Y-142977419D01*
G37*
G36*
X179425358Y-120736371D02*
G01*
X179998229Y-120878497D01*
X180231915Y-121127957D01*
X180230206Y-121165269D01*
X179985659Y-121448796D01*
X179286171Y-121537635D01*
X179200036Y-121538375D01*
X178545510Y-121644308D01*
X178340426Y-121947312D01*
X178342135Y-121984624D01*
X178586682Y-122268151D01*
X179286171Y-122356989D01*
X179372305Y-122357730D01*
X180026831Y-122463662D01*
X180231915Y-122766667D01*
X180230206Y-122803978D01*
X179985659Y-123087506D01*
X179286171Y-123176344D01*
X179130975Y-123179968D01*
X178486618Y-123323933D01*
X178309614Y-123593749D01*
X178593756Y-123873556D01*
X179332836Y-124047492D01*
X179949791Y-124138132D01*
X180421753Y-124337766D01*
X180410736Y-124560028D01*
X179941418Y-124740573D01*
X179038475Y-124815054D01*
X177529788Y-124815054D01*
X177525650Y-123654301D01*
X177503171Y-122993941D01*
X177344507Y-122302946D01*
X176950649Y-121914292D01*
X176225480Y-121682189D01*
X175326492Y-121484999D01*
X175399634Y-123080967D01*
X175414721Y-123480112D01*
X175397877Y-124235160D01*
X175274296Y-124621628D01*
X175015112Y-124766020D01*
X174983882Y-124771490D01*
X174761370Y-124731257D01*
X174632103Y-124456142D01*
X174572117Y-123842501D01*
X174557447Y-122786693D01*
X174557447Y-120718280D01*
X175757457Y-120718280D01*
X176087899Y-120729322D01*
X176779471Y-120834606D01*
X177139020Y-121015195D01*
X177288160Y-121164406D01*
X177614328Y-121015195D01*
X178031182Y-120807258D01*
X178705582Y-120709864D01*
X179425358Y-120736371D01*
G37*
G36*
X166188077Y-120825438D02*
G01*
X166947908Y-121155155D01*
X167280405Y-121372025D01*
X167647035Y-121438683D01*
X168042607Y-121155155D01*
X168285096Y-120980742D01*
X168987832Y-120777369D01*
X169711114Y-120852348D01*
X170276176Y-121167290D01*
X170504256Y-121683803D01*
X170452498Y-121929522D01*
X170088130Y-122061315D01*
X169371276Y-121782555D01*
X169010053Y-121649297D01*
X168615639Y-121757928D01*
X168486945Y-122178841D01*
X168641561Y-122800990D01*
X169097082Y-123513325D01*
X169421827Y-123773721D01*
X170136861Y-123825114D01*
X170299774Y-123788302D01*
X170681422Y-123833031D01*
X170774468Y-124255696D01*
X170716492Y-124619958D01*
X170429381Y-124778080D01*
X169761668Y-124763261D01*
X169209427Y-124674182D01*
X168635406Y-124353733D01*
X168105323Y-123670238D01*
X168024320Y-123544381D01*
X167629845Y-123007918D01*
X167352676Y-122868941D01*
X167072227Y-123055722D01*
X166691983Y-123296830D01*
X166010497Y-123449462D01*
X165593139Y-123517227D01*
X165515181Y-123738708D01*
X165815310Y-123909499D01*
X166409319Y-123943547D01*
X166927492Y-123967742D01*
X167126596Y-124268817D01*
X166881175Y-124596531D01*
X166129579Y-124762280D01*
X165663163Y-124778950D01*
X165103104Y-124624530D01*
X164678999Y-124146397D01*
X164590840Y-123998550D01*
X164431586Y-123319034D01*
X164766200Y-122832138D01*
X165571808Y-122578041D01*
X166059992Y-122443218D01*
X166377547Y-122175327D01*
X166322494Y-121926871D01*
X165945722Y-121694057D01*
X165434920Y-121624334D01*
X165018757Y-121783622D01*
X164637953Y-122029905D01*
X164208839Y-122036844D01*
X164019149Y-121728817D01*
X164055212Y-121530127D01*
X164343405Y-121046022D01*
X164582019Y-120884257D01*
X165321068Y-120731854D01*
X166188077Y-120825438D01*
G37*
G36*
X141652641Y-141751519D02*
G01*
X141861702Y-141868828D01*
X141849268Y-141912639D01*
X141591490Y-142158065D01*
X141486819Y-142200740D01*
X141321277Y-142037624D01*
X141331661Y-141958348D01*
X141591490Y-141748387D01*
X141652641Y-141751519D01*
G37*
G36*
X145570005Y-121327689D02*
G01*
X145529650Y-120958567D01*
X145670788Y-120795675D01*
X146056071Y-120785638D01*
X146455319Y-121264516D01*
X146730452Y-121590937D01*
X147257256Y-121810753D01*
X147587301Y-121708397D01*
X147941490Y-121264516D01*
X148029669Y-121071967D01*
X148371078Y-120768733D01*
X148724240Y-120749926D01*
X148885727Y-121059678D01*
X148884470Y-121096793D01*
X148805468Y-121623472D01*
X148641739Y-122356989D01*
X148640103Y-122363440D01*
X148420676Y-123256520D01*
X148232779Y-124063979D01*
X148203715Y-124181716D01*
X147908540Y-124715692D01*
X147495776Y-124727758D01*
X147022704Y-124210956D01*
X146915643Y-124035864D01*
X146316030Y-122981854D01*
X146277083Y-122903226D01*
X147265958Y-122903226D01*
X147285458Y-123047814D01*
X147446100Y-123085305D01*
X147478439Y-123045275D01*
X147446100Y-122721147D01*
X147364824Y-122678419D01*
X147265958Y-122903226D01*
X146277083Y-122903226D01*
X145849808Y-122040623D01*
X145570005Y-121327689D01*
G37*
G36*
X158666419Y-122737959D02*
G01*
X158641248Y-121783503D01*
X158684125Y-121257558D01*
X158820273Y-121050666D01*
X159074912Y-121053370D01*
X159330754Y-121166130D01*
X159493085Y-121485575D01*
X159484857Y-121585651D01*
X159677758Y-121793252D01*
X160082654Y-121726358D01*
X160506383Y-121401075D01*
X160700192Y-121227586D01*
X161195437Y-121022735D01*
X161655026Y-121021574D01*
X161857447Y-121249029D01*
X161731433Y-121502363D01*
X161311123Y-121893435D01*
X161098880Y-122052894D01*
X160926250Y-122327095D01*
X161176017Y-122625160D01*
X161533901Y-123182913D01*
X161464812Y-123789902D01*
X161047341Y-124329752D01*
X160367313Y-124692108D01*
X159510551Y-124766619D01*
X159320103Y-124741935D01*
X158993930Y-124636231D01*
X158813037Y-124363645D01*
X158723049Y-123797825D01*
X158704151Y-123449462D01*
X159541338Y-123449462D01*
X159600464Y-123767394D01*
X159855668Y-123995699D01*
X159919459Y-123990591D01*
X160321785Y-123775825D01*
X160604901Y-123401296D01*
X160594110Y-123082935D01*
X160201916Y-122890813D01*
X159747707Y-123017693D01*
X159541338Y-123449462D01*
X158704151Y-123449462D01*
X158669593Y-122812418D01*
X158666419Y-122737959D01*
G37*
G36*
X152174396Y-121104097D02*
G01*
X152348343Y-121746916D01*
X152391790Y-122057090D01*
X152623613Y-122512484D01*
X153158981Y-122681796D01*
X153602758Y-122802287D01*
X153872305Y-123120608D01*
X153693012Y-123484174D01*
X153075532Y-123755864D01*
X152885878Y-123797197D01*
X152527913Y-123891602D01*
X152648381Y-123936447D01*
X153278192Y-123963385D01*
X153480061Y-123973461D01*
X154101379Y-124109710D01*
X154291490Y-124419650D01*
X154290582Y-124451858D01*
X154159424Y-124684860D01*
X153725384Y-124778651D01*
X152872873Y-124761047D01*
X151454256Y-124678495D01*
X151372105Y-123070367D01*
X151351557Y-122360235D01*
X151371566Y-121543198D01*
X151439800Y-121067547D01*
X151569096Y-120845565D01*
X151877859Y-120776137D01*
X152174396Y-121104097D01*
G37*
G36*
X204763545Y-155535371D02*
G01*
X204731206Y-155859498D01*
X204649931Y-155902227D01*
X204551064Y-155677419D01*
X204570565Y-155532831D01*
X204731206Y-155495341D01*
X204763545Y-155535371D01*
G37*
G36*
X180984822Y-152257951D02*
G01*
X180952483Y-152582079D01*
X180871207Y-152624807D01*
X180772341Y-152400000D01*
X180791841Y-152255412D01*
X180952483Y-152217921D01*
X180984822Y-152257951D01*
G37*
G36*
X171164758Y-121924282D02*
G01*
X170950267Y-121250457D01*
X170982551Y-120872117D01*
X171044050Y-120816639D01*
X171448795Y-120770803D01*
X171855319Y-121264516D01*
X172130452Y-121590937D01*
X172657256Y-121810753D01*
X172987301Y-121708397D01*
X173341490Y-121264516D01*
X173514836Y-120945742D01*
X173900124Y-120718280D01*
X173923955Y-120718277D01*
X174169160Y-120742879D01*
X174260961Y-120904646D01*
X174211424Y-121335601D01*
X174032617Y-122167768D01*
X173988590Y-122366464D01*
X173784511Y-123301232D01*
X173622150Y-124063979D01*
X173423058Y-124579985D01*
X173131714Y-124815054D01*
X172945831Y-124740602D01*
X172516559Y-124301754D01*
X172025135Y-123591623D01*
X171634632Y-122903226D01*
X172665958Y-122903226D01*
X172685458Y-123047814D01*
X172846100Y-123085305D01*
X172878439Y-123045275D01*
X172846100Y-122721147D01*
X172764824Y-122678419D01*
X172665958Y-122903226D01*
X171634632Y-122903226D01*
X171548791Y-122751901D01*
X171164758Y-121924282D01*
G37*
G36*
X143212766Y-156633333D02*
G01*
X143077660Y-156769893D01*
X142942553Y-156633333D01*
X143077660Y-156496774D01*
X143212766Y-156633333D01*
G37*
G36*
X201185946Y-149510955D02*
G01*
X201528059Y-149924866D01*
X201542859Y-150089289D01*
X201291623Y-150163844D01*
X201160863Y-150099798D01*
X200818750Y-149685887D01*
X200803950Y-149521464D01*
X201055186Y-149446909D01*
X201185946Y-149510955D01*
G37*
G36*
X137891765Y-122033103D02*
G01*
X137645188Y-121384678D01*
X137626422Y-121305269D01*
X137620441Y-120843845D01*
X137939621Y-120718280D01*
X138232682Y-120820183D01*
X138540855Y-121264516D01*
X138726075Y-121598369D01*
X139307987Y-121810753D01*
X139708849Y-121724515D01*
X140105319Y-121264516D01*
X140223445Y-120991160D01*
X140551650Y-120723159D01*
X140877890Y-120929140D01*
X140900357Y-120992390D01*
X140885316Y-121482959D01*
X140745704Y-122248934D01*
X140525630Y-123127723D01*
X140269202Y-123956734D01*
X140020527Y-124573375D01*
X139823715Y-124815054D01*
X139694690Y-124756594D01*
X139304106Y-124343843D01*
X138812544Y-123656481D01*
X138351097Y-122903226D01*
X139294681Y-122903226D01*
X139350142Y-122984960D01*
X139580841Y-123176344D01*
X139607808Y-123169243D01*
X139700000Y-122903226D01*
X139689004Y-122828367D01*
X139413840Y-122630108D01*
X139316105Y-122651552D01*
X139294681Y-122903226D01*
X138351097Y-122903226D01*
X138311324Y-122838302D01*
X137891765Y-122033103D01*
G37*
G36*
X150921773Y-152965947D02*
G01*
X150958866Y-153128316D01*
X150919261Y-153161002D01*
X150598582Y-153128316D01*
X150556308Y-153046166D01*
X150778724Y-152946237D01*
X150921773Y-152965947D01*
G37*
G36*
X182202548Y-151124181D02*
G01*
X182393617Y-151580645D01*
X182304800Y-151933758D01*
X181853192Y-152126882D01*
X181503836Y-152037110D01*
X181312766Y-151580645D01*
X181401583Y-151227533D01*
X181853192Y-151034409D01*
X182202548Y-151124181D01*
G37*
G36*
X106869149Y-160906480D02*
G01*
X106870049Y-159995041D01*
X106882277Y-158602450D01*
X106920215Y-157587246D01*
X106998020Y-156838406D01*
X107129853Y-156244903D01*
X107329871Y-155695715D01*
X107612234Y-155079816D01*
X107954254Y-154326318D01*
X108247332Y-153589611D01*
X108362958Y-153167988D01*
X108380098Y-153073216D01*
X108618085Y-152545928D01*
X109144755Y-151636558D01*
X109971372Y-150326354D01*
X111109200Y-148596568D01*
X111191492Y-148477434D01*
X111798952Y-147704718D01*
X112662035Y-146710119D01*
X113679616Y-145599822D01*
X114750564Y-144480010D01*
X115773753Y-143456866D01*
X116284768Y-142977419D01*
X135917022Y-142977419D01*
X136052128Y-143113979D01*
X136187234Y-142977419D01*
X136052128Y-142840860D01*
X135917022Y-142977419D01*
X116284768Y-142977419D01*
X116648055Y-142636574D01*
X117272341Y-142125317D01*
X117654782Y-141854790D01*
X118546973Y-141197349D01*
X119434043Y-140517755D01*
X119932774Y-140140633D01*
X120728226Y-139589468D01*
X121325532Y-139235121D01*
X121985742Y-138874545D01*
X122743225Y-138398072D01*
X123389882Y-137996472D01*
X124308176Y-137481425D01*
X125366308Y-136921199D01*
X126441725Y-136377703D01*
X127411878Y-135912843D01*
X128154214Y-135588529D01*
X128546182Y-135466667D01*
X128934440Y-135367152D01*
X129525289Y-135059512D01*
X129704148Y-134952686D01*
X130459807Y-134596243D01*
X131339718Y-134269250D01*
X132121133Y-134007219D01*
X133242491Y-133610984D01*
X134371016Y-133195761D01*
X134470583Y-133158280D01*
X135366822Y-132825357D01*
X136032995Y-132585617D01*
X136331274Y-132488768D01*
X136437201Y-132473291D01*
X137196463Y-132324324D01*
X138257859Y-132081689D01*
X139441542Y-131789466D01*
X140567665Y-131491737D01*
X141456383Y-131232583D01*
X142177095Y-131050353D01*
X143279527Y-130846048D01*
X144428724Y-130691468D01*
X145441682Y-130549982D01*
X146383621Y-130352593D01*
X146995745Y-130148655D01*
X147286649Y-130047550D01*
X148138870Y-129876006D01*
X149372326Y-129704646D01*
X150888334Y-129542452D01*
X152588213Y-129398404D01*
X154373281Y-129281483D01*
X156144856Y-129200672D01*
X157804256Y-129164951D01*
X158662269Y-129148779D01*
X159806201Y-129092484D01*
X160693349Y-129007205D01*
X161181915Y-128903902D01*
X161420310Y-128846173D01*
X162207525Y-128786203D01*
X163407507Y-128770229D01*
X164941383Y-128793456D01*
X166730285Y-128851088D01*
X168695340Y-128938330D01*
X170757680Y-129050386D01*
X172838432Y-129182461D01*
X174858727Y-129329758D01*
X176739695Y-129487482D01*
X178402464Y-129650838D01*
X179768164Y-129815029D01*
X180757924Y-129975260D01*
X181292875Y-130126736D01*
X181634702Y-130265608D01*
X182495560Y-130498905D01*
X183474468Y-130669136D01*
X184015828Y-130749369D01*
X185072575Y-130967646D01*
X185906383Y-131213417D01*
X186073441Y-131275743D01*
X186891828Y-131564047D01*
X187979871Y-131931721D01*
X189148936Y-132314696D01*
X190474001Y-132781593D01*
X193197490Y-133950697D01*
X196060827Y-135432018D01*
X196096575Y-135452118D01*
X197824333Y-136592301D01*
X199632301Y-138074589D01*
X201428379Y-139797741D01*
X203120469Y-141660517D01*
X204616472Y-143561678D01*
X205824288Y-145399984D01*
X206651820Y-147074194D01*
X206818504Y-147551843D01*
X207180053Y-148887972D01*
X207515188Y-150489171D01*
X207786361Y-152164069D01*
X207956022Y-153721293D01*
X207979954Y-154070935D01*
X208006775Y-155112531D01*
X207921226Y-155773805D01*
X207710880Y-156179357D01*
X207429793Y-156597936D01*
X207118684Y-157316129D01*
X207077964Y-157437773D01*
X206730686Y-158154146D01*
X206241174Y-158914598D01*
X205562095Y-159830271D01*
X203773069Y-159638608D01*
X202890519Y-159515228D01*
X201766761Y-159289505D01*
X200903192Y-159040985D01*
X200475454Y-158888003D01*
X199998327Y-158739880D01*
X199398908Y-158580629D01*
X198595677Y-158391025D01*
X197507109Y-158151841D01*
X196051682Y-157843852D01*
X194147873Y-157447832D01*
X194025610Y-157422489D01*
X192805651Y-157168138D01*
X191641574Y-156923210D01*
X190770213Y-156737511D01*
X190299883Y-156645588D01*
X189256675Y-156467039D01*
X187972207Y-156266360D01*
X186624016Y-156072044D01*
X185657683Y-155928670D01*
X184527060Y-155732130D01*
X183664507Y-155548604D01*
X183204257Y-155404302D01*
X183167697Y-155387351D01*
X182610388Y-155259911D01*
X181541994Y-155117767D01*
X179987934Y-154963224D01*
X177973629Y-154798589D01*
X175524497Y-154626168D01*
X172665958Y-154448267D01*
X171605118Y-154395178D01*
X169102845Y-154336929D01*
X166595683Y-154363032D01*
X164174197Y-154467135D01*
X161928947Y-154642882D01*
X159950497Y-154883921D01*
X158329409Y-155183897D01*
X157156245Y-155536455D01*
X156782838Y-155664097D01*
X155848878Y-155893260D01*
X154831915Y-156063484D01*
X154658791Y-156087136D01*
X153599672Y-156284013D01*
X152316485Y-156581496D01*
X151048936Y-156924995D01*
X150807141Y-156996293D01*
X149512283Y-157375809D01*
X148251083Y-157742294D01*
X147265958Y-158025243D01*
X146692854Y-158194924D01*
X145652994Y-158530343D01*
X144834043Y-158826841D01*
X144140702Y-159066719D01*
X143104453Y-159372045D01*
X141996809Y-159659161D01*
X141964196Y-159667006D01*
X140968772Y-159940034D01*
X140156341Y-160221860D01*
X139700000Y-160452681D01*
X139207122Y-160734548D01*
X138484043Y-160981038D01*
X137853165Y-161165656D01*
X136805194Y-161526979D01*
X135516700Y-162003556D01*
X134122008Y-162543308D01*
X132755443Y-163094154D01*
X131551330Y-163604012D01*
X130643994Y-164020802D01*
X130081393Y-164285001D01*
X129366519Y-164576852D01*
X128946883Y-164690323D01*
X128572137Y-164808274D01*
X127801339Y-165135272D01*
X126719316Y-165629788D01*
X125410647Y-166250291D01*
X123959912Y-166955252D01*
X122451690Y-167703143D01*
X120970561Y-168452435D01*
X119601103Y-169161596D01*
X118427897Y-169789099D01*
X117535521Y-170293414D01*
X117230912Y-170477389D01*
X116206641Y-171143069D01*
X115330533Y-171778503D01*
X114765489Y-172267592D01*
X113804906Y-173338357D01*
X112779844Y-174573460D01*
X111831186Y-175800239D01*
X111058208Y-176890109D01*
X110560185Y-177714484D01*
X110379310Y-178056132D01*
X109987430Y-178696830D01*
X109704198Y-179030398D01*
X109501300Y-179242755D01*
X109102215Y-179880024D01*
X108656024Y-180752203D01*
X108240735Y-181691324D01*
X107934355Y-182529415D01*
X107814894Y-183098510D01*
X107727272Y-183722602D01*
X107314316Y-184274567D01*
X106514467Y-184541351D01*
X105274864Y-184553229D01*
X103469641Y-184281880D01*
X101937458Y-183699378D01*
X100497171Y-182731117D01*
X99724963Y-182000855D01*
X99128767Y-181101597D01*
X98743777Y-179965834D01*
X98498901Y-178440938D01*
X98441715Y-177828920D01*
X98464991Y-176791875D01*
X98758743Y-176043337D01*
X99404976Y-175433552D01*
X100485698Y-174812767D01*
X101126764Y-174427114D01*
X102318442Y-173503855D01*
X103589711Y-172323874D01*
X104814637Y-171016064D01*
X105867286Y-169709321D01*
X106621722Y-168532537D01*
X106854260Y-168099757D01*
X107288764Y-167330381D01*
X107603286Y-166822977D01*
X107692949Y-166679998D01*
X107743653Y-166271941D01*
X107398215Y-165770316D01*
X107374816Y-165743837D01*
X107178985Y-165467298D01*
X107040998Y-165100447D01*
X106950938Y-164552112D01*
X106898888Y-163731120D01*
X106881535Y-162872927D01*
X108449016Y-162872927D01*
X108536414Y-163480876D01*
X108991570Y-163756913D01*
X109390651Y-163927757D01*
X109885084Y-164397232D01*
X110227351Y-164758243D01*
X110675931Y-164963441D01*
X110910106Y-165032432D01*
X111251370Y-165429555D01*
X111567054Y-166026795D01*
X112502300Y-166932181D01*
X113869095Y-167589586D01*
X114376036Y-167769299D01*
X115208356Y-168112526D01*
X115757396Y-168401690D01*
X115960482Y-168501323D01*
X116281605Y-168517336D01*
X116761048Y-168392119D01*
X117478452Y-168096729D01*
X118513454Y-167602226D01*
X119945694Y-166879670D01*
X120351624Y-166672918D01*
X121834002Y-165925315D01*
X123277086Y-165207646D01*
X124533564Y-164592790D01*
X125456123Y-164153621D01*
X125625842Y-164073745D01*
X126446405Y-163643939D01*
X126989367Y-163284766D01*
X127144580Y-163067106D01*
X127159784Y-162951584D01*
X127507927Y-162963887D01*
X127925376Y-162943311D01*
X128696623Y-162733623D01*
X129602449Y-162375073D01*
X130260727Y-162075364D01*
X131432999Y-161547140D01*
X132238135Y-161197068D01*
X132761903Y-160990239D01*
X133090073Y-160891741D01*
X133308414Y-160866667D01*
X133453893Y-160843663D01*
X134034585Y-160646487D01*
X134787002Y-160313282D01*
X135060351Y-160185681D01*
X135972658Y-159821329D01*
X136734868Y-159595210D01*
X137349494Y-159410480D01*
X137694975Y-159192681D01*
X137859085Y-159063282D01*
X138364884Y-158954839D01*
X138765826Y-158789322D01*
X138880869Y-158384805D01*
X138601547Y-157987929D01*
X138496467Y-157769016D01*
X138778533Y-157289015D01*
X139289353Y-156841639D01*
X139626693Y-156892657D01*
X139859252Y-157452688D01*
X140036293Y-157903809D01*
X140287928Y-158135484D01*
X140409740Y-158029395D01*
X140380755Y-157605881D01*
X140352917Y-157225703D01*
X140726470Y-156799310D01*
X140737951Y-156793188D01*
X141295830Y-156702405D01*
X141665265Y-156974211D01*
X141676571Y-157485969D01*
X141623829Y-157638939D01*
X141634425Y-157805375D01*
X141866067Y-157809234D01*
X142413178Y-157639270D01*
X143370181Y-157284236D01*
X143461314Y-157249537D01*
X144266996Y-156902828D01*
X144605328Y-156647937D01*
X144528722Y-156446990D01*
X144501950Y-156427949D01*
X144398381Y-156290069D01*
X144778276Y-156364510D01*
X145284330Y-156399279D01*
X146146379Y-156310008D01*
X147106006Y-156123356D01*
X147950815Y-155881738D01*
X148468405Y-155627572D01*
X148798825Y-155484060D01*
X149427660Y-155404301D01*
X149941528Y-155340790D01*
X150397832Y-155133804D01*
X150562166Y-155035225D01*
X151173696Y-154847308D01*
X152005598Y-154702434D01*
X152436470Y-154642902D01*
X153300033Y-154479803D01*
X153886171Y-154310708D01*
X154155822Y-154206226D01*
X154898531Y-153990832D01*
X155960727Y-153764543D01*
X157451230Y-153502693D01*
X157981947Y-153408040D01*
X158699436Y-153253810D01*
X159072506Y-153136388D01*
X159252405Y-153095070D01*
X159903550Y-153011418D01*
X160933114Y-152907270D01*
X162246456Y-152791966D01*
X163748936Y-152674846D01*
X165155808Y-152583168D01*
X167167440Y-152501505D01*
X169218223Y-152485771D01*
X171473978Y-152535579D01*
X174100525Y-152650538D01*
X176135865Y-152761350D01*
X178296872Y-152901618D01*
X180118181Y-153054992D01*
X181711553Y-153234437D01*
X183188746Y-153452915D01*
X184661518Y-153723391D01*
X186241630Y-154058826D01*
X186592803Y-154134521D01*
X187826761Y-154366290D01*
X188949565Y-154530988D01*
X189754396Y-154596934D01*
X189880217Y-154600321D01*
X190962272Y-154735437D01*
X191986171Y-155002500D01*
X192178644Y-155068861D01*
X193064788Y-155303335D01*
X193794160Y-155400189D01*
X194319458Y-155472276D01*
X194688298Y-155677419D01*
X194973366Y-155856696D01*
X195565173Y-155950538D01*
X195596275Y-155950943D01*
X196267270Y-156029562D01*
X197316927Y-156223736D01*
X198613393Y-156503600D01*
X200024815Y-156839289D01*
X201419338Y-157200938D01*
X202665111Y-157558683D01*
X203196381Y-157672321D01*
X203794754Y-157587661D01*
X204010639Y-157190252D01*
X204080218Y-156937825D01*
X204431569Y-156483679D01*
X204846970Y-155962300D01*
X205245314Y-155157444D01*
X205505804Y-154324966D01*
X205536084Y-153697810D01*
X205509766Y-153449429D01*
X205657115Y-153371656D01*
X205716975Y-153400655D01*
X205862477Y-153293396D01*
X205875193Y-152804618D01*
X205752326Y-151885737D01*
X205491078Y-150488172D01*
X205175890Y-149088580D01*
X204840589Y-148029996D01*
X204509993Y-147467354D01*
X204173041Y-147374517D01*
X204121503Y-147385296D01*
X203929091Y-147129023D01*
X203863250Y-146369279D01*
X203849627Y-145947065D01*
X203715744Y-145369392D01*
X203351955Y-144849791D01*
X202653434Y-144200334D01*
X202106814Y-143783257D01*
X201224256Y-143197431D01*
X200185111Y-142563046D01*
X199111259Y-141949449D01*
X198124577Y-141425988D01*
X197346945Y-141062008D01*
X196900239Y-140926857D01*
X196684003Y-140871181D01*
X196081876Y-140642668D01*
X195278962Y-140297371D01*
X194525656Y-140009328D01*
X193283584Y-139616847D01*
X191744398Y-139183238D01*
X190032061Y-138740416D01*
X188270532Y-138320291D01*
X186583773Y-137954778D01*
X185095745Y-137675788D01*
X185072272Y-137671909D01*
X184228273Y-137558132D01*
X182968242Y-137419563D01*
X181410598Y-137267767D01*
X179673760Y-137114308D01*
X177876148Y-136970751D01*
X177397673Y-136934906D01*
X175275976Y-136784424D01*
X173531619Y-136682885D01*
X172030477Y-136629178D01*
X170638424Y-136622190D01*
X169221333Y-136660808D01*
X167645077Y-136743922D01*
X165775532Y-136870419D01*
X163319942Y-137053202D01*
X160779895Y-137263662D01*
X158592321Y-137475457D01*
X156654840Y-137700681D01*
X154865071Y-137951424D01*
X153120634Y-138239778D01*
X151319149Y-138577836D01*
X150034685Y-138826737D01*
X148505384Y-139116933D01*
X147110487Y-139376192D01*
X146846511Y-139427088D01*
X144988555Y-139906042D01*
X143088086Y-140575502D01*
X141339003Y-141359629D01*
X139935204Y-142182587D01*
X138896431Y-142910198D01*
X138387367Y-142274771D01*
X138306576Y-142174280D01*
X137965872Y-141826566D01*
X137643760Y-141826331D01*
X137105841Y-142150922D01*
X137005550Y-142219823D01*
X136627562Y-142575290D01*
X136665626Y-142774440D01*
X136784635Y-142831236D01*
X136997873Y-143136738D01*
X136989550Y-143178607D01*
X136685983Y-143338774D01*
X136090693Y-143378018D01*
X135402445Y-143299213D01*
X134820005Y-143105234D01*
X134406222Y-142995419D01*
X133789886Y-143107824D01*
X132861027Y-143488161D01*
X132268630Y-143751595D01*
X131277606Y-144155739D01*
X130495066Y-144432889D01*
X130420540Y-144455737D01*
X129514995Y-144771370D01*
X128472668Y-145184192D01*
X127455190Y-145624546D01*
X126624192Y-146022774D01*
X126141304Y-146309218D01*
X125836138Y-146510832D01*
X125151297Y-146899763D01*
X124297873Y-147345478D01*
X123645877Y-147688712D01*
X122703348Y-148233296D01*
X122001064Y-148695280D01*
X121923793Y-148752103D01*
X121250186Y-149197491D01*
X120717553Y-149475513D01*
X120463836Y-149614309D01*
X120244681Y-149933364D01*
X120229731Y-150020509D01*
X119941230Y-150215054D01*
X119843750Y-150232459D01*
X119303102Y-150503205D01*
X118491456Y-151043759D01*
X117506585Y-151779019D01*
X116446263Y-152633884D01*
X115408261Y-153533251D01*
X114490352Y-154402019D01*
X114232124Y-154663104D01*
X112643758Y-156359517D01*
X111271496Y-157982021D01*
X110140616Y-159487613D01*
X109276392Y-160833296D01*
X108704100Y-161976067D01*
X108449016Y-162872927D01*
X106881535Y-162872927D01*
X106874931Y-162546300D01*
X106869149Y-160906480D01*
G37*
G36*
X182393617Y-152809678D02*
G01*
X182258511Y-152946237D01*
X182123405Y-152809678D01*
X182258511Y-152673118D01*
X182393617Y-152809678D01*
G37*
G36*
X154686869Y-121782709D02*
G01*
X155162252Y-121143444D01*
X155948033Y-120781467D01*
X156845099Y-120801542D01*
X157610881Y-121247041D01*
X158144401Y-122054024D01*
X158344681Y-123158553D01*
X158336970Y-123445631D01*
X158141849Y-124262625D01*
X157620605Y-124690997D01*
X156688974Y-124815054D01*
X156509807Y-124811539D01*
X155719456Y-124632018D01*
X155121740Y-124095426D01*
X154816207Y-123596001D01*
X154630814Y-122887769D01*
X155435503Y-122887769D01*
X155892661Y-123567631D01*
X155993224Y-123653338D01*
X156624382Y-123926491D01*
X157145383Y-123787556D01*
X157462338Y-123352847D01*
X157481359Y-122738674D01*
X157108558Y-122061348D01*
X156806232Y-121770782D01*
X156240163Y-121559475D01*
X155696596Y-121865376D01*
X155465241Y-122202646D01*
X155435503Y-122887769D01*
X154630814Y-122887769D01*
X154570725Y-122658218D01*
X154686869Y-121782709D01*
G37*
G36*
X126491158Y-122359414D02*
G01*
X126499287Y-121972881D01*
X127540426Y-121972881D01*
X127706150Y-122269438D01*
X128108058Y-122345835D01*
X128467184Y-122114922D01*
X128446978Y-121939980D01*
X128077812Y-121730814D01*
X127739128Y-121704366D01*
X127540426Y-121972881D01*
X126499287Y-121972881D01*
X126508128Y-121552479D01*
X126571603Y-121090259D01*
X126801992Y-120855996D01*
X127399672Y-120731560D01*
X128142545Y-120828939D01*
X128831366Y-121143444D01*
X128915270Y-121207972D01*
X129319648Y-121746220D01*
X129429962Y-122328493D01*
X129197940Y-122744030D01*
X129077646Y-122979541D01*
X129084563Y-123527834D01*
X129098912Y-123619168D01*
X128963740Y-124291087D01*
X128405593Y-124690261D01*
X127490524Y-124765409D01*
X127375326Y-124754051D01*
X126923431Y-124672749D01*
X126681613Y-124456222D01*
X126570953Y-123967688D01*
X126546103Y-123586022D01*
X127540426Y-123586022D01*
X127584514Y-123811512D01*
X127830905Y-123943351D01*
X127911017Y-123906262D01*
X128121383Y-123586022D01*
X128110078Y-123510654D01*
X127830905Y-123228692D01*
X127677532Y-123246107D01*
X127540426Y-123586022D01*
X126546103Y-123586022D01*
X126512530Y-123070367D01*
X126491158Y-122359414D01*
G37*
G36*
X142545178Y-142314334D02*
G01*
X142582270Y-142476703D01*
X142542665Y-142509390D01*
X142221986Y-142476703D01*
X142179712Y-142394553D01*
X142402128Y-142294624D01*
X142545178Y-142314334D01*
G37*
G36*
X199160371Y-146196407D02*
G01*
X199524095Y-146552604D01*
X199595068Y-146818748D01*
X199452458Y-147308315D01*
X198876596Y-147483871D01*
X198584883Y-147446288D01*
X198159496Y-147106592D01*
X198168639Y-146514878D01*
X198217214Y-146417953D01*
X198634830Y-146149021D01*
X199160371Y-146196407D01*
G37*
G36*
X147929138Y-155152225D02*
G01*
X147941490Y-155404301D01*
X147886270Y-155478111D01*
X147504276Y-155677419D01*
X147413416Y-155656377D01*
X147401064Y-155404301D01*
X147456284Y-155330492D01*
X147838278Y-155131183D01*
X147929138Y-155152225D01*
G37*
G36*
X115651064Y-154175269D02*
G01*
X115515958Y-154311828D01*
X115380851Y-154175269D01*
X115515958Y-154038710D01*
X115651064Y-154175269D01*
G37*
G36*
X129851039Y-121672202D02*
G01*
X129712647Y-121196237D01*
X129734872Y-120999872D01*
X129985055Y-120739860D01*
X130355517Y-120832902D01*
X130647873Y-121264516D01*
X130709903Y-121416880D01*
X131121083Y-121767005D01*
X131668163Y-121699025D01*
X132187366Y-121217898D01*
X132336661Y-121009836D01*
X132698276Y-120720383D01*
X132908919Y-120892904D01*
X132942241Y-121473704D01*
X132771896Y-122409091D01*
X132638822Y-122962166D01*
X132470189Y-123802768D01*
X132404256Y-124348364D01*
X132382239Y-124571315D01*
X132161138Y-124804992D01*
X131751472Y-124623883D01*
X131214101Y-124067739D01*
X130609881Y-123176311D01*
X130409923Y-122812186D01*
X131413475Y-122812186D01*
X131453080Y-122844873D01*
X131773759Y-122812186D01*
X131816033Y-122730037D01*
X131593617Y-122630108D01*
X131450568Y-122649818D01*
X131413475Y-122812186D01*
X130409923Y-122812186D01*
X130200525Y-122430869D01*
X129851039Y-121672202D01*
G37*
G36*
X144563830Y-154994624D02*
G01*
X144428724Y-155131183D01*
X144293617Y-154994624D01*
X144428724Y-154858065D01*
X144563830Y-154994624D01*
G37*
G36*
X144023405Y-156087097D02*
G01*
X143888298Y-156223656D01*
X143753192Y-156087097D01*
X143888298Y-155950538D01*
X144023405Y-156087097D01*
G37*
G36*
X133924860Y-120598289D02*
G01*
X134125534Y-121100816D01*
X134242133Y-121878993D01*
X134323627Y-123133566D01*
X135424951Y-121925923D01*
X135512802Y-121830019D01*
X136275106Y-121065224D01*
X136782885Y-120754185D01*
X137085041Y-120919209D01*
X137230474Y-121582601D01*
X137268085Y-122766667D01*
X137260857Y-123458143D01*
X137206892Y-124274847D01*
X137084905Y-124695718D01*
X136876887Y-124815054D01*
X136702052Y-124745538D01*
X136508086Y-124305021D01*
X136404015Y-123395312D01*
X136322341Y-121975571D01*
X135253518Y-123395312D01*
X134996860Y-123730952D01*
X134347371Y-124487474D01*
X133910923Y-124770963D01*
X133648044Y-124563829D01*
X133519262Y-123848487D01*
X133485107Y-122607348D01*
X133490533Y-121973517D01*
X133538660Y-121067777D01*
X133645739Y-120603574D01*
X133822873Y-120512031D01*
X133924860Y-120598289D01*
G37*
G36*
X203200000Y-150624731D02*
G01*
X203064894Y-150761290D01*
X202929788Y-150624731D01*
X203064894Y-150488172D01*
X203200000Y-150624731D01*
G37*
G36*
X131593617Y-161003226D02*
G01*
X131458511Y-161139785D01*
X131323405Y-161003226D01*
X131458511Y-160866667D01*
X131593617Y-161003226D01*
G37*
G36*
X120899503Y-150258639D02*
G01*
X121188513Y-150485044D01*
X121213182Y-150611470D01*
X120934247Y-150592382D01*
X120726850Y-150497801D01*
X120514894Y-150322392D01*
X120589785Y-150220643D01*
X120899503Y-150258639D01*
G37*
G36*
X203200000Y-148572752D02*
G01*
X203454620Y-148864359D01*
X203306144Y-149319645D01*
X203221165Y-149444712D01*
X202727104Y-149818201D01*
X202269699Y-149756871D01*
X201995370Y-149339440D01*
X202050539Y-148644624D01*
X202127223Y-148494146D01*
X202554505Y-148321752D01*
X203200000Y-148572752D01*
G37*
%TO.C,D10*%
X145662500Y-122325000D02*
X143262500Y-122325000D01*
X145662500Y-116725000D02*
X143262500Y-116725000D01*
X143262500Y-122600000D02*
X145662500Y-122600000D01*
X143262500Y-116725000D02*
X143262500Y-122725000D01*
X145662500Y-122450000D02*
X143262500Y-122450000D01*
X145662500Y-122725000D02*
X145662500Y-116725000D01*
X143262500Y-122725000D02*
X145662500Y-122725000D01*
%TD*%
%LPC*%
D12*
%TO.C,K40*%
X202565000Y-171595000D03*
X196215000Y-174135000D03*
D13*
X194945000Y-176675000D03*
D14*
X257175000Y-169690000D03*
D13*
X205105000Y-176675000D03*
D15*
X200025000Y-176675000D03*
D14*
X142875000Y-169690000D03*
D15*
X257175000Y-184930000D03*
X142875000Y-184930000D03*
%TD*%
D12*
%TO.C,K30*%
X189865000Y-152545000D03*
X183515000Y-155085000D03*
D13*
X192405000Y-157625000D03*
D15*
X187325000Y-157625000D03*
D13*
X182245000Y-157625000D03*
%TD*%
D12*
%TO.C,K22*%
X123190000Y-133495000D03*
X116840000Y-136035000D03*
D13*
X115570000Y-138575000D03*
D15*
X120650000Y-138575000D03*
D13*
X125730000Y-138575000D03*
%TD*%
D12*
%TO.C,K37*%
X323215000Y-176357500D03*
X316865000Y-178897500D03*
D15*
X320675000Y-181437500D03*
D13*
X325755000Y-181437500D03*
X315595000Y-181437500D03*
%TD*%
D12*
%TO.C,K17*%
X218440000Y-133495000D03*
X212090000Y-136035000D03*
D13*
X210820000Y-138575000D03*
X220980000Y-138575000D03*
D15*
X215900000Y-138575000D03*
%TD*%
D12*
%TO.C,K1*%
X313690000Y-114445000D03*
X307340000Y-116985000D03*
D13*
X306070000Y-119525000D03*
X316230000Y-119525000D03*
D15*
X311150000Y-119525000D03*
%TD*%
D12*
%TO.C,K8*%
X175577500Y-114445000D03*
X169227500Y-116985000D03*
D13*
X178117500Y-119525000D03*
X167957500Y-119525000D03*
D15*
X173037500Y-119525000D03*
%TD*%
D12*
%TO.C,K41*%
X123983750Y-171595000D03*
X117633750Y-174135000D03*
D15*
X121443750Y-176675000D03*
D13*
X116363750Y-176675000D03*
X126523750Y-176675000D03*
%TD*%
D12*
%TO.C,K13*%
X306546250Y-133495000D03*
X300196250Y-136035000D03*
D13*
X309086250Y-138575000D03*
D15*
X315912500Y-146830000D03*
D14*
X292100000Y-131590000D03*
D15*
X292100000Y-146830000D03*
D13*
X298926250Y-138575000D03*
D14*
X315912500Y-131590000D03*
D15*
X304006250Y-138575000D03*
%TD*%
D12*
%TO.C,K16*%
X237490000Y-133495000D03*
X231140000Y-136035000D03*
D13*
X240030000Y-138575000D03*
X229870000Y-138575000D03*
D15*
X234950000Y-138575000D03*
%TD*%
D12*
%TO.C,K19*%
X180340000Y-133495000D03*
X173990000Y-136035000D03*
D15*
X177800000Y-138575000D03*
D13*
X182880000Y-138575000D03*
X172720000Y-138575000D03*
%TD*%
D12*
%TO.C,K9*%
X156527500Y-114445000D03*
X150177500Y-116985000D03*
D13*
X159067500Y-119525000D03*
X148907500Y-119525000D03*
D15*
X153987500Y-119525000D03*
%TD*%
D12*
%TO.C,K4*%
X251777500Y-114445000D03*
X245427500Y-116985000D03*
D15*
X249237500Y-119525000D03*
D13*
X254317500Y-119525000D03*
X244157500Y-119525000D03*
%TD*%
D12*
%TO.C,K5*%
X232727500Y-114445000D03*
X226377500Y-116985000D03*
D15*
X230187500Y-119525000D03*
D13*
X235267500Y-119525000D03*
X225107500Y-119525000D03*
%TD*%
D12*
%TO.C,K26*%
X266065000Y-152545000D03*
X259715000Y-155085000D03*
D13*
X258445000Y-157625000D03*
X268605000Y-157625000D03*
D15*
X263525000Y-157625000D03*
%TD*%
D12*
%TO.C,K23*%
X96996250Y-133495000D03*
X90646250Y-136035000D03*
D13*
X99536250Y-138575000D03*
X89376250Y-138575000D03*
D15*
X94456250Y-138575000D03*
%TD*%
D12*
%TO.C,K36*%
X342265000Y-176357500D03*
X335915000Y-178897500D03*
D13*
X334645000Y-181437500D03*
D15*
X339725000Y-181437500D03*
D13*
X344805000Y-181437500D03*
%TD*%
D12*
%TO.C,K35*%
X92233750Y-152545000D03*
X85883750Y-155085000D03*
D13*
X84613750Y-157625000D03*
D15*
X89693750Y-157625000D03*
D13*
X94773750Y-157625000D03*
%TD*%
D12*
%TO.C,K31*%
X170815000Y-152545000D03*
X164465000Y-155085000D03*
D13*
X173355000Y-157625000D03*
D15*
X168275000Y-157625000D03*
D13*
X163195000Y-157625000D03*
%TD*%
D12*
%TO.C,K25*%
X292258750Y-152545000D03*
X285908750Y-155085000D03*
D15*
X289718750Y-157625000D03*
D13*
X294798750Y-157625000D03*
X284638750Y-157625000D03*
%TD*%
D12*
%TO.C,K7*%
X194627500Y-114445000D03*
X188277500Y-116985000D03*
D15*
X192087500Y-119525000D03*
D13*
X187007500Y-119525000D03*
X197167500Y-119525000D03*
%TD*%
D12*
%TO.C,K2*%
X289877500Y-114445000D03*
X283527500Y-116985000D03*
D13*
X282257500Y-119525000D03*
X292417500Y-119525000D03*
D15*
X287337500Y-119525000D03*
%TD*%
D12*
%TO.C,K38*%
X304165000Y-176357500D03*
X297815000Y-178897500D03*
D13*
X306705000Y-181437500D03*
X296545000Y-181437500D03*
D15*
X301625000Y-181437500D03*
%TD*%
D12*
%TO.C,K14*%
X275590000Y-133495000D03*
X269240000Y-136035000D03*
D15*
X273050000Y-138575000D03*
D13*
X278130000Y-138575000D03*
X267970000Y-138575000D03*
%TD*%
D12*
%TO.C,K28*%
X227965000Y-152545000D03*
X221615000Y-155085000D03*
D13*
X220345000Y-157625000D03*
X230505000Y-157625000D03*
D15*
X225425000Y-157625000D03*
%TD*%
D12*
%TO.C,K3*%
X270827500Y-114445000D03*
X264477500Y-116985000D03*
D13*
X263207500Y-119525000D03*
D15*
X268287500Y-119525000D03*
D13*
X273367500Y-119525000D03*
%TD*%
D12*
%TO.C,K33*%
X132715000Y-152545000D03*
X126365000Y-155085000D03*
D15*
X130175000Y-157625000D03*
D13*
X125095000Y-157625000D03*
X135255000Y-157625000D03*
%TD*%
D12*
%TO.C,K42*%
X102552500Y-171595000D03*
X96202500Y-174135000D03*
D13*
X105092500Y-176675000D03*
D15*
X100012500Y-176675000D03*
D13*
X94932500Y-176675000D03*
%TD*%
D12*
%TO.C,K32*%
X151765000Y-152545000D03*
X145415000Y-155085000D03*
D13*
X154305000Y-157625000D03*
X144145000Y-157625000D03*
D15*
X149225000Y-157625000D03*
%TD*%
D12*
%TO.C,K20*%
X161290000Y-133495000D03*
X154940000Y-136035000D03*
D13*
X163830000Y-138575000D03*
D15*
X158750000Y-138575000D03*
D13*
X153670000Y-138575000D03*
%TD*%
D12*
%TO.C,K21*%
X142240000Y-133495000D03*
X135890000Y-136035000D03*
D13*
X134620000Y-138575000D03*
D15*
X139700000Y-138575000D03*
D13*
X144780000Y-138575000D03*
%TD*%
D12*
%TO.C,K24*%
X323215000Y-157307500D03*
X316865000Y-159847500D03*
D13*
X325755000Y-162387500D03*
D15*
X320675000Y-162387500D03*
D13*
X315595000Y-162387500D03*
%TD*%
D12*
%TO.C,K11*%
X118427500Y-114445000D03*
X112077500Y-116985000D03*
D13*
X120967500Y-119525000D03*
D15*
X115887500Y-119525000D03*
D13*
X110807500Y-119525000D03*
%TD*%
D12*
%TO.C,K18*%
X199390000Y-133495000D03*
X193040000Y-136035000D03*
D15*
X196850000Y-138575000D03*
D13*
X191770000Y-138575000D03*
X201930000Y-138575000D03*
%TD*%
D12*
%TO.C,K34*%
X113665000Y-152545000D03*
X107315000Y-155085000D03*
D15*
X111125000Y-157625000D03*
D13*
X116205000Y-157625000D03*
X106045000Y-157625000D03*
%TD*%
D12*
%TO.C,K29*%
X208915000Y-152545000D03*
X202565000Y-155085000D03*
D15*
X206375000Y-157625000D03*
D13*
X211455000Y-157625000D03*
X201295000Y-157625000D03*
%TD*%
D12*
%TO.C,K6*%
X213677500Y-114445000D03*
X207327500Y-116985000D03*
D13*
X216217500Y-119525000D03*
X206057500Y-119525000D03*
D15*
X211137500Y-119525000D03*
%TD*%
D12*
%TO.C,K10*%
X137477500Y-114445000D03*
X131127500Y-116985000D03*
D15*
X134937500Y-119525000D03*
D13*
X140017500Y-119525000D03*
X129857500Y-119525000D03*
%TD*%
D12*
%TO.C,K12*%
X94615000Y-114445000D03*
X88265000Y-116985000D03*
D15*
X92075000Y-119525000D03*
D13*
X97155000Y-119525000D03*
X86995000Y-119525000D03*
%TD*%
D16*
%TO.C,SW2*%
X343495000Y-126525000D03*
X338495000Y-126525000D03*
X340995000Y-112025000D03*
X338495000Y-112025000D03*
D17*
X343495000Y-112025000D03*
%TD*%
D12*
%TO.C,K15*%
X256540000Y-133495000D03*
X250190000Y-136035000D03*
D13*
X259080000Y-138575000D03*
X248920000Y-138575000D03*
D15*
X254000000Y-138575000D03*
%TD*%
D12*
%TO.C,K39*%
X278765000Y-171595000D03*
X272415000Y-174135000D03*
D15*
X276225000Y-176675000D03*
D13*
X271145000Y-176675000D03*
X281305000Y-176675000D03*
%TD*%
D18*
%TO.C,U2*%
X344793000Y-131737000D03*
X342253000Y-131737000D03*
X339713000Y-131737000D03*
D19*
X337173000Y-131737000D03*
%TD*%
D12*
%TO.C,K27*%
X247015000Y-152545000D03*
X240665000Y-155085000D03*
D13*
X249555000Y-157625000D03*
X239395000Y-157625000D03*
D15*
X244475000Y-157625000D03*
%TD*%
D20*
%TO.C,D11*%
X125412500Y-117825000D03*
X125412500Y-121225000D03*
%TD*%
%TO.C,D15*%
X263525000Y-136875000D03*
X263525000Y-140275000D03*
%TD*%
%TO.C,D14*%
X282575000Y-136875000D03*
X282575000Y-140275000D03*
%TD*%
%TO.C,D8*%
X182562500Y-117825000D03*
X182562500Y-121225000D03*
%TD*%
%TO.C,D7*%
X201612500Y-117825000D03*
X201612500Y-121225000D03*
%TD*%
%TO.C,D30*%
X196850000Y-155925000D03*
X196850000Y-159325000D03*
%TD*%
%TO.C,D29*%
X215900000Y-155925000D03*
X215900000Y-159325000D03*
%TD*%
%TO.C,D18*%
X206375000Y-136875000D03*
X206375000Y-140275000D03*
%TD*%
%TO.C,D42*%
X109537500Y-174975000D03*
X109537500Y-178375000D03*
%TD*%
%TO.C,D33*%
X139700000Y-155925000D03*
X139700000Y-159325000D03*
%TD*%
%TO.C,D35*%
X101600000Y-155925000D03*
X101600000Y-159325000D03*
%TD*%
%TO.C,D22*%
X130175000Y-136875000D03*
X130175000Y-140275000D03*
%TD*%
%TO.C,D40*%
X266700000Y-174975000D03*
X266700000Y-178375000D03*
%TD*%
%TO.C,D23*%
X111125000Y-136875000D03*
X111125000Y-140275000D03*
%TD*%
%TO.C,D28*%
X234950000Y-155925000D03*
X234950000Y-159325000D03*
%TD*%
%TO.C,D26*%
X273050000Y-155925000D03*
X273050000Y-159325000D03*
%TD*%
%TO.C,D13*%
X325437500Y-136875000D03*
X325437500Y-140275000D03*
%TD*%
%TO.C,D6*%
X220662500Y-117825000D03*
X220662500Y-121225000D03*
%TD*%
%TO.C,D37*%
X330200000Y-179737500D03*
X330200000Y-183137500D03*
%TD*%
%TO.C,D31*%
X177800000Y-155925000D03*
X177800000Y-159325000D03*
%TD*%
%TO.C,D34*%
X120650000Y-155925000D03*
X120650000Y-159325000D03*
%TD*%
%TO.C,D5*%
X239712500Y-117825000D03*
X239712500Y-121225000D03*
%TD*%
%TO.C,D20*%
X168275000Y-136875000D03*
X168275000Y-140275000D03*
%TD*%
%TO.C,D27*%
X254000000Y-155925000D03*
X254000000Y-159325000D03*
%TD*%
D21*
%TO.C,U1*%
X333375000Y-108095000D03*
X333375000Y-110635000D03*
X333375000Y-113175000D03*
X333375000Y-115715000D03*
X335915000Y-115715000D03*
X333375000Y-118255000D03*
X333375000Y-120795000D03*
X333375000Y-123335000D03*
X333375000Y-125875000D03*
X333375000Y-128415000D03*
X333375000Y-130955000D03*
X333375000Y-133495000D03*
X333375000Y-136035000D03*
X333375000Y-138575000D03*
X335915000Y-138575000D03*
X338455000Y-138575000D03*
X340995000Y-138575000D03*
X343535000Y-138575000D03*
X346075000Y-138575000D03*
X348615000Y-138575000D03*
X348615000Y-136035000D03*
X348615000Y-133495000D03*
X348615000Y-130955000D03*
X348615000Y-128415000D03*
X348615000Y-125875000D03*
X348615000Y-123335000D03*
X348615000Y-120795000D03*
X348615000Y-118255000D03*
X348615000Y-115715000D03*
X348615000Y-113175000D03*
X348615000Y-110635000D03*
X348615000Y-108095000D03*
%TD*%
D20*
%TO.C,D3*%
X277812500Y-117825000D03*
X277812500Y-121225000D03*
%TD*%
%TO.C,D16*%
X244475000Y-136875000D03*
X244475000Y-140275000D03*
%TD*%
%TO.C,D4*%
X258762500Y-117825000D03*
X258762500Y-121225000D03*
%TD*%
%TO.C,D36*%
X349250000Y-179737500D03*
X349250000Y-183137500D03*
%TD*%
%TO.C,D38*%
X311150000Y-179737500D03*
X311150000Y-183137500D03*
%TD*%
%TO.C,D25*%
X306387500Y-155925000D03*
X306387500Y-159325000D03*
%TD*%
%TO.C,D1*%
X325437500Y-117825000D03*
X325437500Y-121225000D03*
%TD*%
%TO.C,D2*%
X296862500Y-117825000D03*
X296862500Y-121225000D03*
%TD*%
%TO.C,D21*%
X149225000Y-136875000D03*
X149225000Y-140275000D03*
%TD*%
%TO.C,D24*%
X330200000Y-160687500D03*
X330200000Y-164087500D03*
%TD*%
%TO.C,D9*%
X163512500Y-117825000D03*
X163512500Y-121225000D03*
%TD*%
%TO.C,D41*%
X133350000Y-174975000D03*
X133350000Y-178375000D03*
%TD*%
%TO.C,D32*%
X158750000Y-155925000D03*
X158750000Y-159325000D03*
%TD*%
%TO.C,D19*%
X187325000Y-136875000D03*
X187325000Y-140275000D03*
%TD*%
%TO.C,D39*%
X285750000Y-174975000D03*
X285750000Y-178375000D03*
%TD*%
%TO.C,D12*%
X106362500Y-117825000D03*
X106362500Y-121225000D03*
%TD*%
%TO.C,D17*%
X225425000Y-136875000D03*
X225425000Y-140275000D03*
%TD*%
%TO.C,D10*%
X144462500Y-117825000D03*
X144462500Y-121225000D03*
%TD*%
M02*
