%TF.GenerationSoftware,KiCad,Pcbnew,(6.0.10)*%
%TF.CreationDate,2023-02-19T17:52:48+11:00*%
%TF.ProjectId,whykb,7768796b-622e-46b6-9963-61645f706362,REV1*%
%TF.SameCoordinates,Original*%
%TF.FileFunction,Legend,Top*%
%TF.FilePolarity,Positive*%
%FSLAX46Y46*%
G04 Gerber Fmt 4.6, Leading zero omitted, Abs format (unit mm)*
G04 Created by KiCad (PCBNEW (6.0.10)) date 2023-02-19 17:52:48*
%MOMM*%
%LPD*%
G01*
G04 APERTURE LIST*
%ADD10C,0.150000*%
%ADD11C,0.120000*%
%ADD12C,0.040000*%
G04 APERTURE END LIST*
D10*
%TO.C,U2*%
X341360142Y-134040571D02*
X341467285Y-134076285D01*
X341645857Y-134076285D01*
X341717285Y-134040571D01*
X341753000Y-134004857D01*
X341788714Y-133933428D01*
X341788714Y-133862000D01*
X341753000Y-133790571D01*
X341717285Y-133754857D01*
X341645857Y-133719142D01*
X341503000Y-133683428D01*
X341431571Y-133647714D01*
X341395857Y-133612000D01*
X341360142Y-133540571D01*
X341360142Y-133469142D01*
X341395857Y-133397714D01*
X341431571Y-133362000D01*
X341503000Y-133326285D01*
X341681571Y-133326285D01*
X341788714Y-133362000D01*
X342538714Y-134004857D02*
X342503000Y-134040571D01*
X342395857Y-134076285D01*
X342324428Y-134076285D01*
X342217285Y-134040571D01*
X342145857Y-133969142D01*
X342110142Y-133897714D01*
X342074428Y-133754857D01*
X342074428Y-133647714D01*
X342110142Y-133504857D01*
X342145857Y-133433428D01*
X342217285Y-133362000D01*
X342324428Y-133326285D01*
X342395857Y-133326285D01*
X342503000Y-133362000D01*
X342538714Y-133397714D01*
X343217285Y-134076285D02*
X342860142Y-134076285D01*
X342860142Y-133326285D01*
X336601571Y-133362000D02*
X336530142Y-133326285D01*
X336423000Y-133326285D01*
X336315857Y-133362000D01*
X336244428Y-133433428D01*
X336208714Y-133504857D01*
X336173000Y-133647714D01*
X336173000Y-133754857D01*
X336208714Y-133897714D01*
X336244428Y-133969142D01*
X336315857Y-134040571D01*
X336423000Y-134076285D01*
X336494428Y-134076285D01*
X336601571Y-134040571D01*
X336637285Y-134004857D01*
X336637285Y-133754857D01*
X336494428Y-133754857D01*
X336958714Y-134076285D02*
X336958714Y-133326285D01*
X337387285Y-134076285D01*
X337387285Y-133326285D01*
X337744428Y-134076285D02*
X337744428Y-133326285D01*
X337923000Y-133326285D01*
X338030142Y-133362000D01*
X338101571Y-133433428D01*
X338137285Y-133504857D01*
X338173000Y-133647714D01*
X338173000Y-133754857D01*
X338137285Y-133897714D01*
X338101571Y-133969142D01*
X338030142Y-134040571D01*
X337923000Y-134076285D01*
X337744428Y-134076285D01*
X338713000Y-133326285D02*
X338963000Y-134076285D01*
X339213000Y-133326285D01*
X339891571Y-134004857D02*
X339855857Y-134040571D01*
X339748714Y-134076285D01*
X339677285Y-134076285D01*
X339570142Y-134040571D01*
X339498714Y-133969142D01*
X339463000Y-133897714D01*
X339427285Y-133754857D01*
X339427285Y-133647714D01*
X339463000Y-133504857D01*
X339498714Y-133433428D01*
X339570142Y-133362000D01*
X339677285Y-133326285D01*
X339748714Y-133326285D01*
X339855857Y-133362000D01*
X339891571Y-133397714D01*
X340641571Y-134004857D02*
X340605857Y-134040571D01*
X340498714Y-134076285D01*
X340427285Y-134076285D01*
X340320142Y-134040571D01*
X340248714Y-133969142D01*
X340213000Y-133897714D01*
X340177285Y-133754857D01*
X340177285Y-133647714D01*
X340213000Y-133504857D01*
X340248714Y-133433428D01*
X340320142Y-133362000D01*
X340427285Y-133326285D01*
X340498714Y-133326285D01*
X340605857Y-133362000D01*
X340641571Y-133397714D01*
X343882285Y-134040571D02*
X343989428Y-134076285D01*
X344168000Y-134076285D01*
X344239428Y-134040571D01*
X344275142Y-134004857D01*
X344310857Y-133933428D01*
X344310857Y-133862000D01*
X344275142Y-133790571D01*
X344239428Y-133754857D01*
X344168000Y-133719142D01*
X344025142Y-133683428D01*
X343953714Y-133647714D01*
X343918000Y-133612000D01*
X343882285Y-133540571D01*
X343882285Y-133469142D01*
X343918000Y-133397714D01*
X343953714Y-133362000D01*
X344025142Y-133326285D01*
X344203714Y-133326285D01*
X344310857Y-133362000D01*
X344632285Y-134076285D02*
X344632285Y-133326285D01*
X344810857Y-133326285D01*
X344918000Y-133362000D01*
X344989428Y-133433428D01*
X345025142Y-133504857D01*
X345060857Y-133647714D01*
X345060857Y-133754857D01*
X345025142Y-133897714D01*
X344989428Y-133969142D01*
X344918000Y-134040571D01*
X344810857Y-134076285D01*
X344632285Y-134076285D01*
X345346571Y-133862000D02*
X345703714Y-133862000D01*
X345275142Y-134076285D02*
X345525142Y-133326285D01*
X345775142Y-134076285D01*
X340435380Y-153165571D02*
X340435380Y-152975095D01*
X340483000Y-152879857D01*
X340578238Y-152784619D01*
X340768714Y-152737000D01*
X341102047Y-152737000D01*
X341292523Y-152784619D01*
X341387761Y-152879857D01*
X341435380Y-152975095D01*
X341435380Y-153165571D01*
X341387761Y-153260809D01*
X341292523Y-153356047D01*
X341102047Y-153403666D01*
X340768714Y-153403666D01*
X340578238Y-153356047D01*
X340483000Y-153260809D01*
X340435380Y-153165571D01*
X341435380Y-151832238D02*
X341435380Y-152308428D01*
X340435380Y-152308428D01*
X340911571Y-151498904D02*
X340911571Y-151165571D01*
X341435380Y-151022714D02*
X341435380Y-151498904D01*
X340435380Y-151498904D01*
X340435380Y-151022714D01*
X341435380Y-150594142D02*
X340435380Y-150594142D01*
X340435380Y-150356047D01*
X340483000Y-150213190D01*
X340578238Y-150117952D01*
X340673476Y-150070333D01*
X340863952Y-150022714D01*
X341006809Y-150022714D01*
X341197285Y-150070333D01*
X341292523Y-150117952D01*
X341387761Y-150213190D01*
X341435380Y-150356047D01*
X341435380Y-150594142D01*
X341435380Y-148832238D02*
X340435380Y-148832238D01*
X340435380Y-148451285D01*
X340483000Y-148356047D01*
X340530619Y-148308428D01*
X340625857Y-148260809D01*
X340768714Y-148260809D01*
X340863952Y-148308428D01*
X340911571Y-148356047D01*
X340959190Y-148451285D01*
X340959190Y-148832238D01*
X341435380Y-147403666D02*
X340911571Y-147403666D01*
X340816333Y-147451285D01*
X340768714Y-147546523D01*
X340768714Y-147737000D01*
X340816333Y-147832238D01*
X341387761Y-147403666D02*
X341435380Y-147498904D01*
X341435380Y-147737000D01*
X341387761Y-147832238D01*
X341292523Y-147879857D01*
X341197285Y-147879857D01*
X341102047Y-147832238D01*
X341054428Y-147737000D01*
X341054428Y-147498904D01*
X341006809Y-147403666D01*
X340768714Y-146927476D02*
X341435380Y-146927476D01*
X340863952Y-146927476D02*
X340816333Y-146879857D01*
X340768714Y-146784619D01*
X340768714Y-146641761D01*
X340816333Y-146546523D01*
X340911571Y-146498904D01*
X341435380Y-146498904D01*
X341387761Y-145641761D02*
X341435380Y-145737000D01*
X341435380Y-145927476D01*
X341387761Y-146022714D01*
X341292523Y-146070333D01*
X340911571Y-146070333D01*
X340816333Y-146022714D01*
X340768714Y-145927476D01*
X340768714Y-145737000D01*
X340816333Y-145641761D01*
X340911571Y-145594142D01*
X341006809Y-145594142D01*
X341102047Y-146070333D01*
X341435380Y-145022714D02*
X341387761Y-145117952D01*
X341292523Y-145165571D01*
X340435380Y-145165571D01*
%TO.C,G\u002A\u002A\u002A*%
G36*
X102932863Y-190680111D02*
G01*
X103011858Y-190554014D01*
X103125978Y-190472174D01*
X103232946Y-190449799D01*
X103355171Y-190441891D01*
X103460607Y-190426385D01*
X103577679Y-190402970D01*
X103577679Y-190840182D01*
X103576761Y-191028697D01*
X103572207Y-191157827D01*
X103561318Y-191243106D01*
X103541394Y-191300068D01*
X103509736Y-191344249D01*
X103485724Y-191369349D01*
X103369424Y-191437657D01*
X103218192Y-191461515D01*
X103058628Y-191439221D01*
X102968903Y-191402413D01*
X102880795Y-191336725D01*
X102859586Y-191279992D01*
X102897254Y-191240515D01*
X102985775Y-191226596D01*
X103117126Y-191246537D01*
X103119055Y-191247049D01*
X103231104Y-191268872D01*
X103301740Y-191258074D01*
X103331294Y-191238910D01*
X103384491Y-191180476D01*
X103368945Y-191149859D01*
X103284096Y-191146530D01*
X103239023Y-191151564D01*
X103086498Y-191143686D01*
X102977654Y-191075943D01*
X102916192Y-190951839D01*
X102909556Y-190890850D01*
X103097553Y-190890850D01*
X103141121Y-190959102D01*
X103228406Y-190969406D01*
X103317900Y-190935502D01*
X103371761Y-190873739D01*
X103390790Y-190785437D01*
X103373726Y-190702307D01*
X103328891Y-190659005D01*
X103222487Y-190651591D01*
X103138036Y-190705034D01*
X103105437Y-190770649D01*
X103097553Y-190890850D01*
X102909556Y-190890850D01*
X102903343Y-190833750D01*
X102932863Y-190680111D01*
G37*
G36*
X108507268Y-190500793D02*
G01*
X108502751Y-190569161D01*
X108463540Y-190683650D01*
X108397278Y-190828565D01*
X108311607Y-190988207D01*
X108214170Y-191146880D01*
X108142828Y-191249276D01*
X108027267Y-191384838D01*
X107932040Y-191453298D01*
X107859372Y-191453433D01*
X107828726Y-191422193D01*
X107822947Y-191390317D01*
X107843120Y-191338793D01*
X107896338Y-191254217D01*
X107979596Y-191137044D01*
X107987945Y-191085979D01*
X107961471Y-190994465D01*
X107897101Y-190852992D01*
X107871600Y-190802611D01*
X107795857Y-190644792D01*
X107759921Y-190541646D01*
X107761418Y-190485919D01*
X107766058Y-190479768D01*
X107831310Y-190454618D01*
X107907091Y-190500747D01*
X107994783Y-190619178D01*
X108025604Y-190672547D01*
X108085179Y-190774380D01*
X108131821Y-190842965D01*
X108151078Y-190861354D01*
X108177099Y-190830542D01*
X108222164Y-190750225D01*
X108263468Y-190665524D01*
X108334780Y-190540831D01*
X108405268Y-190468358D01*
X108466098Y-190454072D01*
X108507268Y-190500793D01*
G37*
G36*
X99654769Y-190724838D02*
G01*
X99718038Y-190598050D01*
X99781127Y-190526734D01*
X99893563Y-190469992D01*
X100005002Y-190449799D01*
X100090926Y-190442774D01*
X100125269Y-190408412D01*
X100131071Y-190340474D01*
X100145916Y-190201311D01*
X100191682Y-190127464D01*
X100243461Y-190112631D01*
X100294364Y-190123038D01*
X100323165Y-190162560D01*
X100332139Y-190243653D01*
X100323567Y-190378771D01*
X100311634Y-190485310D01*
X100296563Y-190740047D01*
X100316872Y-190946077D01*
X100339817Y-191063552D01*
X100353825Y-191155482D01*
X100355850Y-191182174D01*
X100327895Y-191224867D01*
X100266475Y-191234512D01*
X100205262Y-191211336D01*
X100182345Y-191181016D01*
X100146891Y-191145392D01*
X100092326Y-191162285D01*
X99954147Y-191198448D01*
X99815307Y-191173364D01*
X99698295Y-191095956D01*
X99626306Y-190977392D01*
X99620865Y-190870029D01*
X99831495Y-190870029D01*
X99839961Y-190958048D01*
X99856342Y-190986771D01*
X99923462Y-191009929D01*
X100012888Y-190996753D01*
X100049372Y-190979262D01*
X100082593Y-190917225D01*
X100086835Y-190802197D01*
X100059031Y-190689963D01*
X100003898Y-190642350D01*
X99928592Y-190663332D01*
X99892108Y-190694114D01*
X99850351Y-190769990D01*
X99831495Y-190870029D01*
X99620865Y-190870029D01*
X99620465Y-190862134D01*
X99654769Y-190724838D01*
G37*
G36*
X105444668Y-190576198D02*
G01*
X105555842Y-190486854D01*
X105695285Y-190451038D01*
X105698388Y-190450991D01*
X105773086Y-190442992D01*
X105814299Y-190407290D01*
X105841262Y-190323320D01*
X105848409Y-190290581D01*
X105879293Y-190185272D01*
X105920367Y-190138364D01*
X105956755Y-190131363D01*
X105988351Y-190135915D01*
X106009667Y-190157842D01*
X106022850Y-190209555D01*
X106030045Y-190303460D01*
X106033399Y-190451967D01*
X106034519Y-190580920D01*
X106036987Y-190765809D01*
X106041438Y-190930676D01*
X106047225Y-191056794D01*
X106053250Y-191122967D01*
X106042608Y-191201615D01*
X105991578Y-191231144D01*
X105922710Y-191203088D01*
X105900408Y-191180349D01*
X105845743Y-191143603D01*
X105812069Y-191160011D01*
X105727533Y-191197731D01*
X105612561Y-191194719D01*
X105496750Y-191155080D01*
X105430401Y-191107107D01*
X105354628Y-190984523D01*
X105336673Y-190843119D01*
X105337746Y-190838423D01*
X105537285Y-190838423D01*
X105541077Y-190917816D01*
X105588590Y-190993938D01*
X105669564Y-191008301D01*
X105765060Y-190963264D01*
X105814052Y-190891522D01*
X105824845Y-190796529D01*
X105801016Y-190706650D01*
X105746144Y-190650248D01*
X105724810Y-190644185D01*
X105640705Y-190665345D01*
X105572936Y-190737925D01*
X105537285Y-190838423D01*
X105337746Y-190838423D01*
X105369149Y-190700982D01*
X105444668Y-190576198D01*
G37*
G36*
X107010713Y-190544106D02*
G01*
X107020227Y-190381416D01*
X107031826Y-190249132D01*
X107044906Y-190164453D01*
X107053052Y-190143807D01*
X107118791Y-190110768D01*
X107172411Y-190143460D01*
X107205339Y-190232774D01*
X107211602Y-190312308D01*
X107214762Y-190413609D01*
X107232187Y-190458096D01*
X107275795Y-190463845D01*
X107307963Y-190458452D01*
X107444715Y-190464900D01*
X107554212Y-190534897D01*
X107628730Y-190659653D01*
X107660547Y-190830381D01*
X107661160Y-190860326D01*
X107646416Y-190975104D01*
X107589686Y-191061973D01*
X107545896Y-191102074D01*
X107418340Y-191177456D01*
X107311751Y-191199573D01*
X107199162Y-191206822D01*
X107112807Y-191221569D01*
X107042719Y-191226322D01*
X107015553Y-191211691D01*
X107005584Y-191154952D01*
X107000719Y-191042625D01*
X107000355Y-190891909D01*
X107001305Y-190845687D01*
X107211602Y-190845687D01*
X107223436Y-190961724D01*
X107264541Y-191011437D01*
X107343325Y-191000464D01*
X107401381Y-190972965D01*
X107456472Y-190906532D01*
X107473358Y-190808804D01*
X107449948Y-190714134D01*
X107419447Y-190676070D01*
X107341823Y-190649502D01*
X107288326Y-190655276D01*
X107238696Y-190686130D01*
X107216114Y-190751313D01*
X107211602Y-190845687D01*
X107001305Y-190845687D01*
X107003887Y-190720003D01*
X107010713Y-190544106D01*
G37*
G36*
X109528149Y-190576198D02*
G01*
X109639323Y-190486854D01*
X109778765Y-190451038D01*
X109781869Y-190450991D01*
X109856566Y-190442992D01*
X109897780Y-190407290D01*
X109924743Y-190323320D01*
X109931889Y-190290581D01*
X109962774Y-190185272D01*
X110003848Y-190138364D01*
X110040236Y-190131363D01*
X110071832Y-190135915D01*
X110093148Y-190157842D01*
X110106330Y-190209555D01*
X110113526Y-190303460D01*
X110116880Y-190451967D01*
X110118000Y-190580920D01*
X110120468Y-190765809D01*
X110124919Y-190930676D01*
X110130706Y-191056794D01*
X110136731Y-191122967D01*
X110126089Y-191201615D01*
X110075059Y-191231144D01*
X110006191Y-191203088D01*
X109983889Y-191180349D01*
X109929224Y-191143603D01*
X109895550Y-191160011D01*
X109811014Y-191197731D01*
X109696042Y-191194719D01*
X109580231Y-191155080D01*
X109513882Y-191107107D01*
X109438109Y-190984523D01*
X109420154Y-190843119D01*
X109421227Y-190838423D01*
X109620766Y-190838423D01*
X109624558Y-190917816D01*
X109672071Y-190993938D01*
X109753044Y-191008301D01*
X109848541Y-190963264D01*
X109897533Y-190891522D01*
X109908326Y-190796529D01*
X109884497Y-190706650D01*
X109829624Y-190650248D01*
X109808291Y-190644185D01*
X109724186Y-190665345D01*
X109656417Y-190737925D01*
X109620766Y-190838423D01*
X109421227Y-190838423D01*
X109452630Y-190700982D01*
X109528149Y-190576198D01*
G37*
G36*
X110279391Y-190860900D02*
G01*
X110372760Y-190785374D01*
X110516538Y-190750904D01*
X110557278Y-190749504D01*
X110656707Y-190740177D01*
X110687665Y-190711168D01*
X110685947Y-190702675D01*
X110638741Y-190671955D01*
X110532574Y-190656816D01*
X110489735Y-190655847D01*
X110361192Y-190644325D01*
X110299567Y-190611848D01*
X110307318Y-190561544D01*
X110372047Y-190505950D01*
X110503552Y-190457315D01*
X110644936Y-190462622D01*
X110768473Y-190518067D01*
X110817699Y-190567105D01*
X110859022Y-190655719D01*
X110887104Y-190779616D01*
X110901269Y-190918460D01*
X110900842Y-191051919D01*
X110885146Y-191159657D01*
X110853508Y-191221341D01*
X110839653Y-191228085D01*
X110774656Y-191221240D01*
X110755952Y-191205671D01*
X110708974Y-191188564D01*
X110615205Y-191185757D01*
X110564226Y-191189841D01*
X110407633Y-191183728D01*
X110301573Y-191126679D01*
X110250327Y-191021643D01*
X110246627Y-190976808D01*
X110433431Y-190976808D01*
X110464895Y-191001962D01*
X110539086Y-191010239D01*
X110625705Y-191001521D01*
X110691257Y-190977805D01*
X110716664Y-190948287D01*
X110674775Y-190923487D01*
X110663160Y-190919660D01*
X110573367Y-190909394D01*
X110488232Y-190925835D01*
X110437533Y-190961575D01*
X110433431Y-190976808D01*
X110246627Y-190976808D01*
X110246115Y-190970601D01*
X110279391Y-190860900D01*
G37*
G36*
X114362871Y-190860900D02*
G01*
X114456240Y-190785374D01*
X114600019Y-190750904D01*
X114640759Y-190749504D01*
X114740188Y-190740177D01*
X114771146Y-190711168D01*
X114769428Y-190702675D01*
X114722222Y-190671955D01*
X114616055Y-190656816D01*
X114573215Y-190655847D01*
X114444672Y-190644325D01*
X114383048Y-190611848D01*
X114390799Y-190561544D01*
X114455527Y-190505950D01*
X114587033Y-190457315D01*
X114728416Y-190462622D01*
X114851954Y-190518067D01*
X114901180Y-190567105D01*
X114942503Y-190655719D01*
X114970585Y-190779616D01*
X114984750Y-190918460D01*
X114984322Y-191051919D01*
X114968627Y-191159657D01*
X114936989Y-191221341D01*
X114923133Y-191228085D01*
X114858137Y-191221240D01*
X114839433Y-191205671D01*
X114792455Y-191188564D01*
X114698685Y-191185757D01*
X114647707Y-191189841D01*
X114491114Y-191183728D01*
X114385054Y-191126679D01*
X114333808Y-191021643D01*
X114330108Y-190976808D01*
X114516912Y-190976808D01*
X114548376Y-191001962D01*
X114622567Y-191010239D01*
X114709186Y-191001521D01*
X114774738Y-190977805D01*
X114800145Y-190948287D01*
X114758256Y-190923487D01*
X114746641Y-190919660D01*
X114656847Y-190909394D01*
X114571713Y-190925835D01*
X114521014Y-190961575D01*
X114516912Y-190976808D01*
X114330108Y-190976808D01*
X114329596Y-190970601D01*
X114362871Y-190860900D01*
G37*
G36*
X115994235Y-190679355D02*
G01*
X116084040Y-190550694D01*
X116201889Y-190478360D01*
X116307739Y-190452463D01*
X116398041Y-190431198D01*
X116441822Y-190389820D01*
X116462056Y-190303242D01*
X116464994Y-190280730D01*
X116486867Y-190178774D01*
X116527050Y-190130987D01*
X116566658Y-190119570D01*
X116601199Y-190117164D01*
X116624367Y-190129588D01*
X116638261Y-190168845D01*
X116644980Y-190246938D01*
X116646622Y-190375867D01*
X116645286Y-190567637D01*
X116645272Y-190569127D01*
X116644785Y-190756198D01*
X116646662Y-190923195D01*
X116650548Y-191051753D01*
X116655998Y-191122967D01*
X116644314Y-191201084D01*
X116594573Y-191231803D01*
X116532979Y-191206251D01*
X116507859Y-191173121D01*
X116468573Y-191128459D01*
X116424501Y-191150148D01*
X116422372Y-191152233D01*
X116331233Y-191195437D01*
X116211642Y-191194354D01*
X116092944Y-191152380D01*
X116032466Y-191107107D01*
X115956521Y-190981690D01*
X115952027Y-190922579D01*
X116153241Y-190922579D01*
X116202410Y-190992380D01*
X116297451Y-191007659D01*
X116368273Y-190989007D01*
X116411031Y-190937685D01*
X116429286Y-190846711D01*
X116423224Y-190747178D01*
X116393030Y-190670176D01*
X116366245Y-190648709D01*
X116276184Y-190648859D01*
X116200550Y-190713202D01*
X116159185Y-190806332D01*
X116153241Y-190922579D01*
X115952027Y-190922579D01*
X115945055Y-190830877D01*
X115994235Y-190679355D01*
G37*
G36*
X118558277Y-190121870D02*
G01*
X118586882Y-190155332D01*
X118606258Y-190236949D01*
X118617253Y-190316671D01*
X118642803Y-190455428D01*
X118675483Y-190519639D01*
X118715321Y-190509347D01*
X118731514Y-190487263D01*
X118790586Y-190453322D01*
X118878696Y-190457395D01*
X118962642Y-190495782D01*
X118983780Y-190515360D01*
X119050110Y-190644952D01*
X119071493Y-190832938D01*
X119058269Y-191011746D01*
X119037947Y-191132892D01*
X119011445Y-191197849D01*
X118969233Y-191225277D01*
X118946927Y-191229765D01*
X118905264Y-191231797D01*
X118880232Y-191213585D01*
X118867605Y-191160566D01*
X118863153Y-191058176D01*
X118862635Y-190939426D01*
X118859103Y-190799581D01*
X118849713Y-190694033D01*
X118836271Y-190640428D01*
X118831702Y-190637115D01*
X118765038Y-190669786D01*
X118700178Y-190751208D01*
X118652762Y-190856494D01*
X118637856Y-190945536D01*
X118626938Y-191090145D01*
X118591446Y-191171631D01*
X118527267Y-191198947D01*
X118521458Y-191199062D01*
X118462256Y-191186636D01*
X118449585Y-191170965D01*
X118448642Y-191125026D01*
X118446726Y-191018849D01*
X118444096Y-190867109D01*
X118441009Y-190684485D01*
X118440219Y-190637115D01*
X118437342Y-190433976D01*
X118437751Y-190293717D01*
X118443105Y-190204308D01*
X118455064Y-190153723D01*
X118475285Y-190129931D01*
X118505429Y-190120904D01*
X118511533Y-190119990D01*
X118558277Y-190121870D01*
G37*
G36*
X100530580Y-190609390D02*
G01*
X100629795Y-190508880D01*
X100760203Y-190454646D01*
X100816206Y-190449799D01*
X100970133Y-190479005D01*
X101080780Y-190562470D01*
X101105572Y-190600510D01*
X101124373Y-190696559D01*
X101071545Y-190783260D01*
X100945808Y-190862212D01*
X100871072Y-190893400D01*
X100763291Y-190937830D01*
X100719487Y-190967829D01*
X100731654Y-190989761D01*
X100743252Y-190995029D01*
X100827882Y-190997637D01*
X100939305Y-190961758D01*
X100942506Y-190960246D01*
X101054931Y-190919969D01*
X101119288Y-190932592D01*
X101142276Y-190999880D01*
X101142576Y-191012995D01*
X101109334Y-191091535D01*
X101023031Y-191150101D01*
X100903800Y-191184732D01*
X100771776Y-191191465D01*
X100647092Y-191166340D01*
X100571861Y-191125280D01*
X100483199Y-191014120D01*
X100450972Y-190879455D01*
X100467331Y-190750822D01*
X100655555Y-190750822D01*
X100683410Y-190782955D01*
X100758909Y-190771076D01*
X100842871Y-190732154D01*
X100902840Y-190692724D01*
X100900256Y-190668317D01*
X100873895Y-190655671D01*
X100799402Y-190653005D01*
X100717993Y-190681924D01*
X100662905Y-190727942D01*
X100655555Y-190750822D01*
X100467331Y-190750822D01*
X100468869Y-190738730D01*
X100530580Y-190609390D01*
G37*
G36*
X101376275Y-190542406D02*
G01*
X101494124Y-190479923D01*
X101566721Y-190462358D01*
X101685125Y-190453769D01*
X101788299Y-190462746D01*
X101792003Y-190463633D01*
X101874941Y-190517399D01*
X101913989Y-190608154D01*
X101900922Y-190706995D01*
X101873309Y-190749281D01*
X101834248Y-190801239D01*
X101849340Y-190827721D01*
X101871489Y-190837358D01*
X101919550Y-190890185D01*
X101929353Y-190977559D01*
X101903281Y-191071076D01*
X101846039Y-191140743D01*
X101731004Y-191184769D01*
X101582380Y-191194715D01*
X101433287Y-191170621D01*
X101357989Y-191140171D01*
X101278728Y-191071811D01*
X101254965Y-191006182D01*
X101266509Y-190952429D01*
X101315646Y-190943456D01*
X101357989Y-190951438D01*
X101523587Y-190986992D01*
X101628648Y-191003715D01*
X101684907Y-191002546D01*
X101704098Y-190984424D01*
X101704522Y-190979185D01*
X101673140Y-190944965D01*
X101628393Y-190936820D01*
X101543035Y-190922577D01*
X101435204Y-190887762D01*
X101422346Y-190882537D01*
X101323290Y-190812841D01*
X101285899Y-190723298D01*
X101291150Y-190697482D01*
X101484455Y-190697482D01*
X101500147Y-190734067D01*
X101581887Y-190760000D01*
X101582767Y-190760134D01*
X101697700Y-190776879D01*
X101752522Y-190778759D01*
X101761330Y-190761271D01*
X101738220Y-190719910D01*
X101733291Y-190712041D01*
X101670685Y-190647991D01*
X101587415Y-190644322D01*
X101539002Y-190659855D01*
X101484455Y-190697482D01*
X101291150Y-190697482D01*
X101305214Y-190628342D01*
X101376275Y-190542406D01*
G37*
G36*
X102402429Y-190456240D02*
G01*
X102459767Y-190466423D01*
X102492917Y-190492201D01*
X102509795Y-190551120D01*
X102518319Y-190660730D01*
X102521004Y-190719079D01*
X102528604Y-190852602D01*
X102541617Y-190928734D01*
X102567544Y-190964981D01*
X102613890Y-190978849D01*
X102633393Y-190981321D01*
X102715660Y-191014736D01*
X102750801Y-191074740D01*
X102734081Y-191137052D01*
X102671164Y-191174935D01*
X102555541Y-191194403D01*
X102419098Y-191201102D01*
X102283641Y-191196176D01*
X102170980Y-191180766D01*
X102102922Y-191156016D01*
X102093390Y-191144661D01*
X102090734Y-191065868D01*
X102152849Y-191021018D01*
X102231217Y-191011746D01*
X102296744Y-191007381D01*
X102329231Y-190981329D01*
X102340253Y-190914154D01*
X102341396Y-190826743D01*
X102338816Y-190716921D01*
X102323885Y-190663368D01*
X102285815Y-190647447D01*
X102238410Y-190648794D01*
X102158921Y-190639952D01*
X102126294Y-190588281D01*
X102123589Y-190572879D01*
X102144620Y-190500431D01*
X102227797Y-190459415D01*
X102365944Y-190452834D01*
X102402429Y-190456240D01*
G37*
G36*
X103898473Y-190465065D02*
G01*
X103914847Y-190509195D01*
X103920143Y-190552302D01*
X103948800Y-190541842D01*
X103983357Y-190511800D01*
X104093947Y-190456733D01*
X104214513Y-190464938D01*
X104311769Y-190528703D01*
X104351810Y-190590054D01*
X104372884Y-190675688D01*
X104379177Y-190806872D01*
X104378644Y-190868490D01*
X104367908Y-191041789D01*
X104340993Y-191147721D01*
X104295040Y-191192649D01*
X104235802Y-191186481D01*
X104203427Y-191156397D01*
X104185047Y-191087240D01*
X104177649Y-190964169D01*
X104177089Y-190897411D01*
X104173276Y-190751177D01*
X104160675Y-190670170D01*
X104137537Y-190645023D01*
X104130260Y-190646247D01*
X104071299Y-190691130D01*
X104008247Y-190773719D01*
X103957945Y-190866459D01*
X103937229Y-190941795D01*
X103939723Y-190958054D01*
X103947052Y-191034463D01*
X103936905Y-191105488D01*
X103892306Y-191179800D01*
X103826937Y-191199258D01*
X103767139Y-191162650D01*
X103745155Y-191114329D01*
X103736135Y-191035852D01*
X103732390Y-190909000D01*
X103734651Y-190760186D01*
X103735076Y-190749063D01*
X103742645Y-190605227D01*
X103754673Y-190519938D01*
X103776505Y-190476819D01*
X103813487Y-190459496D01*
X103830555Y-190456560D01*
X103898473Y-190465065D01*
G37*
G36*
X104614061Y-190609390D02*
G01*
X104713276Y-190508880D01*
X104843684Y-190454646D01*
X104899687Y-190449799D01*
X105053614Y-190479005D01*
X105164261Y-190562470D01*
X105189053Y-190600510D01*
X105207854Y-190696559D01*
X105155026Y-190783260D01*
X105029288Y-190862212D01*
X104954553Y-190893400D01*
X104846772Y-190937830D01*
X104802968Y-190967829D01*
X104815134Y-190989761D01*
X104826733Y-190995029D01*
X104911363Y-190997637D01*
X105022786Y-190961758D01*
X105025987Y-190960246D01*
X105138412Y-190919969D01*
X105202769Y-190932592D01*
X105225757Y-190999880D01*
X105226056Y-191012995D01*
X105192815Y-191091535D01*
X105106511Y-191150101D01*
X104987281Y-191184732D01*
X104855257Y-191191465D01*
X104730573Y-191166340D01*
X104655342Y-191125280D01*
X104566680Y-191014120D01*
X104534452Y-190879455D01*
X104550812Y-190750822D01*
X104739036Y-190750822D01*
X104766891Y-190782955D01*
X104842389Y-190771076D01*
X104926351Y-190732154D01*
X104986321Y-190692724D01*
X104983737Y-190668317D01*
X104957376Y-190655671D01*
X104882883Y-190653005D01*
X104801474Y-190681924D01*
X104746386Y-190727942D01*
X104739036Y-190750822D01*
X104550812Y-190750822D01*
X104552350Y-190738730D01*
X104614061Y-190609390D01*
G37*
G36*
X111241246Y-190465065D02*
G01*
X111257620Y-190509195D01*
X111262916Y-190552302D01*
X111291572Y-190541842D01*
X111326130Y-190511800D01*
X111436720Y-190456733D01*
X111557285Y-190464938D01*
X111654542Y-190528703D01*
X111694583Y-190590054D01*
X111715657Y-190675688D01*
X111721950Y-190806872D01*
X111721417Y-190868490D01*
X111710681Y-191041789D01*
X111683766Y-191147721D01*
X111637813Y-191192649D01*
X111578575Y-191186481D01*
X111546200Y-191156397D01*
X111527820Y-191087240D01*
X111520422Y-190964169D01*
X111519862Y-190897411D01*
X111516049Y-190751177D01*
X111503448Y-190670170D01*
X111480310Y-190645023D01*
X111473033Y-190646247D01*
X111414071Y-190691130D01*
X111351020Y-190773719D01*
X111300718Y-190866459D01*
X111280002Y-190941795D01*
X111282495Y-190958054D01*
X111289824Y-191034463D01*
X111279678Y-191105488D01*
X111235079Y-191179800D01*
X111169710Y-191199258D01*
X111109912Y-191162650D01*
X111087928Y-191114329D01*
X111078907Y-191035852D01*
X111075163Y-190909000D01*
X111077424Y-190760186D01*
X111077849Y-190749063D01*
X111085417Y-190605227D01*
X111097446Y-190519938D01*
X111119278Y-190476819D01*
X111156260Y-190459496D01*
X111173328Y-190456560D01*
X111241246Y-190465065D01*
G37*
G36*
X112223570Y-190458862D02*
G01*
X112298552Y-190498278D01*
X112330477Y-190585491D01*
X112327289Y-190730995D01*
X112324510Y-190756473D01*
X112299231Y-190974283D01*
X112411290Y-190974283D01*
X112503018Y-190996368D01*
X112553457Y-191049975D01*
X112548876Y-191116135D01*
X112530923Y-191139564D01*
X112476440Y-191160136D01*
X112368028Y-191178595D01*
X112226672Y-191191619D01*
X112189383Y-191193604D01*
X112040526Y-191199516D01*
X111951922Y-191198036D01*
X111908984Y-191185389D01*
X111897126Y-191157799D01*
X111900715Y-191118879D01*
X111934762Y-191046792D01*
X112016248Y-191018624D01*
X112077430Y-191005909D01*
X112107895Y-190972494D01*
X112118268Y-190897831D01*
X112119272Y-190819418D01*
X112115759Y-190708795D01*
X112101080Y-190657116D01*
X112069024Y-190648564D01*
X112053711Y-190652467D01*
X111967661Y-190652031D01*
X111931956Y-190637326D01*
X111895636Y-190585807D01*
X111919633Y-190529533D01*
X111991587Y-190481979D01*
X112097583Y-190456748D01*
X112223570Y-190458862D01*
G37*
G36*
X112808593Y-190577174D02*
G01*
X112948923Y-190478110D01*
X113096515Y-190447746D01*
X113239793Y-190487805D01*
X113272293Y-190508118D01*
X113340751Y-190590816D01*
X113346353Y-190686625D01*
X113296283Y-190782036D01*
X113197722Y-190863542D01*
X113057853Y-190917635D01*
X113054091Y-190918475D01*
X112976193Y-190945641D01*
X112943463Y-190977037D01*
X112943461Y-190977260D01*
X112974052Y-191005314D01*
X113049109Y-191007302D01*
X113143560Y-190985051D01*
X113203815Y-190958270D01*
X113308155Y-190922233D01*
X113372196Y-190939079D01*
X113387711Y-190993977D01*
X113346474Y-191072095D01*
X113294308Y-191121417D01*
X113149878Y-191191387D01*
X112993461Y-191195733D01*
X112846633Y-191135821D01*
X112790726Y-191089554D01*
X112697723Y-190954583D01*
X112678565Y-190812939D01*
X112701226Y-190753347D01*
X112905997Y-190753347D01*
X112935548Y-190772527D01*
X113010143Y-190760546D01*
X113108695Y-190721468D01*
X113130776Y-190710029D01*
X113166201Y-190681832D01*
X113131768Y-190658396D01*
X113124338Y-190655481D01*
X113048708Y-190652931D01*
X112967163Y-190682902D01*
X112912789Y-190730564D01*
X112905997Y-190753347D01*
X112701226Y-190753347D01*
X112733080Y-190669582D01*
X112808593Y-190577174D01*
G37*
G36*
X113838599Y-190171625D02*
G01*
X113881737Y-190221118D01*
X113896394Y-190316949D01*
X113888279Y-190469618D01*
X113874743Y-190593821D01*
X113855875Y-190781622D01*
X113854253Y-190905126D01*
X113873235Y-190973663D01*
X113916175Y-190996565D01*
X113986429Y-190983160D01*
X114011520Y-190974146D01*
X114127929Y-190949080D01*
X114197743Y-190978027D01*
X114217207Y-191044369D01*
X114181143Y-191114413D01*
X114099227Y-191157934D01*
X113925222Y-191198022D01*
X113795759Y-191180250D01*
X113707163Y-191104111D01*
X113706919Y-191103740D01*
X113675891Y-191041400D01*
X113660646Y-190961944D01*
X113659369Y-190845758D01*
X113668811Y-190691646D01*
X113693160Y-190374873D01*
X113582763Y-190374873D01*
X113478263Y-190357930D01*
X113434179Y-190315964D01*
X113446541Y-190262273D01*
X113511379Y-190210152D01*
X113624724Y-190172900D01*
X113644034Y-190169659D01*
X113761268Y-190157972D01*
X113838599Y-190171625D01*
G37*
G36*
X115324727Y-190465065D02*
G01*
X115341101Y-190509195D01*
X115346397Y-190552302D01*
X115375053Y-190541842D01*
X115409611Y-190511800D01*
X115520201Y-190456733D01*
X115640766Y-190464938D01*
X115738023Y-190528703D01*
X115778064Y-190590054D01*
X115799138Y-190675688D01*
X115805431Y-190806872D01*
X115804898Y-190868490D01*
X115794162Y-191041789D01*
X115767247Y-191147721D01*
X115721294Y-191192649D01*
X115662055Y-191186481D01*
X115629680Y-191156397D01*
X115611301Y-191087240D01*
X115603903Y-190964169D01*
X115603343Y-190897411D01*
X115599530Y-190751177D01*
X115586928Y-190670170D01*
X115563791Y-190645023D01*
X115556514Y-190646247D01*
X115497552Y-190691130D01*
X115434501Y-190773719D01*
X115384198Y-190866459D01*
X115363483Y-190941795D01*
X115365976Y-190958054D01*
X115373305Y-191034463D01*
X115363159Y-191105488D01*
X115318560Y-191179800D01*
X115253191Y-191199258D01*
X115193392Y-191162650D01*
X115171409Y-191114329D01*
X115162388Y-191035852D01*
X115158644Y-190909000D01*
X115160905Y-190760186D01*
X115161329Y-190749063D01*
X115168898Y-190605227D01*
X115180926Y-190519938D01*
X115202759Y-190476819D01*
X115239741Y-190459496D01*
X115256809Y-190456560D01*
X115324727Y-190465065D01*
G37*
G36*
X117087975Y-190456240D02*
G01*
X117145105Y-190466343D01*
X117178236Y-190491896D01*
X117195178Y-190550357D01*
X117203743Y-190659188D01*
X117206603Y-190721407D01*
X117214383Y-190855666D01*
X117227205Y-190931531D01*
X117251500Y-190965518D01*
X117293698Y-190974147D01*
X117305039Y-190974283D01*
X117398318Y-190996764D01*
X117448303Y-191052425D01*
X117439354Y-191123596D01*
X117438475Y-191125042D01*
X117385320Y-191156033D01*
X117282992Y-191179316D01*
X117153234Y-191193848D01*
X117017792Y-191198586D01*
X116898411Y-191192485D01*
X116816835Y-191174503D01*
X116794385Y-191155953D01*
X116789506Y-191069907D01*
X116847962Y-191021101D01*
X116917674Y-191011746D01*
X116982663Y-191007302D01*
X117014884Y-190981015D01*
X117025813Y-190913455D01*
X117026941Y-190826743D01*
X117024361Y-190716921D01*
X117009430Y-190663368D01*
X116971361Y-190647447D01*
X116923956Y-190648794D01*
X116844467Y-190639952D01*
X116811840Y-190588281D01*
X116809134Y-190572879D01*
X116830165Y-190500431D01*
X116913343Y-190459415D01*
X117051490Y-190452834D01*
X117087975Y-190456240D01*
G37*
G36*
X117773573Y-190473280D02*
G01*
X117784238Y-190492635D01*
X117813494Y-190516734D01*
X117878555Y-190492635D01*
X118011080Y-190452292D01*
X118123051Y-190483794D01*
X118168191Y-190523205D01*
X118220054Y-190622222D01*
X118252133Y-190767957D01*
X118260597Y-190933921D01*
X118246967Y-191067927D01*
X118221963Y-191158388D01*
X118183226Y-191192237D01*
X118139335Y-191192022D01*
X118095308Y-191179131D01*
X118070591Y-191144655D01*
X118059707Y-191071192D01*
X118057183Y-190941341D01*
X118057177Y-190930906D01*
X118053078Y-190799590D01*
X118042355Y-190698886D01*
X118028039Y-190652014D01*
X117979485Y-190643887D01*
X117923472Y-190692798D01*
X117870156Y-190782960D01*
X117829693Y-190898584D01*
X117814707Y-190983650D01*
X117797885Y-191102102D01*
X117772178Y-191164396D01*
X117728649Y-191189300D01*
X117715651Y-191191646D01*
X117675854Y-191191468D01*
X117649840Y-191167513D01*
X117632372Y-191105382D01*
X117618212Y-190990678D01*
X117610064Y-190901430D01*
X117600463Y-190749535D01*
X117598774Y-190619364D01*
X117605156Y-190534745D01*
X117607581Y-190524849D01*
X117652143Y-190469252D01*
X117718398Y-190450070D01*
X117773573Y-190473280D01*
G37*
G36*
X102502861Y-190147199D02*
G01*
X102525643Y-190225187D01*
X102502381Y-190307141D01*
X102483756Y-190329917D01*
X102402929Y-190372465D01*
X102324363Y-190340513D01*
X102305425Y-190320476D01*
X102278705Y-190238055D01*
X102304126Y-190150571D01*
X102366302Y-190096714D01*
X102445819Y-190096576D01*
X102502861Y-190147199D01*
G37*
G36*
X112277842Y-190115414D02*
G01*
X112319485Y-190182104D01*
X112318712Y-190269842D01*
X112305135Y-190302661D01*
X112242701Y-190359979D01*
X112161019Y-190374606D01*
X112106784Y-190349898D01*
X112082597Y-190282175D01*
X112091671Y-190191660D01*
X112129269Y-190120130D01*
X112133255Y-190116572D01*
X112210270Y-190087620D01*
X112277842Y-190115414D01*
G37*
G36*
X117200397Y-190143962D02*
G01*
X117214257Y-190202805D01*
X117190593Y-190295251D01*
X117133292Y-190357692D01*
X117062891Y-190375008D01*
X117014454Y-190349898D01*
X116990408Y-190286059D01*
X116993786Y-190197965D01*
X117019954Y-190122845D01*
X117045673Y-190099084D01*
X117138194Y-190093272D01*
X117200397Y-190143962D01*
G37*
G36*
X101979045Y-188404791D02*
G01*
X101979880Y-188406933D01*
X101973838Y-188469833D01*
X101934938Y-188578779D01*
X101871598Y-188717286D01*
X101792235Y-188868868D01*
X101705268Y-189017040D01*
X101619114Y-189145316D01*
X101572795Y-189204150D01*
X101461215Y-189316411D01*
X101377418Y-189359733D01*
X101320578Y-189334431D01*
X101305244Y-189305268D01*
X101312055Y-189237802D01*
X101357041Y-189164781D01*
X101419819Y-189088481D01*
X101449512Y-189022481D01*
X101445515Y-188947215D01*
X101407226Y-188843112D01*
X101342956Y-188708612D01*
X101271904Y-188555782D01*
X101237421Y-188455884D01*
X101236326Y-188398338D01*
X101245319Y-188383988D01*
X101308231Y-188356308D01*
X101378197Y-188395712D01*
X101458251Y-188504671D01*
X101509675Y-188599072D01*
X101617499Y-188812306D01*
X101723784Y-188582085D01*
X101801160Y-188441602D01*
X101872774Y-188362983D01*
X101933707Y-188349592D01*
X101979045Y-188404791D01*
G37*
G36*
X106822417Y-188368727D02*
G01*
X106846506Y-188424126D01*
X106834419Y-188525282D01*
X106785700Y-188679414D01*
X106733590Y-188812856D01*
X106652684Y-189000083D01*
X106587150Y-189116895D01*
X106529533Y-189164245D01*
X106472375Y-189143081D01*
X106408221Y-189054355D01*
X106329615Y-188899017D01*
X106314385Y-188866284D01*
X106225466Y-188665712D01*
X106172076Y-188522250D01*
X106152928Y-188427748D01*
X106166736Y-188374056D01*
X106212215Y-188353027D01*
X106233210Y-188351864D01*
X106287990Y-188377849D01*
X106344339Y-188461965D01*
X106387672Y-188558550D01*
X106437058Y-188671999D01*
X106479052Y-188754146D01*
X106500031Y-188782831D01*
X106526490Y-188760039D01*
X106567840Y-188683263D01*
X106612378Y-188576146D01*
X106672249Y-188438141D01*
X106725297Y-188366544D01*
X106762604Y-188351864D01*
X106822417Y-188368727D01*
G37*
G36*
X100608564Y-188045755D02*
G01*
X100636018Y-188094585D01*
X100653146Y-188197686D01*
X100655555Y-188220743D01*
X100672793Y-188335425D01*
X100698186Y-188387926D01*
X100730481Y-188393101D01*
X100880911Y-188364619D01*
X100986877Y-188377022D01*
X101054537Y-188437569D01*
X101090052Y-188553517D01*
X101099581Y-188732125D01*
X101097396Y-188825460D01*
X101090214Y-188973440D01*
X101079034Y-189062473D01*
X101058885Y-189108533D01*
X101024800Y-189127591D01*
X101002089Y-189131830D01*
X100960426Y-189133861D01*
X100935395Y-189115650D01*
X100922767Y-189062631D01*
X100918315Y-188960241D01*
X100917797Y-188841491D01*
X100914183Y-188701647D01*
X100904573Y-188596098D01*
X100890816Y-188542494D01*
X100886140Y-188539180D01*
X100822341Y-188572951D01*
X100757092Y-188661716D01*
X100701776Y-188786646D01*
X100674287Y-188889477D01*
X100645896Y-189006406D01*
X100613146Y-189065165D01*
X100566385Y-189082323D01*
X100561920Y-189082395D01*
X100532279Y-189078499D01*
X100511693Y-189059135D01*
X100498517Y-189012789D01*
X100491107Y-188927946D01*
X100487818Y-188793093D01*
X100487004Y-188596715D01*
X100486993Y-188557911D01*
X100487540Y-188350365D01*
X100490298Y-188206229D01*
X100496911Y-188113987D01*
X100509023Y-188062127D01*
X100528280Y-188039132D01*
X100556325Y-188033490D01*
X100561897Y-188033428D01*
X100608564Y-188045755D01*
G37*
G36*
X102944140Y-188432660D02*
G01*
X102950308Y-188275987D01*
X102956833Y-188154428D01*
X102963216Y-188086045D01*
X102964455Y-188080257D01*
X103012707Y-188025608D01*
X103055720Y-188014696D01*
X103099882Y-188025741D01*
X103121519Y-188071139D01*
X103127997Y-188169286D01*
X103128121Y-188195523D01*
X103130316Y-188303558D01*
X103145055Y-188354541D01*
X103184572Y-188366349D01*
X103240581Y-188359845D01*
X103375375Y-188372866D01*
X103485758Y-188443940D01*
X103562409Y-188557734D01*
X103596008Y-188698909D01*
X103577235Y-188852130D01*
X103563194Y-188890694D01*
X103478300Y-189021358D01*
X103356878Y-189087453D01*
X103221290Y-189095529D01*
X103127771Y-189095371D01*
X103070041Y-189109634D01*
X103067692Y-189111605D01*
X103012862Y-189136159D01*
X102955328Y-189131272D01*
X102936064Y-189110493D01*
X102932985Y-189049208D01*
X102932750Y-188932719D01*
X102934863Y-188779089D01*
X102935105Y-188768546D01*
X103128121Y-188768546D01*
X103133848Y-188863431D01*
X103159648Y-188904822D01*
X103217192Y-188913811D01*
X103305857Y-188892420D01*
X103351020Y-188859882D01*
X103383205Y-188772518D01*
X103374344Y-188666920D01*
X103329771Y-188580868D01*
X103309211Y-188563863D01*
X103231464Y-188547685D01*
X103169777Y-188595406D01*
X103133653Y-188696283D01*
X103128121Y-188768546D01*
X102935105Y-188768546D01*
X102938826Y-188606381D01*
X102944140Y-188432660D01*
G37*
G36*
X107448533Y-188208868D02*
G01*
X107468359Y-188311066D01*
X107470874Y-188480460D01*
X107468679Y-188548982D01*
X107463153Y-188711283D01*
X107464040Y-188813456D01*
X107474338Y-188870220D01*
X107497048Y-188896296D01*
X107535167Y-188906402D01*
X107541695Y-188907351D01*
X107618493Y-188938899D01*
X107649842Y-188975817D01*
X107649949Y-189046103D01*
X107584532Y-189089233D01*
X107451784Y-189105864D01*
X107305260Y-189101223D01*
X107166838Y-189088859D01*
X107087520Y-189072877D01*
X107051512Y-189047631D01*
X107043018Y-189007474D01*
X107043018Y-189007469D01*
X107067822Y-188946178D01*
X107146042Y-188920689D01*
X107205440Y-188908826D01*
X107236102Y-188877813D01*
X107247484Y-188807957D01*
X107249065Y-188706203D01*
X107249065Y-188503571D01*
X107148947Y-188541636D01*
X107035838Y-188564707D01*
X106967622Y-188533785D01*
X106949360Y-188469491D01*
X106983069Y-188401737D01*
X107040131Y-188374668D01*
X107128597Y-188335481D01*
X107229603Y-188268305D01*
X107246731Y-188254422D01*
X107341565Y-188185650D01*
X107407550Y-188168765D01*
X107448533Y-188208868D01*
G37*
G36*
X99716366Y-188354816D02*
G01*
X99758624Y-188460650D01*
X99774937Y-188545355D01*
X99803934Y-188745227D01*
X99860197Y-188604740D01*
X99919476Y-188504394D01*
X99984948Y-188463857D01*
X100043422Y-188485963D01*
X100078224Y-188557911D01*
X100111300Y-188633810D01*
X100146169Y-188645675D01*
X100167234Y-188592268D01*
X100168534Y-188565072D01*
X100189987Y-188460145D01*
X100243582Y-188385181D01*
X100313172Y-188359628D01*
X100334980Y-188364591D01*
X100374623Y-188393720D01*
X100384967Y-188453051D01*
X100373386Y-188548628D01*
X100333282Y-188731364D01*
X100280190Y-188891794D01*
X100220529Y-189015509D01*
X100160718Y-189088102D01*
X100127204Y-189101127D01*
X100056707Y-189071857D01*
X100032644Y-189035566D01*
X100003358Y-188946208D01*
X99992530Y-188913811D01*
X99969027Y-188896589D01*
X99930449Y-188948014D01*
X99914401Y-188979372D01*
X99847324Y-189072655D01*
X99776591Y-189095666D01*
X99711210Y-189047418D01*
X99686851Y-189004223D01*
X99647740Y-188892559D01*
X99614925Y-188752997D01*
X99591342Y-188606885D01*
X99579926Y-188475570D01*
X99583614Y-188380400D01*
X99596463Y-188347003D01*
X99661096Y-188315582D01*
X99716366Y-188354816D01*
G37*
G36*
X102248428Y-188040563D02*
G01*
X102272092Y-188072112D01*
X102285765Y-188143285D01*
X102293946Y-188269297D01*
X102296143Y-188323767D01*
X102304684Y-188460537D01*
X102317512Y-188562646D01*
X102332177Y-188612080D01*
X102335622Y-188614106D01*
X102376163Y-188589358D01*
X102447558Y-188526322D01*
X102492661Y-188481528D01*
X102598365Y-188395500D01*
X102691779Y-188361084D01*
X102759726Y-188381178D01*
X102781931Y-188417893D01*
X102766624Y-188469921D01*
X102710174Y-188549020D01*
X102668745Y-188593955D01*
X102539980Y-188722720D01*
X102665467Y-188844346D01*
X102759718Y-188952362D01*
X102787272Y-189030370D01*
X102748858Y-189081038D01*
X102732116Y-189088593D01*
X102664909Y-189076473D01*
X102567180Y-189006138D01*
X102533855Y-188975028D01*
X102447403Y-188897566D01*
X102378676Y-188848252D01*
X102354601Y-188838885D01*
X102318464Y-188871030D01*
X102283203Y-188949512D01*
X102279926Y-188960383D01*
X102237033Y-189045978D01*
X102178472Y-189094878D01*
X102123660Y-189094294D01*
X102105757Y-189075104D01*
X102100867Y-189028422D01*
X102099965Y-188921652D01*
X102102892Y-188769518D01*
X102109484Y-188586744D01*
X102111630Y-188539180D01*
X102121872Y-188335759D01*
X102131708Y-188195547D01*
X102143413Y-188106878D01*
X102159263Y-188058082D01*
X102181534Y-188037491D01*
X102210275Y-188033428D01*
X102248428Y-188040563D01*
G37*
G36*
X105109826Y-188366758D02*
G01*
X105189295Y-188433925D01*
X105221435Y-188550793D01*
X105219000Y-188606593D01*
X105186442Y-188684016D01*
X105129291Y-188712006D01*
X105073262Y-188688064D01*
X105045501Y-188623472D01*
X105024509Y-188554743D01*
X104980411Y-188547069D01*
X104905419Y-188592351D01*
X104847653Y-188674210D01*
X104803201Y-188821339D01*
X104795235Y-188863524D01*
X104764781Y-188999290D01*
X104728587Y-189072441D01*
X104692094Y-189094094D01*
X104629197Y-189081478D01*
X104610804Y-189057067D01*
X104601459Y-188998337D01*
X104590403Y-188886014D01*
X104579637Y-188741341D01*
X104576828Y-188695928D01*
X104569847Y-188538295D01*
X104572776Y-188440167D01*
X104587401Y-188386564D01*
X104615514Y-188362507D01*
X104616706Y-188362039D01*
X104684288Y-188369598D01*
X104717729Y-188398202D01*
X104758773Y-188435536D01*
X104813343Y-188425909D01*
X104852798Y-188405616D01*
X104994002Y-188355314D01*
X105109826Y-188366758D01*
G37*
G36*
X105465820Y-188479239D02*
G01*
X105606150Y-188380175D01*
X105753742Y-188349811D01*
X105897020Y-188389870D01*
X105929520Y-188410183D01*
X105997978Y-188492881D01*
X106003580Y-188588690D01*
X105953510Y-188684101D01*
X105854949Y-188765607D01*
X105715081Y-188819700D01*
X105711318Y-188820540D01*
X105633420Y-188847706D01*
X105600690Y-188879102D01*
X105600688Y-188879325D01*
X105631279Y-188907379D01*
X105706336Y-188909367D01*
X105800788Y-188887116D01*
X105861042Y-188860334D01*
X105965382Y-188824297D01*
X106029423Y-188841144D01*
X106044938Y-188896042D01*
X106003701Y-188974160D01*
X105951535Y-189023481D01*
X105807105Y-189093452D01*
X105650688Y-189097798D01*
X105503860Y-189037886D01*
X105447953Y-188991619D01*
X105354950Y-188856647D01*
X105335792Y-188715004D01*
X105358453Y-188655412D01*
X105563225Y-188655412D01*
X105592775Y-188674592D01*
X105667370Y-188662611D01*
X105765923Y-188623533D01*
X105788003Y-188612094D01*
X105823428Y-188583897D01*
X105788995Y-188560461D01*
X105781565Y-188557546D01*
X105705935Y-188554996D01*
X105624390Y-188584967D01*
X105570016Y-188632629D01*
X105563225Y-188655412D01*
X105358453Y-188655412D01*
X105390307Y-188571647D01*
X105465820Y-188479239D01*
G37*
G36*
X79739111Y-185974353D02*
G01*
X79781441Y-186193148D01*
X79794088Y-186286678D01*
X79844306Y-186680413D01*
X80018150Y-186416040D01*
X80139617Y-186252459D01*
X80226397Y-186189389D01*
X80268180Y-186195654D01*
X80295416Y-186242037D01*
X80272355Y-186336847D01*
X80192011Y-186500278D01*
X80116496Y-186634324D01*
X79977451Y-186858241D01*
X79875329Y-186969712D01*
X79798126Y-186967533D01*
X79733836Y-186850507D01*
X79670454Y-186617433D01*
X79664014Y-186589076D01*
X79583872Y-186232555D01*
X79428437Y-186465123D01*
X79319162Y-186601951D01*
X79224177Y-186676214D01*
X79194719Y-186681368D01*
X79170405Y-186643812D01*
X79201192Y-186542330D01*
X79292577Y-186362400D01*
X79362029Y-186239663D01*
X79506751Y-186004360D01*
X79611409Y-185881008D01*
X79685647Y-185870656D01*
X79739111Y-185974353D01*
G37*
G36*
X81241093Y-186806261D02*
G01*
X81294374Y-186964468D01*
X81339426Y-187147427D01*
X81419251Y-187526802D01*
X81565928Y-187278197D01*
X81679102Y-187126577D01*
X81772036Y-187068260D01*
X81826361Y-187102278D01*
X81823702Y-187227661D01*
X81806568Y-187290888D01*
X81733273Y-187453555D01*
X81625042Y-187620506D01*
X81505625Y-187762938D01*
X81398771Y-187852048D01*
X81334296Y-187863666D01*
X81286941Y-187786962D01*
X81232978Y-187627516D01*
X81191837Y-187455792D01*
X81117867Y-187087460D01*
X80978660Y-187328573D01*
X80863041Y-187496960D01*
X80769779Y-187570612D01*
X80710046Y-187541780D01*
X80702344Y-187520290D01*
X80720788Y-187434167D01*
X80788628Y-187289851D01*
X80886893Y-187117599D01*
X80996615Y-186947676D01*
X81098821Y-186810342D01*
X81174543Y-186735861D01*
X81196667Y-186731716D01*
X81241093Y-186806261D01*
G37*
G36*
X78055614Y-185366451D02*
G01*
X78119516Y-185270869D01*
X78166814Y-185200123D01*
X78242711Y-185118435D01*
X78313893Y-185103905D01*
X78410944Y-185139050D01*
X78434643Y-185149815D01*
X78604495Y-185267185D01*
X78668790Y-185406856D01*
X78620368Y-185551520D01*
X78607413Y-185567505D01*
X78545071Y-185672373D01*
X78542300Y-185731277D01*
X78541261Y-185837432D01*
X78455003Y-185937221D01*
X78316373Y-185995461D01*
X78292853Y-185998461D01*
X78123717Y-185981609D01*
X77968208Y-185916842D01*
X77865651Y-185825663D01*
X77846843Y-185754620D01*
X77871663Y-185693491D01*
X78133710Y-185693491D01*
X78142537Y-185767571D01*
X78211439Y-185800556D01*
X78306603Y-185801763D01*
X78329999Y-185770328D01*
X78285746Y-185685454D01*
X78198975Y-185654984D01*
X78133710Y-185693491D01*
X77871663Y-185693491D01*
X77885901Y-185658423D01*
X77930945Y-185576425D01*
X77972362Y-185501033D01*
X77995529Y-185463582D01*
X78302050Y-185463582D01*
X78329983Y-185484182D01*
X78415719Y-185461244D01*
X78426304Y-185447994D01*
X78420960Y-185362636D01*
X78409484Y-185346481D01*
X78346833Y-185344181D01*
X78313162Y-185382671D01*
X78302050Y-185463582D01*
X77995529Y-185463582D01*
X78055614Y-185366451D01*
G37*
G36*
X79082207Y-185702922D02*
G01*
X79248728Y-185656186D01*
X79348659Y-185667353D01*
X79365723Y-185737239D01*
X79345209Y-185782672D01*
X79297356Y-185895211D01*
X79236685Y-186076140D01*
X79201075Y-186197670D01*
X79130195Y-186397054D01*
X79059094Y-186505216D01*
X78998880Y-186514773D01*
X78960654Y-186418340D01*
X78954724Y-186361464D01*
X78907130Y-186210381D01*
X78808148Y-186135769D01*
X78689120Y-186156998D01*
X78660090Y-186179381D01*
X78555139Y-186229672D01*
X78472640Y-186205945D01*
X78452841Y-186127714D01*
X78470357Y-186087380D01*
X78550258Y-186011232D01*
X78614915Y-185965903D01*
X78958757Y-185965903D01*
X78969878Y-186007407D01*
X79011381Y-185996285D01*
X79000261Y-185954783D01*
X78958757Y-185965903D01*
X78614915Y-185965903D01*
X78702718Y-185904347D01*
X78775987Y-185860380D01*
X78865367Y-185806745D01*
X79082207Y-185702922D01*
G37*
G36*
X80691085Y-186558960D02*
G01*
X80812916Y-186524402D01*
X80843791Y-186527983D01*
X80862107Y-186600997D01*
X80842427Y-186750232D01*
X80809133Y-186876344D01*
X80746071Y-187081802D01*
X80693439Y-187258866D01*
X80674710Y-187324981D01*
X80626200Y-187420164D01*
X80548088Y-187409749D01*
X80547643Y-187409492D01*
X80488397Y-187316327D01*
X80490884Y-187236390D01*
X80471484Y-187106834D01*
X80404840Y-187046381D01*
X80269126Y-187023831D01*
X80197265Y-187066869D01*
X80087819Y-187117833D01*
X80019408Y-187104515D01*
X79971216Y-187044433D01*
X80023711Y-186956198D01*
X80036200Y-186943007D01*
X80105658Y-186886784D01*
X80502546Y-186886784D01*
X80519195Y-186901905D01*
X80594839Y-186894644D01*
X80605308Y-186881457D01*
X80616946Y-186819835D01*
X80612484Y-186815434D01*
X80546265Y-186826370D01*
X80526371Y-186835883D01*
X80502546Y-186886784D01*
X80105658Y-186886784D01*
X80157426Y-186844880D01*
X80329526Y-186736577D01*
X80342426Y-186729682D01*
X80518684Y-186635478D01*
X80691085Y-186558960D01*
G37*
G36*
X82136569Y-187474548D02*
G01*
X82176897Y-187452849D01*
X82326520Y-187406464D01*
X82405565Y-187455201D01*
X82403649Y-187591277D01*
X82396211Y-187617230D01*
X82342980Y-187793939D01*
X82286365Y-187990689D01*
X82285965Y-187992117D01*
X82236252Y-188151861D01*
X82193048Y-188262224D01*
X82189164Y-188269517D01*
X82123256Y-188311042D01*
X82056569Y-188267709D01*
X82023812Y-188170894D01*
X82028059Y-188123878D01*
X82008459Y-187998526D01*
X81955569Y-187941694D01*
X81828520Y-187924814D01*
X81738624Y-187956773D01*
X81607598Y-188004153D01*
X81533679Y-187958897D01*
X81524313Y-187911641D01*
X81573235Y-187845056D01*
X81647077Y-187786608D01*
X82073041Y-187786608D01*
X82093622Y-187787513D01*
X82135978Y-187728695D01*
X82134133Y-187717347D01*
X82098677Y-187706508D01*
X82078794Y-187732175D01*
X82073041Y-187786608D01*
X81647077Y-187786608D01*
X81707037Y-187739148D01*
X81886208Y-187620985D01*
X81902540Y-187610214D01*
X82136569Y-187474548D01*
G37*
G36*
X83370276Y-187986650D02*
G01*
X83540731Y-188094511D01*
X83616238Y-188171261D01*
X83614137Y-188232692D01*
X83539441Y-188267824D01*
X83395106Y-188218218D01*
X83367626Y-188203920D01*
X83241973Y-188138294D01*
X83213522Y-188133389D01*
X83272734Y-188191829D01*
X83305072Y-188221118D01*
X83395104Y-188342897D01*
X83389577Y-188433108D01*
X83301671Y-188464134D01*
X83201841Y-188437452D01*
X83078741Y-188409879D01*
X82982933Y-188471558D01*
X82939967Y-188526437D01*
X82828117Y-188638953D01*
X82732643Y-188660565D01*
X82680901Y-188595814D01*
X82701595Y-188517929D01*
X82770538Y-188368507D01*
X82872825Y-188179840D01*
X83080842Y-187819545D01*
X83370276Y-187986650D01*
G37*
G36*
X83700384Y-188404222D02*
G01*
X83741350Y-188385766D01*
X83917449Y-188349583D01*
X84091342Y-188403861D01*
X84126626Y-188423329D01*
X84294262Y-188551985D01*
X84348122Y-188693133D01*
X84295237Y-188872491D01*
X84264803Y-188928671D01*
X84113815Y-189102915D01*
X83926183Y-189199550D01*
X83730879Y-189218612D01*
X83556872Y-189160141D01*
X83433129Y-189024172D01*
X83399248Y-188927552D01*
X83409417Y-188789091D01*
X83597687Y-188789091D01*
X83605225Y-188880091D01*
X83677056Y-189000150D01*
X83810805Y-189023085D01*
X83902008Y-189001091D01*
X84049960Y-188912502D01*
X84114579Y-188792024D01*
X84101209Y-188672626D01*
X84015199Y-188587274D01*
X83861893Y-188568938D01*
X83832775Y-188574145D01*
X83668111Y-188653738D01*
X83597687Y-188789091D01*
X83409417Y-188789091D01*
X83413687Y-188730944D01*
X83510961Y-188563008D01*
X83522101Y-188543775D01*
X83700384Y-188404222D01*
G37*
G36*
X85870353Y-189439344D02*
G01*
X85959334Y-189495000D01*
X86087269Y-189611447D01*
X86098609Y-189702186D01*
X86026341Y-189737810D01*
X85922734Y-189684209D01*
X85803262Y-189623978D01*
X85725812Y-189623140D01*
X85716356Y-189674581D01*
X85790099Y-189734566D01*
X85905840Y-189840600D01*
X85953072Y-189929812D01*
X85986911Y-189997334D01*
X86056351Y-190001722D01*
X86192854Y-189942711D01*
X86222630Y-189927569D01*
X86401900Y-189855475D01*
X86549340Y-189858274D01*
X86666799Y-189903204D01*
X86798487Y-189975427D01*
X86836812Y-190038176D01*
X86807581Y-190114881D01*
X86742441Y-190185859D01*
X86663138Y-190151565D01*
X86635506Y-190126153D01*
X86490534Y-190055658D01*
X86398322Y-190069316D01*
X86230365Y-190155350D01*
X86131043Y-190257840D01*
X86109283Y-190353413D01*
X86174011Y-190418692D01*
X86259184Y-190433632D01*
X86429803Y-190460524D01*
X86486103Y-190526887D01*
X86468849Y-190580052D01*
X86366970Y-190653929D01*
X86221889Y-190651076D01*
X86072687Y-190584197D01*
X85958451Y-190465995D01*
X85930629Y-190405123D01*
X85885131Y-190306015D01*
X85806314Y-190277635D01*
X85717434Y-190282035D01*
X85532776Y-190260130D01*
X85353514Y-190180675D01*
X85226536Y-190068211D01*
X85198061Y-190010212D01*
X85195788Y-189884531D01*
X85210869Y-189842192D01*
X85282077Y-189804170D01*
X85364875Y-189853756D01*
X85411641Y-189944028D01*
X85474970Y-190021514D01*
X85582206Y-190065514D01*
X85681481Y-190063019D01*
X85719843Y-190021337D01*
X85687799Y-189934014D01*
X85607723Y-189853144D01*
X85479096Y-189713603D01*
X85468094Y-189582163D01*
X85574701Y-189469140D01*
X85608317Y-189450566D01*
X85744102Y-189406125D01*
X85870353Y-189439344D01*
G37*
G36*
X87181793Y-190295084D02*
G01*
X87314077Y-190278050D01*
X87363445Y-190343782D01*
X87340846Y-190472016D01*
X87287615Y-190637238D01*
X87223372Y-190840296D01*
X87209843Y-190883531D01*
X87152092Y-191063979D01*
X87113798Y-191152585D01*
X87077925Y-191173432D01*
X87027433Y-191150602D01*
X87022793Y-191147921D01*
X86973061Y-191060772D01*
X86974763Y-190979859D01*
X86955163Y-190854507D01*
X86902272Y-190797675D01*
X86775223Y-190780795D01*
X86685328Y-190812754D01*
X86554069Y-190860185D01*
X86480378Y-190813999D01*
X86470957Y-190765633D01*
X86497932Y-190695386D01*
X86557071Y-190642588D01*
X87019744Y-190642588D01*
X87040326Y-190643493D01*
X87082682Y-190584676D01*
X87080836Y-190573327D01*
X87045380Y-190562489D01*
X87025498Y-190588156D01*
X87019744Y-190642588D01*
X86557071Y-190642588D01*
X86593470Y-190610092D01*
X86773490Y-190497729D01*
X86822461Y-190470932D01*
X86962850Y-190394112D01*
X87181793Y-190295084D01*
G37*
G36*
X87682859Y-190489007D02*
G01*
X87692177Y-190496832D01*
X87728377Y-190554748D01*
X87711793Y-190641299D01*
X87634011Y-190784975D01*
X87583199Y-190865883D01*
X87393050Y-191162849D01*
X87586210Y-191225262D01*
X87726573Y-191265942D01*
X87808367Y-191280999D01*
X87811114Y-191280658D01*
X87861598Y-191231333D01*
X87955601Y-191113061D01*
X88020834Y-191024024D01*
X88198809Y-190774405D01*
X88485934Y-190940176D01*
X88651456Y-191055348D01*
X88719044Y-191141719D01*
X88691733Y-191183835D01*
X88572555Y-191166237D01*
X88451180Y-191117303D01*
X88287893Y-191067715D01*
X88201429Y-191089679D01*
X88205886Y-191161570D01*
X88315360Y-191261761D01*
X88345182Y-191279909D01*
X88471526Y-191375676D01*
X88487611Y-191457804D01*
X88483794Y-191465185D01*
X88410145Y-191500508D01*
X88270890Y-191447325D01*
X88254033Y-191437783D01*
X88107924Y-191376249D01*
X88028757Y-191403383D01*
X88024274Y-191410380D01*
X88030506Y-191491822D01*
X88146192Y-191585828D01*
X88162885Y-191595655D01*
X88289229Y-191691424D01*
X88305314Y-191773551D01*
X88301497Y-191780933D01*
X88228234Y-191802723D01*
X88100857Y-191765694D01*
X87957730Y-191689869D01*
X87837224Y-191595274D01*
X87779172Y-191508338D01*
X87732249Y-191442913D01*
X87686604Y-191454894D01*
X87596492Y-191449262D01*
X87450095Y-191391788D01*
X87384512Y-191356760D01*
X87150808Y-191221831D01*
X87380906Y-190823289D01*
X87500694Y-190621971D01*
X87579953Y-190510683D01*
X87635178Y-190472127D01*
X87682859Y-190489007D01*
G37*
G36*
X84490075Y-188749136D02*
G01*
X84555628Y-188716954D01*
X84630910Y-188733262D01*
X84670746Y-188749920D01*
X84829313Y-188860611D01*
X84921440Y-189006893D01*
X84942689Y-189157851D01*
X84888620Y-189282575D01*
X84756875Y-189349802D01*
X84675074Y-189379149D01*
X84678191Y-189451393D01*
X84701787Y-189505983D01*
X84740139Y-189628594D01*
X84736498Y-189691576D01*
X84671774Y-189712642D01*
X84582397Y-189660741D01*
X84508735Y-189565585D01*
X84490290Y-189510365D01*
X84443954Y-189400046D01*
X84372541Y-189341630D01*
X84311879Y-189359940D01*
X84302349Y-189380149D01*
X84235197Y-189423447D01*
X84172828Y-189416406D01*
X84122935Y-189388296D01*
X84119436Y-189333123D01*
X84169594Y-189226963D01*
X84239155Y-189113569D01*
X84522375Y-189113569D01*
X84596719Y-189189088D01*
X84694472Y-189196167D01*
X84731989Y-189136039D01*
X84718516Y-189032042D01*
X84664054Y-188945423D01*
X84652198Y-188937265D01*
X84577100Y-188952560D01*
X84530216Y-189007172D01*
X84522375Y-189113569D01*
X84239155Y-189113569D01*
X84280673Y-189045888D01*
X84289575Y-189031898D01*
X84367172Y-188913038D01*
X84409606Y-188848040D01*
X84490075Y-188749136D01*
G37*
G36*
X78860548Y-175174226D02*
G01*
X78939086Y-175078700D01*
X79006770Y-175023530D01*
X79075671Y-174992265D01*
X79083174Y-174989794D01*
X79206252Y-174931982D01*
X79241771Y-174847656D01*
X79240214Y-174810025D01*
X79235130Y-174676417D01*
X79235501Y-174479521D01*
X79237867Y-174374240D01*
X79221267Y-174058971D01*
X79161625Y-173686897D01*
X79068980Y-173296672D01*
X78953365Y-172926949D01*
X78824816Y-172616380D01*
X78743990Y-172471965D01*
X78602213Y-172230507D01*
X78543627Y-172040297D01*
X78568869Y-171863395D01*
X78678578Y-171661857D01*
X78759545Y-171547775D01*
X78976871Y-171281491D01*
X79178195Y-171105940D01*
X79394342Y-170999707D01*
X79625969Y-170945827D01*
X80014181Y-170921209D01*
X80377377Y-170981251D01*
X80759134Y-171131947D01*
X80999227Y-171273617D01*
X81125322Y-171414956D01*
X81144343Y-171567742D01*
X81091981Y-171697844D01*
X81051938Y-171820930D01*
X81018373Y-172016863D01*
X80994781Y-172244508D01*
X80984652Y-172462730D01*
X80991483Y-172630392D01*
X81007374Y-172694123D01*
X81025400Y-172790224D01*
X81030406Y-172957754D01*
X81027594Y-173044197D01*
X81034435Y-173288563D01*
X81070803Y-173606016D01*
X81129751Y-173961567D01*
X81204330Y-174320231D01*
X81287594Y-174647021D01*
X81372594Y-174906952D01*
X81417804Y-175009195D01*
X81516358Y-175184060D01*
X81661687Y-175422739D01*
X81842355Y-175708219D01*
X82046929Y-176023488D01*
X82263973Y-176351535D01*
X82482053Y-176675348D01*
X82689733Y-176977915D01*
X82875579Y-177242226D01*
X83028156Y-177451269D01*
X83136030Y-177588030D01*
X83181911Y-177633658D01*
X83238035Y-177694787D01*
X83335634Y-177825124D01*
X83415716Y-177940651D01*
X83546056Y-178122980D01*
X83723841Y-178356610D01*
X83928705Y-178616403D01*
X84140279Y-178877223D01*
X84338200Y-179113929D01*
X84502099Y-179301382D01*
X84604427Y-179407890D01*
X84717827Y-179536687D01*
X84782460Y-179646417D01*
X84845656Y-179742202D01*
X84972528Y-179887855D01*
X85136016Y-180052387D01*
X85141494Y-180057566D01*
X85325271Y-180237432D01*
X85493117Y-180412778D01*
X85601461Y-180536957D01*
X85724174Y-180681375D01*
X85889848Y-180863270D01*
X86008121Y-180987147D01*
X86312370Y-181298884D01*
X86543332Y-181536799D01*
X86713176Y-181713482D01*
X86834068Y-181841524D01*
X86842663Y-181850769D01*
X86967412Y-181969065D01*
X87141143Y-182115205D01*
X87241318Y-182193293D01*
X87421620Y-182342074D01*
X87580259Y-182494376D01*
X87639588Y-182562216D01*
X87822869Y-182755098D01*
X88098977Y-182989035D01*
X88451072Y-183252703D01*
X88862315Y-183534781D01*
X89315867Y-183823946D01*
X89794889Y-184108877D01*
X90282541Y-184378254D01*
X90535251Y-184509085D01*
X91073146Y-184778193D01*
X91549172Y-185011353D01*
X91954879Y-185204642D01*
X92281817Y-185354138D01*
X92521538Y-185455921D01*
X92665592Y-185506068D01*
X92693405Y-185510767D01*
X92799092Y-185534714D01*
X92987492Y-185596337D01*
X93229547Y-185685595D01*
X93433693Y-185766624D01*
X93717872Y-185880774D01*
X93990349Y-185986534D01*
X94213379Y-186069429D01*
X94315202Y-186104601D01*
X94505560Y-186166797D01*
X94759513Y-186250492D01*
X95025397Y-186338657D01*
X95052027Y-186347521D01*
X95466854Y-186485280D01*
X95784563Y-186589585D01*
X96023171Y-186665898D01*
X96200695Y-186719681D01*
X96335149Y-186756395D01*
X96444548Y-186781503D01*
X96544869Y-186800121D01*
X96741178Y-186849428D01*
X96985157Y-186932294D01*
X97167903Y-187006615D01*
X97364782Y-187097032D01*
X97478401Y-187166800D01*
X97536836Y-187243993D01*
X97568164Y-187356683D01*
X97579408Y-187418066D01*
X97596540Y-187619225D01*
X97582501Y-187798829D01*
X97575691Y-187826260D01*
X97548018Y-187998054D01*
X97553186Y-188117445D01*
X97530329Y-188263577D01*
X97429143Y-188469936D01*
X97264458Y-188718707D01*
X97051103Y-188992072D01*
X96803909Y-189272213D01*
X96537704Y-189541315D01*
X96267321Y-189781557D01*
X96007586Y-189975125D01*
X96006242Y-189976009D01*
X95701965Y-190141782D01*
X95307391Y-190306245D01*
X94853540Y-190460889D01*
X94371433Y-190597199D01*
X93892091Y-190706661D01*
X93446532Y-190780764D01*
X93065780Y-190810995D01*
X92966684Y-190810160D01*
X92397496Y-190775164D01*
X91819252Y-190713123D01*
X91258823Y-190628612D01*
X90743085Y-190526209D01*
X90298913Y-190410487D01*
X89995989Y-190304358D01*
X89786483Y-190228817D01*
X89594142Y-190178052D01*
X89512730Y-190166504D01*
X89384238Y-190135753D01*
X89164983Y-190056337D01*
X88871987Y-189935735D01*
X88522272Y-189781430D01*
X88132858Y-189600903D01*
X87720767Y-189401636D01*
X87359317Y-189220012D01*
X86819125Y-188941305D01*
X86361413Y-188700555D01*
X85991435Y-188500665D01*
X85714445Y-188344530D01*
X85535696Y-188235051D01*
X85460441Y-188175126D01*
X85458514Y-188171056D01*
X85403428Y-188118913D01*
X85264173Y-188018410D01*
X85060982Y-187883393D01*
X84814091Y-187727707D01*
X84779953Y-187706740D01*
X84391566Y-187462957D01*
X84013149Y-187214442D01*
X83660611Y-186972620D01*
X83349861Y-186748917D01*
X83096809Y-186554760D01*
X82917364Y-186401573D01*
X82831325Y-186307222D01*
X82735232Y-186198339D01*
X82574047Y-186053854D01*
X82392632Y-185912515D01*
X82186112Y-185753339D01*
X81994391Y-185589569D01*
X81874620Y-185472896D01*
X81725984Y-185318261D01*
X81541956Y-185138176D01*
X81450648Y-185052692D01*
X81049470Y-184658409D01*
X80623657Y-184194343D01*
X80199501Y-183692313D01*
X79803297Y-183184133D01*
X79461335Y-182701624D01*
X79302693Y-182453442D01*
X79095223Y-182110510D01*
X78940156Y-181848257D01*
X78825267Y-181644436D01*
X78738338Y-181476800D01*
X78667147Y-181323101D01*
X78618493Y-181207890D01*
X78520921Y-180977454D01*
X78420030Y-180750602D01*
X78375816Y-180655968D01*
X78311110Y-180487265D01*
X78232090Y-180230904D01*
X78146640Y-179918716D01*
X78062644Y-179582533D01*
X77987981Y-179254184D01*
X77930537Y-178965498D01*
X77898194Y-178748309D01*
X77895420Y-178716101D01*
X77866254Y-178254868D01*
X77851021Y-177909472D01*
X77849612Y-177675036D01*
X77861921Y-177546678D01*
X77869126Y-177526490D01*
X77893511Y-177432251D01*
X77918388Y-177257348D01*
X77935601Y-177073707D01*
X77949125Y-176923287D01*
X77971265Y-176794979D01*
X78011614Y-176665799D01*
X78079765Y-176512764D01*
X78185312Y-176312889D01*
X78241158Y-176214147D01*
X78920007Y-176214147D01*
X78943181Y-176572110D01*
X78994621Y-176972392D01*
X79070995Y-177397028D01*
X79168964Y-177828051D01*
X79285194Y-178247494D01*
X79416348Y-178637393D01*
X79559088Y-178979779D01*
X79710081Y-179256687D01*
X79747582Y-179311974D01*
X79844491Y-179414735D01*
X79939372Y-179426470D01*
X79944328Y-179425202D01*
X80060245Y-179423242D01*
X80143946Y-179465143D01*
X80152769Y-179522693D01*
X80079587Y-179552041D01*
X79987050Y-179552680D01*
X79906174Y-179551748D01*
X79886536Y-179590076D01*
X79926592Y-179694314D01*
X79973351Y-179789086D01*
X80068687Y-179967673D01*
X80200549Y-180201075D01*
X80341488Y-180440774D01*
X80350664Y-180456005D01*
X80469351Y-180659603D01*
X80559180Y-180826879D01*
X80604337Y-180928003D01*
X80606769Y-180939112D01*
X80662616Y-181002626D01*
X80751949Y-181037083D01*
X80839736Y-181070970D01*
X80833438Y-181099405D01*
X80832649Y-181160027D01*
X80887092Y-181280884D01*
X80975581Y-181427713D01*
X81076928Y-181566254D01*
X81169946Y-181662242D01*
X81189909Y-181675861D01*
X81266226Y-181746481D01*
X81382848Y-181882269D01*
X81474318Y-182000334D01*
X81620680Y-182170961D01*
X81771215Y-182305819D01*
X81850452Y-182354948D01*
X82106304Y-182478262D01*
X82272259Y-182580685D01*
X82341389Y-182656151D01*
X82306765Y-182698591D01*
X82250747Y-182705466D01*
X82195834Y-182732873D01*
X82215068Y-182825001D01*
X82243732Y-182885976D01*
X82311318Y-183004941D01*
X82375143Y-183035723D01*
X82484262Y-182999595D01*
X82495147Y-182994990D01*
X82656975Y-182926389D01*
X82891537Y-183351217D01*
X83012641Y-183558017D01*
X83122188Y-183723200D01*
X83200086Y-183816966D01*
X83210991Y-183825058D01*
X83302066Y-183910941D01*
X83320776Y-183946407D01*
X83393305Y-184059084D01*
X83555289Y-184231472D01*
X83809865Y-184466587D01*
X84160170Y-184767448D01*
X84265838Y-184855586D01*
X84501028Y-185053625D01*
X84713008Y-185237271D01*
X84877591Y-185385249D01*
X84967154Y-185472467D01*
X85122878Y-185613229D01*
X85269547Y-185715225D01*
X85426614Y-185823703D01*
X85597384Y-185966235D01*
X85628842Y-185995763D01*
X85723521Y-186071275D01*
X85900946Y-186198392D01*
X86144872Y-186366505D01*
X86439054Y-186565012D01*
X86767248Y-186783301D01*
X87113212Y-187010766D01*
X87460697Y-187236802D01*
X87793463Y-187450800D01*
X88095262Y-187642152D01*
X88349850Y-187800252D01*
X88540985Y-187914493D01*
X88652419Y-187974268D01*
X88667460Y-187979888D01*
X88748056Y-188013851D01*
X88917479Y-188094073D01*
X89156516Y-188211157D01*
X89445958Y-188355710D01*
X89723511Y-188496346D01*
X90136462Y-188704634D01*
X90478830Y-188869991D01*
X90782710Y-189005273D01*
X91080198Y-189123335D01*
X91403387Y-189237033D01*
X91784373Y-189359222D01*
X92177565Y-189479344D01*
X92620789Y-189601113D01*
X93080963Y-189706221D01*
X93538397Y-189792102D01*
X93973405Y-189856192D01*
X94366298Y-189895927D01*
X94697390Y-189908740D01*
X94946992Y-189892068D01*
X95073186Y-189856578D01*
X95226647Y-189814223D01*
X95330577Y-189819016D01*
X95476970Y-189803740D01*
X95621375Y-189706889D01*
X95723152Y-189562104D01*
X95746165Y-189474957D01*
X95780898Y-189348455D01*
X95837751Y-189321826D01*
X95895034Y-189403243D01*
X95935313Y-189459205D01*
X95989162Y-189403047D01*
X95996303Y-189390936D01*
X96065830Y-189312419D01*
X96106440Y-189305600D01*
X96164347Y-189277668D01*
X96268487Y-189185837D01*
X96389470Y-189061344D01*
X96497906Y-188935425D01*
X96564404Y-188839316D01*
X96572419Y-188810351D01*
X96515512Y-188790697D01*
X96465037Y-188794680D01*
X96410056Y-188783144D01*
X96427485Y-188704516D01*
X96465665Y-188629626D01*
X96551700Y-188504853D01*
X96611598Y-188476178D01*
X96630185Y-188547554D01*
X96625619Y-188587941D01*
X96639268Y-188693955D01*
X96705084Y-188708335D01*
X96789102Y-188625192D01*
X96793891Y-188617129D01*
X96829763Y-188513597D01*
X96772482Y-188471942D01*
X96771270Y-188471745D01*
X96716633Y-188448330D01*
X96753551Y-188393277D01*
X96805574Y-188348739D01*
X96894962Y-188238496D01*
X96948972Y-188104002D01*
X96959423Y-187984449D01*
X96918129Y-187919028D01*
X96895982Y-187915754D01*
X96868672Y-187891050D01*
X96908963Y-187848226D01*
X96956590Y-187754679D01*
X96934282Y-187703494D01*
X96909738Y-187594046D01*
X96931039Y-187528864D01*
X96942614Y-187430210D01*
X96856992Y-187353288D01*
X96746624Y-187316132D01*
X96691798Y-187335586D01*
X96633328Y-187347930D01*
X96594434Y-187315157D01*
X96507595Y-187262113D01*
X96337019Y-187194543D01*
X96117249Y-187125872D01*
X96083858Y-187116756D01*
X95809437Y-187035928D01*
X95530890Y-186942214D01*
X95322836Y-186861753D01*
X95148501Y-186794716D01*
X95024803Y-186762205D01*
X94985649Y-186766319D01*
X94920626Y-186771928D01*
X94788126Y-186735968D01*
X94748637Y-186721095D01*
X94444710Y-186607062D01*
X94240377Y-186545917D01*
X94139449Y-186538739D01*
X94130612Y-186545853D01*
X94071606Y-186537883D01*
X93940640Y-186479409D01*
X93807488Y-186406717D01*
X93571820Y-186286399D01*
X93316158Y-186180606D01*
X93204975Y-186143840D01*
X92613020Y-185945222D01*
X91945426Y-185669495D01*
X91198444Y-185314933D01*
X90368324Y-184879813D01*
X89941788Y-184643272D01*
X89351088Y-184305562D01*
X88839448Y-184002903D01*
X88412449Y-183738879D01*
X88075670Y-183517080D01*
X87834693Y-183341094D01*
X87695095Y-183214505D01*
X87672307Y-183184310D01*
X87581954Y-183091992D01*
X87418410Y-182968512D01*
X87215904Y-182839547D01*
X87201559Y-182831211D01*
X86999993Y-182710754D01*
X86885930Y-182627424D01*
X86871093Y-182606536D01*
X86962997Y-182606536D01*
X87009860Y-182644827D01*
X87083701Y-182674559D01*
X87094887Y-182657066D01*
X87031708Y-182603839D01*
X86996422Y-182594677D01*
X86962997Y-182606536D01*
X86871093Y-182606536D01*
X86839306Y-182561785D01*
X86839602Y-182535293D01*
X86840058Y-182494406D01*
X86842795Y-182483746D01*
X86837871Y-182380694D01*
X86743728Y-182288374D01*
X86688765Y-182254485D01*
X86530452Y-182139381D01*
X86359400Y-181981269D01*
X86307752Y-181925424D01*
X86024330Y-181685504D01*
X85859225Y-181604267D01*
X85695445Y-181528451D01*
X85636385Y-181467607D01*
X85641812Y-181439316D01*
X85710531Y-181421396D01*
X85796228Y-181475687D01*
X85889818Y-181539821D01*
X85932531Y-181543433D01*
X85905796Y-181482213D01*
X85811072Y-181377534D01*
X85679382Y-181256411D01*
X85541749Y-181145858D01*
X85429197Y-181072889D01*
X85377395Y-181060040D01*
X85286258Y-181066035D01*
X85164336Y-181035485D01*
X85059948Y-180986112D01*
X85021411Y-180935638D01*
X85023560Y-180930256D01*
X85097230Y-180902208D01*
X85186800Y-180906495D01*
X85254777Y-180908265D01*
X85260206Y-180867376D01*
X85197708Y-180764509D01*
X85116099Y-180652557D01*
X84994904Y-180504946D01*
X84896562Y-180411497D01*
X84853484Y-180392701D01*
X84832766Y-180443416D01*
X84849498Y-180471085D01*
X84862495Y-180527630D01*
X84779526Y-180564767D01*
X84653320Y-180551766D01*
X84568442Y-180466839D01*
X84550956Y-180352174D01*
X84598349Y-180271483D01*
X84649538Y-180191291D01*
X84633481Y-180155708D01*
X84562058Y-180173006D01*
X84518338Y-180225422D01*
X84434540Y-180316839D01*
X84347220Y-180296533D01*
X84249352Y-180161124D01*
X84206334Y-180075381D01*
X84152583Y-179946996D01*
X84145485Y-179896800D01*
X84166654Y-179913357D01*
X84271598Y-179974821D01*
X84328898Y-179964691D01*
X84424607Y-179891549D01*
X84402676Y-179820889D01*
X84326399Y-179767916D01*
X84237902Y-179692803D01*
X84225222Y-179639335D01*
X84204399Y-179572380D01*
X84137386Y-179518025D01*
X84019374Y-179417093D01*
X83913822Y-179283701D01*
X83817967Y-179154311D01*
X83735555Y-179075962D01*
X83688153Y-179005525D01*
X83694926Y-178977928D01*
X83676573Y-178911586D01*
X83628547Y-178880221D01*
X83506458Y-178795313D01*
X83460371Y-178744603D01*
X83340971Y-178671723D01*
X83275099Y-178670527D01*
X83190077Y-178668044D01*
X83193434Y-178631228D01*
X83264321Y-178597286D01*
X83283267Y-178604336D01*
X83333310Y-178590241D01*
X83336856Y-178565109D01*
X83287835Y-178482493D01*
X83206260Y-178419542D01*
X83118015Y-178347363D01*
X83104060Y-178299904D01*
X83083359Y-178234039D01*
X83008321Y-178113946D01*
X82905713Y-177975906D01*
X82802300Y-177856201D01*
X82731124Y-177794394D01*
X82714753Y-177819111D01*
X82740900Y-177903054D01*
X82773844Y-178004424D01*
X82749733Y-178007680D01*
X82676654Y-177917304D01*
X82624259Y-177838375D01*
X82571921Y-177738637D01*
X82580025Y-177708501D01*
X82587987Y-177712185D01*
X82648921Y-177710488D01*
X82655078Y-177685547D01*
X82603559Y-177616329D01*
X82495303Y-177553174D01*
X82361953Y-177470648D01*
X82292422Y-177389646D01*
X82276584Y-177333530D01*
X82330059Y-177368206D01*
X82350819Y-177386779D01*
X82428415Y-177436354D01*
X82452423Y-177418441D01*
X82415622Y-177331078D01*
X82326402Y-177189935D01*
X82212235Y-177032819D01*
X82100594Y-176897536D01*
X82018948Y-176821889D01*
X82018917Y-176821872D01*
X81970665Y-176753871D01*
X81976474Y-176728538D01*
X81960188Y-176653348D01*
X81889237Y-176563539D01*
X81797747Y-176450336D01*
X81679321Y-176271837D01*
X81582115Y-176106466D01*
X81394217Y-175796991D01*
X81226233Y-175580933D01*
X81085280Y-175466448D01*
X81010079Y-175450548D01*
X80902050Y-175445105D01*
X80722367Y-175417747D01*
X80582209Y-175389825D01*
X80303500Y-175344961D01*
X80121582Y-175356300D01*
X80024445Y-175425894D01*
X80002950Y-175488835D01*
X79975617Y-175556570D01*
X79948592Y-175532471D01*
X79874250Y-175506851D01*
X79726089Y-175513000D01*
X79545175Y-175543048D01*
X79372571Y-175589119D01*
X79249343Y-175643347D01*
X79218220Y-175672479D01*
X79154647Y-175721680D01*
X79108830Y-175684466D01*
X79118779Y-175594257D01*
X79121990Y-175587868D01*
X79143322Y-175528528D01*
X79090862Y-175549208D01*
X79053460Y-175573841D01*
X78971811Y-175697046D01*
X78928439Y-175916471D01*
X78920007Y-176214147D01*
X78241158Y-176214147D01*
X78337848Y-176043189D01*
X78439065Y-175867471D01*
X78622611Y-175552161D01*
X78648044Y-175510118D01*
X78759081Y-175326562D01*
X78860548Y-175174226D01*
G37*
G36*
X93279246Y-189357304D02*
G01*
X93307220Y-189426849D01*
X93301488Y-189440310D01*
X93231942Y-189468285D01*
X93218481Y-189462553D01*
X93190506Y-189393007D01*
X93196239Y-189379545D01*
X93265785Y-189351570D01*
X93279246Y-189357304D01*
G37*
G36*
X83101439Y-183340812D02*
G01*
X83157577Y-183409857D01*
X83153098Y-183440803D01*
X83085815Y-183470114D01*
X83073197Y-183464838D01*
X83024011Y-183385437D01*
X83021538Y-183364846D01*
X83059478Y-183326682D01*
X83101439Y-183340812D01*
G37*
G36*
X94150258Y-189734841D02*
G01*
X94154334Y-189745593D01*
X94129048Y-189772707D01*
X94098997Y-189760420D01*
X94066797Y-189716158D01*
X94084168Y-189705082D01*
X94150258Y-189734841D01*
G37*
G36*
X83385486Y-183448510D02*
G01*
X83398083Y-183469687D01*
X83368579Y-183484545D01*
X83313055Y-183457449D01*
X83264324Y-183412178D01*
X83299618Y-183407299D01*
X83385486Y-183448510D01*
G37*
G36*
X94338514Y-189773366D02*
G01*
X94342591Y-189784116D01*
X94317305Y-189811231D01*
X94287252Y-189798944D01*
X94255054Y-189754681D01*
X94272425Y-189743606D01*
X94338514Y-189773366D01*
G37*
G36*
X82982089Y-183061407D02*
G01*
X83038228Y-183130453D01*
X83033749Y-183161398D01*
X82966465Y-183190711D01*
X82953847Y-183185434D01*
X82904661Y-183106033D01*
X82902187Y-183085441D01*
X82940128Y-183047278D01*
X82982089Y-183061407D01*
G37*
G36*
X94573708Y-189788915D02*
G01*
X94532204Y-189800035D01*
X94521083Y-189758532D01*
X94562587Y-189747411D01*
X94573708Y-189788915D01*
G37*
G36*
X95527018Y-189276664D02*
G01*
X95558440Y-189378193D01*
X95503437Y-189515419D01*
X95388784Y-189631439D01*
X95261870Y-189647843D01*
X95158864Y-189568387D01*
X95123521Y-189475956D01*
X95148310Y-189341938D01*
X95264967Y-189256628D01*
X95392157Y-189238845D01*
X95527018Y-189276664D01*
G37*
G36*
X94836498Y-188783721D02*
G01*
X94868186Y-188801192D01*
X94973543Y-188877658D01*
X94980342Y-188948699D01*
X94944542Y-189003150D01*
X94836273Y-189065365D01*
X94708314Y-189055435D01*
X94618934Y-188980947D01*
X94611014Y-188959726D01*
X94624851Y-188861642D01*
X94650950Y-188804409D01*
X94720655Y-188749843D01*
X94836498Y-188783721D01*
G37*
G36*
X95326759Y-188808674D02*
G01*
X95297000Y-188874764D01*
X95286249Y-188878840D01*
X95259134Y-188853554D01*
X95271421Y-188823501D01*
X95315684Y-188791302D01*
X95326759Y-188808674D01*
G37*
G36*
X95847588Y-188735156D02*
G01*
X95920402Y-188835393D01*
X95929163Y-188971453D01*
X95877478Y-189067266D01*
X95768035Y-189092749D01*
X95661649Y-189039204D01*
X95612270Y-188937599D01*
X95613712Y-188915874D01*
X95671170Y-188793640D01*
X95770239Y-188726981D01*
X95847588Y-188735156D01*
G37*
G36*
X95698212Y-188546555D02*
G01*
X95653656Y-188627420D01*
X95552516Y-188707537D01*
X95483138Y-188720016D01*
X95441964Y-188673493D01*
X95486519Y-188592628D01*
X95587659Y-188512510D01*
X95657037Y-188500032D01*
X95698212Y-188546555D01*
G37*
G36*
X96086302Y-188627397D02*
G01*
X96109204Y-188703670D01*
X96106751Y-188713509D01*
X96052986Y-188712606D01*
X96040728Y-188706333D01*
X96013483Y-188636663D01*
X96020280Y-188620220D01*
X96070665Y-188607405D01*
X96086302Y-188627397D01*
G37*
G36*
X87577288Y-183609465D02*
G01*
X87633426Y-183678511D01*
X87628948Y-183709458D01*
X87561665Y-183738769D01*
X87549046Y-183733492D01*
X87499860Y-183654091D01*
X87497387Y-183633501D01*
X87535327Y-183595337D01*
X87577288Y-183609465D01*
G37*
G36*
X88030415Y-183824302D02*
G01*
X88000656Y-183890392D01*
X87989905Y-183894468D01*
X87962791Y-183869181D01*
X87975078Y-183839129D01*
X88019341Y-183806930D01*
X88030415Y-183824302D01*
G37*
G36*
X92065689Y-185990347D02*
G01*
X92132157Y-186078337D01*
X92110172Y-186156362D01*
X92022182Y-186222830D01*
X91944158Y-186200845D01*
X91877690Y-186112855D01*
X91899674Y-186034831D01*
X91987664Y-185968363D01*
X92065689Y-185990347D01*
G37*
G36*
X91915956Y-185763567D02*
G01*
X91943930Y-185833113D01*
X91938198Y-185846574D01*
X91868652Y-185874549D01*
X91855191Y-185868816D01*
X91827216Y-185799271D01*
X91832949Y-185785808D01*
X91902495Y-185757834D01*
X91915956Y-185763567D01*
G37*
G36*
X86135401Y-182285831D02*
G01*
X86198682Y-182348737D01*
X86183955Y-182384029D01*
X86089898Y-182397156D01*
X86074636Y-182391079D01*
X86028482Y-182313633D01*
X86026081Y-182292880D01*
X86066304Y-182261382D01*
X86135401Y-182285831D01*
G37*
G36*
X92275834Y-185915047D02*
G01*
X92288431Y-185936224D01*
X92258928Y-185951081D01*
X92203404Y-185923985D01*
X92154672Y-185878714D01*
X92189967Y-185873836D01*
X92275834Y-185915047D01*
G37*
G36*
X79400554Y-178151883D02*
G01*
X79359051Y-178163004D01*
X79347930Y-178121500D01*
X79389434Y-178110379D01*
X79400554Y-178151883D01*
G37*
G36*
X85134611Y-181216862D02*
G01*
X85166145Y-181286002D01*
X85159958Y-181301661D01*
X85112411Y-181342552D01*
X85106369Y-181340888D01*
X85082730Y-181278072D01*
X85081022Y-181256087D01*
X85113191Y-181210004D01*
X85134611Y-181216862D01*
G37*
G36*
X95445070Y-187064358D02*
G01*
X95403566Y-187075479D01*
X95392446Y-187033976D01*
X95433949Y-187022855D01*
X95445070Y-187064358D01*
G37*
G36*
X85512866Y-181239741D02*
G01*
X85516943Y-181250491D01*
X85491657Y-181277606D01*
X85461605Y-181265320D01*
X85429406Y-181221056D01*
X85446777Y-181209981D01*
X85512866Y-181239741D01*
G37*
G36*
X79368016Y-177560075D02*
G01*
X79338257Y-177626165D01*
X79327506Y-177630241D01*
X79300391Y-177604955D01*
X79312679Y-177574903D01*
X79356941Y-177542704D01*
X79368016Y-177560075D01*
G37*
G36*
X84717811Y-180730641D02*
G01*
X84676308Y-180741762D01*
X84665187Y-180700258D01*
X84706691Y-180689137D01*
X84717811Y-180730641D01*
G37*
G36*
X85063539Y-180708480D02*
G01*
X85033972Y-180790680D01*
X85032584Y-180793093D01*
X84961581Y-180886183D01*
X84923622Y-180862394D01*
X84917002Y-180804447D01*
X84964323Y-180722572D01*
X85007050Y-180702072D01*
X85063539Y-180708480D01*
G37*
G36*
X84086483Y-179629400D02*
G01*
X84118017Y-179698540D01*
X84111831Y-179714201D01*
X84064284Y-179755091D01*
X84058241Y-179753427D01*
X84034603Y-179690611D01*
X84032894Y-179668627D01*
X84065064Y-179622543D01*
X84086483Y-179629400D01*
G37*
G36*
X79182500Y-176342005D02*
G01*
X79140996Y-176353126D01*
X79129876Y-176311623D01*
X79171379Y-176300501D01*
X79182500Y-176342005D01*
G37*
G36*
X83001575Y-178176027D02*
G01*
X83005651Y-178186779D01*
X82980365Y-178213893D01*
X82950313Y-178201606D01*
X82918114Y-178157344D01*
X82935486Y-178146269D01*
X83001575Y-178176027D01*
G37*
G36*
X82208702Y-177177026D02*
G01*
X82167198Y-177188147D01*
X82156077Y-177146643D01*
X82197581Y-177135522D01*
X82208702Y-177177026D01*
G37*
D11*
%TO.C,SW2*%
X345095000Y-112325000D02*
X344795000Y-112025000D01*
X346895000Y-113425000D02*
X335095000Y-113425000D01*
X346895000Y-121525000D02*
X346895000Y-125625000D01*
X344795000Y-112025000D02*
X345095000Y-111725000D01*
X346895000Y-125625000D02*
X344495000Y-125625000D01*
X345095000Y-111725000D02*
X345095000Y-112325000D01*
X335095000Y-125625000D02*
X335095000Y-121525000D01*
X341495000Y-119525000D02*
X340495000Y-119525000D01*
X342295000Y-125625000D02*
X339695000Y-125625000D01*
X346895000Y-117525000D02*
X346895000Y-113425000D01*
X335095000Y-117525000D02*
X335095000Y-113425000D01*
X340995000Y-119025000D02*
X340995000Y-120025000D01*
X337495000Y-125625000D02*
X335095000Y-125625000D01*
X343995000Y-119525000D02*
G75*
G03*
X343995000Y-119525000I-3000000J0D01*
G01*
D12*
%TO.C,U2*%
X346983000Y-168237000D02*
X346983000Y-130237000D01*
X334983000Y-164737000D02*
X346983000Y-164737000D01*
X334983000Y-168237000D02*
X346983000Y-168237000D01*
X346983000Y-130237000D02*
X334983000Y-130237000D01*
X334983000Y-135237000D02*
X346983000Y-135237000D01*
X334983000Y-130237000D02*
X334983000Y-168237000D01*
%TD*%
M02*
