M48
; DRILL file {KiCad (6.0.10)} date Sun Feb 19 18:35:38 2023
; FORMAT={-:-/ absolute / inch / decimal}
; #@! TF.CreationDate,2023-02-19T18:35:38+11:00
; #@! TF.GenerationSoftware,Kicad,Pcbnew,(6.0.10)
; #@! TF.FileFunction,NonPlated,1,2,NPTH
FMAT,2
INCH
; #@! TA.AperFunction,NonPlated,NPTH,ComponentDrill
T1C0.0689
; #@! TA.AperFunction,NonPlated,NPTH,ComponentDrill
T2C0.1200
; #@! TA.AperFunction,NonPlated,NPTH,ComponentDrill
T3C0.1570
%
G90
G05
T1
X3.3312Y-6.2057
X3.425Y-4.7057
X3.5187Y-5.4557
X3.7312Y-6.2057
X3.7375Y-6.9557
X3.825Y-4.7057
X3.9187Y-5.4557
X4.1375Y-6.9557
X4.175Y-6.2057
X4.3625Y-4.7057
X4.55Y-5.4557
X4.575Y-6.2057
X4.5812Y-6.9557
X4.7625Y-4.7057
X4.925Y-6.2057
X4.95Y-5.4557
X4.9813Y-6.9557
X5.1125Y-4.7057
X5.3Y-5.4557
X5.325Y-6.2057
X5.5125Y-4.7057
X5.675Y-6.2057
X5.7Y-5.4557
X5.8625Y-4.7057
X6.05Y-5.4557
X6.075Y-6.2057
X6.2625Y-4.7057
X6.425Y-6.2057
X6.45Y-5.4557
X6.6125Y-4.7057
X6.8Y-5.4557
X6.825Y-6.2057
X7.0125Y-4.7057
X7.175Y-6.2057
X7.2Y-5.4557
X7.3625Y-4.7057
X7.55Y-5.4557
X7.575Y-6.2057
X7.675Y-6.9557
X7.7625Y-4.7057
X7.925Y-6.2057
X7.95Y-5.4557
X8.075Y-6.9557
X8.1125Y-4.7057
X8.3Y-5.4557
X8.325Y-6.2057
X8.5125Y-4.7057
X8.675Y-6.2057
X8.7Y-5.4557
X8.8625Y-4.7057
X9.05Y-5.4557
X9.075Y-6.2057
X9.2625Y-4.7057
X9.425Y-6.2057
X9.45Y-5.4557
X9.6125Y-4.7057
X9.8Y-5.4557
X9.825Y-6.2057
X10.0125Y-4.7057
X10.175Y-6.2057
X10.2Y-5.4557
X10.3625Y-4.7057
X10.55Y-5.4557
X10.575Y-6.2057
X10.675Y-6.9557
X10.7625Y-4.7057
X10.95Y-5.4557
X11.075Y-6.9557
X11.1125Y-4.7057
X11.2062Y-6.2057
X11.5125Y-4.7057
X11.6062Y-6.2057
X11.675Y-7.1432
X11.7687Y-5.4557
X12.05Y-4.7057
X12.075Y-7.1432
X12.1687Y-5.4557
X12.425Y-6.3932
X12.425Y-7.1432
X12.45Y-4.7057
X12.825Y-6.3932
X12.825Y-7.1432
X13.175Y-7.1432
X13.575Y-7.1432
T2
X5.625Y-6.6807
X10.125Y-6.6807
X11.5Y-5.1807
X12.4375Y-5.1807
T3
X3.5312Y-6.2057
X3.625Y-4.7057
X3.7188Y-5.4557
X3.9375Y-6.9557
X4.375Y-6.2057
X4.5625Y-4.7057
X4.75Y-5.4557
X4.7812Y-6.9557
X5.125Y-6.2057
X5.3125Y-4.7057
X5.5Y-5.4557
X5.625Y-7.2807
X5.875Y-6.2057
X6.0625Y-4.7057
X6.25Y-5.4557
X6.625Y-6.2057
X6.8125Y-4.7057
X7.0Y-5.4557
X7.375Y-6.2057
X7.5625Y-4.7057
X7.75Y-5.4557
X7.875Y-6.9557
X8.125Y-6.2057
X8.3125Y-4.7057
X8.5Y-5.4557
X8.875Y-6.2057
X9.0625Y-4.7057
X9.25Y-5.4557
X9.625Y-6.2057
X9.8125Y-4.7057
X10.0Y-5.4557
X10.125Y-7.2807
X10.375Y-6.2057
X10.5625Y-4.7057
X10.75Y-5.4557
X10.875Y-6.9557
X11.3125Y-4.7057
X11.4062Y-6.2057
X11.5Y-5.7807
X11.875Y-7.1432
X11.9688Y-5.4557
X12.25Y-4.7057
X12.4375Y-5.7807
X12.625Y-6.3932
X12.625Y-7.1432
X13.375Y-7.1432
T0
M30
