%TF.GenerationSoftware,KiCad,Pcbnew,(6.0.10)*%
%TF.CreationDate,2023-02-19T17:52:48+11:00*%
%TF.ProjectId,whykb,7768796b-622e-46b6-9963-61645f706362,REV1*%
%TF.SameCoordinates,Original*%
%TF.FileFunction,Copper,L2,Bot*%
%TF.FilePolarity,Positive*%
%FSLAX46Y46*%
G04 Gerber Fmt 4.6, Leading zero omitted, Abs format (unit mm)*
G04 Created by KiCad (PCBNEW (6.0.10)) date 2023-02-19 17:52:48*
%MOMM*%
%LPD*%
G01*
G04 APERTURE LIST*
%TA.AperFunction,ComponentPad*%
%ADD10C,2.250000*%
%TD*%
%TA.AperFunction,ComponentPad*%
%ADD11R,2.000000X2.000000*%
%TD*%
%TA.AperFunction,ComponentPad*%
%ADD12C,2.000000*%
%TD*%
%TA.AperFunction,ComponentPad*%
%ADD13R,1.700000X1.700000*%
%TD*%
%TA.AperFunction,ComponentPad*%
%ADD14O,1.700000X1.700000*%
%TD*%
%TA.AperFunction,SMDPad,CuDef*%
%ADD15R,1.400000X1.200000*%
%TD*%
%TA.AperFunction,ComponentPad*%
%ADD16C,1.524000*%
%TD*%
%TA.AperFunction,Conductor*%
%ADD17C,0.254000*%
%TD*%
%TA.AperFunction,Conductor*%
%ADD18C,0.381000*%
%TD*%
G04 APERTURE END LIST*
D10*
%TO.P,K40,2*%
%TO.N,Net-(D40-Pad2)*%
X202565000Y-171595000D03*
%TO.P,K40,1*%
%TO.N,col6*%
X196215000Y-174135000D03*
%TD*%
%TO.P,K30,1*%
%TO.N,col6*%
X183515000Y-155085000D03*
%TO.P,K30,2*%
%TO.N,Net-(D30-Pad2)*%
X189865000Y-152545000D03*
%TD*%
%TO.P,K22,1*%
%TO.N,col9*%
X116840000Y-136035000D03*
%TO.P,K22,2*%
%TO.N,Net-(D22-Pad2)*%
X123190000Y-133495000D03*
%TD*%
%TO.P,K37,1*%
%TO.N,col1*%
X316865000Y-178897500D03*
%TO.P,K37,2*%
%TO.N,Net-(D37-Pad2)*%
X323215000Y-176357500D03*
%TD*%
%TO.P,K17,1*%
%TO.N,col4*%
X212090000Y-136035000D03*
%TO.P,K17,2*%
%TO.N,Net-(D17-Pad2)*%
X218440000Y-133495000D03*
%TD*%
%TO.P,K1,1*%
%TO.N,col0*%
X307340000Y-116985000D03*
%TO.P,K1,2*%
%TO.N,Net-(D1-Pad2)*%
X313690000Y-114445000D03*
%TD*%
%TO.P,K8,1*%
%TO.N,col7*%
X169227500Y-116985000D03*
%TO.P,K8,2*%
%TO.N,Net-(D8-Pad2)*%
X175577500Y-114445000D03*
%TD*%
%TO.P,K41,1*%
%TO.N,col9*%
X117633750Y-174135000D03*
%TO.P,K41,2*%
%TO.N,Net-(D41-Pad2)*%
X123983750Y-171595000D03*
%TD*%
%TO.P,K13,1*%
%TO.N,col0*%
X300196250Y-136035000D03*
%TO.P,K13,2*%
%TO.N,Net-(D13-Pad2)*%
X306546250Y-133495000D03*
%TD*%
%TO.P,K16,1*%
%TO.N,col3*%
X231140000Y-136035000D03*
%TO.P,K16,2*%
%TO.N,Net-(D16-Pad2)*%
X237490000Y-133495000D03*
%TD*%
%TO.P,K19,1*%
%TO.N,col6*%
X173990000Y-136035000D03*
%TO.P,K19,2*%
%TO.N,Net-(D19-Pad2)*%
X180340000Y-133495000D03*
%TD*%
%TO.P,K9,1*%
%TO.N,col8*%
X150177500Y-116985000D03*
%TO.P,K9,2*%
%TO.N,Net-(D9-Pad2)*%
X156527500Y-114445000D03*
%TD*%
%TO.P,K4,1*%
%TO.N,col3*%
X245427500Y-116985000D03*
%TO.P,K4,2*%
%TO.N,Net-(D4-Pad2)*%
X251777500Y-114445000D03*
%TD*%
%TO.P,K5,1*%
%TO.N,col4*%
X226377500Y-116985000D03*
%TO.P,K5,2*%
%TO.N,Net-(D5-Pad2)*%
X232727500Y-114445000D03*
%TD*%
%TO.P,K26,1*%
%TO.N,col2*%
X259715000Y-155085000D03*
%TO.P,K26,2*%
%TO.N,Net-(D26-Pad2)*%
X266065000Y-152545000D03*
%TD*%
%TO.P,K23,1*%
%TO.N,col11*%
X90646250Y-136035000D03*
%TO.P,K23,2*%
%TO.N,Net-(D23-Pad2)*%
X96996250Y-133495000D03*
%TD*%
%TO.P,K36,1*%
%TO.N,col0*%
X335915000Y-178897500D03*
%TO.P,K36,2*%
%TO.N,Net-(D36-Pad2)*%
X342265000Y-176357500D03*
%TD*%
%TO.P,K35,1*%
%TO.N,col11*%
X85883750Y-155085000D03*
%TO.P,K35,2*%
%TO.N,Net-(D35-Pad2)*%
X92233750Y-152545000D03*
%TD*%
%TO.P,K31,1*%
%TO.N,col7*%
X164465000Y-155085000D03*
%TO.P,K31,2*%
%TO.N,Net-(D31-Pad2)*%
X170815000Y-152545000D03*
%TD*%
%TO.P,K25,1*%
%TO.N,col1*%
X285908750Y-155085000D03*
%TO.P,K25,2*%
%TO.N,Net-(D25-Pad2)*%
X292258750Y-152545000D03*
%TD*%
%TO.P,K7,1*%
%TO.N,col6*%
X188277500Y-116985000D03*
%TO.P,K7,2*%
%TO.N,Net-(D7-Pad2)*%
X194627500Y-114445000D03*
%TD*%
%TO.P,K2,1*%
%TO.N,col1*%
X283527500Y-116985000D03*
%TO.P,K2,2*%
%TO.N,Net-(D2-Pad2)*%
X289877500Y-114445000D03*
%TD*%
%TO.P,K38,1*%
%TO.N,col2*%
X297815000Y-178897500D03*
%TO.P,K38,2*%
%TO.N,Net-(D38-Pad2)*%
X304165000Y-176357500D03*
%TD*%
%TO.P,K14,1*%
%TO.N,col1*%
X269240000Y-136035000D03*
%TO.P,K14,2*%
%TO.N,Net-(D14-Pad2)*%
X275590000Y-133495000D03*
%TD*%
%TO.P,K28,1*%
%TO.N,col4*%
X221615000Y-155085000D03*
%TO.P,K28,2*%
%TO.N,Net-(D28-Pad2)*%
X227965000Y-152545000D03*
%TD*%
%TO.P,K3,1*%
%TO.N,col2*%
X264477500Y-116985000D03*
%TO.P,K3,2*%
%TO.N,Net-(D3-Pad2)*%
X270827500Y-114445000D03*
%TD*%
%TO.P,K33,1*%
%TO.N,col9*%
X126365000Y-155085000D03*
%TO.P,K33,2*%
%TO.N,Net-(D33-Pad2)*%
X132715000Y-152545000D03*
%TD*%
%TO.P,K42,1*%
%TO.N,col10*%
X96202500Y-174135000D03*
%TO.P,K42,2*%
%TO.N,Net-(D42-Pad2)*%
X102552500Y-171595000D03*
%TD*%
%TO.P,K32,1*%
%TO.N,col8*%
X145415000Y-155085000D03*
%TO.P,K32,2*%
%TO.N,Net-(D32-Pad2)*%
X151765000Y-152545000D03*
%TD*%
%TO.P,K20,1*%
%TO.N,col7*%
X154940000Y-136035000D03*
%TO.P,K20,2*%
%TO.N,Net-(D20-Pad2)*%
X161290000Y-133495000D03*
%TD*%
%TO.P,K21,1*%
%TO.N,col8*%
X135890000Y-136035000D03*
%TO.P,K21,2*%
%TO.N,Net-(D21-Pad2)*%
X142240000Y-133495000D03*
%TD*%
%TO.P,K24,1*%
%TO.N,col0*%
X316865000Y-159847500D03*
%TO.P,K24,2*%
%TO.N,Net-(D24-Pad2)*%
X323215000Y-157307500D03*
%TD*%
%TO.P,K11,1*%
%TO.N,col10*%
X112077500Y-116985000D03*
%TO.P,K11,2*%
%TO.N,Net-(D11-Pad2)*%
X118427500Y-114445000D03*
%TD*%
%TO.P,K18,1*%
%TO.N,col5*%
X193040000Y-136035000D03*
%TO.P,K18,2*%
%TO.N,Net-(D18-Pad2)*%
X199390000Y-133495000D03*
%TD*%
%TO.P,K34,1*%
%TO.N,col10*%
X107315000Y-155085000D03*
%TO.P,K34,2*%
%TO.N,Net-(D34-Pad2)*%
X113665000Y-152545000D03*
%TD*%
%TO.P,K29,1*%
%TO.N,col5*%
X202565000Y-155085000D03*
%TO.P,K29,2*%
%TO.N,Net-(D29-Pad2)*%
X208915000Y-152545000D03*
%TD*%
%TO.P,K6,1*%
%TO.N,col5*%
X207327500Y-116985000D03*
%TO.P,K6,2*%
%TO.N,Net-(D6-Pad2)*%
X213677500Y-114445000D03*
%TD*%
%TO.P,K10,1*%
%TO.N,col9*%
X131127500Y-116985000D03*
%TO.P,K10,2*%
%TO.N,Net-(D10-Pad2)*%
X137477500Y-114445000D03*
%TD*%
%TO.P,K12,1*%
%TO.N,col11*%
X88265000Y-116985000D03*
%TO.P,K12,2*%
%TO.N,Net-(D12-Pad2)*%
X94615000Y-114445000D03*
%TD*%
D11*
%TO.P,SW2,A,A*%
%TO.N,outA*%
X343495000Y-112025000D03*
D12*
%TO.P,SW2,B,B*%
%TO.N,outB*%
X338495000Y-112025000D03*
%TO.P,SW2,C,C*%
%TO.N,GND*%
X340995000Y-112025000D03*
%TO.P,SW2,S1,S1*%
%TO.N,D22*%
X338495000Y-126525000D03*
%TO.P,SW2,S2,S2*%
%TO.N,GND*%
X343495000Y-126525000D03*
%TD*%
D10*
%TO.P,K15,1*%
%TO.N,col2*%
X250190000Y-136035000D03*
%TO.P,K15,2*%
%TO.N,Net-(D15-Pad2)*%
X256540000Y-133495000D03*
%TD*%
%TO.P,K39,1*%
%TO.N,col3*%
X272415000Y-174135000D03*
%TO.P,K39,2*%
%TO.N,Net-(D39-Pad2)*%
X278765000Y-171595000D03*
%TD*%
D13*
%TO.P,U2,1,Pin_1*%
%TO.N,GND*%
X337173000Y-131737000D03*
D14*
%TO.P,U2,2,Pin_2*%
%TO.N,VCC*%
X339713000Y-131737000D03*
%TO.P,U2,3,Pin_3*%
%TO.N,SCL*%
X342253000Y-131737000D03*
%TO.P,U2,4,Pin_4*%
%TO.N,SDA*%
X344793000Y-131737000D03*
%TD*%
D10*
%TO.P,K27,1*%
%TO.N,col3*%
X240665000Y-155085000D03*
%TO.P,K27,2*%
%TO.N,Net-(D27-Pad2)*%
X247015000Y-152545000D03*
%TD*%
D15*
%TO.P,D11,1*%
%TO.N,row0*%
X125412500Y-121225000D03*
%TO.P,D11,2*%
%TO.N,Net-(D11-Pad2)*%
X125412500Y-117825000D03*
%TD*%
%TO.P,D15,1*%
%TO.N,row1*%
X263525000Y-140275000D03*
%TO.P,D15,2*%
%TO.N,Net-(D15-Pad2)*%
X263525000Y-136875000D03*
%TD*%
%TO.P,D14,1*%
%TO.N,row1*%
X282575000Y-140275000D03*
%TO.P,D14,2*%
%TO.N,Net-(D14-Pad2)*%
X282575000Y-136875000D03*
%TD*%
%TO.P,D8,1*%
%TO.N,row0*%
X182562500Y-121225000D03*
%TO.P,D8,2*%
%TO.N,Net-(D8-Pad2)*%
X182562500Y-117825000D03*
%TD*%
%TO.P,D7,1*%
%TO.N,row0*%
X201612500Y-121225000D03*
%TO.P,D7,2*%
%TO.N,Net-(D7-Pad2)*%
X201612500Y-117825000D03*
%TD*%
%TO.P,D30,1*%
%TO.N,row2*%
X196850000Y-159325000D03*
%TO.P,D30,2*%
%TO.N,Net-(D30-Pad2)*%
X196850000Y-155925000D03*
%TD*%
%TO.P,D29,1*%
%TO.N,row2*%
X215900000Y-159325000D03*
%TO.P,D29,2*%
%TO.N,Net-(D29-Pad2)*%
X215900000Y-155925000D03*
%TD*%
%TO.P,D18,1*%
%TO.N,row1*%
X206375000Y-140275000D03*
%TO.P,D18,2*%
%TO.N,Net-(D18-Pad2)*%
X206375000Y-136875000D03*
%TD*%
%TO.P,D42,1*%
%TO.N,row3*%
X109537500Y-178375000D03*
%TO.P,D42,2*%
%TO.N,Net-(D42-Pad2)*%
X109537500Y-174975000D03*
%TD*%
%TO.P,D33,1*%
%TO.N,row2*%
X139700000Y-159325000D03*
%TO.P,D33,2*%
%TO.N,Net-(D33-Pad2)*%
X139700000Y-155925000D03*
%TD*%
%TO.P,D35,1*%
%TO.N,row2*%
X101600000Y-159325000D03*
%TO.P,D35,2*%
%TO.N,Net-(D35-Pad2)*%
X101600000Y-155925000D03*
%TD*%
%TO.P,D22,1*%
%TO.N,row1*%
X130175000Y-140275000D03*
%TO.P,D22,2*%
%TO.N,Net-(D22-Pad2)*%
X130175000Y-136875000D03*
%TD*%
%TO.P,D40,1*%
%TO.N,row3*%
X266700000Y-178375000D03*
%TO.P,D40,2*%
%TO.N,Net-(D40-Pad2)*%
X266700000Y-174975000D03*
%TD*%
%TO.P,D23,1*%
%TO.N,row1*%
X111125000Y-140275000D03*
%TO.P,D23,2*%
%TO.N,Net-(D23-Pad2)*%
X111125000Y-136875000D03*
%TD*%
%TO.P,D28,1*%
%TO.N,row2*%
X234950000Y-159325000D03*
%TO.P,D28,2*%
%TO.N,Net-(D28-Pad2)*%
X234950000Y-155925000D03*
%TD*%
%TO.P,D26,1*%
%TO.N,row2*%
X273050000Y-159325000D03*
%TO.P,D26,2*%
%TO.N,Net-(D26-Pad2)*%
X273050000Y-155925000D03*
%TD*%
%TO.P,D13,1*%
%TO.N,row1*%
X325437500Y-140275000D03*
%TO.P,D13,2*%
%TO.N,Net-(D13-Pad2)*%
X325437500Y-136875000D03*
%TD*%
%TO.P,D6,1*%
%TO.N,row0*%
X220662500Y-121225000D03*
%TO.P,D6,2*%
%TO.N,Net-(D6-Pad2)*%
X220662500Y-117825000D03*
%TD*%
%TO.P,D37,1*%
%TO.N,row3*%
X330200000Y-183137500D03*
%TO.P,D37,2*%
%TO.N,Net-(D37-Pad2)*%
X330200000Y-179737500D03*
%TD*%
%TO.P,D31,1*%
%TO.N,row2*%
X177800000Y-159325000D03*
%TO.P,D31,2*%
%TO.N,Net-(D31-Pad2)*%
X177800000Y-155925000D03*
%TD*%
%TO.P,D34,1*%
%TO.N,row2*%
X120650000Y-159325000D03*
%TO.P,D34,2*%
%TO.N,Net-(D34-Pad2)*%
X120650000Y-155925000D03*
%TD*%
%TO.P,D5,1*%
%TO.N,row0*%
X239712500Y-121225000D03*
%TO.P,D5,2*%
%TO.N,Net-(D5-Pad2)*%
X239712500Y-117825000D03*
%TD*%
%TO.P,D20,1*%
%TO.N,row1*%
X168275000Y-140275000D03*
%TO.P,D20,2*%
%TO.N,Net-(D20-Pad2)*%
X168275000Y-136875000D03*
%TD*%
%TO.P,D27,1*%
%TO.N,row2*%
X254000000Y-159325000D03*
%TO.P,D27,2*%
%TO.N,Net-(D27-Pad2)*%
X254000000Y-155925000D03*
%TD*%
D16*
%TO.P,U1,1,D+*%
%TO.N,unconnected-(U1-Pad1)*%
X348615000Y-108095000D03*
%TO.P,U1,2,TX/D0*%
%TO.N,unconnected-(U1-Pad2)*%
X348615000Y-110635000D03*
%TO.P,U1,3,RX/D1*%
%TO.N,unconnected-(U1-Pad3)*%
X348615000Y-113175000D03*
%TO.P,U1,4,GND*%
%TO.N,GND*%
X348615000Y-115715000D03*
%TO.P,U1,5,GND*%
X348615000Y-118255000D03*
%TO.P,U1,6,SDA/D2*%
%TO.N,SCL*%
X348615000Y-120795000D03*
%TO.P,U1,7,SCL/D3*%
%TO.N,SDA*%
X348615000Y-123335000D03*
%TO.P,U1,8,D4*%
%TO.N,row0*%
X348615000Y-125875000D03*
%TO.P,U1,9,D5*%
%TO.N,row3*%
X348615000Y-128415000D03*
%TO.P,U1,10,D6*%
%TO.N,row2*%
X348615000Y-130955000D03*
%TO.P,U1,11,D7*%
%TO.N,row1*%
X348615000Y-133495000D03*
%TO.P,U1,12,D8*%
%TO.N,col1*%
X348615000Y-136035000D03*
%TO.P,U1,13,D9*%
%TO.N,col0*%
X348615000Y-138575000D03*
%TO.P,U1,14,D12*%
%TO.N,col2*%
X346075000Y-138575000D03*
%TO.P,U1,15,D13*%
%TO.N,col3*%
X343535000Y-138575000D03*
%TO.P,U1,16,D14*%
%TO.N,col4*%
X340995000Y-138575000D03*
%TO.P,U1,17,D15*%
%TO.N,col5*%
X338455000Y-138575000D03*
%TO.P,U1,18,D16*%
%TO.N,col6*%
X335915000Y-138575000D03*
%TO.P,U1,19,nCS/D21*%
%TO.N,outB*%
X333375000Y-138575000D03*
%TO.P,U1,20,MOSI/D23*%
%TO.N,outA*%
X333375000Y-136035000D03*
%TO.P,U1,21,MISO/D20*%
%TO.N,col7*%
X333375000Y-133495000D03*
%TO.P,U1,22,SCK/D22*%
%TO.N,D22*%
X333375000Y-130955000D03*
%TO.P,U1,23,ADC0/D26*%
%TO.N,col8*%
X333375000Y-128415000D03*
%TO.P,U1,24,ADC1/D27*%
%TO.N,col9*%
X333375000Y-125875000D03*
%TO.P,U1,25,ADC2/D28*%
%TO.N,col10*%
X333375000Y-123335000D03*
%TO.P,U1,26,ADC3/D29*%
%TO.N,col11*%
X333375000Y-120795000D03*
%TO.P,U1,27,3V3*%
%TO.N,VCC*%
X333375000Y-118255000D03*
%TO.P,U1,28,5V/D25*%
%TO.N,unconnected-(U1-Pad28)*%
X335915000Y-115715000D03*
%TO.P,U1,29,nRST*%
%TO.N,unconnected-(U1-Pad29)*%
X333375000Y-115715000D03*
%TO.P,U1,30,GND*%
%TO.N,GND*%
X333375000Y-113175000D03*
%TO.P,U1,31,RAW*%
%TO.N,unconnected-(U1-Pad31)*%
X333375000Y-110635000D03*
%TO.P,U1,32,D-*%
%TO.N,unconnected-(U1-Pad32)*%
X333375000Y-108095000D03*
%TD*%
D15*
%TO.P,D3,1*%
%TO.N,row0*%
X277812500Y-121225000D03*
%TO.P,D3,2*%
%TO.N,Net-(D3-Pad2)*%
X277812500Y-117825000D03*
%TD*%
%TO.P,D16,1*%
%TO.N,row1*%
X244475000Y-140275000D03*
%TO.P,D16,2*%
%TO.N,Net-(D16-Pad2)*%
X244475000Y-136875000D03*
%TD*%
%TO.P,D4,1*%
%TO.N,row0*%
X258762500Y-121225000D03*
%TO.P,D4,2*%
%TO.N,Net-(D4-Pad2)*%
X258762500Y-117825000D03*
%TD*%
%TO.P,D36,1*%
%TO.N,row3*%
X349250000Y-183137500D03*
%TO.P,D36,2*%
%TO.N,Net-(D36-Pad2)*%
X349250000Y-179737500D03*
%TD*%
%TO.P,D38,1*%
%TO.N,row3*%
X311150000Y-183137500D03*
%TO.P,D38,2*%
%TO.N,Net-(D38-Pad2)*%
X311150000Y-179737500D03*
%TD*%
%TO.P,D25,1*%
%TO.N,row2*%
X306387500Y-159325000D03*
%TO.P,D25,2*%
%TO.N,Net-(D25-Pad2)*%
X306387500Y-155925000D03*
%TD*%
%TO.P,D1,1*%
%TO.N,row0*%
X325437500Y-121225000D03*
%TO.P,D1,2*%
%TO.N,Net-(D1-Pad2)*%
X325437500Y-117825000D03*
%TD*%
%TO.P,D2,1*%
%TO.N,row0*%
X296862500Y-121225000D03*
%TO.P,D2,2*%
%TO.N,Net-(D2-Pad2)*%
X296862500Y-117825000D03*
%TD*%
%TO.P,D21,1*%
%TO.N,row1*%
X149225000Y-140275000D03*
%TO.P,D21,2*%
%TO.N,Net-(D21-Pad2)*%
X149225000Y-136875000D03*
%TD*%
%TO.P,D24,1*%
%TO.N,row2*%
X330200000Y-164087500D03*
%TO.P,D24,2*%
%TO.N,Net-(D24-Pad2)*%
X330200000Y-160687500D03*
%TD*%
%TO.P,D9,1*%
%TO.N,row0*%
X163512500Y-121225000D03*
%TO.P,D9,2*%
%TO.N,Net-(D9-Pad2)*%
X163512500Y-117825000D03*
%TD*%
%TO.P,D41,1*%
%TO.N,row3*%
X133350000Y-178375000D03*
%TO.P,D41,2*%
%TO.N,Net-(D41-Pad2)*%
X133350000Y-174975000D03*
%TD*%
%TO.P,D32,1*%
%TO.N,row2*%
X158750000Y-159325000D03*
%TO.P,D32,2*%
%TO.N,Net-(D32-Pad2)*%
X158750000Y-155925000D03*
%TD*%
%TO.P,D19,1*%
%TO.N,row1*%
X187325000Y-140275000D03*
%TO.P,D19,2*%
%TO.N,Net-(D19-Pad2)*%
X187325000Y-136875000D03*
%TD*%
%TO.P,D39,1*%
%TO.N,row3*%
X285750000Y-178375000D03*
%TO.P,D39,2*%
%TO.N,Net-(D39-Pad2)*%
X285750000Y-174975000D03*
%TD*%
%TO.P,D12,1*%
%TO.N,row0*%
X106362500Y-121225000D03*
%TO.P,D12,2*%
%TO.N,Net-(D12-Pad2)*%
X106362500Y-117825000D03*
%TD*%
%TO.P,D17,1*%
%TO.N,row1*%
X225425000Y-140275000D03*
%TO.P,D17,2*%
%TO.N,Net-(D17-Pad2)*%
X225425000Y-136875000D03*
%TD*%
%TO.P,D10,1*%
%TO.N,row0*%
X144462500Y-121225000D03*
%TO.P,D10,2*%
%TO.N,Net-(D10-Pad2)*%
X144462500Y-117825000D03*
%TD*%
D17*
%TO.N,Net-(D1-Pad2)*%
X324257500Y-114445000D02*
X325437500Y-115625000D01*
X325437500Y-115625000D02*
X325437500Y-117825000D01*
X313690000Y-114445000D02*
X324257500Y-114445000D01*
%TO.N,row0*%
X182562500Y-121225000D02*
X184762500Y-123425000D01*
X329692000Y-107442000D02*
X331724000Y-105410000D01*
X351790000Y-122700000D02*
X348615000Y-125875000D01*
X331724000Y-105410000D02*
X350012000Y-105410000D01*
X222862500Y-123425000D02*
X237512500Y-123425000D01*
X280012500Y-123425000D02*
X294662500Y-123425000D01*
X241912500Y-123425000D02*
X256562500Y-123425000D01*
X163512500Y-121225000D02*
X165712500Y-123425000D01*
X256562500Y-123425000D02*
X258762500Y-121225000D01*
X127612500Y-123425000D02*
X142262500Y-123425000D01*
X146662500Y-123425000D02*
X161312500Y-123425000D01*
X275612500Y-123425000D02*
X277812500Y-121225000D01*
X144462500Y-121225000D02*
X146662500Y-123425000D01*
X220662500Y-121225000D02*
X222862500Y-123425000D01*
X351790000Y-107188000D02*
X351790000Y-122700000D01*
X299062500Y-123425000D02*
X323361000Y-123425000D01*
X294662500Y-123425000D02*
X296862500Y-121225000D01*
X184762500Y-123425000D02*
X199412500Y-123425000D01*
X277812500Y-121225000D02*
X280012500Y-123425000D01*
X201612500Y-121225000D02*
X203812500Y-123425000D01*
X180362500Y-123425000D02*
X182562500Y-121225000D01*
X296862500Y-121225000D02*
X299062500Y-123425000D01*
X125412500Y-121225000D02*
X127612500Y-123425000D01*
X165712500Y-123425000D02*
X180362500Y-123425000D01*
X142262500Y-123425000D02*
X144462500Y-121225000D01*
X239712500Y-121225000D02*
X241912500Y-123425000D01*
X350012000Y-105410000D02*
X351790000Y-107188000D01*
X323361000Y-123425000D02*
X325437500Y-121348500D01*
X108562500Y-123425000D02*
X123171000Y-123425000D01*
X260962500Y-123425000D02*
X275612500Y-123425000D01*
X106362500Y-121225000D02*
X108562500Y-123425000D01*
X199412500Y-123425000D02*
X201612500Y-121225000D01*
X237512500Y-123425000D02*
X239712500Y-121225000D01*
X203812500Y-123425000D02*
X218462500Y-123425000D01*
X329692000Y-116840000D02*
X329692000Y-107442000D01*
X325437500Y-121094500D02*
X329692000Y-116840000D01*
X161312500Y-123425000D02*
X163512500Y-121225000D01*
X325437500Y-121348500D02*
X325437500Y-121100000D01*
X125412500Y-121225000D02*
X123212500Y-123425000D01*
X258762500Y-121225000D02*
X260962500Y-123425000D01*
X218462500Y-123425000D02*
X220662500Y-121225000D01*
%TO.N,Net-(D2-Pad2)*%
X295682500Y-114445000D02*
X296862500Y-115625000D01*
X296862500Y-115625000D02*
X296862500Y-117825000D01*
X289877500Y-114445000D02*
X295682500Y-114445000D01*
%TO.N,Net-(D3-Pad2)*%
X270827500Y-114445000D02*
X276632500Y-114445000D01*
X276632500Y-114445000D02*
X277812500Y-115625000D01*
X277812500Y-117825000D02*
X277812500Y-115625000D01*
%TO.N,Net-(D4-Pad2)*%
X258762500Y-117825000D02*
X258762500Y-115625000D01*
X257582500Y-114445000D02*
X258762500Y-115625000D01*
X251777500Y-114445000D02*
X257582500Y-114445000D01*
%TO.N,Net-(D5-Pad2)*%
X239712500Y-117825000D02*
X239712500Y-115625000D01*
X238532500Y-114445000D02*
X239712500Y-115625000D01*
X232727500Y-114445000D02*
X238532500Y-114445000D01*
%TO.N,Net-(D6-Pad2)*%
X220662500Y-117825000D02*
X220662500Y-115625000D01*
X219482500Y-114445000D02*
X220662500Y-115625000D01*
X213677500Y-114445000D02*
X219482500Y-114445000D01*
%TO.N,Net-(D7-Pad2)*%
X201612500Y-115625000D02*
X201612500Y-117825000D01*
X200432500Y-114445000D02*
X201612500Y-115625000D01*
X194627500Y-114445000D02*
X200432500Y-114445000D01*
%TO.N,Net-(D8-Pad2)*%
X182562500Y-115625000D02*
X182562500Y-117825000D01*
X181382500Y-114445000D02*
X182562500Y-115625000D01*
X175577500Y-114445000D02*
X181382500Y-114445000D01*
%TO.N,Net-(D9-Pad2)*%
X162332500Y-114445000D02*
X163512500Y-115625000D01*
X163512500Y-115625000D02*
X163512500Y-117825000D01*
X156527500Y-114445000D02*
X162332500Y-114445000D01*
%TO.N,Net-(D10-Pad2)*%
X144462500Y-115625000D02*
X144462500Y-117825000D01*
X143282500Y-114445000D02*
X144462500Y-115625000D01*
X137477500Y-114445000D02*
X143282500Y-114445000D01*
%TO.N,Net-(D11-Pad2)*%
X125412500Y-115625000D02*
X125412500Y-117825000D01*
X118427500Y-114445000D02*
X124232500Y-114445000D01*
X124232500Y-114445000D02*
X125412500Y-115625000D01*
%TO.N,Net-(D12-Pad2)*%
X105182500Y-114445000D02*
X106362500Y-115625000D01*
X94615000Y-114445000D02*
X105182500Y-114445000D01*
X106362500Y-115625000D02*
X106362500Y-117825000D01*
%TO.N,Net-(D13-Pad2)*%
X325437500Y-135627500D02*
X325437500Y-136875000D01*
X315015000Y-134675000D02*
X324485000Y-134675000D01*
X324485000Y-134675000D02*
X325437500Y-135627500D01*
X313835000Y-133495000D02*
X315015000Y-134675000D01*
X306546250Y-133495000D02*
X313835000Y-133495000D01*
%TO.N,row1*%
X246675000Y-142475000D02*
X261325000Y-142475000D01*
X189525000Y-142475000D02*
X204175000Y-142475000D01*
X170475000Y-142475000D02*
X185125000Y-142475000D01*
X204175000Y-142475000D02*
X206375000Y-140275000D01*
X147025000Y-142475000D02*
X132315000Y-142475000D01*
X261325000Y-142475000D02*
X263525000Y-140275000D01*
X132315000Y-142475000D02*
X130175000Y-140335000D01*
X284775000Y-142475000D02*
X323107000Y-142475000D01*
X242275000Y-142475000D02*
X244475000Y-140275000D01*
X208575000Y-142475000D02*
X223225000Y-142475000D01*
X206375000Y-140275000D02*
X208575000Y-142475000D01*
X130175000Y-140275000D02*
X127975000Y-142475000D01*
X349689000Y-140150000D02*
X350266000Y-139573000D01*
X149225000Y-140275000D02*
X151425000Y-142475000D01*
X223225000Y-142475000D02*
X225425000Y-140275000D01*
X280375000Y-142475000D02*
X282575000Y-140275000D01*
X350266000Y-135146000D02*
X348615000Y-133495000D01*
X263525000Y-140275000D02*
X265725000Y-142475000D01*
X227625000Y-142475000D02*
X242275000Y-142475000D01*
X350266000Y-139573000D02*
X350266000Y-135146000D01*
X225425000Y-140275000D02*
X227625000Y-142475000D01*
X149225000Y-140275000D02*
X147025000Y-142475000D01*
X244475000Y-140275000D02*
X246675000Y-142475000D01*
X282575000Y-140275000D02*
X284775000Y-142475000D01*
X127975000Y-142475000D02*
X113325000Y-142475000D01*
X113325000Y-142475000D02*
X111125000Y-140275000D01*
X325432000Y-140150000D02*
X349689000Y-140150000D01*
X187325000Y-140275000D02*
X189525000Y-142475000D01*
X151425000Y-142475000D02*
X166075000Y-142475000D01*
X265725000Y-142475000D02*
X280375000Y-142475000D01*
X166075000Y-142475000D02*
X168275000Y-140275000D01*
X168275000Y-140275000D02*
X170475000Y-142475000D01*
X130175000Y-140335000D02*
X130175000Y-140275000D01*
X323107000Y-142475000D02*
X325432000Y-140150000D01*
X185125000Y-142475000D02*
X187325000Y-140275000D01*
%TO.N,Net-(D14-Pad2)*%
X275590000Y-133495000D02*
X281395000Y-133495000D01*
X282575000Y-134675000D02*
X282575000Y-136875000D01*
X281395000Y-133495000D02*
X282575000Y-134675000D01*
%TO.N,Net-(D15-Pad2)*%
X262345000Y-133495000D02*
X263525000Y-134675000D01*
X263525000Y-134675000D02*
X263525000Y-136875000D01*
X256540000Y-133495000D02*
X262345000Y-133495000D01*
%TO.N,Net-(D16-Pad2)*%
X237490000Y-133495000D02*
X243295000Y-133495000D01*
X243295000Y-133495000D02*
X244475000Y-134675000D01*
X244475000Y-136875000D02*
X244475000Y-134620000D01*
%TO.N,Net-(D17-Pad2)*%
X218440000Y-133495000D02*
X224245000Y-133495000D01*
X225425000Y-134675000D02*
X225425000Y-136875000D01*
X224245000Y-133495000D02*
X225425000Y-134675000D01*
%TO.N,Net-(D18-Pad2)*%
X205195000Y-133495000D02*
X206375000Y-134675000D01*
X206375000Y-134675000D02*
X206375000Y-136875000D01*
X199390000Y-133495000D02*
X205195000Y-133495000D01*
%TO.N,Net-(D19-Pad2)*%
X180340000Y-133495000D02*
X186145000Y-133495000D01*
X187325000Y-136875000D02*
X187325000Y-134675000D01*
X186145000Y-133495000D02*
X187325000Y-134675000D01*
%TO.N,Net-(D20-Pad2)*%
X167095000Y-133495000D02*
X168275000Y-134675000D01*
X168275000Y-136875000D02*
X168275000Y-134675000D01*
X161290000Y-133495000D02*
X167095000Y-133495000D01*
%TO.N,Net-(D21-Pad2)*%
X149225000Y-136875000D02*
X149225000Y-134675000D01*
X142240000Y-133495000D02*
X148045000Y-133495000D01*
X148045000Y-133495000D02*
X149225000Y-134675000D01*
%TO.N,Net-(D22-Pad2)*%
X123190000Y-133495000D02*
X128995000Y-133495000D01*
X130175000Y-136875000D02*
X130175000Y-134675000D01*
X128995000Y-133495000D02*
X130175000Y-134675000D01*
%TO.N,Net-(D23-Pad2)*%
X111125000Y-136875000D02*
X111125000Y-134675000D01*
X109945000Y-133495000D02*
X111125000Y-134675000D01*
X96996250Y-133495000D02*
X109945000Y-133495000D01*
%TO.N,Net-(D24-Pad2)*%
X323215000Y-157307500D02*
X329020000Y-157307500D01*
X330200000Y-158487500D02*
X330200000Y-160687500D01*
X329020000Y-157307500D02*
X330200000Y-158487500D01*
%TO.N,row2*%
X335788000Y-140843000D02*
X335026000Y-141605000D01*
X120650000Y-159325000D02*
X120755000Y-159325000D01*
X196850000Y-159325000D02*
X196850000Y-159385000D01*
X215900000Y-159385000D02*
X218040000Y-161525000D01*
X122955000Y-161525000D02*
X137560000Y-161525000D01*
X196850000Y-159385000D02*
X194710000Y-161525000D01*
X139700000Y-159325000D02*
X139700000Y-159385000D01*
X198990000Y-161525000D02*
X213595000Y-161525000D01*
X327831500Y-166287500D02*
X327875000Y-166287500D01*
X348615000Y-130955000D02*
X351028000Y-133368000D01*
X270850000Y-161525000D02*
X273050000Y-159325000D01*
X101600000Y-159385000D02*
X103740000Y-161525000D01*
X158750000Y-159325000D02*
X158645000Y-159325000D01*
X254000000Y-159325000D02*
X256200000Y-161525000D01*
X234950000Y-159325000D02*
X237150000Y-161525000D01*
X160890000Y-161525000D02*
X175660000Y-161525000D01*
X303765000Y-161525000D02*
X305965000Y-159325000D01*
X251800000Y-161525000D02*
X254000000Y-159325000D01*
X237150000Y-161525000D02*
X251800000Y-161525000D01*
X120650000Y-159325000D02*
X120650000Y-159385000D01*
X215900000Y-159325000D02*
X215795000Y-159325000D01*
X196850000Y-159385000D02*
X198990000Y-161525000D01*
X158750000Y-159385000D02*
X160890000Y-161525000D01*
X314407500Y-166287500D02*
X327831500Y-166287500D01*
X103740000Y-161525000D02*
X118510000Y-161525000D01*
X139700000Y-159385000D02*
X137560000Y-161525000D01*
X256200000Y-161525000D02*
X270850000Y-161525000D01*
X350012000Y-140843000D02*
X335788000Y-140843000D01*
X120755000Y-159325000D02*
X122955000Y-161525000D01*
X306387500Y-159325000D02*
X307445000Y-159325000D01*
X335026000Y-141605000D02*
X335026000Y-159136500D01*
X215900000Y-159325000D02*
X215900000Y-159385000D01*
X120650000Y-159385000D02*
X118510000Y-161525000D01*
X351028000Y-139827000D02*
X350012000Y-140843000D01*
X177800000Y-159325000D02*
X177800000Y-159385000D01*
X218040000Y-161525000D02*
X232750000Y-161525000D01*
X177800000Y-159385000D02*
X175660000Y-161525000D01*
X327875000Y-166287500D02*
X330200000Y-163962500D01*
X101600000Y-159325000D02*
X101600000Y-159385000D01*
X351028000Y-133731000D02*
X351028000Y-139827000D01*
X177800000Y-159385000D02*
X179940000Y-161525000D01*
X158750000Y-159325000D02*
X158750000Y-159385000D01*
X335026000Y-159136500D02*
X330200000Y-163962500D01*
X273050000Y-159325000D02*
X275250000Y-161525000D01*
X305965000Y-159325000D02*
X306387500Y-159325000D01*
X307445000Y-159325000D02*
X314407500Y-166287500D01*
X179940000Y-161525000D02*
X194710000Y-161525000D01*
X351028000Y-133368000D02*
X351028000Y-133731000D01*
X215795000Y-159325000D02*
X213595000Y-161525000D01*
X141840000Y-161525000D02*
X156445000Y-161525000D01*
X139700000Y-159385000D02*
X141840000Y-161525000D01*
X158645000Y-159325000D02*
X156445000Y-161525000D01*
X232750000Y-161525000D02*
X234950000Y-159325000D01*
X275250000Y-161525000D02*
X303765000Y-161525000D01*
%TO.N,Net-(D25-Pad2)*%
X305207500Y-152545000D02*
X306387500Y-153725000D01*
X292258750Y-152545000D02*
X305207500Y-152545000D01*
X306387500Y-153725000D02*
X306387500Y-155925000D01*
%TO.N,Net-(D26-Pad2)*%
X266065000Y-152545000D02*
X271870000Y-152545000D01*
X273050000Y-155925000D02*
X273050000Y-153725000D01*
X271870000Y-152545000D02*
X273050000Y-153725000D01*
%TO.N,Net-(D27-Pad2)*%
X247015000Y-152545000D02*
X252820000Y-152545000D01*
X254000000Y-155925000D02*
X254000000Y-153725000D01*
X252820000Y-152545000D02*
X254000000Y-153725000D01*
%TO.N,Net-(D28-Pad2)*%
X227965000Y-152545000D02*
X233770000Y-152545000D01*
X234950000Y-153725000D02*
X234950000Y-155925000D01*
X233770000Y-152545000D02*
X234950000Y-153725000D01*
%TO.N,Net-(D29-Pad2)*%
X208915000Y-152545000D02*
X214720000Y-152545000D01*
X215900000Y-153725000D02*
X215900000Y-155925000D01*
X214720000Y-152545000D02*
X215900000Y-153725000D01*
%TO.N,Net-(D30-Pad2)*%
X196850000Y-153725000D02*
X196850000Y-155925000D01*
X189865000Y-152545000D02*
X195670000Y-152545000D01*
X195670000Y-152545000D02*
X196850000Y-153725000D01*
%TO.N,Net-(D31-Pad2)*%
X176620000Y-152545000D02*
X177800000Y-153725000D01*
X177800000Y-153725000D02*
X177800000Y-155925000D01*
X170815000Y-152545000D02*
X176620000Y-152545000D01*
%TO.N,Net-(D32-Pad2)*%
X151765000Y-152545000D02*
X157570000Y-152545000D01*
X157570000Y-152545000D02*
X158750000Y-153725000D01*
X158750000Y-153725000D02*
X158750000Y-155925000D01*
%TO.N,Net-(D33-Pad2)*%
X138520000Y-152545000D02*
X139700000Y-153725000D01*
X139700000Y-153725000D02*
X139700000Y-155925000D01*
X132715000Y-152545000D02*
X138520000Y-152545000D01*
%TO.N,Net-(D34-Pad2)*%
X120650000Y-155925000D02*
X120650000Y-153670000D01*
X113665000Y-152545000D02*
X119470000Y-152545000D01*
X119470000Y-152545000D02*
X120650000Y-153725000D01*
%TO.N,Net-(D35-Pad2)*%
X100420000Y-152545000D02*
X101600000Y-153725000D01*
X101600000Y-155925000D02*
X101600000Y-153725000D01*
X92233750Y-152545000D02*
X100420000Y-152545000D01*
%TO.N,Net-(D36-Pad2)*%
X349250000Y-177537500D02*
X348070000Y-176357500D01*
X349250000Y-179737500D02*
X349250000Y-177537500D01*
X348070000Y-176357500D02*
X342265000Y-176357500D01*
%TO.N,row3*%
X346925000Y-185337500D02*
X332740000Y-185337500D01*
X109537500Y-178587500D02*
X111525000Y-180575000D01*
X311150000Y-183137500D02*
X311407500Y-183137500D01*
X308950000Y-185337500D02*
X311150000Y-183137500D01*
X288055000Y-180575000D02*
X293401800Y-180575000D01*
X330540000Y-183137500D02*
X332740000Y-185337500D01*
X131150000Y-180575000D02*
X131045000Y-180575000D01*
X348615000Y-128415000D02*
X351790000Y-131590000D01*
X351790000Y-131590000D02*
X351790000Y-140208000D01*
X350329400Y-141668600D02*
X350329400Y-181933100D01*
X313607500Y-185337500D02*
X327742500Y-185337500D01*
X133350000Y-178375000D02*
X135550000Y-180575000D01*
X329942500Y-183137500D02*
X327742500Y-185337500D01*
X311407500Y-183137500D02*
X313607500Y-185337500D01*
X283550000Y-180575000D02*
X285750000Y-178375000D01*
X298176900Y-185337500D02*
X308950000Y-185337500D01*
X330200000Y-183137500D02*
X330540000Y-183137500D01*
X350329400Y-181933100D02*
X346925000Y-185337500D01*
X266700000Y-178375000D02*
X268900000Y-180575000D01*
X285855000Y-178375000D02*
X288055000Y-180575000D01*
X266595000Y-178375000D02*
X266700000Y-178375000D01*
X298170600Y-185343800D02*
X298176900Y-185337500D01*
X264395000Y-180575000D02*
X266595000Y-178375000D01*
X351790000Y-140208000D02*
X350329400Y-141668600D01*
X135550000Y-180575000D02*
X264395000Y-180575000D01*
X109537500Y-178375000D02*
X109537500Y-178587500D01*
X293401800Y-180575000D02*
X298170600Y-185343800D01*
X133350000Y-178375000D02*
X131150000Y-180575000D01*
X268900000Y-180575000D02*
X283550000Y-180575000D01*
X131045000Y-180575000D02*
X111525000Y-180575000D01*
X330200000Y-183137500D02*
X329942500Y-183137500D01*
X285750000Y-178375000D02*
X285855000Y-178375000D01*
%TO.N,Net-(D37-Pad2)*%
X330200000Y-177537500D02*
X330200000Y-179737500D01*
X323215000Y-176357500D02*
X329020000Y-176357500D01*
X329020000Y-176357500D02*
X330200000Y-177537500D01*
%TO.N,Net-(D38-Pad2)*%
X309970000Y-176357500D02*
X311150000Y-177537500D01*
X311150000Y-177537500D02*
X311150000Y-179737500D01*
X304165000Y-176357500D02*
X309970000Y-176357500D01*
%TO.N,Net-(D39-Pad2)*%
X278765000Y-171595000D02*
X284570000Y-171595000D01*
X285750000Y-172775000D02*
X285750000Y-174975000D01*
X284570000Y-171595000D02*
X285750000Y-172775000D01*
%TO.N,Net-(D40-Pad2)*%
X266700000Y-173482000D02*
X265993000Y-172775000D01*
X203745000Y-172775000D02*
X202565000Y-171595000D01*
X265993000Y-172775000D02*
X203745000Y-172775000D01*
X266700000Y-174975000D02*
X266700000Y-173482000D01*
%TO.N,Net-(D41-Pad2)*%
X132170000Y-171595000D02*
X133350000Y-172775000D01*
X133350000Y-172775000D02*
X133350000Y-174975000D01*
X123983750Y-171595000D02*
X132170000Y-171595000D01*
%TO.N,Net-(D42-Pad2)*%
X109537500Y-172775000D02*
X109537500Y-174975000D01*
X102552500Y-171595000D02*
X108357500Y-171595000D01*
X108357500Y-171595000D02*
X109537500Y-172775000D01*
D18*
%TO.N,VCC*%
X336296000Y-121176000D02*
X336296000Y-128320000D01*
X333375000Y-118255000D02*
X336296000Y-121176000D01*
X336296000Y-128320000D02*
X339713000Y-131737000D01*
%TO.N,outB*%
X330708000Y-107696000D02*
X331978000Y-106426000D01*
X333375000Y-138575000D02*
X330708000Y-135908000D01*
X338495000Y-107609000D02*
X338495000Y-112025000D01*
X331978000Y-106426000D02*
X337312000Y-106426000D01*
X330708000Y-135908000D02*
X330708000Y-107696000D01*
X337312000Y-106426000D02*
X338495000Y-107609000D01*
%TD*%
M02*
